<?xml version="1.0" encoding="utf-8" standalone="no"?>
<!DOCTYPE svg PUBLIC "-//W3C//DTD SVG 1.1//EN"
  "http://www.w3.org/Graphics/SVG/1.1/DTD/svg11.dtd">
<svg xmlns:xlink="http://www.w3.org/1999/xlink" width="720pt" height="432pt" viewBox="0 0 720 432" xmlns="http://www.w3.org/2000/svg" version="1.1">
 <metadata>
  <rdf:RDF xmlns:dc="http://purl.org/dc/elements/1.1/" xmlns:cc="http://creativecommons.org/ns#" xmlns:rdf="http://www.w3.org/1999/02/22-rdf-syntax-ns#">
   <cc:Work>
    <dc:type rdf:resource="http://purl.org/dc/dcmitype/StillImage"/>
    <dc:date>2025-03-07T11:34:34.696599</dc:date>
    <dc:format>image/svg+xml</dc:format>
    <dc:creator>
     <cc:Agent>
      <dc:title>Matplotlib v3.10.0, https://matplotlib.org/</dc:title>
     </cc:Agent>
    </dc:creator>
   </cc:Work>
  </rdf:RDF>
 </metadata>
 <defs>
  <style type="text/css">*{stroke-linejoin: round; stroke-linecap: butt}</style>
 </defs>
 <g id="figure_1">
  <g id="patch_1">
   <path d="M 0 432 
L 720 432 
L 720 0 
L 0 0 
z
" style="fill: #ffffff"/>
  </g>
  <g id="axes_1">
   <g id="patch_2">
    <path d="M 90 384.48 
L 648 384.48 
L 648 51.84 
L 90 51.84 
z
" style="fill: #ffffff"/>
   </g>
   <g id="patch_3">
    <path d="M 115.363636 134599.154772 
L 122.823529 134599.154772 
L 122.823529 163.789899 
L 115.363636 163.789899 
z
" clip-path="url(#pe9c1b2f142)" style="fill: #0000ff; stroke: #000000; stroke-linejoin: miter"/>
   </g>
   <g id="patch_4">
    <path d="M 122.823529 134599.154772 
L 130.283422 134599.154772 
L 130.283422 140.153206 
L 122.823529 140.153206 
z
" clip-path="url(#pe9c1b2f142)" style="fill: #0000ff; stroke: #000000; stroke-linejoin: miter"/>
   </g>
   <g id="patch_5">
    <path d="M 130.283422 134599.154772 
L 137.743316 134599.154772 
L 137.743316 91.747836 
L 130.283422 91.747836 
z
" clip-path="url(#pe9c1b2f142)" style="fill: #0000ff; stroke: #000000; stroke-linejoin: miter"/>
   </g>
   <g id="patch_6">
    <path d="M 137.743316 134599.154772 
L 145.203209 134599.154772 
L 145.203209 90.759757 
L 137.743316 90.759757 
z
" clip-path="url(#pe9c1b2f142)" style="fill: #0000ff; stroke: #000000; stroke-linejoin: miter"/>
   </g>
   <g id="patch_7">
    <path d="M 145.203209 134599.154772 
L 152.663102 134599.154772 
L 152.663102 73.138216 
L 145.203209 73.138216 
z
" clip-path="url(#pe9c1b2f142)" style="fill: #0000ff; stroke: #000000; stroke-linejoin: miter"/>
   </g>
   <g id="patch_8">
    <path d="M 152.663102 134599.154772 
L 160.122995 134599.154772 
L 160.122995 117.670911 
L 152.663102 117.670911 
z
" clip-path="url(#pe9c1b2f142)" style="fill: #0000ff; stroke: #000000; stroke-linejoin: miter"/>
   </g>
   <g id="patch_9">
    <path d="M 160.122995 134599.154772 
L 167.582888 134599.154772 
L 167.582888 116.136737 
L 160.122995 116.136737 
z
" clip-path="url(#pe9c1b2f142)" style="fill: #0000ff; stroke: #000000; stroke-linejoin: miter"/>
   </g>
   <g id="patch_10">
    <path d="M 167.582888 134599.154772 
L 175.042781 134599.154772 
L 175.042781 66.96 
L 167.582888 66.96 
z
" clip-path="url(#pe9c1b2f142)" style="fill: #0000ff; stroke: #000000; stroke-linejoin: miter"/>
   </g>
   <g id="patch_11">
    <path d="M 175.042781 134599.154772 
L 182.502674 134599.154772 
L 182.502674 177.228336 
L 175.042781 177.228336 
z
" clip-path="url(#pe9c1b2f142)" style="fill: #0000ff; stroke: #000000; stroke-linejoin: miter"/>
   </g>
   <g id="patch_12">
    <path d="M 182.502674 134599.154772 
L 189.962567 134599.154772 
L 189.962567 112.469159 
L 182.502674 112.469159 
z
" clip-path="url(#pe9c1b2f142)" style="fill: #0000ff; stroke: #000000; stroke-linejoin: miter"/>
   </g>
   <g id="patch_13">
    <path d="M 189.962567 134599.154772 
L 197.42246 134599.154772 
L 197.42246 103.280139 
L 189.962567 103.280139 
z
" clip-path="url(#pe9c1b2f142)" style="fill: #0000ff; stroke: #000000; stroke-linejoin: miter"/>
   </g>
   <g id="patch_14">
    <path d="M 197.42246 134599.154772 
L 204.882353 134599.154772 
L 204.882353 255.922664 
L 197.42246 255.922664 
z
" clip-path="url(#pe9c1b2f142)" style="fill: #0000ff; stroke: #000000; stroke-linejoin: miter"/>
   </g>
   <g id="patch_15">
    <path d="M 204.882353 134599.154772 
L 212.342246 134599.154772 
L 212.342246 179.428418 
L 204.882353 179.428418 
z
" clip-path="url(#pe9c1b2f142)" style="fill: #0000ff; stroke: #000000; stroke-linejoin: miter"/>
   </g>
   <g id="patch_16">
    <path d="M 212.342246 134599.154772 
L 219.802139 134599.154772 
L 219.802139 132.655422 
L 212.342246 132.655422 
z
" clip-path="url(#pe9c1b2f142)" style="fill: #0000ff; stroke: #000000; stroke-linejoin: miter"/>
   </g>
   <g id="patch_17">
    <path d="M 219.802139 134599.154772 
L 227.262032 134599.154772 
L 227.262032 328.952805 
L 219.802139 328.952805 
z
" clip-path="url(#pe9c1b2f142)" style="fill: #0000ff; stroke: #000000; stroke-linejoin: miter"/>
   </g>
   <g id="patch_18">
    <path d="M 227.262032 134599.154772 
L 234.721925 134599.154772 
L 234.721925 207.731222 
L 227.262032 207.731222 
z
" clip-path="url(#pe9c1b2f142)" style="fill: #0000ff; stroke: #000000; stroke-linejoin: miter"/>
   </g>
   <g id="patch_19">
    <path d="M 234.721925 134599.154772 
L 242.181818 134599.154772 
L 242.181818 86.509638 
L 234.721925 86.509638 
z
" clip-path="url(#pe9c1b2f142)" style="fill: #0000ff; stroke: #000000; stroke-linejoin: miter"/>
   </g>
   <g id="patch_20">
    <path d="M 242.181818 134599.154772 
L 249.641711 134599.154772 
L 249.641711 167.324027 
L 242.181818 167.324027 
z
" clip-path="url(#pe9c1b2f142)" style="fill: #0000ff; stroke: #000000; stroke-linejoin: miter"/>
   </g>
   <g id="patch_21">
    <path d="M 249.641711 134599.154772 
L 257.101604 134599.154772 
L 257.101604 186.575552 
L 249.641711 186.575552 
z
" clip-path="url(#pe9c1b2f142)" style="fill: #0000ff; stroke: #000000; stroke-linejoin: miter"/>
   </g>
   <g id="patch_22">
    <path d="M 257.101604 134599.154772 
L 264.561497 134599.154772 
L 264.561497 118.45341 
L 257.101604 118.45341 
z
" clip-path="url(#pe9c1b2f142)" style="fill: #0000ff; stroke: #000000; stroke-linejoin: miter"/>
   </g>
   <g id="patch_23">
    <path d="M 264.561497 134599.154772 
L 272.02139 134599.154772 
L 272.02139 248.138416 
L 264.561497 248.138416 
z
" clip-path="url(#pe9c1b2f142)" style="fill: #0000ff; stroke: #000000; stroke-linejoin: miter"/>
   </g>
   <g id="patch_24">
    <path d="M 272.02139 134599.154772 
L 279.481283 134599.154772 
L 279.481283 224.501723 
L 272.02139 224.501723 
z
" clip-path="url(#pe9c1b2f142)" style="fill: #0000ff; stroke: #000000; stroke-linejoin: miter"/>
   </g>
   <g id="patch_25">
    <path d="M 279.481283 134599.154772 
L 286.941176 134599.154772 
L 286.941176 128.767631 
L 279.481283 128.767631 
z
" clip-path="url(#pe9c1b2f142)" style="fill: #0000ff; stroke: #000000; stroke-linejoin: miter"/>
   </g>
   <g id="patch_26">
    <path d="M 286.941176 134599.154772 
L 294.40107 134599.154772 
L 294.40107 207.731222 
L 286.941176 207.731222 
z
" clip-path="url(#pe9c1b2f142)" style="fill: #0000ff; stroke: #000000; stroke-linejoin: miter"/>
   </g>
   <g id="patch_27">
    <path d="M 294.40107 134599.154772 
L 301.860963 134599.154772 
L 301.860963 264.908917 
L 294.40107 264.908917 
z
" clip-path="url(#pe9c1b2f142)" style="fill: #0000ff; stroke: #000000; stroke-linejoin: miter"/>
   </g>
   <g id="patch_28">
    <path d="M 301.860963 134599.154772 
L 309.320856 134599.154772 
L 309.320856 255.922664 
L 301.860963 255.922664 
z
" clip-path="url(#pe9c1b2f142)" style="fill: #0000ff; stroke: #000000; stroke-linejoin: miter"/>
   </g>
   <g id="patch_29">
    <path d="M 309.320856 134599.154772 
L 316.780749 134599.154772 
L 316.780749 197.713167 
L 309.320856 197.713167 
z
" clip-path="url(#pe9c1b2f142)" style="fill: #0000ff; stroke: #000000; stroke-linejoin: miter"/>
   </g>
   <g id="patch_30">
    <path d="M 316.780749 134599.154772 
L 324.240642 134599.154772 
L 324.240642 142.485327 
L 316.780749 142.485327 
z
" clip-path="url(#pe9c1b2f142)" style="fill: #0000ff; stroke: #000000; stroke-linejoin: miter"/>
   </g>
   <g id="patch_31">
    <path d="M 324.240642 134599.154772 
L 331.700535 134599.154772 
L 331.700535 219.835612 
L 324.240642 219.835612 
z
" clip-path="url(#pe9c1b2f142)" style="fill: #0000ff; stroke: #000000; stroke-linejoin: miter"/>
   </g>
   <g id="patch_32">
    <path d="M 331.700535 134599.154772 
L 339.160428 134599.154772 
L 339.160428 264.908917 
L 331.700535 264.908917 
z
" clip-path="url(#pe9c1b2f142)" style="fill: #0000ff; stroke: #000000; stroke-linejoin: miter"/>
   </g>
   <g id="patch_33">
    <path d="M 339.160428 134599.154772 
L 346.620321 134599.154772 
L 346.620321 264.908917 
L 339.160428 264.908917 
z
" clip-path="url(#pe9c1b2f142)" style="fill: #0000ff; stroke: #000000; stroke-linejoin: miter"/>
   </g>
   <g id="patch_34">
    <path d="M 346.620321 134599.154772 
L 354.080214 134599.154772 
L 354.080214 255.922664 
L 346.620321 255.922664 
z
" clip-path="url(#pe9c1b2f142)" style="fill: #0000ff; stroke: #000000; stroke-linejoin: miter"/>
   </g>
   <g id="patch_35">
    <path d="M 354.080214 134599.154772 
L 361.540107 134599.154772 
L 361.540107 211.493512 
L 354.080214 211.493512 
z
" clip-path="url(#pe9c1b2f142)" style="fill: #0000ff; stroke: #000000; stroke-linejoin: miter"/>
   </g>
   <g id="patch_36">
    <path d="M 361.540107 134599.154772 
L 369 134599.154772 
L 369 328.952805 
L 361.540107 328.952805 
z
" clip-path="url(#pe9c1b2f142)" style="fill: #0000ff; stroke: #000000; stroke-linejoin: miter"/>
   </g>
   <g id="patch_37">
    <path d="M 369 134599.154772 
L 376.459893 134599.154772 
L 376.459893 288.545611 
L 369 288.545611 
z
" clip-path="url(#pe9c1b2f142)" style="fill: #0000ff; stroke: #000000; stroke-linejoin: miter"/>
   </g>
   <g id="patch_38">
    <path d="M 376.459893 134599.154772 
L 383.919786 134599.154772 
L 383.919786 305.316112 
L 376.459893 305.316112 
z
" clip-path="url(#pe9c1b2f142)" style="fill: #0000ff; stroke: #000000; stroke-linejoin: miter"/>
   </g>
   <g id="patch_39">
    <path d="M 383.919786 134599.154772 
L 391.379679 134599.154772 
L 391.379679 275.5374 
L 383.919786 275.5374 
z
" clip-path="url(#pe9c1b2f142)" style="fill: #0000ff; stroke: #000000; stroke-linejoin: miter"/>
   </g>
   <g id="patch_40">
    <path d="M 391.379679 134599.154772 
L 398.839572 134599.154772 
L 398.839572 248.138416 
L 391.379679 248.138416 
z
" clip-path="url(#pe9c1b2f142)" style="fill: #0000ff; stroke: #000000; stroke-linejoin: miter"/>
   </g>
   <g id="patch_41">
    <path d="M 398.839572 134599.154772 
L 406.299465 134599.154772 
L 406.299465 235.130205 
L 398.839572 235.130205 
z
" clip-path="url(#pe9c1b2f142)" style="fill: #0000ff; stroke: #000000; stroke-linejoin: miter"/>
   </g>
   <g id="patch_42">
    <path d="M 406.299465 134599.154772 
L 413.759358 134599.154772 
L 413.759358 305.316112 
L 406.299465 305.316112 
z
" clip-path="url(#pe9c1b2f142)" style="fill: #0000ff; stroke: #000000; stroke-linejoin: miter"/>
   </g>
   <g id="patch_43">
    <path d="M 413.759358 134599.154772 
L 421.219251 134599.154772 
L 421.219251 328.952805 
L 413.759358 328.952805 
z
" clip-path="url(#pe9c1b2f142)" style="fill: #0000ff; stroke: #000000; stroke-linejoin: miter"/>
   </g>
   <g id="patch_44">
    <path d="M 421.219251 134599.154772 
L 428.679144 134599.154772 
L 428.679144 328.952805 
L 421.219251 328.952805 
z
" clip-path="url(#pe9c1b2f142)" style="fill: #0000ff; stroke: #000000; stroke-linejoin: miter"/>
   </g>
   <g id="patch_45">
    <path d="M 428.679144 134599.154772 
L 436.139037 134599.154772 
L 436.139037 275.5374 
L 428.679144 275.5374 
z
" clip-path="url(#pe9c1b2f142)" style="fill: #0000ff; stroke: #000000; stroke-linejoin: miter"/>
   </g>
   <g id="patch_46">
    <path d="M 436.139037 134599.154772 
L 443.59893 134599.154772 
L 443.59893 224.501723 
L 436.139037 224.501723 
z
" clip-path="url(#pe9c1b2f142)" style="fill: #0000ff; stroke: #000000; stroke-linejoin: miter"/>
   </g>
   <g id="patch_47">
    <path d="M 443.59893 134599.154772 
L 451.058824 134599.154772 
L 451.058824 241.272224 
L 443.59893 241.272224 
z
" clip-path="url(#pe9c1b2f142)" style="fill: #0000ff; stroke: #000000; stroke-linejoin: miter"/>
   </g>
   <g id="patch_48">
    <path d="M 451.058824 134599.154772 
L 458.518717 134599.154772 
L 458.518717 191.878775 
L 451.058824 191.878775 
z
" clip-path="url(#pe9c1b2f142)" style="fill: #0000ff; stroke: #000000; stroke-linejoin: miter"/>
   </g>
   <g id="patch_49">
    <path d="M 458.518717 134599.154772 
L 465.97861 134599.154772 
L 465.97861 328.952805 
L 458.518717 328.952805 
z
" clip-path="url(#pe9c1b2f142)" style="fill: #0000ff; stroke: #000000; stroke-linejoin: miter"/>
   </g>
   <g id="patch_50">
    <path d="M 465.97861 134599.154772 
L 473.438503 134599.154772 
L 473.438503 328.952805 
L 465.97861 328.952805 
z
" clip-path="url(#pe9c1b2f142)" style="fill: #0000ff; stroke: #000000; stroke-linejoin: miter"/>
   </g>
   <g id="patch_51">
    <path d="M 473.438503 134599.154772 
L 480.898396 134599.154772 
L 480.898396 288.545611 
L 473.438503 288.545611 
z
" clip-path="url(#pe9c1b2f142)" style="fill: #0000ff; stroke: #000000; stroke-linejoin: miter"/>
   </g>
   <g id="patch_52">
    <path d="M 480.898396 134599.154772 
L 488.358289 134599.154772 
L 488.358289 328.952805 
L 480.898396 328.952805 
z
" clip-path="url(#pe9c1b2f142)" style="fill: #0000ff; stroke: #000000; stroke-linejoin: miter"/>
   </g>
   <g id="patch_53">
    <path d="M 488.358289 134599.154772 
L 495.818182 134599.154772 
L 495.818182 328.952805 
L 488.358289 328.952805 
z
" clip-path="url(#pe9c1b2f142)" style="fill: #0000ff; stroke: #000000; stroke-linejoin: miter"/>
   </g>
   <g id="patch_54">
    <path d="M 495.818182 134599.154772 
L 503.278075 134599.154772 
L 503.278075 328.952805 
L 495.818182 328.952805 
z
" clip-path="url(#pe9c1b2f142)" style="fill: #0000ff; stroke: #000000; stroke-linejoin: miter"/>
   </g>
   <g id="patch_55">
    <path d="M 503.278075 134599.154772 
L 510.737968 134599.154772 
L 510.737968 264.908917 
L 503.278075 264.908917 
z
" clip-path="url(#pe9c1b2f142)" style="fill: #0000ff; stroke: #000000; stroke-linejoin: miter"/>
   </g>
   <g id="patch_56">
    <path d="M 510.737968 134599.154772 
L 518.197861 134599.154772 
L 518.197861 369.36 
L 510.737968 369.36 
z
" clip-path="url(#pe9c1b2f142)" style="fill: #0000ff; stroke: #000000; stroke-linejoin: miter"/>
   </g>
   <g id="patch_57">
    <path d="M 518.197861 134599.154772 
L 525.657754 134599.154772 
L 525.657754 288.545611 
L 518.197861 288.545611 
z
" clip-path="url(#pe9c1b2f142)" style="fill: #0000ff; stroke: #000000; stroke-linejoin: miter"/>
   </g>
   <g id="patch_58">
    <path d="M 525.657754 134599.154772 
L 533.117647 134599.154772 
L 533.117647 369.36 
L 525.657754 369.36 
z
" clip-path="url(#pe9c1b2f142)" style="fill: #0000ff; stroke: #000000; stroke-linejoin: miter"/>
   </g>
   <g id="patch_59">
    <path d="M 533.117647 134599.154772 
L 540.57754 134599.154772 
L 540.57754 369.36 
L 533.117647 369.36 
z
" clip-path="url(#pe9c1b2f142)" style="fill: #0000ff; stroke: #000000; stroke-linejoin: miter"/>
   </g>
   <g id="patch_60">
    <path d="M 540.57754 134599.154772 
L 548.037433 134599.154772 
L 548.037433 369.36 
L 540.57754 369.36 
z
" clip-path="url(#pe9c1b2f142)" style="fill: #0000ff; stroke: #000000; stroke-linejoin: miter"/>
   </g>
   <g id="patch_61">
    <path d="M 548.037433 134599.154772 
L 555.497326 134599.154772 
L 555.497326 328.952805 
L 548.037433 328.952805 
z
" clip-path="url(#pe9c1b2f142)" style="fill: #0000ff; stroke: #000000; stroke-linejoin: miter"/>
   </g>
   <g id="patch_62">
    <path d="M 555.497326 134599.154772 
L 562.957219 134599.154772 
L 562.957219 328.952805 
L 555.497326 328.952805 
z
" clip-path="url(#pe9c1b2f142)" style="fill: #0000ff; stroke: #000000; stroke-linejoin: miter"/>
   </g>
   <g id="patch_63">
    <path d="M 562.957219 134599.154772 
L 570.417112 134599.154772 
L 570.417112 305.316112 
L 562.957219 305.316112 
z
" clip-path="url(#pe9c1b2f142)" style="fill: #0000ff; stroke: #000000; stroke-linejoin: miter"/>
   </g>
   <g id="patch_64">
    <path d="M 570.417112 134599.154772 
L 577.877005 134599.154772 
L 577.877005 275.5374 
L 570.417112 275.5374 
z
" clip-path="url(#pe9c1b2f142)" style="fill: #0000ff; stroke: #000000; stroke-linejoin: miter"/>
   </g>
   <g id="patch_65">
    <path d="M 577.877005 134599.154772 
L 585.336898 134599.154772 
L 585.336898 305.316112 
L 577.877005 305.316112 
z
" clip-path="url(#pe9c1b2f142)" style="fill: #0000ff; stroke: #000000; stroke-linejoin: miter"/>
   </g>
   <g id="patch_66">
    <path d="M 585.336898 134599.154772 
L 592.796791 134599.154772 
L 592.796791 369.36 
L 585.336898 369.36 
z
" clip-path="url(#pe9c1b2f142)" style="fill: #0000ff; stroke: #000000; stroke-linejoin: miter"/>
   </g>
   <g id="patch_67">
    <path d="M 592.796791 134599.154772 
L 600.256684 134599.154772 
L 600.256684 369.36 
L 592.796791 369.36 
z
" clip-path="url(#pe9c1b2f142)" style="fill: #0000ff; stroke: #000000; stroke-linejoin: miter"/>
   </g>
   <g id="patch_68">
    <path d="M 600.256684 134599.154772 
L 607.716578 134599.154772 
L 607.716578 369.36 
L 600.256684 369.36 
z
" clip-path="url(#pe9c1b2f142)" style="fill: #0000ff; stroke: #000000; stroke-linejoin: miter"/>
   </g>
   <g id="patch_69">
    <path d="M 607.716578 134599.154772 
L 615.176471 134599.154772 
L 615.176471 328.952805 
L 607.716578 328.952805 
z
" clip-path="url(#pe9c1b2f142)" style="fill: #0000ff; stroke: #000000; stroke-linejoin: miter"/>
   </g>
   <g id="patch_70">
    <path d="M 615.176471 134599.154772 
L 622.636364 134599.154772 
L 622.636364 305.316112 
L 615.176471 305.316112 
z
" clip-path="url(#pe9c1b2f142)" style="fill: #0000ff; stroke: #000000; stroke-linejoin: miter"/>
   </g>
   <g id="matplotlib.axis_1">
    <g id="xtick_1">
     <g id="line2d_1">
      <path d="M 111.63369 384.48 
L 111.63369 51.84 
" clip-path="url(#pe9c1b2f142)" style="fill: none; stroke-dasharray: 1.85,0.8; stroke-dashoffset: 0; stroke: #b0b0b0; stroke-width: 0.5"/>
     </g>
     <g id="line2d_2">
      <defs>
       <path id="mb6b7adf174" d="M 0 0 
L 0 3.5 
" style="stroke: #000000; stroke-width: 0.8"/>
      </defs>
      <g>
       <use xlink:href="#mb6b7adf174" x="111.63369" y="384.48" style="stroke: #000000; stroke-width: 0.8"/>
      </g>
     </g>
     <g id="text_1">
      <!-- 0 -->
      <g transform="translate(108.45244 399.078438) scale(0.1 -0.1)">
       <defs>
        <path id="DejaVuSans-30" d="M 2034 4250 
Q 1547 4250 1301 3770 
Q 1056 3291 1056 2328 
Q 1056 1369 1301 889 
Q 1547 409 2034 409 
Q 2525 409 2770 889 
Q 3016 1369 3016 2328 
Q 3016 3291 2770 3770 
Q 2525 4250 2034 4250 
z
M 2034 4750 
Q 2819 4750 3233 4129 
Q 3647 3509 3647 2328 
Q 3647 1150 3233 529 
Q 2819 -91 2034 -91 
Q 1250 -91 836 529 
Q 422 1150 422 2328 
Q 422 3509 836 4129 
Q 1250 4750 2034 4750 
z
" transform="scale(0.015625)"/>
       </defs>
       <use xlink:href="#DejaVuSans-30"/>
      </g>
     </g>
    </g>
    <g id="xtick_2">
     <g id="line2d_3">
      <path d="M 186.23262 384.48 
L 186.23262 51.84 
" clip-path="url(#pe9c1b2f142)" style="fill: none; stroke-dasharray: 1.85,0.8; stroke-dashoffset: 0; stroke: #b0b0b0; stroke-width: 0.5"/>
     </g>
     <g id="line2d_4">
      <g>
       <use xlink:href="#mb6b7adf174" x="186.23262" y="384.48" style="stroke: #000000; stroke-width: 0.8"/>
      </g>
     </g>
     <g id="text_2">
      <!-- 10 -->
      <g transform="translate(179.87012 399.078438) scale(0.1 -0.1)">
       <defs>
        <path id="DejaVuSans-31" d="M 794 531 
L 1825 531 
L 1825 4091 
L 703 3866 
L 703 4441 
L 1819 4666 
L 2450 4666 
L 2450 531 
L 3481 531 
L 3481 0 
L 794 0 
L 794 531 
z
" transform="scale(0.015625)"/>
       </defs>
       <use xlink:href="#DejaVuSans-31"/>
       <use xlink:href="#DejaVuSans-30" transform="translate(63.623047 0)"/>
      </g>
     </g>
    </g>
    <g id="xtick_3">
     <g id="line2d_5">
      <path d="M 260.831551 384.48 
L 260.831551 51.84 
" clip-path="url(#pe9c1b2f142)" style="fill: none; stroke-dasharray: 1.85,0.8; stroke-dashoffset: 0; stroke: #b0b0b0; stroke-width: 0.5"/>
     </g>
     <g id="line2d_6">
      <g>
       <use xlink:href="#mb6b7adf174" x="260.831551" y="384.48" style="stroke: #000000; stroke-width: 0.8"/>
      </g>
     </g>
     <g id="text_3">
      <!-- 20 -->
      <g transform="translate(254.469051 399.078438) scale(0.1 -0.1)">
       <defs>
        <path id="DejaVuSans-32" d="M 1228 531 
L 3431 531 
L 3431 0 
L 469 0 
L 469 531 
Q 828 903 1448 1529 
Q 2069 2156 2228 2338 
Q 2531 2678 2651 2914 
Q 2772 3150 2772 3378 
Q 2772 3750 2511 3984 
Q 2250 4219 1831 4219 
Q 1534 4219 1204 4116 
Q 875 4013 500 3803 
L 500 4441 
Q 881 4594 1212 4672 
Q 1544 4750 1819 4750 
Q 2544 4750 2975 4387 
Q 3406 4025 3406 3419 
Q 3406 3131 3298 2873 
Q 3191 2616 2906 2266 
Q 2828 2175 2409 1742 
Q 1991 1309 1228 531 
z
" transform="scale(0.015625)"/>
       </defs>
       <use xlink:href="#DejaVuSans-32"/>
       <use xlink:href="#DejaVuSans-30" transform="translate(63.623047 0)"/>
      </g>
     </g>
    </g>
    <g id="xtick_4">
     <g id="line2d_7">
      <path d="M 335.430481 384.48 
L 335.430481 51.84 
" clip-path="url(#pe9c1b2f142)" style="fill: none; stroke-dasharray: 1.85,0.8; stroke-dashoffset: 0; stroke: #b0b0b0; stroke-width: 0.5"/>
     </g>
     <g id="line2d_8">
      <g>
       <use xlink:href="#mb6b7adf174" x="335.430481" y="384.48" style="stroke: #000000; stroke-width: 0.8"/>
      </g>
     </g>
     <g id="text_4">
      <!-- 30 -->
      <g transform="translate(329.067981 399.078438) scale(0.1 -0.1)">
       <defs>
        <path id="DejaVuSans-33" d="M 2597 2516 
Q 3050 2419 3304 2112 
Q 3559 1806 3559 1356 
Q 3559 666 3084 287 
Q 2609 -91 1734 -91 
Q 1441 -91 1130 -33 
Q 819 25 488 141 
L 488 750 
Q 750 597 1062 519 
Q 1375 441 1716 441 
Q 2309 441 2620 675 
Q 2931 909 2931 1356 
Q 2931 1769 2642 2001 
Q 2353 2234 1838 2234 
L 1294 2234 
L 1294 2753 
L 1863 2753 
Q 2328 2753 2575 2939 
Q 2822 3125 2822 3475 
Q 2822 3834 2567 4026 
Q 2313 4219 1838 4219 
Q 1578 4219 1281 4162 
Q 984 4106 628 3988 
L 628 4550 
Q 988 4650 1302 4700 
Q 1616 4750 1894 4750 
Q 2613 4750 3031 4423 
Q 3450 4097 3450 3541 
Q 3450 3153 3228 2886 
Q 3006 2619 2597 2516 
z
" transform="scale(0.015625)"/>
       </defs>
       <use xlink:href="#DejaVuSans-33"/>
       <use xlink:href="#DejaVuSans-30" transform="translate(63.623047 0)"/>
      </g>
     </g>
    </g>
    <g id="xtick_5">
     <g id="line2d_9">
      <path d="M 410.029412 384.48 
L 410.029412 51.84 
" clip-path="url(#pe9c1b2f142)" style="fill: none; stroke-dasharray: 1.85,0.8; stroke-dashoffset: 0; stroke: #b0b0b0; stroke-width: 0.5"/>
     </g>
     <g id="line2d_10">
      <g>
       <use xlink:href="#mb6b7adf174" x="410.029412" y="384.48" style="stroke: #000000; stroke-width: 0.8"/>
      </g>
     </g>
     <g id="text_5">
      <!-- 40 -->
      <g transform="translate(403.666912 399.078438) scale(0.1 -0.1)">
       <defs>
        <path id="DejaVuSans-34" d="M 2419 4116 
L 825 1625 
L 2419 1625 
L 2419 4116 
z
M 2253 4666 
L 3047 4666 
L 3047 1625 
L 3713 1625 
L 3713 1100 
L 3047 1100 
L 3047 0 
L 2419 0 
L 2419 1100 
L 313 1100 
L 313 1709 
L 2253 4666 
z
" transform="scale(0.015625)"/>
       </defs>
       <use xlink:href="#DejaVuSans-34"/>
       <use xlink:href="#DejaVuSans-30" transform="translate(63.623047 0)"/>
      </g>
     </g>
    </g>
    <g id="xtick_6">
     <g id="line2d_11">
      <path d="M 484.628342 384.48 
L 484.628342 51.84 
" clip-path="url(#pe9c1b2f142)" style="fill: none; stroke-dasharray: 1.85,0.8; stroke-dashoffset: 0; stroke: #b0b0b0; stroke-width: 0.5"/>
     </g>
     <g id="line2d_12">
      <g>
       <use xlink:href="#mb6b7adf174" x="484.628342" y="384.48" style="stroke: #000000; stroke-width: 0.8"/>
      </g>
     </g>
     <g id="text_6">
      <!-- 50 -->
      <g transform="translate(478.265842 399.078438) scale(0.1 -0.1)">
       <defs>
        <path id="DejaVuSans-35" d="M 691 4666 
L 3169 4666 
L 3169 4134 
L 1269 4134 
L 1269 2991 
Q 1406 3038 1543 3061 
Q 1681 3084 1819 3084 
Q 2600 3084 3056 2656 
Q 3513 2228 3513 1497 
Q 3513 744 3044 326 
Q 2575 -91 1722 -91 
Q 1428 -91 1123 -41 
Q 819 9 494 109 
L 494 744 
Q 775 591 1075 516 
Q 1375 441 1709 441 
Q 2250 441 2565 725 
Q 2881 1009 2881 1497 
Q 2881 1984 2565 2268 
Q 2250 2553 1709 2553 
Q 1456 2553 1204 2497 
Q 953 2441 691 2322 
L 691 4666 
z
" transform="scale(0.015625)"/>
       </defs>
       <use xlink:href="#DejaVuSans-35"/>
       <use xlink:href="#DejaVuSans-30" transform="translate(63.623047 0)"/>
      </g>
     </g>
    </g>
    <g id="xtick_7">
     <g id="line2d_13">
      <path d="M 559.227273 384.48 
L 559.227273 51.84 
" clip-path="url(#pe9c1b2f142)" style="fill: none; stroke-dasharray: 1.85,0.8; stroke-dashoffset: 0; stroke: #b0b0b0; stroke-width: 0.5"/>
     </g>
     <g id="line2d_14">
      <g>
       <use xlink:href="#mb6b7adf174" x="559.227273" y="384.48" style="stroke: #000000; stroke-width: 0.8"/>
      </g>
     </g>
     <g id="text_7">
      <!-- 60 -->
      <g transform="translate(552.864773 399.078438) scale(0.1 -0.1)">
       <defs>
        <path id="DejaVuSans-36" d="M 2113 2584 
Q 1688 2584 1439 2293 
Q 1191 2003 1191 1497 
Q 1191 994 1439 701 
Q 1688 409 2113 409 
Q 2538 409 2786 701 
Q 3034 994 3034 1497 
Q 3034 2003 2786 2293 
Q 2538 2584 2113 2584 
z
M 3366 4563 
L 3366 3988 
Q 3128 4100 2886 4159 
Q 2644 4219 2406 4219 
Q 1781 4219 1451 3797 
Q 1122 3375 1075 2522 
Q 1259 2794 1537 2939 
Q 1816 3084 2150 3084 
Q 2853 3084 3261 2657 
Q 3669 2231 3669 1497 
Q 3669 778 3244 343 
Q 2819 -91 2113 -91 
Q 1303 -91 875 529 
Q 447 1150 447 2328 
Q 447 3434 972 4092 
Q 1497 4750 2381 4750 
Q 2619 4750 2861 4703 
Q 3103 4656 3366 4563 
z
" transform="scale(0.015625)"/>
       </defs>
       <use xlink:href="#DejaVuSans-36"/>
       <use xlink:href="#DejaVuSans-30" transform="translate(63.623047 0)"/>
      </g>
     </g>
    </g>
    <g id="xtick_8">
     <g id="line2d_15">
      <path d="M 633.826203 384.48 
L 633.826203 51.84 
" clip-path="url(#pe9c1b2f142)" style="fill: none; stroke-dasharray: 1.85,0.8; stroke-dashoffset: 0; stroke: #b0b0b0; stroke-width: 0.5"/>
     </g>
     <g id="line2d_16">
      <g>
       <use xlink:href="#mb6b7adf174" x="633.826203" y="384.48" style="stroke: #000000; stroke-width: 0.8"/>
      </g>
     </g>
     <g id="text_8">
      <!-- 70 -->
      <g transform="translate(627.463703 399.078438) scale(0.1 -0.1)">
       <defs>
        <path id="DejaVuSans-37" d="M 525 4666 
L 3525 4666 
L 3525 4397 
L 1831 0 
L 1172 0 
L 2766 4134 
L 525 4134 
L 525 4666 
z
" transform="scale(0.015625)"/>
       </defs>
       <use xlink:href="#DejaVuSans-37"/>
       <use xlink:href="#DejaVuSans-30" transform="translate(63.623047 0)"/>
      </g>
     </g>
    </g>
    <g id="text_9">
     <!-- Conformació -->
     <g transform="translate(337.360937 412.756563) scale(0.1 -0.1)">
      <defs>
       <path id="DejaVuSans-43" d="M 4122 4306 
L 4122 3641 
Q 3803 3938 3442 4084 
Q 3081 4231 2675 4231 
Q 1875 4231 1450 3742 
Q 1025 3253 1025 2328 
Q 1025 1406 1450 917 
Q 1875 428 2675 428 
Q 3081 428 3442 575 
Q 3803 722 4122 1019 
L 4122 359 
Q 3791 134 3420 21 
Q 3050 -91 2638 -91 
Q 1578 -91 968 557 
Q 359 1206 359 2328 
Q 359 3453 968 4101 
Q 1578 4750 2638 4750 
Q 3056 4750 3426 4639 
Q 3797 4528 4122 4306 
z
" transform="scale(0.015625)"/>
       <path id="DejaVuSans-6f" d="M 1959 3097 
Q 1497 3097 1228 2736 
Q 959 2375 959 1747 
Q 959 1119 1226 758 
Q 1494 397 1959 397 
Q 2419 397 2687 759 
Q 2956 1122 2956 1747 
Q 2956 2369 2687 2733 
Q 2419 3097 1959 3097 
z
M 1959 3584 
Q 2709 3584 3137 3096 
Q 3566 2609 3566 1747 
Q 3566 888 3137 398 
Q 2709 -91 1959 -91 
Q 1206 -91 779 398 
Q 353 888 353 1747 
Q 353 2609 779 3096 
Q 1206 3584 1959 3584 
z
" transform="scale(0.015625)"/>
       <path id="DejaVuSans-6e" d="M 3513 2113 
L 3513 0 
L 2938 0 
L 2938 2094 
Q 2938 2591 2744 2837 
Q 2550 3084 2163 3084 
Q 1697 3084 1428 2787 
Q 1159 2491 1159 1978 
L 1159 0 
L 581 0 
L 581 3500 
L 1159 3500 
L 1159 2956 
Q 1366 3272 1645 3428 
Q 1925 3584 2291 3584 
Q 2894 3584 3203 3211 
Q 3513 2838 3513 2113 
z
" transform="scale(0.015625)"/>
       <path id="DejaVuSans-66" d="M 2375 4863 
L 2375 4384 
L 1825 4384 
Q 1516 4384 1395 4259 
Q 1275 4134 1275 3809 
L 1275 3500 
L 2222 3500 
L 2222 3053 
L 1275 3053 
L 1275 0 
L 697 0 
L 697 3053 
L 147 3053 
L 147 3500 
L 697 3500 
L 697 3744 
Q 697 4328 969 4595 
Q 1241 4863 1831 4863 
L 2375 4863 
z
" transform="scale(0.015625)"/>
       <path id="DejaVuSans-72" d="M 2631 2963 
Q 2534 3019 2420 3045 
Q 2306 3072 2169 3072 
Q 1681 3072 1420 2755 
Q 1159 2438 1159 1844 
L 1159 0 
L 581 0 
L 581 3500 
L 1159 3500 
L 1159 2956 
Q 1341 3275 1631 3429 
Q 1922 3584 2338 3584 
Q 2397 3584 2469 3576 
Q 2541 3569 2628 3553 
L 2631 2963 
z
" transform="scale(0.015625)"/>
       <path id="DejaVuSans-6d" d="M 3328 2828 
Q 3544 3216 3844 3400 
Q 4144 3584 4550 3584 
Q 5097 3584 5394 3201 
Q 5691 2819 5691 2113 
L 5691 0 
L 5113 0 
L 5113 2094 
Q 5113 2597 4934 2840 
Q 4756 3084 4391 3084 
Q 3944 3084 3684 2787 
Q 3425 2491 3425 1978 
L 3425 0 
L 2847 0 
L 2847 2094 
Q 2847 2600 2669 2842 
Q 2491 3084 2119 3084 
Q 1678 3084 1418 2786 
Q 1159 2488 1159 1978 
L 1159 0 
L 581 0 
L 581 3500 
L 1159 3500 
L 1159 2956 
Q 1356 3278 1631 3431 
Q 1906 3584 2284 3584 
Q 2666 3584 2933 3390 
Q 3200 3197 3328 2828 
z
" transform="scale(0.015625)"/>
       <path id="DejaVuSans-61" d="M 2194 1759 
Q 1497 1759 1228 1600 
Q 959 1441 959 1056 
Q 959 750 1161 570 
Q 1363 391 1709 391 
Q 2188 391 2477 730 
Q 2766 1069 2766 1631 
L 2766 1759 
L 2194 1759 
z
M 3341 1997 
L 3341 0 
L 2766 0 
L 2766 531 
Q 2569 213 2275 61 
Q 1981 -91 1556 -91 
Q 1019 -91 701 211 
Q 384 513 384 1019 
Q 384 1609 779 1909 
Q 1175 2209 1959 2209 
L 2766 2209 
L 2766 2266 
Q 2766 2663 2505 2880 
Q 2244 3097 1772 3097 
Q 1472 3097 1187 3025 
Q 903 2953 641 2809 
L 641 3341 
Q 956 3463 1253 3523 
Q 1550 3584 1831 3584 
Q 2591 3584 2966 3190 
Q 3341 2797 3341 1997 
z
" transform="scale(0.015625)"/>
       <path id="DejaVuSans-63" d="M 3122 3366 
L 3122 2828 
Q 2878 2963 2633 3030 
Q 2388 3097 2138 3097 
Q 1578 3097 1268 2742 
Q 959 2388 959 1747 
Q 959 1106 1268 751 
Q 1578 397 2138 397 
Q 2388 397 2633 464 
Q 2878 531 3122 666 
L 3122 134 
Q 2881 22 2623 -34 
Q 2366 -91 2075 -91 
Q 1284 -91 818 406 
Q 353 903 353 1747 
Q 353 2603 823 3093 
Q 1294 3584 2113 3584 
Q 2378 3584 2631 3529 
Q 2884 3475 3122 3366 
z
" transform="scale(0.015625)"/>
       <path id="DejaVuSans-69" d="M 603 3500 
L 1178 3500 
L 1178 0 
L 603 0 
L 603 3500 
z
M 603 4863 
L 1178 4863 
L 1178 4134 
L 603 4134 
L 603 4863 
z
" transform="scale(0.015625)"/>
       <path id="DejaVuSans-f3" d="M 1959 3097 
Q 1497 3097 1228 2736 
Q 959 2375 959 1747 
Q 959 1119 1226 758 
Q 1494 397 1959 397 
Q 2419 397 2687 759 
Q 2956 1122 2956 1747 
Q 2956 2369 2687 2733 
Q 2419 3097 1959 3097 
z
M 1959 3584 
Q 2709 3584 3137 3096 
Q 3566 2609 3566 1747 
Q 3566 888 3137 398 
Q 2709 -91 1959 -91 
Q 1206 -91 779 398 
Q 353 888 353 1747 
Q 353 2609 779 3096 
Q 1206 3584 1959 3584 
z
M 2394 5119 
L 3016 5119 
L 1998 3944 
L 1519 3944 
L 2394 5119 
z
" transform="scale(0.015625)"/>
      </defs>
      <use xlink:href="#DejaVuSans-43"/>
      <use xlink:href="#DejaVuSans-6f" transform="translate(69.824219 0)"/>
      <use xlink:href="#DejaVuSans-6e" transform="translate(131.005859 0)"/>
      <use xlink:href="#DejaVuSans-66" transform="translate(194.384766 0)"/>
      <use xlink:href="#DejaVuSans-6f" transform="translate(229.589844 0)"/>
      <use xlink:href="#DejaVuSans-72" transform="translate(290.771484 0)"/>
      <use xlink:href="#DejaVuSans-6d" transform="translate(330.134766 0)"/>
      <use xlink:href="#DejaVuSans-61" transform="translate(427.546875 0)"/>
      <use xlink:href="#DejaVuSans-63" transform="translate(488.826172 0)"/>
      <use xlink:href="#DejaVuSans-69" transform="translate(543.806641 0)"/>
      <use xlink:href="#DejaVuSans-f3" transform="translate(571.589844 0)"/>
     </g>
    </g>
   </g>
   <g id="matplotlib.axis_2">
    <g id="ytick_1">
     <g id="line2d_17">
      <path d="M 90 369.36 
L 648 369.36 
" clip-path="url(#pe9c1b2f142)" style="fill: none; stroke-dasharray: 1.85,0.8; stroke-dashoffset: 0; stroke: #b0b0b0; stroke-width: 0.5"/>
     </g>
     <g id="line2d_18">
      <defs>
       <path id="mf41bcfb24e" d="M 0 0 
L -3.5 0 
" style="stroke: #000000; stroke-width: 0.8"/>
      </defs>
      <g>
       <use xlink:href="#mf41bcfb24e" x="90" y="369.36" style="stroke: #000000; stroke-width: 0.8"/>
      </g>
     </g>
     <g id="text_10">
      <!-- $\mathdefault{10^{0}}$ -->
      <g transform="translate(65.4 373.159219) scale(0.1 -0.1)">
       <use xlink:href="#DejaVuSans-31" transform="translate(0 0.765625)"/>
       <use xlink:href="#DejaVuSans-30" transform="translate(63.623047 0.765625)"/>
       <use xlink:href="#DejaVuSans-30" transform="translate(128.203125 39.046875) scale(0.7)"/>
      </g>
     </g>
    </g>
    <g id="ytick_2">
     <g id="line2d_19">
      <path d="M 90 235.130205 
L 648 235.130205 
" clip-path="url(#pe9c1b2f142)" style="fill: none; stroke-dasharray: 1.85,0.8; stroke-dashoffset: 0; stroke: #b0b0b0; stroke-width: 0.5"/>
     </g>
     <g id="line2d_20">
      <g>
       <use xlink:href="#mf41bcfb24e" x="90" y="235.130205" style="stroke: #000000; stroke-width: 0.8"/>
      </g>
     </g>
     <g id="text_11">
      <!-- $\mathdefault{10^{1}}$ -->
      <g transform="translate(65.4 238.929424) scale(0.1 -0.1)">
       <use xlink:href="#DejaVuSans-31" transform="translate(0 0.684375)"/>
       <use xlink:href="#DejaVuSans-30" transform="translate(63.623047 0.684375)"/>
       <use xlink:href="#DejaVuSans-31" transform="translate(128.203125 38.965625) scale(0.7)"/>
      </g>
     </g>
    </g>
    <g id="ytick_3">
     <g id="line2d_21">
      <path d="M 90 100.90041 
L 648 100.90041 
" clip-path="url(#pe9c1b2f142)" style="fill: none; stroke-dasharray: 1.85,0.8; stroke-dashoffset: 0; stroke: #b0b0b0; stroke-width: 0.5"/>
     </g>
     <g id="line2d_22">
      <g>
       <use xlink:href="#mf41bcfb24e" x="90" y="100.90041" style="stroke: #000000; stroke-width: 0.8"/>
      </g>
     </g>
     <g id="text_12">
      <!-- $\mathdefault{10^{2}}$ -->
      <g transform="translate(65.4 104.699629) scale(0.1 -0.1)">
       <use xlink:href="#DejaVuSans-31" transform="translate(0 0.765625)"/>
       <use xlink:href="#DejaVuSans-30" transform="translate(63.623047 0.765625)"/>
       <use xlink:href="#DejaVuSans-32" transform="translate(128.203125 39.046875) scale(0.7)"/>
      </g>
     </g>
    </g>
    <g id="ytick_4">
     <g id="line2d_23">
      <path d="M 90 382.368211 
L 648 382.368211 
" clip-path="url(#pe9c1b2f142)" style="fill: none; stroke-dasharray: 1.85,0.8; stroke-dashoffset: 0; stroke: #b0b0b0; stroke-width: 0.5"/>
     </g>
     <g id="line2d_24">
      <defs>
       <path id="m172f4fc83f" d="M 0 0 
L -2 0 
" style="stroke: #000000; stroke-width: 0.6"/>
      </defs>
      <g>
       <use xlink:href="#m172f4fc83f" x="90" y="382.368211" style="stroke: #000000; stroke-width: 0.6"/>
      </g>
     </g>
    </g>
    <g id="ytick_5">
     <g id="line2d_25">
      <path d="M 90 375.502019 
L 648 375.502019 
" clip-path="url(#pe9c1b2f142)" style="fill: none; stroke-dasharray: 1.85,0.8; stroke-dashoffset: 0; stroke: #b0b0b0; stroke-width: 0.5"/>
     </g>
     <g id="line2d_26">
      <g>
       <use xlink:href="#m172f4fc83f" x="90" y="375.502019" style="stroke: #000000; stroke-width: 0.6"/>
      </g>
     </g>
    </g>
    <g id="ytick_6">
     <g id="line2d_27">
      <path d="M 90 328.952805 
L 648 328.952805 
" clip-path="url(#pe9c1b2f142)" style="fill: none; stroke-dasharray: 1.85,0.8; stroke-dashoffset: 0; stroke: #b0b0b0; stroke-width: 0.5"/>
     </g>
     <g id="line2d_28">
      <g>
       <use xlink:href="#m172f4fc83f" x="90" y="328.952805" style="stroke: #000000; stroke-width: 0.6"/>
      </g>
     </g>
    </g>
    <g id="ytick_7">
     <g id="line2d_29">
      <path d="M 90 305.316112 
L 648 305.316112 
" clip-path="url(#pe9c1b2f142)" style="fill: none; stroke-dasharray: 1.85,0.8; stroke-dashoffset: 0; stroke: #b0b0b0; stroke-width: 0.5"/>
     </g>
     <g id="line2d_30">
      <g>
       <use xlink:href="#m172f4fc83f" x="90" y="305.316112" style="stroke: #000000; stroke-width: 0.6"/>
      </g>
     </g>
    </g>
    <g id="ytick_8">
     <g id="line2d_31">
      <path d="M 90 288.545611 
L 648 288.545611 
" clip-path="url(#pe9c1b2f142)" style="fill: none; stroke-dasharray: 1.85,0.8; stroke-dashoffset: 0; stroke: #b0b0b0; stroke-width: 0.5"/>
     </g>
     <g id="line2d_32">
      <g>
       <use xlink:href="#m172f4fc83f" x="90" y="288.545611" style="stroke: #000000; stroke-width: 0.6"/>
      </g>
     </g>
    </g>
    <g id="ytick_9">
     <g id="line2d_33">
      <path d="M 90 275.5374 
L 648 275.5374 
" clip-path="url(#pe9c1b2f142)" style="fill: none; stroke-dasharray: 1.85,0.8; stroke-dashoffset: 0; stroke: #b0b0b0; stroke-width: 0.5"/>
     </g>
     <g id="line2d_34">
      <g>
       <use xlink:href="#m172f4fc83f" x="90" y="275.5374" style="stroke: #000000; stroke-width: 0.6"/>
      </g>
     </g>
    </g>
    <g id="ytick_10">
     <g id="line2d_35">
      <path d="M 90 264.908917 
L 648 264.908917 
" clip-path="url(#pe9c1b2f142)" style="fill: none; stroke-dasharray: 1.85,0.8; stroke-dashoffset: 0; stroke: #b0b0b0; stroke-width: 0.5"/>
     </g>
     <g id="line2d_36">
      <g>
       <use xlink:href="#m172f4fc83f" x="90" y="264.908917" style="stroke: #000000; stroke-width: 0.6"/>
      </g>
     </g>
    </g>
    <g id="ytick_11">
     <g id="line2d_37">
      <path d="M 90 255.922664 
L 648 255.922664 
" clip-path="url(#pe9c1b2f142)" style="fill: none; stroke-dasharray: 1.85,0.8; stroke-dashoffset: 0; stroke: #b0b0b0; stroke-width: 0.5"/>
     </g>
     <g id="line2d_38">
      <g>
       <use xlink:href="#m172f4fc83f" x="90" y="255.922664" style="stroke: #000000; stroke-width: 0.6"/>
      </g>
     </g>
    </g>
    <g id="ytick_12">
     <g id="line2d_39">
      <path d="M 90 248.138416 
L 648 248.138416 
" clip-path="url(#pe9c1b2f142)" style="fill: none; stroke-dasharray: 1.85,0.8; stroke-dashoffset: 0; stroke: #b0b0b0; stroke-width: 0.5"/>
     </g>
     <g id="line2d_40">
      <g>
       <use xlink:href="#m172f4fc83f" x="90" y="248.138416" style="stroke: #000000; stroke-width: 0.6"/>
      </g>
     </g>
    </g>
    <g id="ytick_13">
     <g id="line2d_41">
      <path d="M 90 241.272224 
L 648 241.272224 
" clip-path="url(#pe9c1b2f142)" style="fill: none; stroke-dasharray: 1.85,0.8; stroke-dashoffset: 0; stroke: #b0b0b0; stroke-width: 0.5"/>
     </g>
     <g id="line2d_42">
      <g>
       <use xlink:href="#m172f4fc83f" x="90" y="241.272224" style="stroke: #000000; stroke-width: 0.6"/>
      </g>
     </g>
    </g>
    <g id="ytick_14">
     <g id="line2d_43">
      <path d="M 90 194.723011 
L 648 194.723011 
" clip-path="url(#pe9c1b2f142)" style="fill: none; stroke-dasharray: 1.85,0.8; stroke-dashoffset: 0; stroke: #b0b0b0; stroke-width: 0.5"/>
     </g>
     <g id="line2d_44">
      <g>
       <use xlink:href="#m172f4fc83f" x="90" y="194.723011" style="stroke: #000000; stroke-width: 0.6"/>
      </g>
     </g>
    </g>
    <g id="ytick_15">
     <g id="line2d_45">
      <path d="M 90 171.086317 
L 648 171.086317 
" clip-path="url(#pe9c1b2f142)" style="fill: none; stroke-dasharray: 1.85,0.8; stroke-dashoffset: 0; stroke: #b0b0b0; stroke-width: 0.5"/>
     </g>
     <g id="line2d_46">
      <g>
       <use xlink:href="#m172f4fc83f" x="90" y="171.086317" style="stroke: #000000; stroke-width: 0.6"/>
      </g>
     </g>
    </g>
    <g id="ytick_16">
     <g id="line2d_47">
      <path d="M 90 154.315816 
L 648 154.315816 
" clip-path="url(#pe9c1b2f142)" style="fill: none; stroke-dasharray: 1.85,0.8; stroke-dashoffset: 0; stroke: #b0b0b0; stroke-width: 0.5"/>
     </g>
     <g id="line2d_48">
      <g>
       <use xlink:href="#m172f4fc83f" x="90" y="154.315816" style="stroke: #000000; stroke-width: 0.6"/>
      </g>
     </g>
    </g>
    <g id="ytick_17">
     <g id="line2d_49">
      <path d="M 90 141.307605 
L 648 141.307605 
" clip-path="url(#pe9c1b2f142)" style="fill: none; stroke-dasharray: 1.85,0.8; stroke-dashoffset: 0; stroke: #b0b0b0; stroke-width: 0.5"/>
     </g>
     <g id="line2d_50">
      <g>
       <use xlink:href="#m172f4fc83f" x="90" y="141.307605" style="stroke: #000000; stroke-width: 0.6"/>
      </g>
     </g>
    </g>
    <g id="ytick_18">
     <g id="line2d_51">
      <path d="M 90 130.679123 
L 648 130.679123 
" clip-path="url(#pe9c1b2f142)" style="fill: none; stroke-dasharray: 1.85,0.8; stroke-dashoffset: 0; stroke: #b0b0b0; stroke-width: 0.5"/>
     </g>
     <g id="line2d_52">
      <g>
       <use xlink:href="#m172f4fc83f" x="90" y="130.679123" style="stroke: #000000; stroke-width: 0.6"/>
      </g>
     </g>
    </g>
    <g id="ytick_19">
     <g id="line2d_53">
      <path d="M 90 121.692869 
L 648 121.692869 
" clip-path="url(#pe9c1b2f142)" style="fill: none; stroke-dasharray: 1.85,0.8; stroke-dashoffset: 0; stroke: #b0b0b0; stroke-width: 0.5"/>
     </g>
     <g id="line2d_54">
      <g>
       <use xlink:href="#m172f4fc83f" x="90" y="121.692869" style="stroke: #000000; stroke-width: 0.6"/>
      </g>
     </g>
    </g>
    <g id="ytick_20">
     <g id="line2d_55">
      <path d="M 90 113.908622 
L 648 113.908622 
" clip-path="url(#pe9c1b2f142)" style="fill: none; stroke-dasharray: 1.85,0.8; stroke-dashoffset: 0; stroke: #b0b0b0; stroke-width: 0.5"/>
     </g>
     <g id="line2d_56">
      <g>
       <use xlink:href="#m172f4fc83f" x="90" y="113.908622" style="stroke: #000000; stroke-width: 0.6"/>
      </g>
     </g>
    </g>
    <g id="ytick_21">
     <g id="line2d_57">
      <path d="M 90 107.042429 
L 648 107.042429 
" clip-path="url(#pe9c1b2f142)" style="fill: none; stroke-dasharray: 1.85,0.8; stroke-dashoffset: 0; stroke: #b0b0b0; stroke-width: 0.5"/>
     </g>
     <g id="line2d_58">
      <g>
       <use xlink:href="#m172f4fc83f" x="90" y="107.042429" style="stroke: #000000; stroke-width: 0.6"/>
      </g>
     </g>
    </g>
    <g id="ytick_22">
     <g id="line2d_59">
      <path d="M 90 60.493216 
L 648 60.493216 
" clip-path="url(#pe9c1b2f142)" style="fill: none; stroke-dasharray: 1.85,0.8; stroke-dashoffset: 0; stroke: #b0b0b0; stroke-width: 0.5"/>
     </g>
     <g id="line2d_60">
      <g>
       <use xlink:href="#m172f4fc83f" x="90" y="60.493216" style="stroke: #000000; stroke-width: 0.6"/>
      </g>
     </g>
    </g>
    <g id="text_13">
     <!-- Freqüències base de dades -->
     <g style="fill: #0000ff" transform="translate(59.320312 286.131875) rotate(-90) scale(0.1 -0.1)">
      <defs>
       <path id="DejaVuSans-46" d="M 628 4666 
L 3309 4666 
L 3309 4134 
L 1259 4134 
L 1259 2759 
L 3109 2759 
L 3109 2228 
L 1259 2228 
L 1259 0 
L 628 0 
L 628 4666 
z
" transform="scale(0.015625)"/>
       <path id="DejaVuSans-65" d="M 3597 1894 
L 3597 1613 
L 953 1613 
Q 991 1019 1311 708 
Q 1631 397 2203 397 
Q 2534 397 2845 478 
Q 3156 559 3463 722 
L 3463 178 
Q 3153 47 2828 -22 
Q 2503 -91 2169 -91 
Q 1331 -91 842 396 
Q 353 884 353 1716 
Q 353 2575 817 3079 
Q 1281 3584 2069 3584 
Q 2775 3584 3186 3129 
Q 3597 2675 3597 1894 
z
M 3022 2063 
Q 3016 2534 2758 2815 
Q 2500 3097 2075 3097 
Q 1594 3097 1305 2825 
Q 1016 2553 972 2059 
L 3022 2063 
z
" transform="scale(0.015625)"/>
       <path id="DejaVuSans-71" d="M 947 1747 
Q 947 1113 1208 752 
Q 1469 391 1925 391 
Q 2381 391 2643 752 
Q 2906 1113 2906 1747 
Q 2906 2381 2643 2742 
Q 2381 3103 1925 3103 
Q 1469 3103 1208 2742 
Q 947 2381 947 1747 
z
M 2906 525 
Q 2725 213 2448 61 
Q 2172 -91 1784 -91 
Q 1150 -91 751 415 
Q 353 922 353 1747 
Q 353 2572 751 3078 
Q 1150 3584 1784 3584 
Q 2172 3584 2448 3432 
Q 2725 3281 2906 2969 
L 2906 3500 
L 3481 3500 
L 3481 -1331 
L 2906 -1331 
L 2906 525 
z
" transform="scale(0.015625)"/>
       <path id="DejaVuSans-fc" d="M 544 1381 
L 544 3500 
L 1119 3500 
L 1119 1403 
Q 1119 906 1312 657 
Q 1506 409 1894 409 
Q 2359 409 2629 706 
Q 2900 1003 2900 1516 
L 2900 3500 
L 3475 3500 
L 3475 0 
L 2900 0 
L 2900 538 
Q 2691 219 2414 64 
Q 2138 -91 1772 -91 
Q 1169 -91 856 284 
Q 544 659 544 1381 
z
M 1991 3584 
L 1991 3584 
z
M 2278 4850 
L 2912 4850 
L 2912 4219 
L 2278 4219 
L 2278 4850 
z
M 1056 4850 
L 1690 4850 
L 1690 4219 
L 1056 4219 
L 1056 4850 
z
" transform="scale(0.015625)"/>
       <path id="DejaVuSans-e8" d="M 3597 1894 
L 3597 1613 
L 953 1613 
Q 991 1019 1311 708 
Q 1631 397 2203 397 
Q 2534 397 2845 478 
Q 3156 559 3463 722 
L 3463 178 
Q 3153 47 2828 -22 
Q 2503 -91 2169 -91 
Q 1331 -91 842 396 
Q 353 884 353 1716 
Q 353 2575 817 3079 
Q 1281 3584 2069 3584 
Q 2775 3584 3186 3129 
Q 3597 2675 3597 1894 
z
M 3022 2063 
Q 3016 2534 2758 2815 
Q 2500 3097 2075 3097 
Q 1594 3097 1305 2825 
Q 1016 2553 972 2059 
L 3022 2063 
z
M 1579 5119 
L 2460 3950 
L 1982 3950 
L 963 5119 
L 1579 5119 
z
" transform="scale(0.015625)"/>
       <path id="DejaVuSans-73" d="M 2834 3397 
L 2834 2853 
Q 2591 2978 2328 3040 
Q 2066 3103 1784 3103 
Q 1356 3103 1142 2972 
Q 928 2841 928 2578 
Q 928 2378 1081 2264 
Q 1234 2150 1697 2047 
L 1894 2003 
Q 2506 1872 2764 1633 
Q 3022 1394 3022 966 
Q 3022 478 2636 193 
Q 2250 -91 1575 -91 
Q 1294 -91 989 -36 
Q 684 19 347 128 
L 347 722 
Q 666 556 975 473 
Q 1284 391 1588 391 
Q 1994 391 2212 530 
Q 2431 669 2431 922 
Q 2431 1156 2273 1281 
Q 2116 1406 1581 1522 
L 1381 1569 
Q 847 1681 609 1914 
Q 372 2147 372 2553 
Q 372 3047 722 3315 
Q 1072 3584 1716 3584 
Q 2034 3584 2315 3537 
Q 2597 3491 2834 3397 
z
" transform="scale(0.015625)"/>
       <path id="DejaVuSans-20" transform="scale(0.015625)"/>
       <path id="DejaVuSans-62" d="M 3116 1747 
Q 3116 2381 2855 2742 
Q 2594 3103 2138 3103 
Q 1681 3103 1420 2742 
Q 1159 2381 1159 1747 
Q 1159 1113 1420 752 
Q 1681 391 2138 391 
Q 2594 391 2855 752 
Q 3116 1113 3116 1747 
z
M 1159 2969 
Q 1341 3281 1617 3432 
Q 1894 3584 2278 3584 
Q 2916 3584 3314 3078 
Q 3713 2572 3713 1747 
Q 3713 922 3314 415 
Q 2916 -91 2278 -91 
Q 1894 -91 1617 61 
Q 1341 213 1159 525 
L 1159 0 
L 581 0 
L 581 4863 
L 1159 4863 
L 1159 2969 
z
" transform="scale(0.015625)"/>
       <path id="DejaVuSans-64" d="M 2906 2969 
L 2906 4863 
L 3481 4863 
L 3481 0 
L 2906 0 
L 2906 525 
Q 2725 213 2448 61 
Q 2172 -91 1784 -91 
Q 1150 -91 751 415 
Q 353 922 353 1747 
Q 353 2572 751 3078 
Q 1150 3584 1784 3584 
Q 2172 3584 2448 3432 
Q 2725 3281 2906 2969 
z
M 947 1747 
Q 947 1113 1208 752 
Q 1469 391 1925 391 
Q 2381 391 2643 752 
Q 2906 1113 2906 1747 
Q 2906 2381 2643 2742 
Q 2381 3103 1925 3103 
Q 1469 3103 1208 2742 
Q 947 2381 947 1747 
z
" transform="scale(0.015625)"/>
      </defs>
      <use xlink:href="#DejaVuSans-46"/>
      <use xlink:href="#DejaVuSans-72" transform="translate(50.269531 0)"/>
      <use xlink:href="#DejaVuSans-65" transform="translate(89.132812 0)"/>
      <use xlink:href="#DejaVuSans-71" transform="translate(150.65625 0)"/>
      <use xlink:href="#DejaVuSans-fc" transform="translate(214.132812 0)"/>
      <use xlink:href="#DejaVuSans-e8" transform="translate(277.511719 0)"/>
      <use xlink:href="#DejaVuSans-6e" transform="translate(339.035156 0)"/>
      <use xlink:href="#DejaVuSans-63" transform="translate(402.414062 0)"/>
      <use xlink:href="#DejaVuSans-69" transform="translate(457.394531 0)"/>
      <use xlink:href="#DejaVuSans-65" transform="translate(485.177734 0)"/>
      <use xlink:href="#DejaVuSans-73" transform="translate(546.701172 0)"/>
      <use xlink:href="#DejaVuSans-20" transform="translate(598.800781 0)"/>
      <use xlink:href="#DejaVuSans-62" transform="translate(630.587891 0)"/>
      <use xlink:href="#DejaVuSans-61" transform="translate(694.064453 0)"/>
      <use xlink:href="#DejaVuSans-73" transform="translate(755.34375 0)"/>
      <use xlink:href="#DejaVuSans-65" transform="translate(807.443359 0)"/>
      <use xlink:href="#DejaVuSans-20" transform="translate(868.966797 0)"/>
      <use xlink:href="#DejaVuSans-64" transform="translate(900.753906 0)"/>
      <use xlink:href="#DejaVuSans-65" transform="translate(964.230469 0)"/>
      <use xlink:href="#DejaVuSans-20" transform="translate(1025.753906 0)"/>
      <use xlink:href="#DejaVuSans-64" transform="translate(1057.541016 0)"/>
      <use xlink:href="#DejaVuSans-61" transform="translate(1121.017578 0)"/>
      <use xlink:href="#DejaVuSans-64" transform="translate(1182.296875 0)"/>
      <use xlink:href="#DejaVuSans-65" transform="translate(1245.773438 0)"/>
      <use xlink:href="#DejaVuSans-73" transform="translate(1307.296875 0)"/>
     </g>
    </g>
   </g>
   <g id="patch_71">
    <path d="M 90 384.48 
L 90 51.84 
" style="fill: none; stroke: #000000; stroke-width: 0.8; stroke-linejoin: miter; stroke-linecap: square"/>
   </g>
   <g id="patch_72">
    <path d="M 648 384.48 
L 648 51.84 
" style="fill: none; stroke: #000000; stroke-width: 0.8; stroke-linejoin: miter; stroke-linecap: square"/>
   </g>
   <g id="patch_73">
    <path d="M 90 384.48 
L 648 384.48 
" style="fill: none; stroke: #000000; stroke-width: 0.8; stroke-linejoin: miter; stroke-linecap: square"/>
   </g>
   <g id="patch_74">
    <path d="M 90 51.84 
L 648 51.84 
" style="fill: none; stroke: #000000; stroke-width: 0.8; stroke-linejoin: miter; stroke-linecap: square"/>
   </g>
  </g>
  <g id="axes_2">
   <g id="patch_75">
    <path d="M 116.109626 1005399.708554 
L 122.07754 1005399.708554 
L 122.07754 1005399.708554 
L 116.109626 1005399.708554 
z
" clip-path="url(#pe9c1b2f142)" style="fill: #ff0000; opacity: 0.6; stroke: #000000; stroke-linejoin: miter"/>
   </g>
   <g id="patch_76">
    <path d="M 123.569519 1005399.708554 
L 129.537433 1005399.708554 
L 129.537433 1005399.708554 
L 123.569519 1005399.708554 
z
" clip-path="url(#pe9c1b2f142)" style="fill: #ff0000; opacity: 0.6; stroke: #000000; stroke-linejoin: miter"/>
   </g>
   <g id="patch_77">
    <path d="M 131.029412 1005399.708554 
L 136.997326 1005399.708554 
L 136.997326 1005399.708554 
L 131.029412 1005399.708554 
z
" clip-path="url(#pe9c1b2f142)" style="fill: #ff0000; opacity: 0.6; stroke: #000000; stroke-linejoin: miter"/>
   </g>
   <g id="patch_78">
    <path d="M 138.489305 1005399.708554 
L 144.457219 1005399.708554 
L 144.457219 66.96 
L 138.489305 66.96 
z
" clip-path="url(#pe9c1b2f142)" style="fill: #ff0000; opacity: 0.6; stroke: #000000; stroke-linejoin: miter"/>
   </g>
   <g id="patch_79">
    <path d="M 145.949198 1005399.708554 
L 151.917112 1005399.708554 
L 151.917112 1005399.708554 
L 145.949198 1005399.708554 
z
" clip-path="url(#pe9c1b2f142)" style="fill: #ff0000; opacity: 0.6; stroke: #000000; stroke-linejoin: miter"/>
   </g>
   <g id="patch_80">
    <path d="M 153.409091 1005399.708554 
L 159.377005 1005399.708554 
L 159.377005 1005399.708554 
L 153.409091 1005399.708554 
z
" clip-path="url(#pe9c1b2f142)" style="fill: #ff0000; opacity: 0.6; stroke: #000000; stroke-linejoin: miter"/>
   </g>
   <g id="patch_81">
    <path d="M 160.868984 1005399.708554 
L 166.836898 1005399.708554 
L 166.836898 1005399.708554 
L 160.868984 1005399.708554 
z
" clip-path="url(#pe9c1b2f142)" style="fill: #ff0000; opacity: 0.6; stroke: #000000; stroke-linejoin: miter"/>
   </g>
   <g id="patch_82">
    <path d="M 168.328877 1005399.708554 
L 174.296791 1005399.708554 
L 174.296791 369.36 
L 168.328877 369.36 
z
" clip-path="url(#pe9c1b2f142)" style="fill: #ff0000; opacity: 0.6; stroke: #000000; stroke-linejoin: miter"/>
   </g>
   <g id="patch_83">
    <path d="M 175.78877 1005399.708554 
L 181.756684 1005399.708554 
L 181.756684 1005399.708554 
L 175.78877 1005399.708554 
z
" clip-path="url(#pe9c1b2f142)" style="fill: #ff0000; opacity: 0.6; stroke: #000000; stroke-linejoin: miter"/>
   </g>
   <g id="patch_84">
    <path d="M 183.248663 1005399.708554 
L 189.216578 1005399.708554 
L 189.216578 369.36 
L 183.248663 369.36 
z
" clip-path="url(#pe9c1b2f142)" style="fill: #ff0000; opacity: 0.6; stroke: #000000; stroke-linejoin: miter"/>
   </g>
   <g id="patch_85">
    <path d="M 190.708556 1005399.708554 
L 196.676471 1005399.708554 
L 196.676471 1005399.708554 
L 190.708556 1005399.708554 
z
" clip-path="url(#pe9c1b2f142)" style="fill: #ff0000; opacity: 0.6; stroke: #000000; stroke-linejoin: miter"/>
   </g>
   <g id="patch_86">
    <path d="M 198.168449 1005399.708554 
L 204.136364 1005399.708554 
L 204.136364 1005399.708554 
L 198.168449 1005399.708554 
z
" clip-path="url(#pe9c1b2f142)" style="fill: #ff0000; opacity: 0.6; stroke: #000000; stroke-linejoin: miter"/>
   </g>
   <g id="patch_87">
    <path d="M 205.628342 1005399.708554 
L 211.596257 1005399.708554 
L 211.596257 1005399.708554 
L 205.628342 1005399.708554 
z
" clip-path="url(#pe9c1b2f142)" style="fill: #ff0000; opacity: 0.6; stroke: #000000; stroke-linejoin: miter"/>
   </g>
   <g id="patch_88">
    <path d="M 213.088235 1005399.708554 
L 219.05615 1005399.708554 
L 219.05615 66.96 
L 213.088235 66.96 
z
" clip-path="url(#pe9c1b2f142)" style="fill: #ff0000; opacity: 0.6; stroke: #000000; stroke-linejoin: miter"/>
   </g>
   <g id="patch_89">
    <path d="M 220.548128 1005399.708554 
L 226.516043 1005399.708554 
L 226.516043 1005399.708554 
L 220.548128 1005399.708554 
z
" clip-path="url(#pe9c1b2f142)" style="fill: #ff0000; opacity: 0.6; stroke: #000000; stroke-linejoin: miter"/>
   </g>
   <g id="patch_90">
    <path d="M 228.008021 1005399.708554 
L 233.975936 1005399.708554 
L 233.975936 1005399.708554 
L 228.008021 1005399.708554 
z
" clip-path="url(#pe9c1b2f142)" style="fill: #ff0000; opacity: 0.6; stroke: #000000; stroke-linejoin: miter"/>
   </g>
   <g id="patch_91">
    <path d="M 235.467914 1005399.708554 
L 241.435829 1005399.708554 
L 241.435829 66.96 
L 235.467914 66.96 
z
" clip-path="url(#pe9c1b2f142)" style="fill: #ff0000; opacity: 0.6; stroke: #000000; stroke-linejoin: miter"/>
   </g>
   <g id="patch_92">
    <path d="M 242.927807 1005399.708554 
L 248.895722 1005399.708554 
L 248.895722 1005399.708554 
L 242.927807 1005399.708554 
z
" clip-path="url(#pe9c1b2f142)" style="fill: #ff0000; opacity: 0.6; stroke: #000000; stroke-linejoin: miter"/>
   </g>
   <g id="patch_93">
    <path d="M 250.387701 1005399.708554 
L 256.355615 1005399.708554 
L 256.355615 369.36 
L 250.387701 369.36 
z
" clip-path="url(#pe9c1b2f142)" style="fill: #ff0000; opacity: 0.6; stroke: #000000; stroke-linejoin: miter"/>
   </g>
   <g id="patch_94">
    <path d="M 257.847594 1005399.708554 
L 263.815508 1005399.708554 
L 263.815508 1005399.708554 
L 257.847594 1005399.708554 
z
" clip-path="url(#pe9c1b2f142)" style="fill: #ff0000; opacity: 0.6; stroke: #000000; stroke-linejoin: miter"/>
   </g>
   <g id="patch_95">
    <path d="M 265.307487 1005399.708554 
L 271.275401 1005399.708554 
L 271.275401 1005399.708554 
L 265.307487 1005399.708554 
z
" clip-path="url(#pe9c1b2f142)" style="fill: #ff0000; opacity: 0.6; stroke: #000000; stroke-linejoin: miter"/>
   </g>
   <g id="patch_96">
    <path d="M 272.76738 1005399.708554 
L 278.735294 1005399.708554 
L 278.735294 1005399.708554 
L 272.76738 1005399.708554 
z
" clip-path="url(#pe9c1b2f142)" style="fill: #ff0000; opacity: 0.6; stroke: #000000; stroke-linejoin: miter"/>
   </g>
   <g id="patch_97">
    <path d="M 280.227273 1005399.708554 
L 286.195187 1005399.708554 
L 286.195187 1005399.708554 
L 280.227273 1005399.708554 
z
" clip-path="url(#pe9c1b2f142)" style="fill: #ff0000; opacity: 0.6; stroke: #000000; stroke-linejoin: miter"/>
   </g>
   <g id="patch_98">
    <path d="M 287.687166 1005399.708554 
L 293.65508 1005399.708554 
L 293.65508 369.36 
L 287.687166 369.36 
z
" clip-path="url(#pe9c1b2f142)" style="fill: #ff0000; opacity: 0.6; stroke: #000000; stroke-linejoin: miter"/>
   </g>
   <g id="patch_99">
    <path d="M 295.147059 1005399.708554 
L 301.114973 1005399.708554 
L 301.114973 1005399.708554 
L 295.147059 1005399.708554 
z
" clip-path="url(#pe9c1b2f142)" style="fill: #ff0000; opacity: 0.6; stroke: #000000; stroke-linejoin: miter"/>
   </g>
   <g id="patch_100">
    <path d="M 302.606952 1005399.708554 
L 308.574866 1005399.708554 
L 308.574866 1005399.708554 
L 302.606952 1005399.708554 
z
" clip-path="url(#pe9c1b2f142)" style="fill: #ff0000; opacity: 0.6; stroke: #000000; stroke-linejoin: miter"/>
   </g>
   <g id="patch_101">
    <path d="M 310.066845 1005399.708554 
L 316.034759 1005399.708554 
L 316.034759 1005399.708554 
L 310.066845 1005399.708554 
z
" clip-path="url(#pe9c1b2f142)" style="fill: #ff0000; opacity: 0.6; stroke: #000000; stroke-linejoin: miter"/>
   </g>
   <g id="patch_102">
    <path d="M 317.526738 1005399.708554 
L 323.494652 1005399.708554 
L 323.494652 1005399.708554 
L 317.526738 1005399.708554 
z
" clip-path="url(#pe9c1b2f142)" style="fill: #ff0000; opacity: 0.6; stroke: #000000; stroke-linejoin: miter"/>
   </g>
   <g id="patch_103">
    <path d="M 324.986631 1005399.708554 
L 330.954545 1005399.708554 
L 330.954545 1005399.708554 
L 324.986631 1005399.708554 
z
" clip-path="url(#pe9c1b2f142)" style="fill: #ff0000; opacity: 0.6; stroke: #000000; stroke-linejoin: miter"/>
   </g>
   <g id="patch_104">
    <path d="M 332.446524 1005399.708554 
L 338.414439 1005399.708554 
L 338.414439 1005399.708554 
L 332.446524 1005399.708554 
z
" clip-path="url(#pe9c1b2f142)" style="fill: #ff0000; opacity: 0.6; stroke: #000000; stroke-linejoin: miter"/>
   </g>
   <g id="patch_105">
    <path d="M 339.906417 1005399.708554 
L 345.874332 1005399.708554 
L 345.874332 1005399.708554 
L 339.906417 1005399.708554 
z
" clip-path="url(#pe9c1b2f142)" style="fill: #ff0000; opacity: 0.6; stroke: #000000; stroke-linejoin: miter"/>
   </g>
   <g id="patch_106">
    <path d="M 347.36631 1005399.708554 
L 353.334225 1005399.708554 
L 353.334225 1005399.708554 
L 347.36631 1005399.708554 
z
" clip-path="url(#pe9c1b2f142)" style="fill: #ff0000; opacity: 0.6; stroke: #000000; stroke-linejoin: miter"/>
   </g>
   <g id="patch_107">
    <path d="M 354.826203 1005399.708554 
L 360.794118 1005399.708554 
L 360.794118 369.36 
L 354.826203 369.36 
z
" clip-path="url(#pe9c1b2f142)" style="fill: #ff0000; opacity: 0.6; stroke: #000000; stroke-linejoin: miter"/>
   </g>
   <g id="patch_108">
    <path d="M 362.286096 1005399.708554 
L 368.254011 1005399.708554 
L 368.254011 1005399.708554 
L 362.286096 1005399.708554 
z
" clip-path="url(#pe9c1b2f142)" style="fill: #ff0000; opacity: 0.6; stroke: #000000; stroke-linejoin: miter"/>
   </g>
   <g id="patch_109">
    <path d="M 369.745989 1005399.708554 
L 375.713904 1005399.708554 
L 375.713904 1005399.708554 
L 369.745989 1005399.708554 
z
" clip-path="url(#pe9c1b2f142)" style="fill: #ff0000; opacity: 0.6; stroke: #000000; stroke-linejoin: miter"/>
   </g>
   <g id="patch_110">
    <path d="M 377.205882 1005399.708554 
L 383.173797 1005399.708554 
L 383.173797 1005399.708554 
L 377.205882 1005399.708554 
z
" clip-path="url(#pe9c1b2f142)" style="fill: #ff0000; opacity: 0.6; stroke: #000000; stroke-linejoin: miter"/>
   </g>
   <g id="patch_111">
    <path d="M 384.665775 1005399.708554 
L 390.63369 1005399.708554 
L 390.63369 1005399.708554 
L 384.665775 1005399.708554 
z
" clip-path="url(#pe9c1b2f142)" style="fill: #ff0000; opacity: 0.6; stroke: #000000; stroke-linejoin: miter"/>
   </g>
   <g id="patch_112">
    <path d="M 392.125668 1005399.708554 
L 398.093583 1005399.708554 
L 398.093583 1005399.708554 
L 392.125668 1005399.708554 
z
" clip-path="url(#pe9c1b2f142)" style="fill: #ff0000; opacity: 0.6; stroke: #000000; stroke-linejoin: miter"/>
   </g>
   <g id="patch_113">
    <path d="M 399.585561 1005399.708554 
L 405.553476 1005399.708554 
L 405.553476 1005399.708554 
L 399.585561 1005399.708554 
z
" clip-path="url(#pe9c1b2f142)" style="fill: #ff0000; opacity: 0.6; stroke: #000000; stroke-linejoin: miter"/>
   </g>
   <g id="patch_114">
    <path d="M 407.045455 1005399.708554 
L 413.013369 1005399.708554 
L 413.013369 1005399.708554 
L 407.045455 1005399.708554 
z
" clip-path="url(#pe9c1b2f142)" style="fill: #ff0000; opacity: 0.6; stroke: #000000; stroke-linejoin: miter"/>
   </g>
   <g id="patch_115">
    <path d="M 414.505348 1005399.708554 
L 420.473262 1005399.708554 
L 420.473262 1005399.708554 
L 414.505348 1005399.708554 
z
" clip-path="url(#pe9c1b2f142)" style="fill: #ff0000; opacity: 0.6; stroke: #000000; stroke-linejoin: miter"/>
   </g>
   <g id="patch_116">
    <path d="M 421.965241 1005399.708554 
L 427.933155 1005399.708554 
L 427.933155 1005399.708554 
L 421.965241 1005399.708554 
z
" clip-path="url(#pe9c1b2f142)" style="fill: #ff0000; opacity: 0.6; stroke: #000000; stroke-linejoin: miter"/>
   </g>
   <g id="patch_117">
    <path d="M 429.425134 1005399.708554 
L 435.393048 1005399.708554 
L 435.393048 1005399.708554 
L 429.425134 1005399.708554 
z
" clip-path="url(#pe9c1b2f142)" style="fill: #ff0000; opacity: 0.6; stroke: #000000; stroke-linejoin: miter"/>
   </g>
   <g id="patch_118">
    <path d="M 436.885027 1005399.708554 
L 442.852941 1005399.708554 
L 442.852941 1005399.708554 
L 436.885027 1005399.708554 
z
" clip-path="url(#pe9c1b2f142)" style="fill: #ff0000; opacity: 0.6; stroke: #000000; stroke-linejoin: miter"/>
   </g>
   <g id="patch_119">
    <path d="M 444.34492 1005399.708554 
L 450.312834 1005399.708554 
L 450.312834 1005399.708554 
L 444.34492 1005399.708554 
z
" clip-path="url(#pe9c1b2f142)" style="fill: #ff0000; opacity: 0.6; stroke: #000000; stroke-linejoin: miter"/>
   </g>
   <g id="patch_120">
    <path d="M 451.804813 1005399.708554 
L 457.772727 1005399.708554 
L 457.772727 1005399.708554 
L 451.804813 1005399.708554 
z
" clip-path="url(#pe9c1b2f142)" style="fill: #ff0000; opacity: 0.6; stroke: #000000; stroke-linejoin: miter"/>
   </g>
   <g id="patch_121">
    <path d="M 459.264706 1005399.708554 
L 465.23262 1005399.708554 
L 465.23262 1005399.708554 
L 459.264706 1005399.708554 
z
" clip-path="url(#pe9c1b2f142)" style="fill: #ff0000; opacity: 0.6; stroke: #000000; stroke-linejoin: miter"/>
   </g>
   <g id="patch_122">
    <path d="M 466.724599 1005399.708554 
L 472.692513 1005399.708554 
L 472.692513 1005399.708554 
L 466.724599 1005399.708554 
z
" clip-path="url(#pe9c1b2f142)" style="fill: #ff0000; opacity: 0.6; stroke: #000000; stroke-linejoin: miter"/>
   </g>
   <g id="patch_123">
    <path d="M 474.184492 1005399.708554 
L 480.152406 1005399.708554 
L 480.152406 1005399.708554 
L 474.184492 1005399.708554 
z
" clip-path="url(#pe9c1b2f142)" style="fill: #ff0000; opacity: 0.6; stroke: #000000; stroke-linejoin: miter"/>
   </g>
   <g id="patch_124">
    <path d="M 481.644385 1005399.708554 
L 487.612299 1005399.708554 
L 487.612299 1005399.708554 
L 481.644385 1005399.708554 
z
" clip-path="url(#pe9c1b2f142)" style="fill: #ff0000; opacity: 0.6; stroke: #000000; stroke-linejoin: miter"/>
   </g>
   <g id="patch_125">
    <path d="M 489.104278 1005399.708554 
L 495.072193 1005399.708554 
L 495.072193 1005399.708554 
L 489.104278 1005399.708554 
z
" clip-path="url(#pe9c1b2f142)" style="fill: #ff0000; opacity: 0.6; stroke: #000000; stroke-linejoin: miter"/>
   </g>
   <g id="patch_126">
    <path d="M 496.564171 1005399.708554 
L 502.532086 1005399.708554 
L 502.532086 1005399.708554 
L 496.564171 1005399.708554 
z
" clip-path="url(#pe9c1b2f142)" style="fill: #ff0000; opacity: 0.6; stroke: #000000; stroke-linejoin: miter"/>
   </g>
   <g id="patch_127">
    <path d="M 504.024064 1005399.708554 
L 509.991979 1005399.708554 
L 509.991979 1005399.708554 
L 504.024064 1005399.708554 
z
" clip-path="url(#pe9c1b2f142)" style="fill: #ff0000; opacity: 0.6; stroke: #000000; stroke-linejoin: miter"/>
   </g>
   <g id="patch_128">
    <path d="M 511.483957 1005399.708554 
L 517.451872 1005399.708554 
L 517.451872 1005399.708554 
L 511.483957 1005399.708554 
z
" clip-path="url(#pe9c1b2f142)" style="fill: #ff0000; opacity: 0.6; stroke: #000000; stroke-linejoin: miter"/>
   </g>
   <g id="patch_129">
    <path d="M 518.94385 1005399.708554 
L 524.911765 1005399.708554 
L 524.911765 1005399.708554 
L 518.94385 1005399.708554 
z
" clip-path="url(#pe9c1b2f142)" style="fill: #ff0000; opacity: 0.6; stroke: #000000; stroke-linejoin: miter"/>
   </g>
   <g id="patch_130">
    <path d="M 526.403743 1005399.708554 
L 532.371658 1005399.708554 
L 532.371658 1005399.708554 
L 526.403743 1005399.708554 
z
" clip-path="url(#pe9c1b2f142)" style="fill: #ff0000; opacity: 0.6; stroke: #000000; stroke-linejoin: miter"/>
   </g>
   <g id="patch_131">
    <path d="M 533.863636 1005399.708554 
L 539.831551 1005399.708554 
L 539.831551 1005399.708554 
L 533.863636 1005399.708554 
z
" clip-path="url(#pe9c1b2f142)" style="fill: #ff0000; opacity: 0.6; stroke: #000000; stroke-linejoin: miter"/>
   </g>
   <g id="patch_132">
    <path d="M 541.323529 1005399.708554 
L 547.291444 1005399.708554 
L 547.291444 1005399.708554 
L 541.323529 1005399.708554 
z
" clip-path="url(#pe9c1b2f142)" style="fill: #ff0000; opacity: 0.6; stroke: #000000; stroke-linejoin: miter"/>
   </g>
   <g id="patch_133">
    <path d="M 548.783422 1005399.708554 
L 554.751337 1005399.708554 
L 554.751337 1005399.708554 
L 548.783422 1005399.708554 
z
" clip-path="url(#pe9c1b2f142)" style="fill: #ff0000; opacity: 0.6; stroke: #000000; stroke-linejoin: miter"/>
   </g>
   <g id="patch_134">
    <path d="M 556.243316 1005399.708554 
L 562.21123 1005399.708554 
L 562.21123 1005399.708554 
L 556.243316 1005399.708554 
z
" clip-path="url(#pe9c1b2f142)" style="fill: #ff0000; opacity: 0.6; stroke: #000000; stroke-linejoin: miter"/>
   </g>
   <g id="patch_135">
    <path d="M 563.703209 1005399.708554 
L 569.671123 1005399.708554 
L 569.671123 1005399.708554 
L 563.703209 1005399.708554 
z
" clip-path="url(#pe9c1b2f142)" style="fill: #ff0000; opacity: 0.6; stroke: #000000; stroke-linejoin: miter"/>
   </g>
   <g id="patch_136">
    <path d="M 571.163102 1005399.708554 
L 577.131016 1005399.708554 
L 577.131016 1005399.708554 
L 571.163102 1005399.708554 
z
" clip-path="url(#pe9c1b2f142)" style="fill: #ff0000; opacity: 0.6; stroke: #000000; stroke-linejoin: miter"/>
   </g>
   <g id="patch_137">
    <path d="M 578.622995 1005399.708554 
L 584.590909 1005399.708554 
L 584.590909 1005399.708554 
L 578.622995 1005399.708554 
z
" clip-path="url(#pe9c1b2f142)" style="fill: #ff0000; opacity: 0.6; stroke: #000000; stroke-linejoin: miter"/>
   </g>
   <g id="patch_138">
    <path d="M 586.082888 1005399.708554 
L 592.050802 1005399.708554 
L 592.050802 1005399.708554 
L 586.082888 1005399.708554 
z
" clip-path="url(#pe9c1b2f142)" style="fill: #ff0000; opacity: 0.6; stroke: #000000; stroke-linejoin: miter"/>
   </g>
   <g id="patch_139">
    <path d="M 593.542781 1005399.708554 
L 599.510695 1005399.708554 
L 599.510695 1005399.708554 
L 593.542781 1005399.708554 
z
" clip-path="url(#pe9c1b2f142)" style="fill: #ff0000; opacity: 0.6; stroke: #000000; stroke-linejoin: miter"/>
   </g>
   <g id="patch_140">
    <path d="M 601.002674 1005399.708554 
L 606.970588 1005399.708554 
L 606.970588 1005399.708554 
L 601.002674 1005399.708554 
z
" clip-path="url(#pe9c1b2f142)" style="fill: #ff0000; opacity: 0.6; stroke: #000000; stroke-linejoin: miter"/>
   </g>
   <g id="patch_141">
    <path d="M 608.462567 1005399.708554 
L 614.430481 1005399.708554 
L 614.430481 1005399.708554 
L 608.462567 1005399.708554 
z
" clip-path="url(#pe9c1b2f142)" style="fill: #ff0000; opacity: 0.6; stroke: #000000; stroke-linejoin: miter"/>
   </g>
   <g id="patch_142">
    <path d="M 615.92246 1005399.708554 
L 621.890374 1005399.708554 
L 621.890374 1005399.708554 
L 615.92246 1005399.708554 
z
" clip-path="url(#pe9c1b2f142)" style="fill: #ff0000; opacity: 0.6; stroke: #000000; stroke-linejoin: miter"/>
   </g>
   <g id="matplotlib.axis_3">
    <g id="ytick_23">
     <g id="line2d_61">
      <defs>
       <path id="m6fe825f5e9" d="M 0 0 
L 2 0 
" style="stroke: #000000; stroke-width: 0.6"/>
      </defs>
      <g>
       <use xlink:href="#m6fe825f5e9" x="648" y="369.36" style="stroke: #000000; stroke-width: 0.6"/>
      </g>
     </g>
     <g id="text_14">
      <!-- $\mathdefault{3\times10^{0}}$ -->
      <g transform="translate(653.4 373.159219) scale(0.1 -0.1)">
       <defs>
        <path id="DejaVuSans-d7" d="M 4488 3438 
L 3059 2003 
L 4488 575 
L 4116 197 
L 2681 1631 
L 1247 197 
L 878 575 
L 2303 2003 
L 878 3438 
L 1247 3816 
L 2681 2381 
L 4116 3816 
L 4488 3438 
z
" transform="scale(0.015625)"/>
       </defs>
       <use xlink:href="#DejaVuSans-33" transform="translate(0 0.765625)"/>
       <use xlink:href="#DejaVuSans-d7" transform="translate(83.105469 0.765625)"/>
       <use xlink:href="#DejaVuSans-31" transform="translate(186.376953 0.765625)"/>
       <use xlink:href="#DejaVuSans-30" transform="translate(250 0.765625)"/>
       <use xlink:href="#DejaVuSans-30" transform="translate(314.580078 39.046875) scale(0.7)"/>
      </g>
     </g>
    </g>
    <g id="ytick_24">
     <g id="line2d_62">
      <g>
       <use xlink:href="#m6fe825f5e9" x="648" y="243.85266" style="stroke: #000000; stroke-width: 0.6"/>
      </g>
     </g>
     <g id="text_15">
      <!-- $\mathdefault{4\times10^{0}}$ -->
      <g transform="translate(653.4 247.651879) scale(0.1 -0.1)">
       <use xlink:href="#DejaVuSans-34" transform="translate(0 0.765625)"/>
       <use xlink:href="#DejaVuSans-d7" transform="translate(83.105469 0.765625)"/>
       <use xlink:href="#DejaVuSans-31" transform="translate(186.376953 0.765625)"/>
       <use xlink:href="#DejaVuSans-30" transform="translate(250 0.765625)"/>
       <use xlink:href="#DejaVuSans-30" transform="translate(314.580078 39.046875) scale(0.7)"/>
      </g>
     </g>
    </g>
    <g id="ytick_25">
     <g id="line2d_63">
      <g>
       <use xlink:href="#m6fe825f5e9" x="648" y="146.501604" style="stroke: #000000; stroke-width: 0.6"/>
      </g>
     </g>
     <g id="text_16">
      <!-- $\mathdefault{5\times10^{0}}$ -->
      <g transform="translate(653.4 150.300823) scale(0.1 -0.1)">
       <use xlink:href="#DejaVuSans-35" transform="translate(0 0.765625)"/>
       <use xlink:href="#DejaVuSans-d7" transform="translate(83.105469 0.765625)"/>
       <use xlink:href="#DejaVuSans-31" transform="translate(186.376953 0.765625)"/>
       <use xlink:href="#DejaVuSans-30" transform="translate(250 0.765625)"/>
       <use xlink:href="#DejaVuSans-30" transform="translate(314.580078 39.046875) scale(0.7)"/>
      </g>
     </g>
    </g>
    <g id="ytick_26">
     <g id="line2d_64">
      <g>
       <use xlink:href="#m6fe825f5e9" x="648" y="66.96" style="stroke: #000000; stroke-width: 0.6"/>
      </g>
     </g>
     <g id="text_17">
      <!-- $\mathdefault{6\times10^{0}}$ -->
      <g transform="translate(653.4 70.759219) scale(0.1 -0.1)">
       <use xlink:href="#DejaVuSans-36" transform="translate(0 0.765625)"/>
       <use xlink:href="#DejaVuSans-d7" transform="translate(83.105469 0.765625)"/>
       <use xlink:href="#DejaVuSans-31" transform="translate(186.376953 0.765625)"/>
       <use xlink:href="#DejaVuSans-30" transform="translate(250 0.765625)"/>
       <use xlink:href="#DejaVuSans-30" transform="translate(314.580078 39.046875) scale(0.7)"/>
      </g>
     </g>
    </g>
    <g id="text_18">
     <!-- Freqüències molècula analitzada -->
     <g style="fill: #ff0000" transform="translate(701.598438 300.006875) rotate(-90) scale(0.1 -0.1)">
      <defs>
       <path id="DejaVuSans-6c" d="M 603 4863 
L 1178 4863 
L 1178 0 
L 603 0 
L 603 4863 
z
" transform="scale(0.015625)"/>
       <path id="DejaVuSans-75" d="M 544 1381 
L 544 3500 
L 1119 3500 
L 1119 1403 
Q 1119 906 1312 657 
Q 1506 409 1894 409 
Q 2359 409 2629 706 
Q 2900 1003 2900 1516 
L 2900 3500 
L 3475 3500 
L 3475 0 
L 2900 0 
L 2900 538 
Q 2691 219 2414 64 
Q 2138 -91 1772 -91 
Q 1169 -91 856 284 
Q 544 659 544 1381 
z
M 1991 3584 
L 1991 3584 
z
" transform="scale(0.015625)"/>
       <path id="DejaVuSans-74" d="M 1172 4494 
L 1172 3500 
L 2356 3500 
L 2356 3053 
L 1172 3053 
L 1172 1153 
Q 1172 725 1289 603 
Q 1406 481 1766 481 
L 2356 481 
L 2356 0 
L 1766 0 
Q 1100 0 847 248 
Q 594 497 594 1153 
L 594 3053 
L 172 3053 
L 172 3500 
L 594 3500 
L 594 4494 
L 1172 4494 
z
" transform="scale(0.015625)"/>
       <path id="DejaVuSans-7a" d="M 353 3500 
L 3084 3500 
L 3084 2975 
L 922 459 
L 3084 459 
L 3084 0 
L 275 0 
L 275 525 
L 2438 3041 
L 353 3041 
L 353 3500 
z
" transform="scale(0.015625)"/>
      </defs>
      <use xlink:href="#DejaVuSans-46"/>
      <use xlink:href="#DejaVuSans-72" transform="translate(50.269531 0)"/>
      <use xlink:href="#DejaVuSans-65" transform="translate(89.132812 0)"/>
      <use xlink:href="#DejaVuSans-71" transform="translate(150.65625 0)"/>
      <use xlink:href="#DejaVuSans-fc" transform="translate(214.132812 0)"/>
      <use xlink:href="#DejaVuSans-e8" transform="translate(277.511719 0)"/>
      <use xlink:href="#DejaVuSans-6e" transform="translate(339.035156 0)"/>
      <use xlink:href="#DejaVuSans-63" transform="translate(402.414062 0)"/>
      <use xlink:href="#DejaVuSans-69" transform="translate(457.394531 0)"/>
      <use xlink:href="#DejaVuSans-65" transform="translate(485.177734 0)"/>
      <use xlink:href="#DejaVuSans-73" transform="translate(546.701172 0)"/>
      <use xlink:href="#DejaVuSans-20" transform="translate(598.800781 0)"/>
      <use xlink:href="#DejaVuSans-6d" transform="translate(630.587891 0)"/>
      <use xlink:href="#DejaVuSans-6f" transform="translate(728 0)"/>
      <use xlink:href="#DejaVuSans-6c" transform="translate(789.181641 0)"/>
      <use xlink:href="#DejaVuSans-e8" transform="translate(816.964844 0)"/>
      <use xlink:href="#DejaVuSans-63" transform="translate(878.488281 0)"/>
      <use xlink:href="#DejaVuSans-75" transform="translate(933.46875 0)"/>
      <use xlink:href="#DejaVuSans-6c" transform="translate(996.847656 0)"/>
      <use xlink:href="#DejaVuSans-61" transform="translate(1024.630859 0)"/>
      <use xlink:href="#DejaVuSans-20" transform="translate(1085.910156 0)"/>
      <use xlink:href="#DejaVuSans-61" transform="translate(1117.697266 0)"/>
      <use xlink:href="#DejaVuSans-6e" transform="translate(1178.976562 0)"/>
      <use xlink:href="#DejaVuSans-61" transform="translate(1242.355469 0)"/>
      <use xlink:href="#DejaVuSans-6c" transform="translate(1303.634766 0)"/>
      <use xlink:href="#DejaVuSans-69" transform="translate(1331.417969 0)"/>
      <use xlink:href="#DejaVuSans-74" transform="translate(1359.201172 0)"/>
      <use xlink:href="#DejaVuSans-7a" transform="translate(1398.410156 0)"/>
      <use xlink:href="#DejaVuSans-61" transform="translate(1450.900391 0)"/>
      <use xlink:href="#DejaVuSans-64" transform="translate(1512.179688 0)"/>
      <use xlink:href="#DejaVuSans-61" transform="translate(1575.65625 0)"/>
     </g>
    </g>
   </g>
   <g id="patch_143">
    <path d="M 90 384.48 
L 90 51.84 
" style="fill: none; stroke: #000000; stroke-width: 0.8; stroke-linejoin: miter; stroke-linecap: square"/>
   </g>
   <g id="patch_144">
    <path d="M 648 384.48 
L 648 51.84 
" style="fill: none; stroke: #000000; stroke-width: 0.8; stroke-linejoin: miter; stroke-linecap: square"/>
   </g>
   <g id="patch_145">
    <path d="M 90 384.48 
L 648 384.48 
" style="fill: none; stroke: #000000; stroke-width: 0.8; stroke-linejoin: miter; stroke-linecap: square"/>
   </g>
   <g id="patch_146">
    <path d="M 90 51.84 
L 648 51.84 
" style="fill: none; stroke: #000000; stroke-width: 0.8; stroke-linejoin: miter; stroke-linecap: square"/>
   </g>
   <g id="text_19">
    <!-- Overlapping Histograms with Different Scales -->
    <g transform="translate(232.069688 45.84) scale(0.12 -0.12)">
     <defs>
      <path id="DejaVuSans-4f" d="M 2522 4238 
Q 1834 4238 1429 3725 
Q 1025 3213 1025 2328 
Q 1025 1447 1429 934 
Q 1834 422 2522 422 
Q 3209 422 3611 934 
Q 4013 1447 4013 2328 
Q 4013 3213 3611 3725 
Q 3209 4238 2522 4238 
z
M 2522 4750 
Q 3503 4750 4090 4092 
Q 4678 3434 4678 2328 
Q 4678 1225 4090 567 
Q 3503 -91 2522 -91 
Q 1538 -91 948 565 
Q 359 1222 359 2328 
Q 359 3434 948 4092 
Q 1538 4750 2522 4750 
z
" transform="scale(0.015625)"/>
      <path id="DejaVuSans-76" d="M 191 3500 
L 800 3500 
L 1894 563 
L 2988 3500 
L 3597 3500 
L 2284 0 
L 1503 0 
L 191 3500 
z
" transform="scale(0.015625)"/>
      <path id="DejaVuSans-70" d="M 1159 525 
L 1159 -1331 
L 581 -1331 
L 581 3500 
L 1159 3500 
L 1159 2969 
Q 1341 3281 1617 3432 
Q 1894 3584 2278 3584 
Q 2916 3584 3314 3078 
Q 3713 2572 3713 1747 
Q 3713 922 3314 415 
Q 2916 -91 2278 -91 
Q 1894 -91 1617 61 
Q 1341 213 1159 525 
z
M 3116 1747 
Q 3116 2381 2855 2742 
Q 2594 3103 2138 3103 
Q 1681 3103 1420 2742 
Q 1159 2381 1159 1747 
Q 1159 1113 1420 752 
Q 1681 391 2138 391 
Q 2594 391 2855 752 
Q 3116 1113 3116 1747 
z
" transform="scale(0.015625)"/>
      <path id="DejaVuSans-67" d="M 2906 1791 
Q 2906 2416 2648 2759 
Q 2391 3103 1925 3103 
Q 1463 3103 1205 2759 
Q 947 2416 947 1791 
Q 947 1169 1205 825 
Q 1463 481 1925 481 
Q 2391 481 2648 825 
Q 2906 1169 2906 1791 
z
M 3481 434 
Q 3481 -459 3084 -895 
Q 2688 -1331 1869 -1331 
Q 1566 -1331 1297 -1286 
Q 1028 -1241 775 -1147 
L 775 -588 
Q 1028 -725 1275 -790 
Q 1522 -856 1778 -856 
Q 2344 -856 2625 -561 
Q 2906 -266 2906 331 
L 2906 616 
Q 2728 306 2450 153 
Q 2172 0 1784 0 
Q 1141 0 747 490 
Q 353 981 353 1791 
Q 353 2603 747 3093 
Q 1141 3584 1784 3584 
Q 2172 3584 2450 3431 
Q 2728 3278 2906 2969 
L 2906 3500 
L 3481 3500 
L 3481 434 
z
" transform="scale(0.015625)"/>
      <path id="DejaVuSans-48" d="M 628 4666 
L 1259 4666 
L 1259 2753 
L 3553 2753 
L 3553 4666 
L 4184 4666 
L 4184 0 
L 3553 0 
L 3553 2222 
L 1259 2222 
L 1259 0 
L 628 0 
L 628 4666 
z
" transform="scale(0.015625)"/>
      <path id="DejaVuSans-77" d="M 269 3500 
L 844 3500 
L 1563 769 
L 2278 3500 
L 2956 3500 
L 3675 769 
L 4391 3500 
L 4966 3500 
L 4050 0 
L 3372 0 
L 2619 2869 
L 1863 0 
L 1184 0 
L 269 3500 
z
" transform="scale(0.015625)"/>
      <path id="DejaVuSans-68" d="M 3513 2113 
L 3513 0 
L 2938 0 
L 2938 2094 
Q 2938 2591 2744 2837 
Q 2550 3084 2163 3084 
Q 1697 3084 1428 2787 
Q 1159 2491 1159 1978 
L 1159 0 
L 581 0 
L 581 4863 
L 1159 4863 
L 1159 2956 
Q 1366 3272 1645 3428 
Q 1925 3584 2291 3584 
Q 2894 3584 3203 3211 
Q 3513 2838 3513 2113 
z
" transform="scale(0.015625)"/>
      <path id="DejaVuSans-44" d="M 1259 4147 
L 1259 519 
L 2022 519 
Q 2988 519 3436 956 
Q 3884 1394 3884 2338 
Q 3884 3275 3436 3711 
Q 2988 4147 2022 4147 
L 1259 4147 
z
M 628 4666 
L 1925 4666 
Q 3281 4666 3915 4102 
Q 4550 3538 4550 2338 
Q 4550 1131 3912 565 
Q 3275 0 1925 0 
L 628 0 
L 628 4666 
z
" transform="scale(0.015625)"/>
      <path id="DejaVuSans-53" d="M 3425 4513 
L 3425 3897 
Q 3066 4069 2747 4153 
Q 2428 4238 2131 4238 
Q 1616 4238 1336 4038 
Q 1056 3838 1056 3469 
Q 1056 3159 1242 3001 
Q 1428 2844 1947 2747 
L 2328 2669 
Q 3034 2534 3370 2195 
Q 3706 1856 3706 1288 
Q 3706 609 3251 259 
Q 2797 -91 1919 -91 
Q 1588 -91 1214 -16 
Q 841 59 441 206 
L 441 856 
Q 825 641 1194 531 
Q 1563 422 1919 422 
Q 2459 422 2753 634 
Q 3047 847 3047 1241 
Q 3047 1584 2836 1778 
Q 2625 1972 2144 2069 
L 1759 2144 
Q 1053 2284 737 2584 
Q 422 2884 422 3419 
Q 422 4038 858 4394 
Q 1294 4750 2059 4750 
Q 2388 4750 2728 4690 
Q 3069 4631 3425 4513 
z
" transform="scale(0.015625)"/>
     </defs>
     <use xlink:href="#DejaVuSans-4f"/>
     <use xlink:href="#DejaVuSans-76" transform="translate(78.710938 0)"/>
     <use xlink:href="#DejaVuSans-65" transform="translate(137.890625 0)"/>
     <use xlink:href="#DejaVuSans-72" transform="translate(199.414062 0)"/>
     <use xlink:href="#DejaVuSans-6c" transform="translate(240.527344 0)"/>
     <use xlink:href="#DejaVuSans-61" transform="translate(268.310547 0)"/>
     <use xlink:href="#DejaVuSans-70" transform="translate(329.589844 0)"/>
     <use xlink:href="#DejaVuSans-70" transform="translate(393.066406 0)"/>
     <use xlink:href="#DejaVuSans-69" transform="translate(456.542969 0)"/>
     <use xlink:href="#DejaVuSans-6e" transform="translate(484.326172 0)"/>
     <use xlink:href="#DejaVuSans-67" transform="translate(547.705078 0)"/>
     <use xlink:href="#DejaVuSans-20" transform="translate(611.181641 0)"/>
     <use xlink:href="#DejaVuSans-48" transform="translate(642.96875 0)"/>
     <use xlink:href="#DejaVuSans-69" transform="translate(718.164062 0)"/>
     <use xlink:href="#DejaVuSans-73" transform="translate(745.947266 0)"/>
     <use xlink:href="#DejaVuSans-74" transform="translate(798.046875 0)"/>
     <use xlink:href="#DejaVuSans-6f" transform="translate(837.255859 0)"/>
     <use xlink:href="#DejaVuSans-67" transform="translate(898.4375 0)"/>
     <use xlink:href="#DejaVuSans-72" transform="translate(961.914062 0)"/>
     <use xlink:href="#DejaVuSans-61" transform="translate(1003.027344 0)"/>
     <use xlink:href="#DejaVuSans-6d" transform="translate(1064.306641 0)"/>
     <use xlink:href="#DejaVuSans-73" transform="translate(1161.71875 0)"/>
     <use xlink:href="#DejaVuSans-20" transform="translate(1213.818359 0)"/>
     <use xlink:href="#DejaVuSans-77" transform="translate(1245.605469 0)"/>
     <use xlink:href="#DejaVuSans-69" transform="translate(1327.392578 0)"/>
     <use xlink:href="#DejaVuSans-74" transform="translate(1355.175781 0)"/>
     <use xlink:href="#DejaVuSans-68" transform="translate(1394.384766 0)"/>
     <use xlink:href="#DejaVuSans-20" transform="translate(1457.763672 0)"/>
     <use xlink:href="#DejaVuSans-44" transform="translate(1489.550781 0)"/>
     <use xlink:href="#DejaVuSans-69" transform="translate(1566.552734 0)"/>
     <use xlink:href="#DejaVuSans-66" transform="translate(1594.335938 0)"/>
     <use xlink:href="#DejaVuSans-66" transform="translate(1629.541016 0)"/>
     <use xlink:href="#DejaVuSans-65" transform="translate(1664.746094 0)"/>
     <use xlink:href="#DejaVuSans-72" transform="translate(1726.269531 0)"/>
     <use xlink:href="#DejaVuSans-65" transform="translate(1765.132812 0)"/>
     <use xlink:href="#DejaVuSans-6e" transform="translate(1826.65625 0)"/>
     <use xlink:href="#DejaVuSans-74" transform="translate(1890.035156 0)"/>
     <use xlink:href="#DejaVuSans-20" transform="translate(1929.244141 0)"/>
     <use xlink:href="#DejaVuSans-53" transform="translate(1961.03125 0)"/>
     <use xlink:href="#DejaVuSans-63" transform="translate(2024.507812 0)"/>
     <use xlink:href="#DejaVuSans-61" transform="translate(2079.488281 0)"/>
     <use xlink:href="#DejaVuSans-6c" transform="translate(2140.767578 0)"/>
     <use xlink:href="#DejaVuSans-65" transform="translate(2168.550781 0)"/>
     <use xlink:href="#DejaVuSans-73" transform="translate(2230.074219 0)"/>
    </g>
   </g>
  </g>
  <g id="legend_1">
   <g id="patch_147">
    <path d="M 445.30625 89.99625 
L 641 89.99625 
Q 643 89.99625 643 87.99625 
L 643 58.84 
Q 643 56.84 641 56.84 
L 445.30625 56.84 
Q 443.30625 56.84 443.30625 58.84 
L 443.30625 87.99625 
Q 443.30625 89.99625 445.30625 89.99625 
z
" style="fill: #ffffff; opacity: 0.8; stroke: #cccccc; stroke-linejoin: miter"/>
   </g>
   <g id="patch_148">
    <path d="M 447.30625 68.838437 
L 467.30625 68.838437 
L 467.30625 61.838437 
L 447.30625 61.838437 
z
" style="fill: #0000ff; stroke: #000000; stroke-linejoin: miter"/>
   </g>
   <g id="text_20">
    <!-- Freqüències base de dades -->
    <g transform="translate(475.30625 68.838437) scale(0.1 -0.1)">
     <use xlink:href="#DejaVuSans-46"/>
     <use xlink:href="#DejaVuSans-72" transform="translate(50.269531 0)"/>
     <use xlink:href="#DejaVuSans-65" transform="translate(89.132812 0)"/>
     <use xlink:href="#DejaVuSans-71" transform="translate(150.65625 0)"/>
     <use xlink:href="#DejaVuSans-fc" transform="translate(214.132812 0)"/>
     <use xlink:href="#DejaVuSans-e8" transform="translate(277.511719 0)"/>
     <use xlink:href="#DejaVuSans-6e" transform="translate(339.035156 0)"/>
     <use xlink:href="#DejaVuSans-63" transform="translate(402.414062 0)"/>
     <use xlink:href="#DejaVuSans-69" transform="translate(457.394531 0)"/>
     <use xlink:href="#DejaVuSans-65" transform="translate(485.177734 0)"/>
     <use xlink:href="#DejaVuSans-73" transform="translate(546.701172 0)"/>
     <use xlink:href="#DejaVuSans-20" transform="translate(598.800781 0)"/>
     <use xlink:href="#DejaVuSans-62" transform="translate(630.587891 0)"/>
     <use xlink:href="#DejaVuSans-61" transform="translate(694.064453 0)"/>
     <use xlink:href="#DejaVuSans-73" transform="translate(755.34375 0)"/>
     <use xlink:href="#DejaVuSans-65" transform="translate(807.443359 0)"/>
     <use xlink:href="#DejaVuSans-20" transform="translate(868.966797 0)"/>
     <use xlink:href="#DejaVuSans-64" transform="translate(900.753906 0)"/>
     <use xlink:href="#DejaVuSans-65" transform="translate(964.230469 0)"/>
     <use xlink:href="#DejaVuSans-20" transform="translate(1025.753906 0)"/>
     <use xlink:href="#DejaVuSans-64" transform="translate(1057.541016 0)"/>
     <use xlink:href="#DejaVuSans-61" transform="translate(1121.017578 0)"/>
     <use xlink:href="#DejaVuSans-64" transform="translate(1182.296875 0)"/>
     <use xlink:href="#DejaVuSans-65" transform="translate(1245.773438 0)"/>
     <use xlink:href="#DejaVuSans-73" transform="translate(1307.296875 0)"/>
    </g>
   </g>
   <g id="patch_149">
    <path d="M 447.30625 83.916562 
L 467.30625 83.916562 
L 467.30625 76.916562 
L 447.30625 76.916562 
z
" style="fill: #ff0000; opacity: 0.6; stroke: #000000; stroke-linejoin: miter"/>
   </g>
   <g id="text_21">
    <!-- Freqüències molècula analitzada -->
    <g transform="translate(475.30625 83.916562) scale(0.1 -0.1)">
     <use xlink:href="#DejaVuSans-46"/>
     <use xlink:href="#DejaVuSans-72" transform="translate(50.269531 0)"/>
     <use xlink:href="#DejaVuSans-65" transform="translate(89.132812 0)"/>
     <use xlink:href="#DejaVuSans-71" transform="translate(150.65625 0)"/>
     <use xlink:href="#DejaVuSans-fc" transform="translate(214.132812 0)"/>
     <use xlink:href="#DejaVuSans-e8" transform="translate(277.511719 0)"/>
     <use xlink:href="#DejaVuSans-6e" transform="translate(339.035156 0)"/>
     <use xlink:href="#DejaVuSans-63" transform="translate(402.414062 0)"/>
     <use xlink:href="#DejaVuSans-69" transform="translate(457.394531 0)"/>
     <use xlink:href="#DejaVuSans-65" transform="translate(485.177734 0)"/>
     <use xlink:href="#DejaVuSans-73" transform="translate(546.701172 0)"/>
     <use xlink:href="#DejaVuSans-20" transform="translate(598.800781 0)"/>
     <use xlink:href="#DejaVuSans-6d" transform="translate(630.587891 0)"/>
     <use xlink:href="#DejaVuSans-6f" transform="translate(728 0)"/>
     <use xlink:href="#DejaVuSans-6c" transform="translate(789.181641 0)"/>
     <use xlink:href="#DejaVuSans-e8" transform="translate(816.964844 0)"/>
     <use xlink:href="#DejaVuSans-63" transform="translate(878.488281 0)"/>
     <use xlink:href="#DejaVuSans-75" transform="translate(933.46875 0)"/>
     <use xlink:href="#DejaVuSans-6c" transform="translate(996.847656 0)"/>
     <use xlink:href="#DejaVuSans-61" transform="translate(1024.630859 0)"/>
     <use xlink:href="#DejaVuSans-20" transform="translate(1085.910156 0)"/>
     <use xlink:href="#DejaVuSans-61" transform="translate(1117.697266 0)"/>
     <use xlink:href="#DejaVuSans-6e" transform="translate(1178.976562 0)"/>
     <use xlink:href="#DejaVuSans-61" transform="translate(1242.355469 0)"/>
     <use xlink:href="#DejaVuSans-6c" transform="translate(1303.634766 0)"/>
     <use xlink:href="#DejaVuSans-69" transform="translate(1331.417969 0)"/>
     <use xlink:href="#DejaVuSans-74" transform="translate(1359.201172 0)"/>
     <use xlink:href="#DejaVuSans-7a" transform="translate(1398.410156 0)"/>
     <use xlink:href="#DejaVuSans-61" transform="translate(1450.900391 0)"/>
     <use xlink:href="#DejaVuSans-64" transform="translate(1512.179688 0)"/>
     <use xlink:href="#DejaVuSans-61" transform="translate(1575.65625 0)"/>
    </g>
   </g>
  </g>
 </g>
 <defs>
  <clipPath id="pe9c1b2f142">
   <rect x="90" y="51.84" width="558" height="332.64"/>
  </clipPath>
 </defs>
</svg>
