<?xml version="1.0" encoding="utf-8" standalone="no"?>
<!DOCTYPE svg PUBLIC "-//W3C//DTD SVG 1.1//EN"
  "http://www.w3.org/Graphics/SVG/1.1/DTD/svg11.dtd">
<svg xmlns:xlink="http://www.w3.org/1999/xlink" width="720pt" height="432pt" viewBox="0 0 720 432" xmlns="http://www.w3.org/2000/svg" version="1.1">
 <metadata>
  <rdf:RDF xmlns:dc="http://purl.org/dc/elements/1.1/" xmlns:cc="http://creativecommons.org/ns#" xmlns:rdf="http://www.w3.org/1999/02/22-rdf-syntax-ns#">
   <cc:Work>
    <dc:type rdf:resource="http://purl.org/dc/dcmitype/StillImage"/>
    <dc:date>2025-03-07T11:34:36.990751</dc:date>
    <dc:format>image/svg+xml</dc:format>
    <dc:creator>
     <cc:Agent>
      <dc:title>Matplotlib v3.10.0, https://matplotlib.org/</dc:title>
     </cc:Agent>
    </dc:creator>
   </cc:Work>
  </rdf:RDF>
 </metadata>
 <defs>
  <style type="text/css">*{stroke-linejoin: round; stroke-linecap: butt}</style>
 </defs>
 <g id="figure_1">
  <g id="patch_1">
   <path d="M 0 432 
L 720 432 
L 720 0 
L 0 0 
z
" style="fill: #ffffff"/>
  </g>
  <g id="axes_1">
   <g id="patch_2">
    <path d="M 90 384.48 
L 648 384.48 
L 648 51.84 
L 90 51.84 
z
" style="fill: #ffffff"/>
   </g>
   <g id="patch_3">
    <path d="M 115.363636 89007.609882 
L 122.934871 89007.609882 
L 122.934871 66.96 
L 115.363636 66.96 
z
" clip-path="url(#p984d6ba2f4)" style="fill: #0000ff; stroke: #000000; stroke-linejoin: miter"/>
   </g>
   <g id="patch_4">
    <path d="M 122.934871 89007.609882 
L 130.506106 89007.609882 
L 130.506106 102.796334 
L 122.934871 102.796334 
z
" clip-path="url(#p984d6ba2f4)" style="fill: #0000ff; stroke: #000000; stroke-linejoin: miter"/>
   </g>
   <g id="patch_5">
    <path d="M 130.506106 89007.609882 
L 138.077341 89007.609882 
L 138.077341 92.293986 
L 130.506106 92.293986 
z
" clip-path="url(#p984d6ba2f4)" style="fill: #0000ff; stroke: #000000; stroke-linejoin: miter"/>
   </g>
   <g id="patch_6">
    <path d="M 138.077341 89007.609882 
L 145.648575 89007.609882 
L 145.648575 205.813739 
L 138.077341 205.813739 
z
" clip-path="url(#p984d6ba2f4)" style="fill: #0000ff; stroke: #000000; stroke-linejoin: miter"/>
   </g>
   <g id="patch_7">
    <path d="M 145.648575 89007.609882 
L 153.21981 89007.609882 
L 153.21981 221.976056 
L 145.648575 221.976056 
z
" clip-path="url(#p984d6ba2f4)" style="fill: #0000ff; stroke: #000000; stroke-linejoin: miter"/>
   </g>
   <g id="patch_8">
    <path d="M 153.21981 89007.609882 
L 160.791045 89007.609882 
L 160.791045 116.359308 
L 153.21981 116.359308 
z
" clip-path="url(#p984d6ba2f4)" style="fill: #0000ff; stroke: #000000; stroke-linejoin: miter"/>
   </g>
   <g id="patch_9">
    <path d="M 160.791045 89007.609882 
L 168.36228 89007.609882 
L 168.36228 218.003968 
L 160.791045 218.003968 
z
" clip-path="url(#p984d6ba2f4)" style="fill: #0000ff; stroke: #000000; stroke-linejoin: miter"/>
   </g>
   <g id="patch_10">
    <path d="M 168.36228 89007.609882 
L 175.933514 89007.609882 
L 175.933514 273.703263 
L 168.36228 273.703263 
z
" clip-path="url(#p984d6ba2f4)" style="fill: #0000ff; stroke: #000000; stroke-linejoin: miter"/>
   </g>
   <g id="patch_11">
    <path d="M 175.933514 89007.609882 
L 183.504749 89007.609882 
L 183.504749 210.485538 
L 175.933514 210.485538 
z
" clip-path="url(#p984d6ba2f4)" style="fill: #0000ff; stroke: #000000; stroke-linejoin: miter"/>
   </g>
   <g id="patch_12">
    <path d="M 183.504749 89007.609882 
L 191.075984 89007.609882 
L 191.075984 220.337719 
L 183.504749 220.337719 
z
" clip-path="url(#p984d6ba2f4)" style="fill: #0000ff; stroke: #000000; stroke-linejoin: miter"/>
   </g>
   <g id="patch_13">
    <path d="M 191.075984 89007.609882 
L 198.647218 89007.609882 
L 198.647218 227.356206 
L 191.075984 227.356206 
z
" clip-path="url(#p984d6ba2f4)" style="fill: #0000ff; stroke: #000000; stroke-linejoin: miter"/>
   </g>
   <g id="patch_14">
    <path d="M 198.647218 89007.609882 
L 206.218453 89007.609882 
L 206.218453 256.013519 
L 198.647218 256.013519 
z
" clip-path="url(#p984d6ba2f4)" style="fill: #0000ff; stroke: #000000; stroke-linejoin: miter"/>
   </g>
   <g id="patch_15">
    <path d="M 206.218453 89007.609882 
L 213.789688 89007.609882 
L 213.789688 327.068807 
L 206.218453 327.068807 
z
" clip-path="url(#p984d6ba2f4)" style="fill: #0000ff; stroke: #000000; stroke-linejoin: miter"/>
   </g>
   <g id="patch_16">
    <path d="M 213.789688 89007.609882 
L 221.360923 89007.609882 
L 221.360923 250.370003 
L 213.789688 250.370003 
z
" clip-path="url(#p984d6ba2f4)" style="fill: #0000ff; stroke: #000000; stroke-linejoin: miter"/>
   </g>
   <g id="patch_17">
    <path d="M 221.360923 89007.609882 
L 228.932157 89007.609882 
L 228.932157 327.068807 
L 221.360923 327.068807 
z
" clip-path="url(#p984d6ba2f4)" style="fill: #0000ff; stroke: #000000; stroke-linejoin: miter"/>
   </g>
   <g id="patch_18">
    <path d="M 228.932157 89007.609882 
L 236.503392 89007.609882 
L 236.503392 289.311684 
L 228.932157 289.311684 
z
" clip-path="url(#p984d6ba2f4)" style="fill: #0000ff; stroke: #000000; stroke-linejoin: miter"/>
   </g>
   <g id="patch_19">
    <path d="M 236.503392 89007.609882 
L 244.074627 89007.609882 
L 244.074627 221.148172 
L 236.503392 221.148172 
z
" clip-path="url(#p984d6ba2f4)" style="fill: #0000ff; stroke: #000000; stroke-linejoin: miter"/>
   </g>
   <g id="patch_20">
    <path d="M 244.074627 89007.609882 
L 251.645862 89007.609882 
L 251.645862 213.722326 
L 244.074627 213.722326 
z
" clip-path="url(#p984d6ba2f4)" style="fill: #0000ff; stroke: #000000; stroke-linejoin: miter"/>
   </g>
   <g id="patch_21">
    <path d="M 251.645862 89007.609882 
L 259.217096 89007.609882 
L 259.217096 327.068807 
L 251.645862 327.068807 
z
" clip-path="url(#p984d6ba2f4)" style="fill: #0000ff; stroke: #000000; stroke-linejoin: miter"/>
   </g>
   <g id="patch_22">
    <path d="M 259.217096 89007.609882 
L 266.788331 89007.609882 
L 266.788331 256.013519 
L 259.217096 256.013519 
z
" clip-path="url(#p984d6ba2f4)" style="fill: #0000ff; stroke: #000000; stroke-linejoin: miter"/>
   </g>
   <g id="patch_23">
    <path d="M 266.788331 89007.609882 
L 274.359566 89007.609882 
L 274.359566 369.36 
L 266.788331 369.36 
z
" clip-path="url(#p984d6ba2f4)" style="fill: #0000ff; stroke: #000000; stroke-linejoin: miter"/>
   </g>
   <g id="patch_24">
    <path d="M 274.359566 89007.609882 
L 281.930801 89007.609882 
L 281.930801 262.628912 
L 274.359566 262.628912 
z
" clip-path="url(#p984d6ba2f4)" style="fill: #0000ff; stroke: #000000; stroke-linejoin: miter"/>
   </g>
   <g id="patch_25">
    <path d="M 281.930801 89007.609882 
L 289.502035 89007.609882 
L 289.502035 300.386035 
L 281.930801 300.386035 
z
" clip-path="url(#p984d6ba2f4)" style="fill: #0000ff; stroke: #000000; stroke-linejoin: miter"/>
   </g>
   <g id="patch_26">
    <path d="M 289.502035 89007.609882 
L 297.07327 89007.609882 
L 297.07327 342.677228 
L 289.502035 342.677228 
z
" clip-path="url(#p984d6ba2f4)" style="fill: #0000ff; stroke: #000000; stroke-linejoin: miter"/>
   </g>
   <g id="patch_27">
    <path d="M 297.07327 89007.609882 
L 304.644505 89007.609882 
L 304.644505 262.628912 
L 297.07327 262.628912 
z
" clip-path="url(#p984d6ba2f4)" style="fill: #0000ff; stroke: #000000; stroke-linejoin: miter"/>
   </g>
   <g id="patch_28">
    <path d="M 304.644505 89007.609882 
L 312.215739 89007.609882 
L 312.215739 307.404522 
L 304.644505 307.404522 
z
" clip-path="url(#p984d6ba2f4)" style="fill: #0000ff; stroke: #000000; stroke-linejoin: miter"/>
   </g>
   <g id="patch_29">
    <path d="M 312.215739 89007.609882 
L 319.786974 89007.609882 
L 319.786974 280.72175 
L 312.215739 280.72175 
z
" clip-path="url(#p984d6ba2f4)" style="fill: #0000ff; stroke: #000000; stroke-linejoin: miter"/>
   </g>
   <g id="patch_30">
    <path d="M 319.786974 89007.609882 
L 327.358209 89007.609882 
L 327.358209 209.263368 
L 319.786974 209.263368 
z
" clip-path="url(#p984d6ba2f4)" style="fill: #0000ff; stroke: #000000; stroke-linejoin: miter"/>
   </g>
   <g id="patch_31">
    <path d="M 327.358209 89007.609882 
L 334.929444 89007.609882 
L 334.929444 342.677228 
L 327.358209 342.677228 
z
" clip-path="url(#p984d6ba2f4)" style="fill: #0000ff; stroke: #000000; stroke-linejoin: miter"/>
   </g>
   <g id="patch_32">
    <path d="M 334.929444 89007.609882 
L 342.500678 89007.609882 
L 342.500678 307.404522 
L 334.929444 307.404522 
z
" clip-path="url(#p984d6ba2f4)" style="fill: #0000ff; stroke: #000000; stroke-linejoin: miter"/>
   </g>
   <g id="patch_33">
    <path d="M 342.500678 89007.609882 
L 350.071913 89007.609882 
L 350.071913 342.677228 
L 342.500678 342.677228 
z
" clip-path="url(#p984d6ba2f4)" style="fill: #0000ff; stroke: #000000; stroke-linejoin: miter"/>
   </g>
   <g id="patch_34">
    <path d="M 350.071913 89007.609882 
L 357.643148 89007.609882 
L 357.643148 307.404522 
L 350.071913 307.404522 
z
" clip-path="url(#p984d6ba2f4)" style="fill: #0000ff; stroke: #000000; stroke-linejoin: miter"/>
   </g>
   <g id="patch_35">
    <path d="M 357.643148 89007.609882 
L 365.214383 89007.609882 
L 365.214383 280.72175 
L 357.643148 280.72175 
z
" clip-path="url(#p984d6ba2f4)" style="fill: #0000ff; stroke: #000000; stroke-linejoin: miter"/>
   </g>
   <g id="patch_36">
    <path d="M 365.214383 89007.609882 
L 372.785617 89007.609882 
L 372.785617 327.068807 
L 365.214383 327.068807 
z
" clip-path="url(#p984d6ba2f4)" style="fill: #0000ff; stroke: #000000; stroke-linejoin: miter"/>
   </g>
   <g id="patch_37">
    <path d="M 372.785617 89007.609882 
L 380.356852 89007.609882 
L 380.356852 307.404522 
L 372.785617 307.404522 
z
" clip-path="url(#p984d6ba2f4)" style="fill: #0000ff; stroke: #000000; stroke-linejoin: miter"/>
   </g>
   <g id="patch_38">
    <path d="M 380.356852 89007.609882 
L 387.928087 89007.609882 
L 387.928087 369.36 
L 380.356852 369.36 
z
" clip-path="url(#p984d6ba2f4)" style="fill: #0000ff; stroke: #000000; stroke-linejoin: miter"/>
   </g>
   <g id="patch_39">
    <path d="M 387.928087 89007.609882 
L 395.499322 89007.609882 
L 395.499322 262.628912 
L 387.928087 262.628912 
z
" clip-path="url(#p984d6ba2f4)" style="fill: #0000ff; stroke: #000000; stroke-linejoin: miter"/>
   </g>
   <g id="patch_40">
    <path d="M 395.499322 89007.609882 
L 403.070556 89007.609882 
L 403.070556 241.086445 
L 395.499322 241.086445 
z
" clip-path="url(#p984d6ba2f4)" style="fill: #0000ff; stroke: #000000; stroke-linejoin: miter"/>
   </g>
   <g id="patch_41">
    <path d="M 403.070556 89007.609882 
L 410.641791 89007.609882 
L 410.641791 342.677228 
L 403.070556 342.677228 
z
" clip-path="url(#p984d6ba2f4)" style="fill: #0000ff; stroke: #000000; stroke-linejoin: miter"/>
   </g>
   <g id="patch_42">
    <path d="M 410.641791 89007.609882 
L 418.213026 89007.609882 
L 418.213026 342.677228 
L 410.641791 342.677228 
z
" clip-path="url(#p984d6ba2f4)" style="fill: #0000ff; stroke: #000000; stroke-linejoin: miter"/>
   </g>
   <g id="patch_43">
    <path d="M 418.213026 89007.609882 
L 425.784261 89007.609882 
L 425.784261 239.735601 
L 418.213026 239.735601 
z
" clip-path="url(#p984d6ba2f4)" style="fill: #0000ff; stroke: #000000; stroke-linejoin: miter"/>
   </g>
   <g id="patch_44">
    <path d="M 425.784261 89007.609882 
L 433.355495 89007.609882 
L 433.355495 214.403673 
L 425.784261 214.403673 
z
" clip-path="url(#p984d6ba2f4)" style="fill: #0000ff; stroke: #000000; stroke-linejoin: miter"/>
   </g>
   <g id="patch_45">
    <path d="M 433.355495 89007.609882 
L 440.92673 89007.609882 
L 440.92673 262.628912 
L 433.355495 262.628912 
z
" clip-path="url(#p984d6ba2f4)" style="fill: #0000ff; stroke: #000000; stroke-linejoin: miter"/>
   </g>
   <g id="patch_46">
    <path d="M 440.92673 89007.609882 
L 448.497965 89007.609882 
L 448.497965 342.677228 
L 440.92673 342.677228 
z
" clip-path="url(#p984d6ba2f4)" style="fill: #0000ff; stroke: #000000; stroke-linejoin: miter"/>
   </g>
   <g id="patch_47">
    <path d="M 448.497965 89007.609882 
L 456.069199 89007.609882 
L 456.069199 273.703263 
L 448.497965 273.703263 
z
" clip-path="url(#p984d6ba2f4)" style="fill: #0000ff; stroke: #000000; stroke-linejoin: miter"/>
   </g>
   <g id="patch_48">
    <path d="M 456.069199 89007.609882 
L 463.640434 89007.609882 
L 463.640434 267.769217 
L 456.069199 267.769217 
z
" clip-path="url(#p984d6ba2f4)" style="fill: #0000ff; stroke: #000000; stroke-linejoin: miter"/>
   </g>
   <g id="patch_49">
    <path d="M 463.640434 89007.609882 
L 471.211669 89007.609882 
L 471.211669 300.386035 
L 463.640434 300.386035 
z
" clip-path="url(#p984d6ba2f4)" style="fill: #0000ff; stroke: #000000; stroke-linejoin: miter"/>
   </g>
   <g id="patch_50">
    <path d="M 471.211669 89007.609882 
L 478.782904 89007.609882 
L 478.782904 300.386035 
L 471.211669 300.386035 
z
" clip-path="url(#p984d6ba2f4)" style="fill: #0000ff; stroke: #000000; stroke-linejoin: miter"/>
   </g>
   <g id="patch_51">
    <path d="M 478.782904 89007.609882 
L 486.354138 89007.609882 
L 486.354138 327.068807 
L 478.782904 327.068807 
z
" clip-path="url(#p984d6ba2f4)" style="fill: #0000ff; stroke: #000000; stroke-linejoin: miter"/>
   </g>
   <g id="patch_52">
    <path d="M 486.354138 89007.609882 
L 493.925373 89007.609882 
L 493.925373 315.994456 
L 486.354138 315.994456 
z
" clip-path="url(#p984d6ba2f4)" style="fill: #0000ff; stroke: #000000; stroke-linejoin: miter"/>
   </g>
   <g id="patch_53">
    <path d="M 493.925373 89007.609882 
L 501.496608 89007.609882 
L 501.496608 342.677228 
L 493.925373 342.677228 
z
" clip-path="url(#p984d6ba2f4)" style="fill: #0000ff; stroke: #000000; stroke-linejoin: miter"/>
   </g>
   <g id="patch_54">
    <path d="M 501.496608 89007.609882 
L 509.067843 89007.609882 
L 509.067843 342.677228 
L 501.496608 342.677228 
z
" clip-path="url(#p984d6ba2f4)" style="fill: #0000ff; stroke: #000000; stroke-linejoin: miter"/>
   </g>
   <g id="patch_55">
    <path d="M 509.067843 89007.609882 
L 516.639077 89007.609882 
L 516.639077 342.677228 
L 509.067843 342.677228 
z
" clip-path="url(#p984d6ba2f4)" style="fill: #0000ff; stroke: #000000; stroke-linejoin: miter"/>
   </g>
   <g id="patch_56">
    <path d="M 516.639077 89007.609882 
L 524.210312 89007.609882 
L 524.210312 327.068807 
L 516.639077 327.068807 
z
" clip-path="url(#p984d6ba2f4)" style="fill: #0000ff; stroke: #000000; stroke-linejoin: miter"/>
   </g>
   <g id="patch_57">
    <path d="M 524.210312 89007.609882 
L 531.781547 89007.609882 
L 531.781547 327.068807 
L 524.210312 327.068807 
z
" clip-path="url(#p984d6ba2f4)" style="fill: #0000ff; stroke: #000000; stroke-linejoin: miter"/>
   </g>
   <g id="patch_58">
    <path d="M 531.781547 89007.609882 
L 539.352782 89007.609882 
L 539.352782 369.36 
L 531.781547 369.36 
z
" clip-path="url(#p984d6ba2f4)" style="fill: #0000ff; stroke: #000000; stroke-linejoin: miter"/>
   </g>
   <g id="patch_59">
    <path d="M 539.352782 89007.609882 
L 546.924016 89007.609882 
L 546.924016 369.36 
L 539.352782 369.36 
z
" clip-path="url(#p984d6ba2f4)" style="fill: #0000ff; stroke: #000000; stroke-linejoin: miter"/>
   </g>
   <g id="patch_60">
    <path d="M 546.924016 89007.609882 
L 554.495251 89007.609882 
L 554.495251 369.36 
L 546.924016 369.36 
z
" clip-path="url(#p984d6ba2f4)" style="fill: #0000ff; stroke: #000000; stroke-linejoin: miter"/>
   </g>
   <g id="patch_61">
    <path d="M 554.495251 89007.609882 
L 562.066486 89007.609882 
L 562.066486 369.36 
L 554.495251 369.36 
z
" clip-path="url(#p984d6ba2f4)" style="fill: #0000ff; stroke: #000000; stroke-linejoin: miter"/>
   </g>
   <g id="patch_62">
    <path d="M 562.066486 89007.609882 
L 569.63772 89007.609882 
L 569.63772 369.36 
L 562.066486 369.36 
z
" clip-path="url(#p984d6ba2f4)" style="fill: #0000ff; stroke: #000000; stroke-linejoin: miter"/>
   </g>
   <g id="patch_63">
    <path d="M 569.63772 89007.609882 
L 577.208955 89007.609882 
L 577.208955 327.068807 
L 569.63772 327.068807 
z
" clip-path="url(#p984d6ba2f4)" style="fill: #0000ff; stroke: #000000; stroke-linejoin: miter"/>
   </g>
   <g id="patch_64">
    <path d="M 577.208955 89007.609882 
L 584.78019 89007.609882 
L 584.78019 369.36 
L 577.208955 369.36 
z
" clip-path="url(#p984d6ba2f4)" style="fill: #0000ff; stroke: #000000; stroke-linejoin: miter"/>
   </g>
   <g id="patch_65">
    <path d="M 584.78019 89007.609882 
L 592.351425 89007.609882 
L 592.351425 369.36 
L 584.78019 369.36 
z
" clip-path="url(#p984d6ba2f4)" style="fill: #0000ff; stroke: #000000; stroke-linejoin: miter"/>
   </g>
   <g id="patch_66">
    <path d="M 592.351425 89007.609882 
L 599.922659 89007.609882 
L 599.922659 342.677228 
L 592.351425 342.677228 
z
" clip-path="url(#p984d6ba2f4)" style="fill: #0000ff; stroke: #000000; stroke-linejoin: miter"/>
   </g>
   <g id="patch_67">
    <path d="M 599.922659 89007.609882 
L 607.493894 89007.609882 
L 607.493894 342.677228 
L 599.922659 342.677228 
z
" clip-path="url(#p984d6ba2f4)" style="fill: #0000ff; stroke: #000000; stroke-linejoin: miter"/>
   </g>
   <g id="patch_68">
    <path d="M 607.493894 89007.609882 
L 615.065129 89007.609882 
L 615.065129 342.677228 
L 607.493894 342.677228 
z
" clip-path="url(#p984d6ba2f4)" style="fill: #0000ff; stroke: #000000; stroke-linejoin: miter"/>
   </g>
   <g id="patch_69">
    <path d="M 615.065129 89007.609882 
L 622.636364 89007.609882 
L 622.636364 294.451989 
L 615.065129 294.451989 
z
" clip-path="url(#p984d6ba2f4)" style="fill: #0000ff; stroke: #000000; stroke-linejoin: miter"/>
   </g>
   <g id="matplotlib.axis_1">
    <g id="xtick_1">
     <g id="line2d_1">
      <path d="M 111.578019 384.48 
L 111.578019 51.84 
" clip-path="url(#p984d6ba2f4)" style="fill: none; stroke-dasharray: 1.85,0.8; stroke-dashoffset: 0; stroke: #b0b0b0; stroke-width: 0.5"/>
     </g>
     <g id="line2d_2">
      <defs>
       <path id="m7de717f911" d="M 0 0 
L 0 3.5 
" style="stroke: #000000; stroke-width: 0.8"/>
      </defs>
      <g>
       <use xlink:href="#m7de717f911" x="111.578019" y="384.48" style="stroke: #000000; stroke-width: 0.8"/>
      </g>
     </g>
     <g id="text_1">
      <!-- 0 -->
      <g transform="translate(108.396769 399.078438) scale(0.1 -0.1)">
       <defs>
        <path id="DejaVuSans-30" d="M 2034 4250 
Q 1547 4250 1301 3770 
Q 1056 3291 1056 2328 
Q 1056 1369 1301 889 
Q 1547 409 2034 409 
Q 2525 409 2770 889 
Q 3016 1369 3016 2328 
Q 3016 3291 2770 3770 
Q 2525 4250 2034 4250 
z
M 2034 4750 
Q 2819 4750 3233 4129 
Q 3647 3509 3647 2328 
Q 3647 1150 3233 529 
Q 2819 -91 2034 -91 
Q 1250 -91 836 529 
Q 422 1150 422 2328 
Q 422 3509 836 4129 
Q 1250 4750 2034 4750 
z
" transform="scale(0.015625)"/>
       </defs>
       <use xlink:href="#DejaVuSans-30"/>
      </g>
     </g>
    </g>
    <g id="xtick_2">
     <g id="line2d_3">
      <path d="M 187.290366 384.48 
L 187.290366 51.84 
" clip-path="url(#p984d6ba2f4)" style="fill: none; stroke-dasharray: 1.85,0.8; stroke-dashoffset: 0; stroke: #b0b0b0; stroke-width: 0.5"/>
     </g>
     <g id="line2d_4">
      <g>
       <use xlink:href="#m7de717f911" x="187.290366" y="384.48" style="stroke: #000000; stroke-width: 0.8"/>
      </g>
     </g>
     <g id="text_2">
      <!-- 10 -->
      <g transform="translate(180.927866 399.078438) scale(0.1 -0.1)">
       <defs>
        <path id="DejaVuSans-31" d="M 794 531 
L 1825 531 
L 1825 4091 
L 703 3866 
L 703 4441 
L 1819 4666 
L 2450 4666 
L 2450 531 
L 3481 531 
L 3481 0 
L 794 0 
L 794 531 
z
" transform="scale(0.015625)"/>
       </defs>
       <use xlink:href="#DejaVuSans-31"/>
       <use xlink:href="#DejaVuSans-30" transform="translate(63.623047 0)"/>
      </g>
     </g>
    </g>
    <g id="xtick_3">
     <g id="line2d_5">
      <path d="M 263.002714 384.48 
L 263.002714 51.84 
" clip-path="url(#p984d6ba2f4)" style="fill: none; stroke-dasharray: 1.85,0.8; stroke-dashoffset: 0; stroke: #b0b0b0; stroke-width: 0.5"/>
     </g>
     <g id="line2d_6">
      <g>
       <use xlink:href="#m7de717f911" x="263.002714" y="384.48" style="stroke: #000000; stroke-width: 0.8"/>
      </g>
     </g>
     <g id="text_3">
      <!-- 20 -->
      <g transform="translate(256.640214 399.078438) scale(0.1 -0.1)">
       <defs>
        <path id="DejaVuSans-32" d="M 1228 531 
L 3431 531 
L 3431 0 
L 469 0 
L 469 531 
Q 828 903 1448 1529 
Q 2069 2156 2228 2338 
Q 2531 2678 2651 2914 
Q 2772 3150 2772 3378 
Q 2772 3750 2511 3984 
Q 2250 4219 1831 4219 
Q 1534 4219 1204 4116 
Q 875 4013 500 3803 
L 500 4441 
Q 881 4594 1212 4672 
Q 1544 4750 1819 4750 
Q 2544 4750 2975 4387 
Q 3406 4025 3406 3419 
Q 3406 3131 3298 2873 
Q 3191 2616 2906 2266 
Q 2828 2175 2409 1742 
Q 1991 1309 1228 531 
z
" transform="scale(0.015625)"/>
       </defs>
       <use xlink:href="#DejaVuSans-32"/>
       <use xlink:href="#DejaVuSans-30" transform="translate(63.623047 0)"/>
      </g>
     </g>
    </g>
    <g id="xtick_4">
     <g id="line2d_7">
      <path d="M 338.715061 384.48 
L 338.715061 51.84 
" clip-path="url(#p984d6ba2f4)" style="fill: none; stroke-dasharray: 1.85,0.8; stroke-dashoffset: 0; stroke: #b0b0b0; stroke-width: 0.5"/>
     </g>
     <g id="line2d_8">
      <g>
       <use xlink:href="#m7de717f911" x="338.715061" y="384.48" style="stroke: #000000; stroke-width: 0.8"/>
      </g>
     </g>
     <g id="text_4">
      <!-- 30 -->
      <g transform="translate(332.352561 399.078438) scale(0.1 -0.1)">
       <defs>
        <path id="DejaVuSans-33" d="M 2597 2516 
Q 3050 2419 3304 2112 
Q 3559 1806 3559 1356 
Q 3559 666 3084 287 
Q 2609 -91 1734 -91 
Q 1441 -91 1130 -33 
Q 819 25 488 141 
L 488 750 
Q 750 597 1062 519 
Q 1375 441 1716 441 
Q 2309 441 2620 675 
Q 2931 909 2931 1356 
Q 2931 1769 2642 2001 
Q 2353 2234 1838 2234 
L 1294 2234 
L 1294 2753 
L 1863 2753 
Q 2328 2753 2575 2939 
Q 2822 3125 2822 3475 
Q 2822 3834 2567 4026 
Q 2313 4219 1838 4219 
Q 1578 4219 1281 4162 
Q 984 4106 628 3988 
L 628 4550 
Q 988 4650 1302 4700 
Q 1616 4750 1894 4750 
Q 2613 4750 3031 4423 
Q 3450 4097 3450 3541 
Q 3450 3153 3228 2886 
Q 3006 2619 2597 2516 
z
" transform="scale(0.015625)"/>
       </defs>
       <use xlink:href="#DejaVuSans-33"/>
       <use xlink:href="#DejaVuSans-30" transform="translate(63.623047 0)"/>
      </g>
     </g>
    </g>
    <g id="xtick_5">
     <g id="line2d_9">
      <path d="M 414.427408 384.48 
L 414.427408 51.84 
" clip-path="url(#p984d6ba2f4)" style="fill: none; stroke-dasharray: 1.85,0.8; stroke-dashoffset: 0; stroke: #b0b0b0; stroke-width: 0.5"/>
     </g>
     <g id="line2d_10">
      <g>
       <use xlink:href="#m7de717f911" x="414.427408" y="384.48" style="stroke: #000000; stroke-width: 0.8"/>
      </g>
     </g>
     <g id="text_5">
      <!-- 40 -->
      <g transform="translate(408.064908 399.078438) scale(0.1 -0.1)">
       <defs>
        <path id="DejaVuSans-34" d="M 2419 4116 
L 825 1625 
L 2419 1625 
L 2419 4116 
z
M 2253 4666 
L 3047 4666 
L 3047 1625 
L 3713 1625 
L 3713 1100 
L 3047 1100 
L 3047 0 
L 2419 0 
L 2419 1100 
L 313 1100 
L 313 1709 
L 2253 4666 
z
" transform="scale(0.015625)"/>
       </defs>
       <use xlink:href="#DejaVuSans-34"/>
       <use xlink:href="#DejaVuSans-30" transform="translate(63.623047 0)"/>
      </g>
     </g>
    </g>
    <g id="xtick_6">
     <g id="line2d_11">
      <path d="M 490.139756 384.48 
L 490.139756 51.84 
" clip-path="url(#p984d6ba2f4)" style="fill: none; stroke-dasharray: 1.85,0.8; stroke-dashoffset: 0; stroke: #b0b0b0; stroke-width: 0.5"/>
     </g>
     <g id="line2d_12">
      <g>
       <use xlink:href="#m7de717f911" x="490.139756" y="384.48" style="stroke: #000000; stroke-width: 0.8"/>
      </g>
     </g>
     <g id="text_6">
      <!-- 50 -->
      <g transform="translate(483.777256 399.078438) scale(0.1 -0.1)">
       <defs>
        <path id="DejaVuSans-35" d="M 691 4666 
L 3169 4666 
L 3169 4134 
L 1269 4134 
L 1269 2991 
Q 1406 3038 1543 3061 
Q 1681 3084 1819 3084 
Q 2600 3084 3056 2656 
Q 3513 2228 3513 1497 
Q 3513 744 3044 326 
Q 2575 -91 1722 -91 
Q 1428 -91 1123 -41 
Q 819 9 494 109 
L 494 744 
Q 775 591 1075 516 
Q 1375 441 1709 441 
Q 2250 441 2565 725 
Q 2881 1009 2881 1497 
Q 2881 1984 2565 2268 
Q 2250 2553 1709 2553 
Q 1456 2553 1204 2497 
Q 953 2441 691 2322 
L 691 4666 
z
" transform="scale(0.015625)"/>
       </defs>
       <use xlink:href="#DejaVuSans-35"/>
       <use xlink:href="#DejaVuSans-30" transform="translate(63.623047 0)"/>
      </g>
     </g>
    </g>
    <g id="xtick_7">
     <g id="line2d_13">
      <path d="M 565.852103 384.48 
L 565.852103 51.84 
" clip-path="url(#p984d6ba2f4)" style="fill: none; stroke-dasharray: 1.85,0.8; stroke-dashoffset: 0; stroke: #b0b0b0; stroke-width: 0.5"/>
     </g>
     <g id="line2d_14">
      <g>
       <use xlink:href="#m7de717f911" x="565.852103" y="384.48" style="stroke: #000000; stroke-width: 0.8"/>
      </g>
     </g>
     <g id="text_7">
      <!-- 60 -->
      <g transform="translate(559.489603 399.078438) scale(0.1 -0.1)">
       <defs>
        <path id="DejaVuSans-36" d="M 2113 2584 
Q 1688 2584 1439 2293 
Q 1191 2003 1191 1497 
Q 1191 994 1439 701 
Q 1688 409 2113 409 
Q 2538 409 2786 701 
Q 3034 994 3034 1497 
Q 3034 2003 2786 2293 
Q 2538 2584 2113 2584 
z
M 3366 4563 
L 3366 3988 
Q 3128 4100 2886 4159 
Q 2644 4219 2406 4219 
Q 1781 4219 1451 3797 
Q 1122 3375 1075 2522 
Q 1259 2794 1537 2939 
Q 1816 3084 2150 3084 
Q 2853 3084 3261 2657 
Q 3669 2231 3669 1497 
Q 3669 778 3244 343 
Q 2819 -91 2113 -91 
Q 1303 -91 875 529 
Q 447 1150 447 2328 
Q 447 3434 972 4092 
Q 1497 4750 2381 4750 
Q 2619 4750 2861 4703 
Q 3103 4656 3366 4563 
z
" transform="scale(0.015625)"/>
       </defs>
       <use xlink:href="#DejaVuSans-36"/>
       <use xlink:href="#DejaVuSans-30" transform="translate(63.623047 0)"/>
      </g>
     </g>
    </g>
    <g id="xtick_8">
     <g id="line2d_15">
      <path d="M 641.56445 384.48 
L 641.56445 51.84 
" clip-path="url(#p984d6ba2f4)" style="fill: none; stroke-dasharray: 1.85,0.8; stroke-dashoffset: 0; stroke: #b0b0b0; stroke-width: 0.5"/>
     </g>
     <g id="line2d_16">
      <g>
       <use xlink:href="#m7de717f911" x="641.56445" y="384.48" style="stroke: #000000; stroke-width: 0.8"/>
      </g>
     </g>
     <g id="text_8">
      <!-- 70 -->
      <g transform="translate(635.20195 399.078438) scale(0.1 -0.1)">
       <defs>
        <path id="DejaVuSans-37" d="M 525 4666 
L 3525 4666 
L 3525 4397 
L 1831 0 
L 1172 0 
L 2766 4134 
L 525 4134 
L 525 4666 
z
" transform="scale(0.015625)"/>
       </defs>
       <use xlink:href="#DejaVuSans-37"/>
       <use xlink:href="#DejaVuSans-30" transform="translate(63.623047 0)"/>
      </g>
     </g>
    </g>
    <g id="text_9">
     <!-- Conformació -->
     <g transform="translate(337.360937 412.756563) scale(0.1 -0.1)">
      <defs>
       <path id="DejaVuSans-43" d="M 4122 4306 
L 4122 3641 
Q 3803 3938 3442 4084 
Q 3081 4231 2675 4231 
Q 1875 4231 1450 3742 
Q 1025 3253 1025 2328 
Q 1025 1406 1450 917 
Q 1875 428 2675 428 
Q 3081 428 3442 575 
Q 3803 722 4122 1019 
L 4122 359 
Q 3791 134 3420 21 
Q 3050 -91 2638 -91 
Q 1578 -91 968 557 
Q 359 1206 359 2328 
Q 359 3453 968 4101 
Q 1578 4750 2638 4750 
Q 3056 4750 3426 4639 
Q 3797 4528 4122 4306 
z
" transform="scale(0.015625)"/>
       <path id="DejaVuSans-6f" d="M 1959 3097 
Q 1497 3097 1228 2736 
Q 959 2375 959 1747 
Q 959 1119 1226 758 
Q 1494 397 1959 397 
Q 2419 397 2687 759 
Q 2956 1122 2956 1747 
Q 2956 2369 2687 2733 
Q 2419 3097 1959 3097 
z
M 1959 3584 
Q 2709 3584 3137 3096 
Q 3566 2609 3566 1747 
Q 3566 888 3137 398 
Q 2709 -91 1959 -91 
Q 1206 -91 779 398 
Q 353 888 353 1747 
Q 353 2609 779 3096 
Q 1206 3584 1959 3584 
z
" transform="scale(0.015625)"/>
       <path id="DejaVuSans-6e" d="M 3513 2113 
L 3513 0 
L 2938 0 
L 2938 2094 
Q 2938 2591 2744 2837 
Q 2550 3084 2163 3084 
Q 1697 3084 1428 2787 
Q 1159 2491 1159 1978 
L 1159 0 
L 581 0 
L 581 3500 
L 1159 3500 
L 1159 2956 
Q 1366 3272 1645 3428 
Q 1925 3584 2291 3584 
Q 2894 3584 3203 3211 
Q 3513 2838 3513 2113 
z
" transform="scale(0.015625)"/>
       <path id="DejaVuSans-66" d="M 2375 4863 
L 2375 4384 
L 1825 4384 
Q 1516 4384 1395 4259 
Q 1275 4134 1275 3809 
L 1275 3500 
L 2222 3500 
L 2222 3053 
L 1275 3053 
L 1275 0 
L 697 0 
L 697 3053 
L 147 3053 
L 147 3500 
L 697 3500 
L 697 3744 
Q 697 4328 969 4595 
Q 1241 4863 1831 4863 
L 2375 4863 
z
" transform="scale(0.015625)"/>
       <path id="DejaVuSans-72" d="M 2631 2963 
Q 2534 3019 2420 3045 
Q 2306 3072 2169 3072 
Q 1681 3072 1420 2755 
Q 1159 2438 1159 1844 
L 1159 0 
L 581 0 
L 581 3500 
L 1159 3500 
L 1159 2956 
Q 1341 3275 1631 3429 
Q 1922 3584 2338 3584 
Q 2397 3584 2469 3576 
Q 2541 3569 2628 3553 
L 2631 2963 
z
" transform="scale(0.015625)"/>
       <path id="DejaVuSans-6d" d="M 3328 2828 
Q 3544 3216 3844 3400 
Q 4144 3584 4550 3584 
Q 5097 3584 5394 3201 
Q 5691 2819 5691 2113 
L 5691 0 
L 5113 0 
L 5113 2094 
Q 5113 2597 4934 2840 
Q 4756 3084 4391 3084 
Q 3944 3084 3684 2787 
Q 3425 2491 3425 1978 
L 3425 0 
L 2847 0 
L 2847 2094 
Q 2847 2600 2669 2842 
Q 2491 3084 2119 3084 
Q 1678 3084 1418 2786 
Q 1159 2488 1159 1978 
L 1159 0 
L 581 0 
L 581 3500 
L 1159 3500 
L 1159 2956 
Q 1356 3278 1631 3431 
Q 1906 3584 2284 3584 
Q 2666 3584 2933 3390 
Q 3200 3197 3328 2828 
z
" transform="scale(0.015625)"/>
       <path id="DejaVuSans-61" d="M 2194 1759 
Q 1497 1759 1228 1600 
Q 959 1441 959 1056 
Q 959 750 1161 570 
Q 1363 391 1709 391 
Q 2188 391 2477 730 
Q 2766 1069 2766 1631 
L 2766 1759 
L 2194 1759 
z
M 3341 1997 
L 3341 0 
L 2766 0 
L 2766 531 
Q 2569 213 2275 61 
Q 1981 -91 1556 -91 
Q 1019 -91 701 211 
Q 384 513 384 1019 
Q 384 1609 779 1909 
Q 1175 2209 1959 2209 
L 2766 2209 
L 2766 2266 
Q 2766 2663 2505 2880 
Q 2244 3097 1772 3097 
Q 1472 3097 1187 3025 
Q 903 2953 641 2809 
L 641 3341 
Q 956 3463 1253 3523 
Q 1550 3584 1831 3584 
Q 2591 3584 2966 3190 
Q 3341 2797 3341 1997 
z
" transform="scale(0.015625)"/>
       <path id="DejaVuSans-63" d="M 3122 3366 
L 3122 2828 
Q 2878 2963 2633 3030 
Q 2388 3097 2138 3097 
Q 1578 3097 1268 2742 
Q 959 2388 959 1747 
Q 959 1106 1268 751 
Q 1578 397 2138 397 
Q 2388 397 2633 464 
Q 2878 531 3122 666 
L 3122 134 
Q 2881 22 2623 -34 
Q 2366 -91 2075 -91 
Q 1284 -91 818 406 
Q 353 903 353 1747 
Q 353 2603 823 3093 
Q 1294 3584 2113 3584 
Q 2378 3584 2631 3529 
Q 2884 3475 3122 3366 
z
" transform="scale(0.015625)"/>
       <path id="DejaVuSans-69" d="M 603 3500 
L 1178 3500 
L 1178 0 
L 603 0 
L 603 3500 
z
M 603 4863 
L 1178 4863 
L 1178 4134 
L 603 4134 
L 603 4863 
z
" transform="scale(0.015625)"/>
       <path id="DejaVuSans-f3" d="M 1959 3097 
Q 1497 3097 1228 2736 
Q 959 2375 959 1747 
Q 959 1119 1226 758 
Q 1494 397 1959 397 
Q 2419 397 2687 759 
Q 2956 1122 2956 1747 
Q 2956 2369 2687 2733 
Q 2419 3097 1959 3097 
z
M 1959 3584 
Q 2709 3584 3137 3096 
Q 3566 2609 3566 1747 
Q 3566 888 3137 398 
Q 2709 -91 1959 -91 
Q 1206 -91 779 398 
Q 353 888 353 1747 
Q 353 2609 779 3096 
Q 1206 3584 1959 3584 
z
M 2394 5119 
L 3016 5119 
L 1998 3944 
L 1519 3944 
L 2394 5119 
z
" transform="scale(0.015625)"/>
      </defs>
      <use xlink:href="#DejaVuSans-43"/>
      <use xlink:href="#DejaVuSans-6f" transform="translate(69.824219 0)"/>
      <use xlink:href="#DejaVuSans-6e" transform="translate(131.005859 0)"/>
      <use xlink:href="#DejaVuSans-66" transform="translate(194.384766 0)"/>
      <use xlink:href="#DejaVuSans-6f" transform="translate(229.589844 0)"/>
      <use xlink:href="#DejaVuSans-72" transform="translate(290.771484 0)"/>
      <use xlink:href="#DejaVuSans-6d" transform="translate(330.134766 0)"/>
      <use xlink:href="#DejaVuSans-61" transform="translate(427.546875 0)"/>
      <use xlink:href="#DejaVuSans-63" transform="translate(488.826172 0)"/>
      <use xlink:href="#DejaVuSans-69" transform="translate(543.806641 0)"/>
      <use xlink:href="#DejaVuSans-f3" transform="translate(571.589844 0)"/>
     </g>
    </g>
   </g>
   <g id="matplotlib.axis_2">
    <g id="ytick_1">
     <g id="line2d_17">
      <path d="M 90 369.36 
L 648 369.36 
" clip-path="url(#p984d6ba2f4)" style="fill: none; stroke-dasharray: 1.85,0.8; stroke-dashoffset: 0; stroke: #b0b0b0; stroke-width: 0.5"/>
     </g>
     <g id="line2d_18">
      <defs>
       <path id="md2711d3a6b" d="M 0 0 
L -3.5 0 
" style="stroke: #000000; stroke-width: 0.8"/>
      </defs>
      <g>
       <use xlink:href="#md2711d3a6b" x="90" y="369.36" style="stroke: #000000; stroke-width: 0.8"/>
      </g>
     </g>
     <g id="text_10">
      <!-- $\mathdefault{10^{0}}$ -->
      <g transform="translate(65.4 373.159219) scale(0.1 -0.1)">
       <use xlink:href="#DejaVuSans-31" transform="translate(0 0.765625)"/>
       <use xlink:href="#DejaVuSans-30" transform="translate(63.623047 0.765625)"/>
       <use xlink:href="#DejaVuSans-30" transform="translate(128.203125 39.046875) scale(0.7)"/>
      </g>
     </g>
    </g>
    <g id="ytick_2">
     <g id="line2d_19">
      <path d="M 90 280.72175 
L 648 280.72175 
" clip-path="url(#p984d6ba2f4)" style="fill: none; stroke-dasharray: 1.85,0.8; stroke-dashoffset: 0; stroke: #b0b0b0; stroke-width: 0.5"/>
     </g>
     <g id="line2d_20">
      <g>
       <use xlink:href="#md2711d3a6b" x="90" y="280.72175" style="stroke: #000000; stroke-width: 0.8"/>
      </g>
     </g>
     <g id="text_11">
      <!-- $\mathdefault{10^{1}}$ -->
      <g transform="translate(65.4 284.520969) scale(0.1 -0.1)">
       <use xlink:href="#DejaVuSans-31" transform="translate(0 0.684375)"/>
       <use xlink:href="#DejaVuSans-30" transform="translate(63.623047 0.684375)"/>
       <use xlink:href="#DejaVuSans-31" transform="translate(128.203125 38.965625) scale(0.7)"/>
      </g>
     </g>
    </g>
    <g id="ytick_3">
     <g id="line2d_21">
      <path d="M 90 192.0835 
L 648 192.0835 
" clip-path="url(#p984d6ba2f4)" style="fill: none; stroke-dasharray: 1.85,0.8; stroke-dashoffset: 0; stroke: #b0b0b0; stroke-width: 0.5"/>
     </g>
     <g id="line2d_22">
      <g>
       <use xlink:href="#md2711d3a6b" x="90" y="192.0835" style="stroke: #000000; stroke-width: 0.8"/>
      </g>
     </g>
     <g id="text_12">
      <!-- $\mathdefault{10^{2}}$ -->
      <g transform="translate(65.4 195.882719) scale(0.1 -0.1)">
       <use xlink:href="#DejaVuSans-31" transform="translate(0 0.765625)"/>
       <use xlink:href="#DejaVuSans-30" transform="translate(63.623047 0.765625)"/>
       <use xlink:href="#DejaVuSans-32" transform="translate(128.203125 39.046875) scale(0.7)"/>
      </g>
     </g>
    </g>
    <g id="ytick_4">
     <g id="line2d_23">
      <path d="M 90 103.44525 
L 648 103.44525 
" clip-path="url(#p984d6ba2f4)" style="fill: none; stroke-dasharray: 1.85,0.8; stroke-dashoffset: 0; stroke: #b0b0b0; stroke-width: 0.5"/>
     </g>
     <g id="line2d_24">
      <g>
       <use xlink:href="#md2711d3a6b" x="90" y="103.44525" style="stroke: #000000; stroke-width: 0.8"/>
      </g>
     </g>
     <g id="text_13">
      <!-- $\mathdefault{10^{3}}$ -->
      <g transform="translate(65.4 107.244469) scale(0.1 -0.1)">
       <use xlink:href="#DejaVuSans-31" transform="translate(0 0.765625)"/>
       <use xlink:href="#DejaVuSans-30" transform="translate(63.623047 0.765625)"/>
       <use xlink:href="#DejaVuSans-33" transform="translate(128.203125 39.046875) scale(0.7)"/>
      </g>
     </g>
    </g>
    <g id="ytick_5">
     <g id="line2d_25">
      <path d="M 90 383.090239 
L 648 383.090239 
" clip-path="url(#p984d6ba2f4)" style="fill: none; stroke-dasharray: 1.85,0.8; stroke-dashoffset: 0; stroke: #b0b0b0; stroke-width: 0.5"/>
     </g>
     <g id="line2d_26">
      <defs>
       <path id="m059d97c2f5" d="M 0 0 
L -2 0 
" style="stroke: #000000; stroke-width: 0.6"/>
      </defs>
      <g>
       <use xlink:href="#m059d97c2f5" x="90" y="383.090239" style="stroke: #000000; stroke-width: 0.6"/>
      </g>
     </g>
    </g>
    <g id="ytick_6">
     <g id="line2d_27">
      <path d="M 90 377.949934 
L 648 377.949934 
" clip-path="url(#p984d6ba2f4)" style="fill: none; stroke-dasharray: 1.85,0.8; stroke-dashoffset: 0; stroke: #b0b0b0; stroke-width: 0.5"/>
     </g>
     <g id="line2d_28">
      <g>
       <use xlink:href="#m059d97c2f5" x="90" y="377.949934" style="stroke: #000000; stroke-width: 0.6"/>
      </g>
     </g>
    </g>
    <g id="ytick_7">
     <g id="line2d_29">
      <path d="M 90 373.415864 
L 648 373.415864 
" clip-path="url(#p984d6ba2f4)" style="fill: none; stroke-dasharray: 1.85,0.8; stroke-dashoffset: 0; stroke: #b0b0b0; stroke-width: 0.5"/>
     </g>
     <g id="line2d_30">
      <g>
       <use xlink:href="#m059d97c2f5" x="90" y="373.415864" style="stroke: #000000; stroke-width: 0.6"/>
      </g>
     </g>
    </g>
    <g id="ytick_8">
     <g id="line2d_31">
      <path d="M 90 342.677228 
L 648 342.677228 
" clip-path="url(#p984d6ba2f4)" style="fill: none; stroke-dasharray: 1.85,0.8; stroke-dashoffset: 0; stroke: #b0b0b0; stroke-width: 0.5"/>
     </g>
     <g id="line2d_32">
      <g>
       <use xlink:href="#m059d97c2f5" x="90" y="342.677228" style="stroke: #000000; stroke-width: 0.6"/>
      </g>
     </g>
    </g>
    <g id="ytick_9">
     <g id="line2d_33">
      <path d="M 90 327.068807 
L 648 327.068807 
" clip-path="url(#p984d6ba2f4)" style="fill: none; stroke-dasharray: 1.85,0.8; stroke-dashoffset: 0; stroke: #b0b0b0; stroke-width: 0.5"/>
     </g>
     <g id="line2d_34">
      <g>
       <use xlink:href="#m059d97c2f5" x="90" y="327.068807" style="stroke: #000000; stroke-width: 0.6"/>
      </g>
     </g>
    </g>
    <g id="ytick_10">
     <g id="line2d_35">
      <path d="M 90 315.994456 
L 648 315.994456 
" clip-path="url(#p984d6ba2f4)" style="fill: none; stroke-dasharray: 1.85,0.8; stroke-dashoffset: 0; stroke: #b0b0b0; stroke-width: 0.5"/>
     </g>
     <g id="line2d_36">
      <g>
       <use xlink:href="#m059d97c2f5" x="90" y="315.994456" style="stroke: #000000; stroke-width: 0.6"/>
      </g>
     </g>
    </g>
    <g id="ytick_11">
     <g id="line2d_37">
      <path d="M 90 307.404522 
L 648 307.404522 
" clip-path="url(#p984d6ba2f4)" style="fill: none; stroke-dasharray: 1.85,0.8; stroke-dashoffset: 0; stroke: #b0b0b0; stroke-width: 0.5"/>
     </g>
     <g id="line2d_38">
      <g>
       <use xlink:href="#m059d97c2f5" x="90" y="307.404522" style="stroke: #000000; stroke-width: 0.6"/>
      </g>
     </g>
    </g>
    <g id="ytick_12">
     <g id="line2d_39">
      <path d="M 90 300.386035 
L 648 300.386035 
" clip-path="url(#p984d6ba2f4)" style="fill: none; stroke-dasharray: 1.85,0.8; stroke-dashoffset: 0; stroke: #b0b0b0; stroke-width: 0.5"/>
     </g>
     <g id="line2d_40">
      <g>
       <use xlink:href="#m059d97c2f5" x="90" y="300.386035" style="stroke: #000000; stroke-width: 0.6"/>
      </g>
     </g>
    </g>
    <g id="ytick_13">
     <g id="line2d_41">
      <path d="M 90 294.451989 
L 648 294.451989 
" clip-path="url(#p984d6ba2f4)" style="fill: none; stroke-dasharray: 1.85,0.8; stroke-dashoffset: 0; stroke: #b0b0b0; stroke-width: 0.5"/>
     </g>
     <g id="line2d_42">
      <g>
       <use xlink:href="#m059d97c2f5" x="90" y="294.451989" style="stroke: #000000; stroke-width: 0.6"/>
      </g>
     </g>
    </g>
    <g id="ytick_14">
     <g id="line2d_43">
      <path d="M 90 289.311684 
L 648 289.311684 
" clip-path="url(#p984d6ba2f4)" style="fill: none; stroke-dasharray: 1.85,0.8; stroke-dashoffset: 0; stroke: #b0b0b0; stroke-width: 0.5"/>
     </g>
     <g id="line2d_44">
      <g>
       <use xlink:href="#m059d97c2f5" x="90" y="289.311684" style="stroke: #000000; stroke-width: 0.6"/>
      </g>
     </g>
    </g>
    <g id="ytick_15">
     <g id="line2d_45">
      <path d="M 90 284.777614 
L 648 284.777614 
" clip-path="url(#p984d6ba2f4)" style="fill: none; stroke-dasharray: 1.85,0.8; stroke-dashoffset: 0; stroke: #b0b0b0; stroke-width: 0.5"/>
     </g>
     <g id="line2d_46">
      <g>
       <use xlink:href="#m059d97c2f5" x="90" y="284.777614" style="stroke: #000000; stroke-width: 0.6"/>
      </g>
     </g>
    </g>
    <g id="ytick_16">
     <g id="line2d_47">
      <path d="M 90 254.038978 
L 648 254.038978 
" clip-path="url(#p984d6ba2f4)" style="fill: none; stroke-dasharray: 1.85,0.8; stroke-dashoffset: 0; stroke: #b0b0b0; stroke-width: 0.5"/>
     </g>
     <g id="line2d_48">
      <g>
       <use xlink:href="#m059d97c2f5" x="90" y="254.038978" style="stroke: #000000; stroke-width: 0.6"/>
      </g>
     </g>
    </g>
    <g id="ytick_17">
     <g id="line2d_49">
      <path d="M 90 238.430557 
L 648 238.430557 
" clip-path="url(#p984d6ba2f4)" style="fill: none; stroke-dasharray: 1.85,0.8; stroke-dashoffset: 0; stroke: #b0b0b0; stroke-width: 0.5"/>
     </g>
     <g id="line2d_50">
      <g>
       <use xlink:href="#m059d97c2f5" x="90" y="238.430557" style="stroke: #000000; stroke-width: 0.6"/>
      </g>
     </g>
    </g>
    <g id="ytick_18">
     <g id="line2d_51">
      <path d="M 90 227.356206 
L 648 227.356206 
" clip-path="url(#p984d6ba2f4)" style="fill: none; stroke-dasharray: 1.85,0.8; stroke-dashoffset: 0; stroke: #b0b0b0; stroke-width: 0.5"/>
     </g>
     <g id="line2d_52">
      <g>
       <use xlink:href="#m059d97c2f5" x="90" y="227.356206" style="stroke: #000000; stroke-width: 0.6"/>
      </g>
     </g>
    </g>
    <g id="ytick_19">
     <g id="line2d_53">
      <path d="M 90 218.766272 
L 648 218.766272 
" clip-path="url(#p984d6ba2f4)" style="fill: none; stroke-dasharray: 1.85,0.8; stroke-dashoffset: 0; stroke: #b0b0b0; stroke-width: 0.5"/>
     </g>
     <g id="line2d_54">
      <g>
       <use xlink:href="#m059d97c2f5" x="90" y="218.766272" style="stroke: #000000; stroke-width: 0.6"/>
      </g>
     </g>
    </g>
    <g id="ytick_20">
     <g id="line2d_55">
      <path d="M 90 211.747785 
L 648 211.747785 
" clip-path="url(#p984d6ba2f4)" style="fill: none; stroke-dasharray: 1.85,0.8; stroke-dashoffset: 0; stroke: #b0b0b0; stroke-width: 0.5"/>
     </g>
     <g id="line2d_56">
      <g>
       <use xlink:href="#m059d97c2f5" x="90" y="211.747785" style="stroke: #000000; stroke-width: 0.6"/>
      </g>
     </g>
    </g>
    <g id="ytick_21">
     <g id="line2d_57">
      <path d="M 90 205.813739 
L 648 205.813739 
" clip-path="url(#p984d6ba2f4)" style="fill: none; stroke-dasharray: 1.85,0.8; stroke-dashoffset: 0; stroke: #b0b0b0; stroke-width: 0.5"/>
     </g>
     <g id="line2d_58">
      <g>
       <use xlink:href="#m059d97c2f5" x="90" y="205.813739" style="stroke: #000000; stroke-width: 0.6"/>
      </g>
     </g>
    </g>
    <g id="ytick_22">
     <g id="line2d_59">
      <path d="M 90 200.673434 
L 648 200.673434 
" clip-path="url(#p984d6ba2f4)" style="fill: none; stroke-dasharray: 1.85,0.8; stroke-dashoffset: 0; stroke: #b0b0b0; stroke-width: 0.5"/>
     </g>
     <g id="line2d_60">
      <g>
       <use xlink:href="#m059d97c2f5" x="90" y="200.673434" style="stroke: #000000; stroke-width: 0.6"/>
      </g>
     </g>
    </g>
    <g id="ytick_23">
     <g id="line2d_61">
      <path d="M 90 196.139364 
L 648 196.139364 
" clip-path="url(#p984d6ba2f4)" style="fill: none; stroke-dasharray: 1.85,0.8; stroke-dashoffset: 0; stroke: #b0b0b0; stroke-width: 0.5"/>
     </g>
     <g id="line2d_62">
      <g>
       <use xlink:href="#m059d97c2f5" x="90" y="196.139364" style="stroke: #000000; stroke-width: 0.6"/>
      </g>
     </g>
    </g>
    <g id="ytick_24">
     <g id="line2d_63">
      <path d="M 90 165.400728 
L 648 165.400728 
" clip-path="url(#p984d6ba2f4)" style="fill: none; stroke-dasharray: 1.85,0.8; stroke-dashoffset: 0; stroke: #b0b0b0; stroke-width: 0.5"/>
     </g>
     <g id="line2d_64">
      <g>
       <use xlink:href="#m059d97c2f5" x="90" y="165.400728" style="stroke: #000000; stroke-width: 0.6"/>
      </g>
     </g>
    </g>
    <g id="ytick_25">
     <g id="line2d_65">
      <path d="M 90 149.792307 
L 648 149.792307 
" clip-path="url(#p984d6ba2f4)" style="fill: none; stroke-dasharray: 1.85,0.8; stroke-dashoffset: 0; stroke: #b0b0b0; stroke-width: 0.5"/>
     </g>
     <g id="line2d_66">
      <g>
       <use xlink:href="#m059d97c2f5" x="90" y="149.792307" style="stroke: #000000; stroke-width: 0.6"/>
      </g>
     </g>
    </g>
    <g id="ytick_26">
     <g id="line2d_67">
      <path d="M 90 138.717956 
L 648 138.717956 
" clip-path="url(#p984d6ba2f4)" style="fill: none; stroke-dasharray: 1.85,0.8; stroke-dashoffset: 0; stroke: #b0b0b0; stroke-width: 0.5"/>
     </g>
     <g id="line2d_68">
      <g>
       <use xlink:href="#m059d97c2f5" x="90" y="138.717956" style="stroke: #000000; stroke-width: 0.6"/>
      </g>
     </g>
    </g>
    <g id="ytick_27">
     <g id="line2d_69">
      <path d="M 90 130.128022 
L 648 130.128022 
" clip-path="url(#p984d6ba2f4)" style="fill: none; stroke-dasharray: 1.85,0.8; stroke-dashoffset: 0; stroke: #b0b0b0; stroke-width: 0.5"/>
     </g>
     <g id="line2d_70">
      <g>
       <use xlink:href="#m059d97c2f5" x="90" y="130.128022" style="stroke: #000000; stroke-width: 0.6"/>
      </g>
     </g>
    </g>
    <g id="ytick_28">
     <g id="line2d_71">
      <path d="M 90 123.109535 
L 648 123.109535 
" clip-path="url(#p984d6ba2f4)" style="fill: none; stroke-dasharray: 1.85,0.8; stroke-dashoffset: 0; stroke: #b0b0b0; stroke-width: 0.5"/>
     </g>
     <g id="line2d_72">
      <g>
       <use xlink:href="#m059d97c2f5" x="90" y="123.109535" style="stroke: #000000; stroke-width: 0.6"/>
      </g>
     </g>
    </g>
    <g id="ytick_29">
     <g id="line2d_73">
      <path d="M 90 117.175489 
L 648 117.175489 
" clip-path="url(#p984d6ba2f4)" style="fill: none; stroke-dasharray: 1.85,0.8; stroke-dashoffset: 0; stroke: #b0b0b0; stroke-width: 0.5"/>
     </g>
     <g id="line2d_74">
      <g>
       <use xlink:href="#m059d97c2f5" x="90" y="117.175489" style="stroke: #000000; stroke-width: 0.6"/>
      </g>
     </g>
    </g>
    <g id="ytick_30">
     <g id="line2d_75">
      <path d="M 90 112.035184 
L 648 112.035184 
" clip-path="url(#p984d6ba2f4)" style="fill: none; stroke-dasharray: 1.85,0.8; stroke-dashoffset: 0; stroke: #b0b0b0; stroke-width: 0.5"/>
     </g>
     <g id="line2d_76">
      <g>
       <use xlink:href="#m059d97c2f5" x="90" y="112.035184" style="stroke: #000000; stroke-width: 0.6"/>
      </g>
     </g>
    </g>
    <g id="ytick_31">
     <g id="line2d_77">
      <path d="M 90 107.501114 
L 648 107.501114 
" clip-path="url(#p984d6ba2f4)" style="fill: none; stroke-dasharray: 1.85,0.8; stroke-dashoffset: 0; stroke: #b0b0b0; stroke-width: 0.5"/>
     </g>
     <g id="line2d_78">
      <g>
       <use xlink:href="#m059d97c2f5" x="90" y="107.501114" style="stroke: #000000; stroke-width: 0.6"/>
      </g>
     </g>
    </g>
    <g id="ytick_32">
     <g id="line2d_79">
      <path d="M 90 76.762478 
L 648 76.762478 
" clip-path="url(#p984d6ba2f4)" style="fill: none; stroke-dasharray: 1.85,0.8; stroke-dashoffset: 0; stroke: #b0b0b0; stroke-width: 0.5"/>
     </g>
     <g id="line2d_80">
      <g>
       <use xlink:href="#m059d97c2f5" x="90" y="76.762478" style="stroke: #000000; stroke-width: 0.6"/>
      </g>
     </g>
    </g>
    <g id="ytick_33">
     <g id="line2d_81">
      <path d="M 90 61.154057 
L 648 61.154057 
" clip-path="url(#p984d6ba2f4)" style="fill: none; stroke-dasharray: 1.85,0.8; stroke-dashoffset: 0; stroke: #b0b0b0; stroke-width: 0.5"/>
     </g>
     <g id="line2d_82">
      <g>
       <use xlink:href="#m059d97c2f5" x="90" y="61.154057" style="stroke: #000000; stroke-width: 0.6"/>
      </g>
     </g>
    </g>
    <g id="text_14">
     <!-- Freqüències base de dades -->
     <g style="fill: #0000ff" transform="translate(59.320312 286.131875) rotate(-90) scale(0.1 -0.1)">
      <defs>
       <path id="DejaVuSans-46" d="M 628 4666 
L 3309 4666 
L 3309 4134 
L 1259 4134 
L 1259 2759 
L 3109 2759 
L 3109 2228 
L 1259 2228 
L 1259 0 
L 628 0 
L 628 4666 
z
" transform="scale(0.015625)"/>
       <path id="DejaVuSans-65" d="M 3597 1894 
L 3597 1613 
L 953 1613 
Q 991 1019 1311 708 
Q 1631 397 2203 397 
Q 2534 397 2845 478 
Q 3156 559 3463 722 
L 3463 178 
Q 3153 47 2828 -22 
Q 2503 -91 2169 -91 
Q 1331 -91 842 396 
Q 353 884 353 1716 
Q 353 2575 817 3079 
Q 1281 3584 2069 3584 
Q 2775 3584 3186 3129 
Q 3597 2675 3597 1894 
z
M 3022 2063 
Q 3016 2534 2758 2815 
Q 2500 3097 2075 3097 
Q 1594 3097 1305 2825 
Q 1016 2553 972 2059 
L 3022 2063 
z
" transform="scale(0.015625)"/>
       <path id="DejaVuSans-71" d="M 947 1747 
Q 947 1113 1208 752 
Q 1469 391 1925 391 
Q 2381 391 2643 752 
Q 2906 1113 2906 1747 
Q 2906 2381 2643 2742 
Q 2381 3103 1925 3103 
Q 1469 3103 1208 2742 
Q 947 2381 947 1747 
z
M 2906 525 
Q 2725 213 2448 61 
Q 2172 -91 1784 -91 
Q 1150 -91 751 415 
Q 353 922 353 1747 
Q 353 2572 751 3078 
Q 1150 3584 1784 3584 
Q 2172 3584 2448 3432 
Q 2725 3281 2906 2969 
L 2906 3500 
L 3481 3500 
L 3481 -1331 
L 2906 -1331 
L 2906 525 
z
" transform="scale(0.015625)"/>
       <path id="DejaVuSans-fc" d="M 544 1381 
L 544 3500 
L 1119 3500 
L 1119 1403 
Q 1119 906 1312 657 
Q 1506 409 1894 409 
Q 2359 409 2629 706 
Q 2900 1003 2900 1516 
L 2900 3500 
L 3475 3500 
L 3475 0 
L 2900 0 
L 2900 538 
Q 2691 219 2414 64 
Q 2138 -91 1772 -91 
Q 1169 -91 856 284 
Q 544 659 544 1381 
z
M 1991 3584 
L 1991 3584 
z
M 2278 4850 
L 2912 4850 
L 2912 4219 
L 2278 4219 
L 2278 4850 
z
M 1056 4850 
L 1690 4850 
L 1690 4219 
L 1056 4219 
L 1056 4850 
z
" transform="scale(0.015625)"/>
       <path id="DejaVuSans-e8" d="M 3597 1894 
L 3597 1613 
L 953 1613 
Q 991 1019 1311 708 
Q 1631 397 2203 397 
Q 2534 397 2845 478 
Q 3156 559 3463 722 
L 3463 178 
Q 3153 47 2828 -22 
Q 2503 -91 2169 -91 
Q 1331 -91 842 396 
Q 353 884 353 1716 
Q 353 2575 817 3079 
Q 1281 3584 2069 3584 
Q 2775 3584 3186 3129 
Q 3597 2675 3597 1894 
z
M 3022 2063 
Q 3016 2534 2758 2815 
Q 2500 3097 2075 3097 
Q 1594 3097 1305 2825 
Q 1016 2553 972 2059 
L 3022 2063 
z
M 1579 5119 
L 2460 3950 
L 1982 3950 
L 963 5119 
L 1579 5119 
z
" transform="scale(0.015625)"/>
       <path id="DejaVuSans-73" d="M 2834 3397 
L 2834 2853 
Q 2591 2978 2328 3040 
Q 2066 3103 1784 3103 
Q 1356 3103 1142 2972 
Q 928 2841 928 2578 
Q 928 2378 1081 2264 
Q 1234 2150 1697 2047 
L 1894 2003 
Q 2506 1872 2764 1633 
Q 3022 1394 3022 966 
Q 3022 478 2636 193 
Q 2250 -91 1575 -91 
Q 1294 -91 989 -36 
Q 684 19 347 128 
L 347 722 
Q 666 556 975 473 
Q 1284 391 1588 391 
Q 1994 391 2212 530 
Q 2431 669 2431 922 
Q 2431 1156 2273 1281 
Q 2116 1406 1581 1522 
L 1381 1569 
Q 847 1681 609 1914 
Q 372 2147 372 2553 
Q 372 3047 722 3315 
Q 1072 3584 1716 3584 
Q 2034 3584 2315 3537 
Q 2597 3491 2834 3397 
z
" transform="scale(0.015625)"/>
       <path id="DejaVuSans-20" transform="scale(0.015625)"/>
       <path id="DejaVuSans-62" d="M 3116 1747 
Q 3116 2381 2855 2742 
Q 2594 3103 2138 3103 
Q 1681 3103 1420 2742 
Q 1159 2381 1159 1747 
Q 1159 1113 1420 752 
Q 1681 391 2138 391 
Q 2594 391 2855 752 
Q 3116 1113 3116 1747 
z
M 1159 2969 
Q 1341 3281 1617 3432 
Q 1894 3584 2278 3584 
Q 2916 3584 3314 3078 
Q 3713 2572 3713 1747 
Q 3713 922 3314 415 
Q 2916 -91 2278 -91 
Q 1894 -91 1617 61 
Q 1341 213 1159 525 
L 1159 0 
L 581 0 
L 581 4863 
L 1159 4863 
L 1159 2969 
z
" transform="scale(0.015625)"/>
       <path id="DejaVuSans-64" d="M 2906 2969 
L 2906 4863 
L 3481 4863 
L 3481 0 
L 2906 0 
L 2906 525 
Q 2725 213 2448 61 
Q 2172 -91 1784 -91 
Q 1150 -91 751 415 
Q 353 922 353 1747 
Q 353 2572 751 3078 
Q 1150 3584 1784 3584 
Q 2172 3584 2448 3432 
Q 2725 3281 2906 2969 
z
M 947 1747 
Q 947 1113 1208 752 
Q 1469 391 1925 391 
Q 2381 391 2643 752 
Q 2906 1113 2906 1747 
Q 2906 2381 2643 2742 
Q 2381 3103 1925 3103 
Q 1469 3103 1208 2742 
Q 947 2381 947 1747 
z
" transform="scale(0.015625)"/>
      </defs>
      <use xlink:href="#DejaVuSans-46"/>
      <use xlink:href="#DejaVuSans-72" transform="translate(50.269531 0)"/>
      <use xlink:href="#DejaVuSans-65" transform="translate(89.132812 0)"/>
      <use xlink:href="#DejaVuSans-71" transform="translate(150.65625 0)"/>
      <use xlink:href="#DejaVuSans-fc" transform="translate(214.132812 0)"/>
      <use xlink:href="#DejaVuSans-e8" transform="translate(277.511719 0)"/>
      <use xlink:href="#DejaVuSans-6e" transform="translate(339.035156 0)"/>
      <use xlink:href="#DejaVuSans-63" transform="translate(402.414062 0)"/>
      <use xlink:href="#DejaVuSans-69" transform="translate(457.394531 0)"/>
      <use xlink:href="#DejaVuSans-65" transform="translate(485.177734 0)"/>
      <use xlink:href="#DejaVuSans-73" transform="translate(546.701172 0)"/>
      <use xlink:href="#DejaVuSans-20" transform="translate(598.800781 0)"/>
      <use xlink:href="#DejaVuSans-62" transform="translate(630.587891 0)"/>
      <use xlink:href="#DejaVuSans-61" transform="translate(694.064453 0)"/>
      <use xlink:href="#DejaVuSans-73" transform="translate(755.34375 0)"/>
      <use xlink:href="#DejaVuSans-65" transform="translate(807.443359 0)"/>
      <use xlink:href="#DejaVuSans-20" transform="translate(868.966797 0)"/>
      <use xlink:href="#DejaVuSans-64" transform="translate(900.753906 0)"/>
      <use xlink:href="#DejaVuSans-65" transform="translate(964.230469 0)"/>
      <use xlink:href="#DejaVuSans-20" transform="translate(1025.753906 0)"/>
      <use xlink:href="#DejaVuSans-64" transform="translate(1057.541016 0)"/>
      <use xlink:href="#DejaVuSans-61" transform="translate(1121.017578 0)"/>
      <use xlink:href="#DejaVuSans-64" transform="translate(1182.296875 0)"/>
      <use xlink:href="#DejaVuSans-65" transform="translate(1245.773438 0)"/>
      <use xlink:href="#DejaVuSans-73" transform="translate(1307.296875 0)"/>
     </g>
    </g>
   </g>
   <g id="patch_70">
    <path d="M 90 384.48 
L 90 51.84 
" style="fill: none; stroke: #000000; stroke-width: 0.8; stroke-linejoin: miter; stroke-linecap: square"/>
   </g>
   <g id="patch_71">
    <path d="M 648 384.48 
L 648 51.84 
" style="fill: none; stroke: #000000; stroke-width: 0.8; stroke-linejoin: miter; stroke-linecap: square"/>
   </g>
   <g id="patch_72">
    <path d="M 90 384.48 
L 648 384.48 
" style="fill: none; stroke: #000000; stroke-width: 0.8; stroke-linejoin: miter; stroke-linecap: square"/>
   </g>
   <g id="patch_73">
    <path d="M 90 51.84 
L 648 51.84 
" style="fill: none; stroke: #000000; stroke-width: 0.8; stroke-linejoin: miter; stroke-linecap: square"/>
   </g>
  </g>
  <g id="axes_2">
   <g id="patch_74">
    <path d="M 116.12076 215429.715672 
L 122.177748 215429.715672 
L 122.177748 164.202025 
L 116.12076 164.202025 
z
" clip-path="url(#p984d6ba2f4)" style="fill: #ff0000; opacity: 0.6; stroke: #000000; stroke-linejoin: miter"/>
   </g>
   <g id="patch_75">
    <path d="M 123.691995 215429.715672 
L 129.748982 215429.715672 
L 129.748982 369.36 
L 123.691995 369.36 
z
" clip-path="url(#p984d6ba2f4)" style="fill: #ff0000; opacity: 0.6; stroke: #000000; stroke-linejoin: miter"/>
   </g>
   <g id="patch_76">
    <path d="M 131.263229 215429.715672 
L 137.320217 215429.715672 
L 137.320217 66.96 
L 131.263229 66.96 
z
" clip-path="url(#p984d6ba2f4)" style="fill: #ff0000; opacity: 0.6; stroke: #000000; stroke-linejoin: miter"/>
   </g>
   <g id="patch_77">
    <path d="M 138.834464 215429.715672 
L 144.891452 215429.715672 
L 144.891452 215429.715672 
L 138.834464 215429.715672 
z
" clip-path="url(#p984d6ba2f4)" style="fill: #ff0000; opacity: 0.6; stroke: #000000; stroke-linejoin: miter"/>
   </g>
   <g id="patch_78">
    <path d="M 146.405699 215429.715672 
L 152.462687 215429.715672 
L 152.462687 215429.715672 
L 146.405699 215429.715672 
z
" clip-path="url(#p984d6ba2f4)" style="fill: #ff0000; opacity: 0.6; stroke: #000000; stroke-linejoin: miter"/>
   </g>
   <g id="patch_79">
    <path d="M 153.976934 215429.715672 
L 160.033921 215429.715672 
L 160.033921 107.606266 
L 153.976934 107.606266 
z
" clip-path="url(#p984d6ba2f4)" style="fill: #ff0000; opacity: 0.6; stroke: #000000; stroke-linejoin: miter"/>
   </g>
   <g id="patch_80">
    <path d="M 161.548168 215429.715672 
L 167.605156 215429.715672 
L 167.605156 215429.715672 
L 161.548168 215429.715672 
z
" clip-path="url(#p984d6ba2f4)" style="fill: #ff0000; opacity: 0.6; stroke: #000000; stroke-linejoin: miter"/>
   </g>
   <g id="patch_81">
    <path d="M 169.119403 215429.715672 
L 175.176391 215429.715672 
L 175.176391 215429.715672 
L 169.119403 215429.715672 
z
" clip-path="url(#p984d6ba2f4)" style="fill: #ff0000; opacity: 0.6; stroke: #000000; stroke-linejoin: miter"/>
   </g>
   <g id="patch_82">
    <path d="M 176.690638 215429.715672 
L 182.747626 215429.715672 
L 182.747626 215429.715672 
L 176.690638 215429.715672 
z
" clip-path="url(#p984d6ba2f4)" style="fill: #ff0000; opacity: 0.6; stroke: #000000; stroke-linejoin: miter"/>
   </g>
   <g id="patch_83">
    <path d="M 184.261872 215429.715672 
L 190.31886 215429.715672 
L 190.31886 215429.715672 
L 184.261872 215429.715672 
z
" clip-path="url(#p984d6ba2f4)" style="fill: #ff0000; opacity: 0.6; stroke: #000000; stroke-linejoin: miter"/>
   </g>
   <g id="patch_84">
    <path d="M 191.833107 215429.715672 
L 197.890095 215429.715672 
L 197.890095 266.781013 
L 191.833107 266.781013 
z
" clip-path="url(#p984d6ba2f4)" style="fill: #ff0000; opacity: 0.6; stroke: #000000; stroke-linejoin: miter"/>
   </g>
   <g id="patch_85">
    <path d="M 199.404342 215429.715672 
L 205.46133 215429.715672 
L 205.46133 215429.715672 
L 199.404342 215429.715672 
z
" clip-path="url(#p984d6ba2f4)" style="fill: #ff0000; opacity: 0.6; stroke: #000000; stroke-linejoin: miter"/>
   </g>
   <g id="patch_86">
    <path d="M 206.975577 215429.715672 
L 213.032564 215429.715672 
L 213.032564 215429.715672 
L 206.975577 215429.715672 
z
" clip-path="url(#p984d6ba2f4)" style="fill: #ff0000; opacity: 0.6; stroke: #000000; stroke-linejoin: miter"/>
   </g>
   <g id="patch_87">
    <path d="M 214.546811 215429.715672 
L 220.603799 215429.715672 
L 220.603799 215429.715672 
L 214.546811 215429.715672 
z
" clip-path="url(#p984d6ba2f4)" style="fill: #ff0000; opacity: 0.6; stroke: #000000; stroke-linejoin: miter"/>
   </g>
   <g id="patch_88">
    <path d="M 222.118046 215429.715672 
L 228.175034 215429.715672 
L 228.175034 215429.715672 
L 222.118046 215429.715672 
z
" clip-path="url(#p984d6ba2f4)" style="fill: #ff0000; opacity: 0.6; stroke: #000000; stroke-linejoin: miter"/>
   </g>
   <g id="patch_89">
    <path d="M 229.689281 215429.715672 
L 235.746269 215429.715672 
L 235.746269 215429.715672 
L 229.689281 215429.715672 
z
" clip-path="url(#p984d6ba2f4)" style="fill: #ff0000; opacity: 0.6; stroke: #000000; stroke-linejoin: miter"/>
   </g>
   <g id="patch_90">
    <path d="M 237.260516 215429.715672 
L 243.317503 215429.715672 
L 243.317503 215429.715672 
L 237.260516 215429.715672 
z
" clip-path="url(#p984d6ba2f4)" style="fill: #ff0000; opacity: 0.6; stroke: #000000; stroke-linejoin: miter"/>
   </g>
   <g id="patch_91">
    <path d="M 244.83175 215429.715672 
L 250.888738 215429.715672 
L 250.888738 331.501148 
L 244.83175 331.501148 
z
" clip-path="url(#p984d6ba2f4)" style="fill: #ff0000; opacity: 0.6; stroke: #000000; stroke-linejoin: miter"/>
   </g>
   <g id="patch_92">
    <path d="M 252.402985 215429.715672 
L 258.459973 215429.715672 
L 258.459973 215429.715672 
L 252.402985 215429.715672 
z
" clip-path="url(#p984d6ba2f4)" style="fill: #ff0000; opacity: 0.6; stroke: #000000; stroke-linejoin: miter"/>
   </g>
   <g id="patch_93">
    <path d="M 259.97422 215429.715672 
L 266.031208 215429.715672 
L 266.031208 215429.715672 
L 259.97422 215429.715672 
z
" clip-path="url(#p984d6ba2f4)" style="fill: #ff0000; opacity: 0.6; stroke: #000000; stroke-linejoin: miter"/>
   </g>
   <g id="patch_94">
    <path d="M 267.545455 215429.715672 
L 273.602442 215429.715672 
L 273.602442 215429.715672 
L 267.545455 215429.715672 
z
" clip-path="url(#p984d6ba2f4)" style="fill: #ff0000; opacity: 0.6; stroke: #000000; stroke-linejoin: miter"/>
   </g>
   <g id="patch_95">
    <path d="M 275.116689 215429.715672 
L 281.173677 215429.715672 
L 281.173677 331.501148 
L 275.116689 331.501148 
z
" clip-path="url(#p984d6ba2f4)" style="fill: #ff0000; opacity: 0.6; stroke: #000000; stroke-linejoin: miter"/>
   </g>
   <g id="patch_96">
    <path d="M 282.687924 215429.715672 
L 288.744912 215429.715672 
L 288.744912 215429.715672 
L 282.687924 215429.715672 
z
" clip-path="url(#p984d6ba2f4)" style="fill: #ff0000; opacity: 0.6; stroke: #000000; stroke-linejoin: miter"/>
   </g>
   <g id="patch_97">
    <path d="M 290.259159 215429.715672 
L 296.316147 215429.715672 
L 296.316147 215429.715672 
L 290.259159 215429.715672 
z
" clip-path="url(#p984d6ba2f4)" style="fill: #ff0000; opacity: 0.6; stroke: #000000; stroke-linejoin: miter"/>
   </g>
   <g id="patch_98">
    <path d="M 297.830393 215429.715672 
L 303.887381 215429.715672 
L 303.887381 215429.715672 
L 297.830393 215429.715672 
z
" clip-path="url(#p984d6ba2f4)" style="fill: #ff0000; opacity: 0.6; stroke: #000000; stroke-linejoin: miter"/>
   </g>
   <g id="patch_99">
    <path d="M 305.401628 215429.715672 
L 311.458616 215429.715672 
L 311.458616 215429.715672 
L 305.401628 215429.715672 
z
" clip-path="url(#p984d6ba2f4)" style="fill: #ff0000; opacity: 0.6; stroke: #000000; stroke-linejoin: miter"/>
   </g>
   <g id="patch_100">
    <path d="M 312.972863 215429.715672 
L 319.029851 215429.715672 
L 319.029851 215429.715672 
L 312.972863 215429.715672 
z
" clip-path="url(#p984d6ba2f4)" style="fill: #ff0000; opacity: 0.6; stroke: #000000; stroke-linejoin: miter"/>
   </g>
   <g id="patch_101">
    <path d="M 320.544098 215429.715672 
L 326.601085 215429.715672 
L 326.601085 215429.715672 
L 320.544098 215429.715672 
z
" clip-path="url(#p984d6ba2f4)" style="fill: #ff0000; opacity: 0.6; stroke: #000000; stroke-linejoin: miter"/>
   </g>
   <g id="patch_102">
    <path d="M 328.115332 215429.715672 
L 334.17232 215429.715672 
L 334.17232 215429.715672 
L 328.115332 215429.715672 
z
" clip-path="url(#p984d6ba2f4)" style="fill: #ff0000; opacity: 0.6; stroke: #000000; stroke-linejoin: miter"/>
   </g>
   <g id="patch_103">
    <path d="M 335.686567 215429.715672 
L 341.743555 215429.715672 
L 341.743555 215429.715672 
L 335.686567 215429.715672 
z
" clip-path="url(#p984d6ba2f4)" style="fill: #ff0000; opacity: 0.6; stroke: #000000; stroke-linejoin: miter"/>
   </g>
   <g id="patch_104">
    <path d="M 343.257802 215429.715672 
L 349.31479 215429.715672 
L 349.31479 215429.715672 
L 343.257802 215429.715672 
z
" clip-path="url(#p984d6ba2f4)" style="fill: #ff0000; opacity: 0.6; stroke: #000000; stroke-linejoin: miter"/>
   </g>
   <g id="patch_105">
    <path d="M 350.829037 215429.715672 
L 356.886024 215429.715672 
L 356.886024 215429.715672 
L 350.829037 215429.715672 
z
" clip-path="url(#p984d6ba2f4)" style="fill: #ff0000; opacity: 0.6; stroke: #000000; stroke-linejoin: miter"/>
   </g>
   <g id="patch_106">
    <path d="M 358.400271 215429.715672 
L 364.457259 215429.715672 
L 364.457259 215429.715672 
L 358.400271 215429.715672 
z
" clip-path="url(#p984d6ba2f4)" style="fill: #ff0000; opacity: 0.6; stroke: #000000; stroke-linejoin: miter"/>
   </g>
   <g id="patch_107">
    <path d="M 365.971506 215429.715672 
L 372.028494 215429.715672 
L 372.028494 215429.715672 
L 365.971506 215429.715672 
z
" clip-path="url(#p984d6ba2f4)" style="fill: #ff0000; opacity: 0.6; stroke: #000000; stroke-linejoin: miter"/>
   </g>
   <g id="patch_108">
    <path d="M 373.542741 215429.715672 
L 379.599729 215429.715672 
L 379.599729 215429.715672 
L 373.542741 215429.715672 
z
" clip-path="url(#p984d6ba2f4)" style="fill: #ff0000; opacity: 0.6; stroke: #000000; stroke-linejoin: miter"/>
   </g>
   <g id="patch_109">
    <path d="M 381.113976 215429.715672 
L 387.170963 215429.715672 
L 387.170963 215429.715672 
L 381.113976 215429.715672 
z
" clip-path="url(#p984d6ba2f4)" style="fill: #ff0000; opacity: 0.6; stroke: #000000; stroke-linejoin: miter"/>
   </g>
   <g id="patch_110">
    <path d="M 388.68521 215429.715672 
L 394.742198 215429.715672 
L 394.742198 215429.715672 
L 388.68521 215429.715672 
z
" clip-path="url(#p984d6ba2f4)" style="fill: #ff0000; opacity: 0.6; stroke: #000000; stroke-linejoin: miter"/>
   </g>
   <g id="patch_111">
    <path d="M 396.256445 215429.715672 
L 402.313433 215429.715672 
L 402.313433 215429.715672 
L 396.256445 215429.715672 
z
" clip-path="url(#p984d6ba2f4)" style="fill: #ff0000; opacity: 0.6; stroke: #000000; stroke-linejoin: miter"/>
   </g>
   <g id="patch_112">
    <path d="M 403.82768 215429.715672 
L 409.884668 215429.715672 
L 409.884668 215429.715672 
L 403.82768 215429.715672 
z
" clip-path="url(#p984d6ba2f4)" style="fill: #ff0000; opacity: 0.6; stroke: #000000; stroke-linejoin: miter"/>
   </g>
   <g id="patch_113">
    <path d="M 411.398915 215429.715672 
L 417.455902 215429.715672 
L 417.455902 215429.715672 
L 411.398915 215429.715672 
z
" clip-path="url(#p984d6ba2f4)" style="fill: #ff0000; opacity: 0.6; stroke: #000000; stroke-linejoin: miter"/>
   </g>
   <g id="patch_114">
    <path d="M 418.970149 215429.715672 
L 425.027137 215429.715672 
L 425.027137 215429.715672 
L 418.970149 215429.715672 
z
" clip-path="url(#p984d6ba2f4)" style="fill: #ff0000; opacity: 0.6; stroke: #000000; stroke-linejoin: miter"/>
   </g>
   <g id="patch_115">
    <path d="M 426.541384 215429.715672 
L 432.598372 215429.715672 
L 432.598372 215429.715672 
L 426.541384 215429.715672 
z
" clip-path="url(#p984d6ba2f4)" style="fill: #ff0000; opacity: 0.6; stroke: #000000; stroke-linejoin: miter"/>
   </g>
   <g id="patch_116">
    <path d="M 434.112619 215429.715672 
L 440.169607 215429.715672 
L 440.169607 215429.715672 
L 434.112619 215429.715672 
z
" clip-path="url(#p984d6ba2f4)" style="fill: #ff0000; opacity: 0.6; stroke: #000000; stroke-linejoin: miter"/>
   </g>
   <g id="patch_117">
    <path d="M 441.683853 215429.715672 
L 447.740841 215429.715672 
L 447.740841 215429.715672 
L 441.683853 215429.715672 
z
" clip-path="url(#p984d6ba2f4)" style="fill: #ff0000; opacity: 0.6; stroke: #000000; stroke-linejoin: miter"/>
   </g>
   <g id="patch_118">
    <path d="M 449.255088 215429.715672 
L 455.312076 215429.715672 
L 455.312076 215429.715672 
L 449.255088 215429.715672 
z
" clip-path="url(#p984d6ba2f4)" style="fill: #ff0000; opacity: 0.6; stroke: #000000; stroke-linejoin: miter"/>
   </g>
   <g id="patch_119">
    <path d="M 456.826323 215429.715672 
L 462.883311 215429.715672 
L 462.883311 215429.715672 
L 456.826323 215429.715672 
z
" clip-path="url(#p984d6ba2f4)" style="fill: #ff0000; opacity: 0.6; stroke: #000000; stroke-linejoin: miter"/>
   </g>
   <g id="patch_120">
    <path d="M 464.397558 215429.715672 
L 470.454545 215429.715672 
L 470.454545 215429.715672 
L 464.397558 215429.715672 
z
" clip-path="url(#p984d6ba2f4)" style="fill: #ff0000; opacity: 0.6; stroke: #000000; stroke-linejoin: miter"/>
   </g>
   <g id="patch_121">
    <path d="M 471.968792 215429.715672 
L 478.02578 215429.715672 
L 478.02578 215429.715672 
L 471.968792 215429.715672 
z
" clip-path="url(#p984d6ba2f4)" style="fill: #ff0000; opacity: 0.6; stroke: #000000; stroke-linejoin: miter"/>
   </g>
   <g id="patch_122">
    <path d="M 479.540027 215429.715672 
L 485.597015 215429.715672 
L 485.597015 215429.715672 
L 479.540027 215429.715672 
z
" clip-path="url(#p984d6ba2f4)" style="fill: #ff0000; opacity: 0.6; stroke: #000000; stroke-linejoin: miter"/>
   </g>
   <g id="patch_123">
    <path d="M 487.111262 215429.715672 
L 493.16825 215429.715672 
L 493.16825 215429.715672 
L 487.111262 215429.715672 
z
" clip-path="url(#p984d6ba2f4)" style="fill: #ff0000; opacity: 0.6; stroke: #000000; stroke-linejoin: miter"/>
   </g>
   <g id="patch_124">
    <path d="M 494.682497 215429.715672 
L 500.739484 215429.715672 
L 500.739484 215429.715672 
L 494.682497 215429.715672 
z
" clip-path="url(#p984d6ba2f4)" style="fill: #ff0000; opacity: 0.6; stroke: #000000; stroke-linejoin: miter"/>
   </g>
   <g id="patch_125">
    <path d="M 502.253731 215429.715672 
L 508.310719 215429.715672 
L 508.310719 215429.715672 
L 502.253731 215429.715672 
z
" clip-path="url(#p984d6ba2f4)" style="fill: #ff0000; opacity: 0.6; stroke: #000000; stroke-linejoin: miter"/>
   </g>
   <g id="patch_126">
    <path d="M 509.824966 215429.715672 
L 515.881954 215429.715672 
L 515.881954 215429.715672 
L 509.824966 215429.715672 
z
" clip-path="url(#p984d6ba2f4)" style="fill: #ff0000; opacity: 0.6; stroke: #000000; stroke-linejoin: miter"/>
   </g>
   <g id="patch_127">
    <path d="M 517.396201 215429.715672 
L 523.453189 215429.715672 
L 523.453189 215429.715672 
L 517.396201 215429.715672 
z
" clip-path="url(#p984d6ba2f4)" style="fill: #ff0000; opacity: 0.6; stroke: #000000; stroke-linejoin: miter"/>
   </g>
   <g id="patch_128">
    <path d="M 524.967436 215429.715672 
L 531.024423 215429.715672 
L 531.024423 215429.715672 
L 524.967436 215429.715672 
z
" clip-path="url(#p984d6ba2f4)" style="fill: #ff0000; opacity: 0.6; stroke: #000000; stroke-linejoin: miter"/>
   </g>
   <g id="patch_129">
    <path d="M 532.53867 215429.715672 
L 538.595658 215429.715672 
L 538.595658 215429.715672 
L 532.53867 215429.715672 
z
" clip-path="url(#p984d6ba2f4)" style="fill: #ff0000; opacity: 0.6; stroke: #000000; stroke-linejoin: miter"/>
   </g>
   <g id="patch_130">
    <path d="M 540.109905 215429.715672 
L 546.166893 215429.715672 
L 546.166893 215429.715672 
L 540.109905 215429.715672 
z
" clip-path="url(#p984d6ba2f4)" style="fill: #ff0000; opacity: 0.6; stroke: #000000; stroke-linejoin: miter"/>
   </g>
   <g id="patch_131">
    <path d="M 547.68114 215429.715672 
L 553.738128 215429.715672 
L 553.738128 215429.715672 
L 547.68114 215429.715672 
z
" clip-path="url(#p984d6ba2f4)" style="fill: #ff0000; opacity: 0.6; stroke: #000000; stroke-linejoin: miter"/>
   </g>
   <g id="patch_132">
    <path d="M 555.252374 215429.715672 
L 561.309362 215429.715672 
L 561.309362 215429.715672 
L 555.252374 215429.715672 
z
" clip-path="url(#p984d6ba2f4)" style="fill: #ff0000; opacity: 0.6; stroke: #000000; stroke-linejoin: miter"/>
   </g>
   <g id="patch_133">
    <path d="M 562.823609 215429.715672 
L 568.880597 215429.715672 
L 568.880597 215429.715672 
L 562.823609 215429.715672 
z
" clip-path="url(#p984d6ba2f4)" style="fill: #ff0000; opacity: 0.6; stroke: #000000; stroke-linejoin: miter"/>
   </g>
   <g id="patch_134">
    <path d="M 570.394844 215429.715672 
L 576.451832 215429.715672 
L 576.451832 215429.715672 
L 570.394844 215429.715672 
z
" clip-path="url(#p984d6ba2f4)" style="fill: #ff0000; opacity: 0.6; stroke: #000000; stroke-linejoin: miter"/>
   </g>
   <g id="patch_135">
    <path d="M 577.966079 215429.715672 
L 584.023066 215429.715672 
L 584.023066 215429.715672 
L 577.966079 215429.715672 
z
" clip-path="url(#p984d6ba2f4)" style="fill: #ff0000; opacity: 0.6; stroke: #000000; stroke-linejoin: miter"/>
   </g>
   <g id="patch_136">
    <path d="M 585.537313 215429.715672 
L 591.594301 215429.715672 
L 591.594301 215429.715672 
L 585.537313 215429.715672 
z
" clip-path="url(#p984d6ba2f4)" style="fill: #ff0000; opacity: 0.6; stroke: #000000; stroke-linejoin: miter"/>
   </g>
   <g id="patch_137">
    <path d="M 593.108548 215429.715672 
L 599.165536 215429.715672 
L 599.165536 215429.715672 
L 593.108548 215429.715672 
z
" clip-path="url(#p984d6ba2f4)" style="fill: #ff0000; opacity: 0.6; stroke: #000000; stroke-linejoin: miter"/>
   </g>
   <g id="patch_138">
    <path d="M 600.679783 215429.715672 
L 606.736771 215429.715672 
L 606.736771 215429.715672 
L 600.679783 215429.715672 
z
" clip-path="url(#p984d6ba2f4)" style="fill: #ff0000; opacity: 0.6; stroke: #000000; stroke-linejoin: miter"/>
   </g>
   <g id="patch_139">
    <path d="M 608.251018 215429.715672 
L 614.308005 215429.715672 
L 614.308005 215429.715672 
L 608.251018 215429.715672 
z
" clip-path="url(#p984d6ba2f4)" style="fill: #ff0000; opacity: 0.6; stroke: #000000; stroke-linejoin: miter"/>
   </g>
   <g id="patch_140">
    <path d="M 615.822252 215429.715672 
L 621.87924 215429.715672 
L 621.87924 215429.715672 
L 615.822252 215429.715672 
z
" clip-path="url(#p984d6ba2f4)" style="fill: #ff0000; opacity: 0.6; stroke: #000000; stroke-linejoin: miter"/>
   </g>
   <g id="matplotlib.axis_3">
    <g id="ytick_34">
     <g id="line2d_83">
      <defs>
       <path id="m6aa0288fd4" d="M 0 0 
L 3.5 0 
" style="stroke: #000000; stroke-width: 0.8"/>
      </defs>
      <g>
       <use xlink:href="#m6aa0288fd4" x="648" y="219.0845" style="stroke: #000000; stroke-width: 0.8"/>
      </g>
     </g>
     <g id="text_15">
      <!-- $\mathdefault{10^{1}}$ -->
      <g transform="translate(655 222.883718) scale(0.1 -0.1)">
       <use xlink:href="#DejaVuSans-31" transform="translate(0 0.684375)"/>
       <use xlink:href="#DejaVuSans-30" transform="translate(63.623047 0.684375)"/>
       <use xlink:href="#DejaVuSans-31" transform="translate(128.203125 38.965625) scale(0.7)"/>
      </g>
     </g>
    </g>
    <g id="ytick_35">
     <g id="line2d_84">
      <defs>
       <path id="m6b563028e0" d="M 0 0 
L 2 0 
" style="stroke: #000000; stroke-width: 0.6"/>
      </defs>
      <g>
       <use xlink:href="#m6b563028e0" x="648" y="369.36" style="stroke: #000000; stroke-width: 0.6"/>
      </g>
     </g>
    </g>
    <g id="ytick_36">
     <g id="line2d_85">
      <g>
       <use xlink:href="#m6b563028e0" x="648" y="331.501148" style="stroke: #000000; stroke-width: 0.6"/>
      </g>
     </g>
    </g>
    <g id="ytick_37">
     <g id="line2d_86">
      <g>
       <use xlink:href="#m6b563028e0" x="648" y="304.639865" style="stroke: #000000; stroke-width: 0.6"/>
      </g>
     </g>
    </g>
    <g id="ytick_38">
     <g id="line2d_87">
      <g>
       <use xlink:href="#m6b563028e0" x="648" y="283.804635" style="stroke: #000000; stroke-width: 0.6"/>
      </g>
     </g>
    </g>
    <g id="ytick_39">
     <g id="line2d_88">
      <g>
       <use xlink:href="#m6b563028e0" x="648" y="266.781013" style="stroke: #000000; stroke-width: 0.6"/>
      </g>
     </g>
    </g>
    <g id="ytick_40">
     <g id="line2d_89">
      <g>
       <use xlink:href="#m6b563028e0" x="648" y="252.387745" style="stroke: #000000; stroke-width: 0.6"/>
      </g>
     </g>
    </g>
    <g id="ytick_41">
     <g id="line2d_90">
      <g>
       <use xlink:href="#m6b563028e0" x="648" y="239.91973" style="stroke: #000000; stroke-width: 0.6"/>
      </g>
     </g>
    </g>
    <g id="ytick_42">
     <g id="line2d_91">
      <g>
       <use xlink:href="#m6b563028e0" x="648" y="228.92216" style="stroke: #000000; stroke-width: 0.6"/>
      </g>
     </g>
    </g>
    <g id="ytick_43">
     <g id="line2d_92">
      <g>
       <use xlink:href="#m6b563028e0" x="648" y="154.364364" style="stroke: #000000; stroke-width: 0.6"/>
      </g>
     </g>
    </g>
    <g id="ytick_44">
     <g id="line2d_93">
      <g>
       <use xlink:href="#m6b563028e0" x="648" y="116.505512" style="stroke: #000000; stroke-width: 0.6"/>
      </g>
     </g>
    </g>
    <g id="ytick_45">
     <g id="line2d_94">
      <g>
       <use xlink:href="#m6b563028e0" x="648" y="89.644229" style="stroke: #000000; stroke-width: 0.6"/>
      </g>
     </g>
    </g>
    <g id="ytick_46">
     <g id="line2d_95">
      <g>
       <use xlink:href="#m6b563028e0" x="648" y="68.808999" style="stroke: #000000; stroke-width: 0.6"/>
      </g>
     </g>
    </g>
    <g id="text_16">
     <!-- Freqüències molècula analitzada -->
     <g style="fill: #ff0000" transform="translate(684.598438 300.006875) rotate(-90) scale(0.1 -0.1)">
      <defs>
       <path id="DejaVuSans-6c" d="M 603 4863 
L 1178 4863 
L 1178 0 
L 603 0 
L 603 4863 
z
" transform="scale(0.015625)"/>
       <path id="DejaVuSans-75" d="M 544 1381 
L 544 3500 
L 1119 3500 
L 1119 1403 
Q 1119 906 1312 657 
Q 1506 409 1894 409 
Q 2359 409 2629 706 
Q 2900 1003 2900 1516 
L 2900 3500 
L 3475 3500 
L 3475 0 
L 2900 0 
L 2900 538 
Q 2691 219 2414 64 
Q 2138 -91 1772 -91 
Q 1169 -91 856 284 
Q 544 659 544 1381 
z
M 1991 3584 
L 1991 3584 
z
" transform="scale(0.015625)"/>
       <path id="DejaVuSans-74" d="M 1172 4494 
L 1172 3500 
L 2356 3500 
L 2356 3053 
L 1172 3053 
L 1172 1153 
Q 1172 725 1289 603 
Q 1406 481 1766 481 
L 2356 481 
L 2356 0 
L 1766 0 
Q 1100 0 847 248 
Q 594 497 594 1153 
L 594 3053 
L 172 3053 
L 172 3500 
L 594 3500 
L 594 4494 
L 1172 4494 
z
" transform="scale(0.015625)"/>
       <path id="DejaVuSans-7a" d="M 353 3500 
L 3084 3500 
L 3084 2975 
L 922 459 
L 3084 459 
L 3084 0 
L 275 0 
L 275 525 
L 2438 3041 
L 353 3041 
L 353 3500 
z
" transform="scale(0.015625)"/>
      </defs>
      <use xlink:href="#DejaVuSans-46"/>
      <use xlink:href="#DejaVuSans-72" transform="translate(50.269531 0)"/>
      <use xlink:href="#DejaVuSans-65" transform="translate(89.132812 0)"/>
      <use xlink:href="#DejaVuSans-71" transform="translate(150.65625 0)"/>
      <use xlink:href="#DejaVuSans-fc" transform="translate(214.132812 0)"/>
      <use xlink:href="#DejaVuSans-e8" transform="translate(277.511719 0)"/>
      <use xlink:href="#DejaVuSans-6e" transform="translate(339.035156 0)"/>
      <use xlink:href="#DejaVuSans-63" transform="translate(402.414062 0)"/>
      <use xlink:href="#DejaVuSans-69" transform="translate(457.394531 0)"/>
      <use xlink:href="#DejaVuSans-65" transform="translate(485.177734 0)"/>
      <use xlink:href="#DejaVuSans-73" transform="translate(546.701172 0)"/>
      <use xlink:href="#DejaVuSans-20" transform="translate(598.800781 0)"/>
      <use xlink:href="#DejaVuSans-6d" transform="translate(630.587891 0)"/>
      <use xlink:href="#DejaVuSans-6f" transform="translate(728 0)"/>
      <use xlink:href="#DejaVuSans-6c" transform="translate(789.181641 0)"/>
      <use xlink:href="#DejaVuSans-e8" transform="translate(816.964844 0)"/>
      <use xlink:href="#DejaVuSans-63" transform="translate(878.488281 0)"/>
      <use xlink:href="#DejaVuSans-75" transform="translate(933.46875 0)"/>
      <use xlink:href="#DejaVuSans-6c" transform="translate(996.847656 0)"/>
      <use xlink:href="#DejaVuSans-61" transform="translate(1024.630859 0)"/>
      <use xlink:href="#DejaVuSans-20" transform="translate(1085.910156 0)"/>
      <use xlink:href="#DejaVuSans-61" transform="translate(1117.697266 0)"/>
      <use xlink:href="#DejaVuSans-6e" transform="translate(1178.976562 0)"/>
      <use xlink:href="#DejaVuSans-61" transform="translate(1242.355469 0)"/>
      <use xlink:href="#DejaVuSans-6c" transform="translate(1303.634766 0)"/>
      <use xlink:href="#DejaVuSans-69" transform="translate(1331.417969 0)"/>
      <use xlink:href="#DejaVuSans-74" transform="translate(1359.201172 0)"/>
      <use xlink:href="#DejaVuSans-7a" transform="translate(1398.410156 0)"/>
      <use xlink:href="#DejaVuSans-61" transform="translate(1450.900391 0)"/>
      <use xlink:href="#DejaVuSans-64" transform="translate(1512.179688 0)"/>
      <use xlink:href="#DejaVuSans-61" transform="translate(1575.65625 0)"/>
     </g>
    </g>
   </g>
   <g id="patch_141">
    <path d="M 90 384.48 
L 90 51.84 
" style="fill: none; stroke: #000000; stroke-width: 0.8; stroke-linejoin: miter; stroke-linecap: square"/>
   </g>
   <g id="patch_142">
    <path d="M 648 384.48 
L 648 51.84 
" style="fill: none; stroke: #000000; stroke-width: 0.8; stroke-linejoin: miter; stroke-linecap: square"/>
   </g>
   <g id="patch_143">
    <path d="M 90 384.48 
L 648 384.48 
" style="fill: none; stroke: #000000; stroke-width: 0.8; stroke-linejoin: miter; stroke-linecap: square"/>
   </g>
   <g id="patch_144">
    <path d="M 90 51.84 
L 648 51.84 
" style="fill: none; stroke: #000000; stroke-width: 0.8; stroke-linejoin: miter; stroke-linecap: square"/>
   </g>
   <g id="text_17">
    <!-- Overlapping Histograms with Different Scales -->
    <g transform="translate(232.069688 45.84) scale(0.12 -0.12)">
     <defs>
      <path id="DejaVuSans-4f" d="M 2522 4238 
Q 1834 4238 1429 3725 
Q 1025 3213 1025 2328 
Q 1025 1447 1429 934 
Q 1834 422 2522 422 
Q 3209 422 3611 934 
Q 4013 1447 4013 2328 
Q 4013 3213 3611 3725 
Q 3209 4238 2522 4238 
z
M 2522 4750 
Q 3503 4750 4090 4092 
Q 4678 3434 4678 2328 
Q 4678 1225 4090 567 
Q 3503 -91 2522 -91 
Q 1538 -91 948 565 
Q 359 1222 359 2328 
Q 359 3434 948 4092 
Q 1538 4750 2522 4750 
z
" transform="scale(0.015625)"/>
      <path id="DejaVuSans-76" d="M 191 3500 
L 800 3500 
L 1894 563 
L 2988 3500 
L 3597 3500 
L 2284 0 
L 1503 0 
L 191 3500 
z
" transform="scale(0.015625)"/>
      <path id="DejaVuSans-70" d="M 1159 525 
L 1159 -1331 
L 581 -1331 
L 581 3500 
L 1159 3500 
L 1159 2969 
Q 1341 3281 1617 3432 
Q 1894 3584 2278 3584 
Q 2916 3584 3314 3078 
Q 3713 2572 3713 1747 
Q 3713 922 3314 415 
Q 2916 -91 2278 -91 
Q 1894 -91 1617 61 
Q 1341 213 1159 525 
z
M 3116 1747 
Q 3116 2381 2855 2742 
Q 2594 3103 2138 3103 
Q 1681 3103 1420 2742 
Q 1159 2381 1159 1747 
Q 1159 1113 1420 752 
Q 1681 391 2138 391 
Q 2594 391 2855 752 
Q 3116 1113 3116 1747 
z
" transform="scale(0.015625)"/>
      <path id="DejaVuSans-67" d="M 2906 1791 
Q 2906 2416 2648 2759 
Q 2391 3103 1925 3103 
Q 1463 3103 1205 2759 
Q 947 2416 947 1791 
Q 947 1169 1205 825 
Q 1463 481 1925 481 
Q 2391 481 2648 825 
Q 2906 1169 2906 1791 
z
M 3481 434 
Q 3481 -459 3084 -895 
Q 2688 -1331 1869 -1331 
Q 1566 -1331 1297 -1286 
Q 1028 -1241 775 -1147 
L 775 -588 
Q 1028 -725 1275 -790 
Q 1522 -856 1778 -856 
Q 2344 -856 2625 -561 
Q 2906 -266 2906 331 
L 2906 616 
Q 2728 306 2450 153 
Q 2172 0 1784 0 
Q 1141 0 747 490 
Q 353 981 353 1791 
Q 353 2603 747 3093 
Q 1141 3584 1784 3584 
Q 2172 3584 2450 3431 
Q 2728 3278 2906 2969 
L 2906 3500 
L 3481 3500 
L 3481 434 
z
" transform="scale(0.015625)"/>
      <path id="DejaVuSans-48" d="M 628 4666 
L 1259 4666 
L 1259 2753 
L 3553 2753 
L 3553 4666 
L 4184 4666 
L 4184 0 
L 3553 0 
L 3553 2222 
L 1259 2222 
L 1259 0 
L 628 0 
L 628 4666 
z
" transform="scale(0.015625)"/>
      <path id="DejaVuSans-77" d="M 269 3500 
L 844 3500 
L 1563 769 
L 2278 3500 
L 2956 3500 
L 3675 769 
L 4391 3500 
L 4966 3500 
L 4050 0 
L 3372 0 
L 2619 2869 
L 1863 0 
L 1184 0 
L 269 3500 
z
" transform="scale(0.015625)"/>
      <path id="DejaVuSans-68" d="M 3513 2113 
L 3513 0 
L 2938 0 
L 2938 2094 
Q 2938 2591 2744 2837 
Q 2550 3084 2163 3084 
Q 1697 3084 1428 2787 
Q 1159 2491 1159 1978 
L 1159 0 
L 581 0 
L 581 4863 
L 1159 4863 
L 1159 2956 
Q 1366 3272 1645 3428 
Q 1925 3584 2291 3584 
Q 2894 3584 3203 3211 
Q 3513 2838 3513 2113 
z
" transform="scale(0.015625)"/>
      <path id="DejaVuSans-44" d="M 1259 4147 
L 1259 519 
L 2022 519 
Q 2988 519 3436 956 
Q 3884 1394 3884 2338 
Q 3884 3275 3436 3711 
Q 2988 4147 2022 4147 
L 1259 4147 
z
M 628 4666 
L 1925 4666 
Q 3281 4666 3915 4102 
Q 4550 3538 4550 2338 
Q 4550 1131 3912 565 
Q 3275 0 1925 0 
L 628 0 
L 628 4666 
z
" transform="scale(0.015625)"/>
      <path id="DejaVuSans-53" d="M 3425 4513 
L 3425 3897 
Q 3066 4069 2747 4153 
Q 2428 4238 2131 4238 
Q 1616 4238 1336 4038 
Q 1056 3838 1056 3469 
Q 1056 3159 1242 3001 
Q 1428 2844 1947 2747 
L 2328 2669 
Q 3034 2534 3370 2195 
Q 3706 1856 3706 1288 
Q 3706 609 3251 259 
Q 2797 -91 1919 -91 
Q 1588 -91 1214 -16 
Q 841 59 441 206 
L 441 856 
Q 825 641 1194 531 
Q 1563 422 1919 422 
Q 2459 422 2753 634 
Q 3047 847 3047 1241 
Q 3047 1584 2836 1778 
Q 2625 1972 2144 2069 
L 1759 2144 
Q 1053 2284 737 2584 
Q 422 2884 422 3419 
Q 422 4038 858 4394 
Q 1294 4750 2059 4750 
Q 2388 4750 2728 4690 
Q 3069 4631 3425 4513 
z
" transform="scale(0.015625)"/>
     </defs>
     <use xlink:href="#DejaVuSans-4f"/>
     <use xlink:href="#DejaVuSans-76" transform="translate(78.710938 0)"/>
     <use xlink:href="#DejaVuSans-65" transform="translate(137.890625 0)"/>
     <use xlink:href="#DejaVuSans-72" transform="translate(199.414062 0)"/>
     <use xlink:href="#DejaVuSans-6c" transform="translate(240.527344 0)"/>
     <use xlink:href="#DejaVuSans-61" transform="translate(268.310547 0)"/>
     <use xlink:href="#DejaVuSans-70" transform="translate(329.589844 0)"/>
     <use xlink:href="#DejaVuSans-70" transform="translate(393.066406 0)"/>
     <use xlink:href="#DejaVuSans-69" transform="translate(456.542969 0)"/>
     <use xlink:href="#DejaVuSans-6e" transform="translate(484.326172 0)"/>
     <use xlink:href="#DejaVuSans-67" transform="translate(547.705078 0)"/>
     <use xlink:href="#DejaVuSans-20" transform="translate(611.181641 0)"/>
     <use xlink:href="#DejaVuSans-48" transform="translate(642.96875 0)"/>
     <use xlink:href="#DejaVuSans-69" transform="translate(718.164062 0)"/>
     <use xlink:href="#DejaVuSans-73" transform="translate(745.947266 0)"/>
     <use xlink:href="#DejaVuSans-74" transform="translate(798.046875 0)"/>
     <use xlink:href="#DejaVuSans-6f" transform="translate(837.255859 0)"/>
     <use xlink:href="#DejaVuSans-67" transform="translate(898.4375 0)"/>
     <use xlink:href="#DejaVuSans-72" transform="translate(961.914062 0)"/>
     <use xlink:href="#DejaVuSans-61" transform="translate(1003.027344 0)"/>
     <use xlink:href="#DejaVuSans-6d" transform="translate(1064.306641 0)"/>
     <use xlink:href="#DejaVuSans-73" transform="translate(1161.71875 0)"/>
     <use xlink:href="#DejaVuSans-20" transform="translate(1213.818359 0)"/>
     <use xlink:href="#DejaVuSans-77" transform="translate(1245.605469 0)"/>
     <use xlink:href="#DejaVuSans-69" transform="translate(1327.392578 0)"/>
     <use xlink:href="#DejaVuSans-74" transform="translate(1355.175781 0)"/>
     <use xlink:href="#DejaVuSans-68" transform="translate(1394.384766 0)"/>
     <use xlink:href="#DejaVuSans-20" transform="translate(1457.763672 0)"/>
     <use xlink:href="#DejaVuSans-44" transform="translate(1489.550781 0)"/>
     <use xlink:href="#DejaVuSans-69" transform="translate(1566.552734 0)"/>
     <use xlink:href="#DejaVuSans-66" transform="translate(1594.335938 0)"/>
     <use xlink:href="#DejaVuSans-66" transform="translate(1629.541016 0)"/>
     <use xlink:href="#DejaVuSans-65" transform="translate(1664.746094 0)"/>
     <use xlink:href="#DejaVuSans-72" transform="translate(1726.269531 0)"/>
     <use xlink:href="#DejaVuSans-65" transform="translate(1765.132812 0)"/>
     <use xlink:href="#DejaVuSans-6e" transform="translate(1826.65625 0)"/>
     <use xlink:href="#DejaVuSans-74" transform="translate(1890.035156 0)"/>
     <use xlink:href="#DejaVuSans-20" transform="translate(1929.244141 0)"/>
     <use xlink:href="#DejaVuSans-53" transform="translate(1961.03125 0)"/>
     <use xlink:href="#DejaVuSans-63" transform="translate(2024.507812 0)"/>
     <use xlink:href="#DejaVuSans-61" transform="translate(2079.488281 0)"/>
     <use xlink:href="#DejaVuSans-6c" transform="translate(2140.767578 0)"/>
     <use xlink:href="#DejaVuSans-65" transform="translate(2168.550781 0)"/>
     <use xlink:href="#DejaVuSans-73" transform="translate(2230.074219 0)"/>
    </g>
   </g>
  </g>
  <g id="legend_1">
   <g id="patch_145">
    <path d="M 445.30625 89.99625 
L 641 89.99625 
Q 643 89.99625 643 87.99625 
L 643 58.84 
Q 643 56.84 641 56.84 
L 445.30625 56.84 
Q 443.30625 56.84 443.30625 58.84 
L 443.30625 87.99625 
Q 443.30625 89.99625 445.30625 89.99625 
z
" style="fill: #ffffff; opacity: 0.8; stroke: #cccccc; stroke-linejoin: miter"/>
   </g>
   <g id="patch_146">
    <path d="M 447.30625 68.838437 
L 467.30625 68.838437 
L 467.30625 61.838437 
L 447.30625 61.838437 
z
" style="fill: #0000ff; stroke: #000000; stroke-linejoin: miter"/>
   </g>
   <g id="text_18">
    <!-- Freqüències base de dades -->
    <g transform="translate(475.30625 68.838437) scale(0.1 -0.1)">
     <use xlink:href="#DejaVuSans-46"/>
     <use xlink:href="#DejaVuSans-72" transform="translate(50.269531 0)"/>
     <use xlink:href="#DejaVuSans-65" transform="translate(89.132812 0)"/>
     <use xlink:href="#DejaVuSans-71" transform="translate(150.65625 0)"/>
     <use xlink:href="#DejaVuSans-fc" transform="translate(214.132812 0)"/>
     <use xlink:href="#DejaVuSans-e8" transform="translate(277.511719 0)"/>
     <use xlink:href="#DejaVuSans-6e" transform="translate(339.035156 0)"/>
     <use xlink:href="#DejaVuSans-63" transform="translate(402.414062 0)"/>
     <use xlink:href="#DejaVuSans-69" transform="translate(457.394531 0)"/>
     <use xlink:href="#DejaVuSans-65" transform="translate(485.177734 0)"/>
     <use xlink:href="#DejaVuSans-73" transform="translate(546.701172 0)"/>
     <use xlink:href="#DejaVuSans-20" transform="translate(598.800781 0)"/>
     <use xlink:href="#DejaVuSans-62" transform="translate(630.587891 0)"/>
     <use xlink:href="#DejaVuSans-61" transform="translate(694.064453 0)"/>
     <use xlink:href="#DejaVuSans-73" transform="translate(755.34375 0)"/>
     <use xlink:href="#DejaVuSans-65" transform="translate(807.443359 0)"/>
     <use xlink:href="#DejaVuSans-20" transform="translate(868.966797 0)"/>
     <use xlink:href="#DejaVuSans-64" transform="translate(900.753906 0)"/>
     <use xlink:href="#DejaVuSans-65" transform="translate(964.230469 0)"/>
     <use xlink:href="#DejaVuSans-20" transform="translate(1025.753906 0)"/>
     <use xlink:href="#DejaVuSans-64" transform="translate(1057.541016 0)"/>
     <use xlink:href="#DejaVuSans-61" transform="translate(1121.017578 0)"/>
     <use xlink:href="#DejaVuSans-64" transform="translate(1182.296875 0)"/>
     <use xlink:href="#DejaVuSans-65" transform="translate(1245.773438 0)"/>
     <use xlink:href="#DejaVuSans-73" transform="translate(1307.296875 0)"/>
    </g>
   </g>
   <g id="patch_147">
    <path d="M 447.30625 83.916562 
L 467.30625 83.916562 
L 467.30625 76.916562 
L 447.30625 76.916562 
z
" style="fill: #ff0000; opacity: 0.6; stroke: #000000; stroke-linejoin: miter"/>
   </g>
   <g id="text_19">
    <!-- Freqüències molècula analitzada -->
    <g transform="translate(475.30625 83.916562) scale(0.1 -0.1)">
     <use xlink:href="#DejaVuSans-46"/>
     <use xlink:href="#DejaVuSans-72" transform="translate(50.269531 0)"/>
     <use xlink:href="#DejaVuSans-65" transform="translate(89.132812 0)"/>
     <use xlink:href="#DejaVuSans-71" transform="translate(150.65625 0)"/>
     <use xlink:href="#DejaVuSans-fc" transform="translate(214.132812 0)"/>
     <use xlink:href="#DejaVuSans-e8" transform="translate(277.511719 0)"/>
     <use xlink:href="#DejaVuSans-6e" transform="translate(339.035156 0)"/>
     <use xlink:href="#DejaVuSans-63" transform="translate(402.414062 0)"/>
     <use xlink:href="#DejaVuSans-69" transform="translate(457.394531 0)"/>
     <use xlink:href="#DejaVuSans-65" transform="translate(485.177734 0)"/>
     <use xlink:href="#DejaVuSans-73" transform="translate(546.701172 0)"/>
     <use xlink:href="#DejaVuSans-20" transform="translate(598.800781 0)"/>
     <use xlink:href="#DejaVuSans-6d" transform="translate(630.587891 0)"/>
     <use xlink:href="#DejaVuSans-6f" transform="translate(728 0)"/>
     <use xlink:href="#DejaVuSans-6c" transform="translate(789.181641 0)"/>
     <use xlink:href="#DejaVuSans-e8" transform="translate(816.964844 0)"/>
     <use xlink:href="#DejaVuSans-63" transform="translate(878.488281 0)"/>
     <use xlink:href="#DejaVuSans-75" transform="translate(933.46875 0)"/>
     <use xlink:href="#DejaVuSans-6c" transform="translate(996.847656 0)"/>
     <use xlink:href="#DejaVuSans-61" transform="translate(1024.630859 0)"/>
     <use xlink:href="#DejaVuSans-20" transform="translate(1085.910156 0)"/>
     <use xlink:href="#DejaVuSans-61" transform="translate(1117.697266 0)"/>
     <use xlink:href="#DejaVuSans-6e" transform="translate(1178.976562 0)"/>
     <use xlink:href="#DejaVuSans-61" transform="translate(1242.355469 0)"/>
     <use xlink:href="#DejaVuSans-6c" transform="translate(1303.634766 0)"/>
     <use xlink:href="#DejaVuSans-69" transform="translate(1331.417969 0)"/>
     <use xlink:href="#DejaVuSans-74" transform="translate(1359.201172 0)"/>
     <use xlink:href="#DejaVuSans-7a" transform="translate(1398.410156 0)"/>
     <use xlink:href="#DejaVuSans-61" transform="translate(1450.900391 0)"/>
     <use xlink:href="#DejaVuSans-64" transform="translate(1512.179688 0)"/>
     <use xlink:href="#DejaVuSans-61" transform="translate(1575.65625 0)"/>
    </g>
   </g>
  </g>
 </g>
 <defs>
  <clipPath id="p984d6ba2f4">
   <rect x="90" y="51.84" width="558" height="332.64"/>
  </clipPath>
 </defs>
</svg>
