<?xml version="1.0" encoding="utf-8" standalone="no"?>
<!DOCTYPE svg PUBLIC "-//W3C//DTD SVG 1.1//EN"
  "http://www.w3.org/Graphics/SVG/1.1/DTD/svg11.dtd">
<svg xmlns:xlink="http://www.w3.org/1999/xlink" width="720pt" height="432pt" viewBox="0 0 720 432" xmlns="http://www.w3.org/2000/svg" version="1.1">
 <metadata>
  <rdf:RDF xmlns:dc="http://purl.org/dc/elements/1.1/" xmlns:cc="http://creativecommons.org/ns#" xmlns:rdf="http://www.w3.org/1999/02/22-rdf-syntax-ns#">
   <cc:Work>
    <dc:type rdf:resource="http://purl.org/dc/dcmitype/StillImage"/>
    <dc:date>2025-03-07T11:34:47.519655</dc:date>
    <dc:format>image/svg+xml</dc:format>
    <dc:creator>
     <cc:Agent>
      <dc:title>Matplotlib v3.10.0, https://matplotlib.org/</dc:title>
     </cc:Agent>
    </dc:creator>
   </cc:Work>
  </rdf:RDF>
 </metadata>
 <defs>
  <style type="text/css">*{stroke-linejoin: round; stroke-linecap: butt}</style>
 </defs>
 <g id="figure_1">
  <g id="patch_1">
   <path d="M 0 432 
L 720 432 
L 720 0 
L 0 0 
z
" style="fill: #ffffff"/>
  </g>
  <g id="axes_1">
   <g id="patch_2">
    <path d="M 90 384.48 
L 648 384.48 
L 648 51.84 
L 90 51.84 
z
" style="fill: #ffffff"/>
   </g>
   <g id="patch_3">
    <path d="M 115.363636 112740.53898 
L 123.289773 112740.53898 
L 123.289773 73.661561 
L 115.363636 73.661561 
z
" clip-path="url(#pfe8b43c8f8)" style="fill: #0000ff; stroke: #000000; stroke-linejoin: miter"/>
   </g>
   <g id="patch_4">
    <path d="M 123.289773 112740.53898 
L 131.215909 112740.53898 
L 131.215909 158.657155 
L 123.289773 158.657155 
z
" clip-path="url(#pfe8b43c8f8)" style="fill: #0000ff; stroke: #000000; stroke-linejoin: miter"/>
   </g>
   <g id="patch_5">
    <path d="M 131.215909 112740.53898 
L 139.142045 112740.53898 
L 139.142045 105.042477 
L 131.215909 105.042477 
z
" clip-path="url(#pfe8b43c8f8)" style="fill: #0000ff; stroke: #000000; stroke-linejoin: miter"/>
   </g>
   <g id="patch_6">
    <path d="M 139.142045 112740.53898 
L 147.068182 112740.53898 
L 147.068182 81.43213 
L 139.142045 81.43213 
z
" clip-path="url(#pfe8b43c8f8)" style="fill: #0000ff; stroke: #000000; stroke-linejoin: miter"/>
   </g>
   <g id="patch_7">
    <path d="M 147.068182 112740.53898 
L 154.994318 112740.53898 
L 154.994318 148.686847 
L 147.068182 148.686847 
z
" clip-path="url(#pfe8b43c8f8)" style="fill: #0000ff; stroke: #000000; stroke-linejoin: miter"/>
   </g>
   <g id="patch_8">
    <path d="M 154.994318 112740.53898 
L 162.920455 112740.53898 
L 162.920455 134.119737 
L 154.994318 134.119737 
z
" clip-path="url(#pfe8b43c8f8)" style="fill: #0000ff; stroke: #000000; stroke-linejoin: miter"/>
   </g>
   <g id="patch_9">
    <path d="M 162.920455 112740.53898 
L 170.846591 112740.53898 
L 170.846591 127.504821 
L 162.920455 127.504821 
z
" clip-path="url(#pfe8b43c8f8)" style="fill: #0000ff; stroke: #000000; stroke-linejoin: miter"/>
   </g>
   <g id="patch_10">
    <path d="M 170.846591 112740.53898 
L 178.772727 112740.53898 
L 178.772727 141.773992 
L 170.846591 141.773992 
z
" clip-path="url(#pfe8b43c8f8)" style="fill: #0000ff; stroke: #000000; stroke-linejoin: miter"/>
   </g>
   <g id="patch_11">
    <path d="M 178.772727 112740.53898 
L 186.698864 112740.53898 
L 186.698864 186.953563 
L 178.772727 186.953563 
z
" clip-path="url(#pfe8b43c8f8)" style="fill: #0000ff; stroke: #000000; stroke-linejoin: miter"/>
   </g>
   <g id="patch_12">
    <path d="M 186.698864 112740.53898 
L 194.625 112740.53898 
L 194.625 66.96 
L 186.698864 66.96 
z
" clip-path="url(#pfe8b43c8f8)" style="fill: #0000ff; stroke: #000000; stroke-linejoin: miter"/>
   </g>
   <g id="patch_13">
    <path d="M 194.625 112740.53898 
L 202.551136 112740.53898 
L 202.551136 142.703586 
L 194.625 142.703586 
z
" clip-path="url(#pfe8b43c8f8)" style="fill: #0000ff; stroke: #000000; stroke-linejoin: miter"/>
   </g>
   <g id="patch_14">
    <path d="M 202.551136 112740.53898 
L 210.477273 112740.53898 
L 210.477273 136.128341 
L 202.551136 136.128341 
z
" clip-path="url(#pfe8b43c8f8)" style="fill: #0000ff; stroke: #000000; stroke-linejoin: miter"/>
   </g>
   <g id="patch_15">
    <path d="M 210.477273 112740.53898 
L 218.403409 112740.53898 
L 218.403409 153.710932 
L 210.477273 153.710932 
z
" clip-path="url(#pfe8b43c8f8)" style="fill: #0000ff; stroke: #000000; stroke-linejoin: miter"/>
   </g>
   <g id="patch_16">
    <path d="M 218.403409 112740.53898 
L 226.329545 112740.53898 
L 226.329545 136.540176 
L 218.403409 136.540176 
z
" clip-path="url(#pfe8b43c8f8)" style="fill: #0000ff; stroke: #000000; stroke-linejoin: miter"/>
   </g>
   <g id="patch_17">
    <path d="M 226.329545 112740.53898 
L 234.255682 112740.53898 
L 234.255682 195.851253 
L 226.329545 195.851253 
z
" clip-path="url(#pfe8b43c8f8)" style="fill: #0000ff; stroke: #000000; stroke-linejoin: miter"/>
   </g>
   <g id="patch_18">
    <path d="M 234.255682 112740.53898 
L 242.181818 112740.53898 
L 242.181818 335.532904 
L 234.255682 335.532904 
z
" clip-path="url(#pfe8b43c8f8)" style="fill: #0000ff; stroke: #000000; stroke-linejoin: miter"/>
   </g>
   <g id="patch_19">
    <path d="M 242.181818 112740.53898 
L 250.107955 112740.53898 
L 250.107955 201.773928 
L 242.181818 201.773928 
z
" clip-path="url(#pfe8b43c8f8)" style="fill: #0000ff; stroke: #000000; stroke-linejoin: miter"/>
   </g>
   <g id="patch_20">
    <path d="M 250.107955 112740.53898 
L 258.034091 112740.53898 
L 258.034091 290.815917 
L 250.107955 290.815917 
z
" clip-path="url(#pfe8b43c8f8)" style="fill: #0000ff; stroke: #000000; stroke-linejoin: miter"/>
   </g>
   <g id="patch_21">
    <path d="M 258.034091 112740.53898 
L 265.960227 112740.53898 
L 265.960227 281.918227 
L 258.034091 281.918227 
z
" clip-path="url(#pfe8b43c8f8)" style="fill: #0000ff; stroke: #000000; stroke-linejoin: miter"/>
   </g>
   <g id="patch_22">
    <path d="M 265.960227 112740.53898 
L 273.886364 112740.53898 
L 273.886364 335.532904 
L 265.960227 335.532904 
z
" clip-path="url(#pfe8b43c8f8)" style="fill: #0000ff; stroke: #000000; stroke-linejoin: miter"/>
   </g>
   <g id="patch_23">
    <path d="M 273.886364 112740.53898 
L 281.8125 112740.53898 
L 281.8125 248.091131 
L 273.886364 248.091131 
z
" clip-path="url(#pfe8b43c8f8)" style="fill: #0000ff; stroke: #000000; stroke-linejoin: miter"/>
   </g>
   <g id="patch_24">
    <path d="M 281.8125 112740.53898 
L 289.738636 112740.53898 
L 289.738636 201.773928 
L 281.8125 201.773928 
z
" clip-path="url(#pfe8b43c8f8)" style="fill: #0000ff; stroke: #000000; stroke-linejoin: miter"/>
   </g>
   <g id="patch_25">
    <path d="M 289.738636 112740.53898 
L 297.664773 112740.53898 
L 297.664773 223.161725 
L 289.738636 223.161725 
z
" clip-path="url(#pfe8b43c8f8)" style="fill: #0000ff; stroke: #000000; stroke-linejoin: miter"/>
   </g>
   <g id="patch_26">
    <path d="M 297.664773 112740.53898 
L 305.590909 112740.53898 
L 305.590909 206.741146 
L 297.664773 206.741146 
z
" clip-path="url(#pfe8b43c8f8)" style="fill: #0000ff; stroke: #000000; stroke-linejoin: miter"/>
   </g>
   <g id="patch_27">
    <path d="M 305.590909 112740.53898 
L 313.517045 112740.53898 
L 313.517045 190.570194 
L 305.590909 190.570194 
z
" clip-path="url(#pfe8b43c8f8)" style="fill: #0000ff; stroke: #000000; stroke-linejoin: miter"/>
   </g>
   <g id="patch_28">
    <path d="M 313.517045 112740.53898 
L 321.443182 112740.53898 
L 321.443182 335.532904 
L 313.517045 335.532904 
z
" clip-path="url(#pfe8b43c8f8)" style="fill: #0000ff; stroke: #000000; stroke-linejoin: miter"/>
   </g>
   <g id="patch_29">
    <path d="M 321.443182 112740.53898 
L 329.369318 112740.53898 
L 329.369318 315.745322 
L 321.443182 315.745322 
z
" clip-path="url(#pfe8b43c8f8)" style="fill: #0000ff; stroke: #000000; stroke-linejoin: miter"/>
   </g>
   <g id="patch_30">
    <path d="M 329.369318 112740.53898 
L 337.295455 112740.53898 
L 337.295455 240.568241 
L 329.369318 240.568241 
z
" clip-path="url(#pfe8b43c8f8)" style="fill: #0000ff; stroke: #000000; stroke-linejoin: miter"/>
   </g>
   <g id="patch_31">
    <path d="M 337.295455 112740.53898 
L 345.221591 112740.53898 
L 345.221591 205.028613 
L 337.295455 205.028613 
z
" clip-path="url(#pfe8b43c8f8)" style="fill: #0000ff; stroke: #000000; stroke-linejoin: miter"/>
   </g>
   <g id="patch_32">
    <path d="M 345.221591 112740.53898 
L 353.147727 112740.53898 
L 353.147727 274.395337 
L 345.221591 274.395337 
z
" clip-path="url(#pfe8b43c8f8)" style="fill: #0000ff; stroke: #000000; stroke-linejoin: miter"/>
   </g>
   <g id="patch_33">
    <path d="M 353.147727 112740.53898 
L 361.073864 112740.53898 
L 361.073864 205.028613 
L 353.147727 205.028613 
z
" clip-path="url(#pfe8b43c8f8)" style="fill: #0000ff; stroke: #000000; stroke-linejoin: miter"/>
   </g>
   <g id="patch_34">
    <path d="M 361.073864 112740.53898 
L 369 112740.53898 
L 369 256.988821 
L 361.073864 256.988821 
z
" clip-path="url(#pfe8b43c8f8)" style="fill: #0000ff; stroke: #000000; stroke-linejoin: miter"/>
   </g>
   <g id="patch_35">
    <path d="M 369 112740.53898 
L 376.926136 112740.53898 
L 376.926136 290.815917 
L 369 290.815917 
z
" clip-path="url(#pfe8b43c8f8)" style="fill: #0000ff; stroke: #000000; stroke-linejoin: miter"/>
   </g>
   <g id="patch_36">
    <path d="M 376.926136 112740.53898 
L 384.852273 112740.53898 
L 384.852273 252.337476 
L 376.926136 252.337476 
z
" clip-path="url(#pfe8b43c8f8)" style="fill: #0000ff; stroke: #000000; stroke-linejoin: miter"/>
   </g>
   <g id="patch_37">
    <path d="M 384.852273 112740.53898 
L 392.778409 112740.53898 
L 392.778409 315.745322 
L 384.852273 315.745322 
z
" clip-path="url(#pfe8b43c8f8)" style="fill: #0000ff; stroke: #000000; stroke-linejoin: miter"/>
   </g>
   <g id="patch_38">
    <path d="M 392.778409 112740.53898 
L 400.704545 112740.53898 
L 400.704545 369.36 
L 392.778409 369.36 
z
" clip-path="url(#pfe8b43c8f8)" style="fill: #0000ff; stroke: #000000; stroke-linejoin: miter"/>
   </g>
   <g id="patch_39">
    <path d="M 400.704545 112740.53898 
L 408.630682 112740.53898 
L 408.630682 301.705809 
L 400.704545 301.705809 
z
" clip-path="url(#pfe8b43c8f8)" style="fill: #0000ff; stroke: #000000; stroke-linejoin: miter"/>
   </g>
   <g id="patch_40">
    <path d="M 408.630682 112740.53898 
L 416.556818 112740.53898 
L 416.556818 335.532904 
L 408.630682 335.532904 
z
" clip-path="url(#pfe8b43c8f8)" style="fill: #0000ff; stroke: #000000; stroke-linejoin: miter"/>
   </g>
   <g id="patch_41">
    <path d="M 416.556818 112740.53898 
L 424.482955 112740.53898 
L 424.482955 335.532904 
L 416.556818 335.532904 
z
" clip-path="url(#pfe8b43c8f8)" style="fill: #0000ff; stroke: #000000; stroke-linejoin: miter"/>
   </g>
   <g id="patch_42">
    <path d="M 424.482955 112740.53898 
L 432.409091 112740.53898 
L 432.409091 335.532904 
L 424.482955 335.532904 
z
" clip-path="url(#pfe8b43c8f8)" style="fill: #0000ff; stroke: #000000; stroke-linejoin: miter"/>
   </g>
   <g id="patch_43">
    <path d="M 432.409091 112740.53898 
L 440.335227 112740.53898 
L 440.335227 315.745322 
L 432.409091 315.745322 
z
" clip-path="url(#pfe8b43c8f8)" style="fill: #0000ff; stroke: #000000; stroke-linejoin: miter"/>
   </g>
   <g id="patch_44">
    <path d="M 440.335227 112740.53898 
L 448.261364 112740.53898 
L 448.261364 256.988821 
L 440.335227 256.988821 
z
" clip-path="url(#pfe8b43c8f8)" style="fill: #0000ff; stroke: #000000; stroke-linejoin: miter"/>
   </g>
   <g id="patch_45">
    <path d="M 448.261364 112740.53898 
L 456.1875 112740.53898 
L 456.1875 274.395337 
L 448.261364 274.395337 
z
" clip-path="url(#pfe8b43c8f8)" style="fill: #0000ff; stroke: #000000; stroke-linejoin: miter"/>
   </g>
   <g id="patch_46">
    <path d="M 456.1875 112740.53898 
L 464.113636 112740.53898 
L 464.113636 335.532904 
L 456.1875 335.532904 
z
" clip-path="url(#pfe8b43c8f8)" style="fill: #0000ff; stroke: #000000; stroke-linejoin: miter"/>
   </g>
   <g id="patch_47">
    <path d="M 464.113636 112740.53898 
L 472.039773 112740.53898 
L 472.039773 281.918227 
L 464.113636 281.918227 
z
" clip-path="url(#pfe8b43c8f8)" style="fill: #0000ff; stroke: #000000; stroke-linejoin: miter"/>
   </g>
   <g id="patch_48">
    <path d="M 472.039773 112740.53898 
L 479.965909 112740.53898 
L 479.965909 274.395337 
L 472.039773 274.395337 
z
" clip-path="url(#pfe8b43c8f8)" style="fill: #0000ff; stroke: #000000; stroke-linejoin: miter"/>
   </g>
   <g id="patch_49">
    <path d="M 479.965909 112740.53898 
L 487.892045 112740.53898 
L 487.892045 335.532904 
L 479.965909 335.532904 
z
" clip-path="url(#pfe8b43c8f8)" style="fill: #0000ff; stroke: #000000; stroke-linejoin: miter"/>
   </g>
   <g id="patch_50">
    <path d="M 487.892045 112740.53898 
L 495.818182 112740.53898 
L 495.818182 301.705809 
L 487.892045 301.705809 
z
" clip-path="url(#pfe8b43c8f8)" style="fill: #0000ff; stroke: #000000; stroke-linejoin: miter"/>
   </g>
   <g id="patch_51">
    <path d="M 495.818182 112740.53898 
L 503.744318 112740.53898 
L 503.744318 369.36 
L 495.818182 369.36 
z
" clip-path="url(#pfe8b43c8f8)" style="fill: #0000ff; stroke: #000000; stroke-linejoin: miter"/>
   </g>
   <g id="patch_52">
    <path d="M 503.744318 112740.53898 
L 511.670455 112740.53898 
L 511.670455 315.745322 
L 503.744318 315.745322 
z
" clip-path="url(#pfe8b43c8f8)" style="fill: #0000ff; stroke: #000000; stroke-linejoin: miter"/>
   </g>
   <g id="patch_53">
    <path d="M 511.670455 112740.53898 
L 519.596591 112740.53898 
L 519.596591 335.532904 
L 511.670455 335.532904 
z
" clip-path="url(#pfe8b43c8f8)" style="fill: #0000ff; stroke: #000000; stroke-linejoin: miter"/>
   </g>
   <g id="patch_54">
    <path d="M 519.596591 112740.53898 
L 527.522727 112740.53898 
L 527.522727 335.532904 
L 519.596591 335.532904 
z
" clip-path="url(#pfe8b43c8f8)" style="fill: #0000ff; stroke: #000000; stroke-linejoin: miter"/>
   </g>
   <g id="patch_55">
    <path d="M 527.522727 112740.53898 
L 535.448864 112740.53898 
L 535.448864 315.745322 
L 527.522727 315.745322 
z
" clip-path="url(#pfe8b43c8f8)" style="fill: #0000ff; stroke: #000000; stroke-linejoin: miter"/>
   </g>
   <g id="patch_56">
    <path d="M 535.448864 112740.53898 
L 543.375 112740.53898 
L 543.375 335.532904 
L 535.448864 335.532904 
z
" clip-path="url(#pfe8b43c8f8)" style="fill: #0000ff; stroke: #000000; stroke-linejoin: miter"/>
   </g>
   <g id="patch_57">
    <path d="M 543.375 112740.53898 
L 551.301136 112740.53898 
L 551.301136 369.36 
L 543.375 369.36 
z
" clip-path="url(#pfe8b43c8f8)" style="fill: #0000ff; stroke: #000000; stroke-linejoin: miter"/>
   </g>
   <g id="patch_58">
    <path d="M 551.301136 112740.53898 
L 559.227273 112740.53898 
L 559.227273 335.532904 
L 551.301136 335.532904 
z
" clip-path="url(#pfe8b43c8f8)" style="fill: #0000ff; stroke: #000000; stroke-linejoin: miter"/>
   </g>
   <g id="patch_59">
    <path d="M 559.227273 112740.53898 
L 567.153409 112740.53898 
L 567.153409 335.532904 
L 559.227273 335.532904 
z
" clip-path="url(#pfe8b43c8f8)" style="fill: #0000ff; stroke: #000000; stroke-linejoin: miter"/>
   </g>
   <g id="patch_60">
    <path d="M 567.153409 112740.53898 
L 575.079545 112740.53898 
L 575.079545 369.36 
L 567.153409 369.36 
z
" clip-path="url(#pfe8b43c8f8)" style="fill: #0000ff; stroke: #000000; stroke-linejoin: miter"/>
   </g>
   <g id="patch_61">
    <path d="M 575.079545 112740.53898 
L 583.005682 112740.53898 
L 583.005682 369.36 
L 575.079545 369.36 
z
" clip-path="url(#pfe8b43c8f8)" style="fill: #0000ff; stroke: #000000; stroke-linejoin: miter"/>
   </g>
   <g id="patch_62">
    <path d="M 583.005682 112740.53898 
L 590.931818 112740.53898 
L 590.931818 369.36 
L 583.005682 369.36 
z
" clip-path="url(#pfe8b43c8f8)" style="fill: #0000ff; stroke: #000000; stroke-linejoin: miter"/>
   </g>
   <g id="patch_63">
    <path d="M 590.931818 112740.53898 
L 598.857955 112740.53898 
L 598.857955 301.705809 
L 590.931818 301.705809 
z
" clip-path="url(#pfe8b43c8f8)" style="fill: #0000ff; stroke: #000000; stroke-linejoin: miter"/>
   </g>
   <g id="patch_64">
    <path d="M 598.857955 112740.53898 
L 606.784091 112740.53898 
L 606.784091 335.532904 
L 598.857955 335.532904 
z
" clip-path="url(#pfe8b43c8f8)" style="fill: #0000ff; stroke: #000000; stroke-linejoin: miter"/>
   </g>
   <g id="patch_65">
    <path d="M 606.784091 112740.53898 
L 614.710227 112740.53898 
L 614.710227 301.705809 
L 606.784091 301.705809 
z
" clip-path="url(#pfe8b43c8f8)" style="fill: #0000ff; stroke: #000000; stroke-linejoin: miter"/>
   </g>
   <g id="patch_66">
    <path d="M 614.710227 112740.53898 
L 622.636364 112740.53898 
L 622.636364 112740.53898 
L 614.710227 112740.53898 
z
" clip-path="url(#pfe8b43c8f8)" style="fill: #0000ff; stroke: #000000; stroke-linejoin: miter"/>
   </g>
   <g id="matplotlib.axis_1">
    <g id="xtick_1">
     <g id="line2d_1">
      <path d="M 111.400568 384.48 
L 111.400568 51.84 
" clip-path="url(#pfe8b43c8f8)" style="fill: none; stroke-dasharray: 1.85,0.8; stroke-dashoffset: 0; stroke: #b0b0b0; stroke-width: 0.5"/>
     </g>
     <g id="line2d_2">
      <defs>
       <path id="m11f60e636a" d="M 0 0 
L 0 3.5 
" style="stroke: #000000; stroke-width: 0.8"/>
      </defs>
      <g>
       <use xlink:href="#m11f60e636a" x="111.400568" y="384.48" style="stroke: #000000; stroke-width: 0.8"/>
      </g>
     </g>
     <g id="text_1">
      <!-- 0 -->
      <g transform="translate(108.219318 399.078438) scale(0.1 -0.1)">
       <defs>
        <path id="DejaVuSans-30" d="M 2034 4250 
Q 1547 4250 1301 3770 
Q 1056 3291 1056 2328 
Q 1056 1369 1301 889 
Q 1547 409 2034 409 
Q 2525 409 2770 889 
Q 3016 1369 3016 2328 
Q 3016 3291 2770 3770 
Q 2525 4250 2034 4250 
z
M 2034 4750 
Q 2819 4750 3233 4129 
Q 3647 3509 3647 2328 
Q 3647 1150 3233 529 
Q 2819 -91 2034 -91 
Q 1250 -91 836 529 
Q 422 1150 422 2328 
Q 422 3509 836 4129 
Q 1250 4750 2034 4750 
z
" transform="scale(0.015625)"/>
       </defs>
       <use xlink:href="#DejaVuSans-30"/>
      </g>
     </g>
    </g>
    <g id="xtick_2">
     <g id="line2d_3">
      <path d="M 190.661932 384.48 
L 190.661932 51.84 
" clip-path="url(#pfe8b43c8f8)" style="fill: none; stroke-dasharray: 1.85,0.8; stroke-dashoffset: 0; stroke: #b0b0b0; stroke-width: 0.5"/>
     </g>
     <g id="line2d_4">
      <g>
       <use xlink:href="#m11f60e636a" x="190.661932" y="384.48" style="stroke: #000000; stroke-width: 0.8"/>
      </g>
     </g>
     <g id="text_2">
      <!-- 10 -->
      <g transform="translate(184.299432 399.078438) scale(0.1 -0.1)">
       <defs>
        <path id="DejaVuSans-31" d="M 794 531 
L 1825 531 
L 1825 4091 
L 703 3866 
L 703 4441 
L 1819 4666 
L 2450 4666 
L 2450 531 
L 3481 531 
L 3481 0 
L 794 0 
L 794 531 
z
" transform="scale(0.015625)"/>
       </defs>
       <use xlink:href="#DejaVuSans-31"/>
       <use xlink:href="#DejaVuSans-30" transform="translate(63.623047 0)"/>
      </g>
     </g>
    </g>
    <g id="xtick_3">
     <g id="line2d_5">
      <path d="M 269.923295 384.48 
L 269.923295 51.84 
" clip-path="url(#pfe8b43c8f8)" style="fill: none; stroke-dasharray: 1.85,0.8; stroke-dashoffset: 0; stroke: #b0b0b0; stroke-width: 0.5"/>
     </g>
     <g id="line2d_6">
      <g>
       <use xlink:href="#m11f60e636a" x="269.923295" y="384.48" style="stroke: #000000; stroke-width: 0.8"/>
      </g>
     </g>
     <g id="text_3">
      <!-- 20 -->
      <g transform="translate(263.560795 399.078438) scale(0.1 -0.1)">
       <defs>
        <path id="DejaVuSans-32" d="M 1228 531 
L 3431 531 
L 3431 0 
L 469 0 
L 469 531 
Q 828 903 1448 1529 
Q 2069 2156 2228 2338 
Q 2531 2678 2651 2914 
Q 2772 3150 2772 3378 
Q 2772 3750 2511 3984 
Q 2250 4219 1831 4219 
Q 1534 4219 1204 4116 
Q 875 4013 500 3803 
L 500 4441 
Q 881 4594 1212 4672 
Q 1544 4750 1819 4750 
Q 2544 4750 2975 4387 
Q 3406 4025 3406 3419 
Q 3406 3131 3298 2873 
Q 3191 2616 2906 2266 
Q 2828 2175 2409 1742 
Q 1991 1309 1228 531 
z
" transform="scale(0.015625)"/>
       </defs>
       <use xlink:href="#DejaVuSans-32"/>
       <use xlink:href="#DejaVuSans-30" transform="translate(63.623047 0)"/>
      </g>
     </g>
    </g>
    <g id="xtick_4">
     <g id="line2d_7">
      <path d="M 349.184659 384.48 
L 349.184659 51.84 
" clip-path="url(#pfe8b43c8f8)" style="fill: none; stroke-dasharray: 1.85,0.8; stroke-dashoffset: 0; stroke: #b0b0b0; stroke-width: 0.5"/>
     </g>
     <g id="line2d_8">
      <g>
       <use xlink:href="#m11f60e636a" x="349.184659" y="384.48" style="stroke: #000000; stroke-width: 0.8"/>
      </g>
     </g>
     <g id="text_4">
      <!-- 30 -->
      <g transform="translate(342.822159 399.078438) scale(0.1 -0.1)">
       <defs>
        <path id="DejaVuSans-33" d="M 2597 2516 
Q 3050 2419 3304 2112 
Q 3559 1806 3559 1356 
Q 3559 666 3084 287 
Q 2609 -91 1734 -91 
Q 1441 -91 1130 -33 
Q 819 25 488 141 
L 488 750 
Q 750 597 1062 519 
Q 1375 441 1716 441 
Q 2309 441 2620 675 
Q 2931 909 2931 1356 
Q 2931 1769 2642 2001 
Q 2353 2234 1838 2234 
L 1294 2234 
L 1294 2753 
L 1863 2753 
Q 2328 2753 2575 2939 
Q 2822 3125 2822 3475 
Q 2822 3834 2567 4026 
Q 2313 4219 1838 4219 
Q 1578 4219 1281 4162 
Q 984 4106 628 3988 
L 628 4550 
Q 988 4650 1302 4700 
Q 1616 4750 1894 4750 
Q 2613 4750 3031 4423 
Q 3450 4097 3450 3541 
Q 3450 3153 3228 2886 
Q 3006 2619 2597 2516 
z
" transform="scale(0.015625)"/>
       </defs>
       <use xlink:href="#DejaVuSans-33"/>
       <use xlink:href="#DejaVuSans-30" transform="translate(63.623047 0)"/>
      </g>
     </g>
    </g>
    <g id="xtick_5">
     <g id="line2d_9">
      <path d="M 428.446023 384.48 
L 428.446023 51.84 
" clip-path="url(#pfe8b43c8f8)" style="fill: none; stroke-dasharray: 1.85,0.8; stroke-dashoffset: 0; stroke: #b0b0b0; stroke-width: 0.5"/>
     </g>
     <g id="line2d_10">
      <g>
       <use xlink:href="#m11f60e636a" x="428.446023" y="384.48" style="stroke: #000000; stroke-width: 0.8"/>
      </g>
     </g>
     <g id="text_5">
      <!-- 40 -->
      <g transform="translate(422.083523 399.078438) scale(0.1 -0.1)">
       <defs>
        <path id="DejaVuSans-34" d="M 2419 4116 
L 825 1625 
L 2419 1625 
L 2419 4116 
z
M 2253 4666 
L 3047 4666 
L 3047 1625 
L 3713 1625 
L 3713 1100 
L 3047 1100 
L 3047 0 
L 2419 0 
L 2419 1100 
L 313 1100 
L 313 1709 
L 2253 4666 
z
" transform="scale(0.015625)"/>
       </defs>
       <use xlink:href="#DejaVuSans-34"/>
       <use xlink:href="#DejaVuSans-30" transform="translate(63.623047 0)"/>
      </g>
     </g>
    </g>
    <g id="xtick_6">
     <g id="line2d_11">
      <path d="M 507.707386 384.48 
L 507.707386 51.84 
" clip-path="url(#pfe8b43c8f8)" style="fill: none; stroke-dasharray: 1.85,0.8; stroke-dashoffset: 0; stroke: #b0b0b0; stroke-width: 0.5"/>
     </g>
     <g id="line2d_12">
      <g>
       <use xlink:href="#m11f60e636a" x="507.707386" y="384.48" style="stroke: #000000; stroke-width: 0.8"/>
      </g>
     </g>
     <g id="text_6">
      <!-- 50 -->
      <g transform="translate(501.344886 399.078438) scale(0.1 -0.1)">
       <defs>
        <path id="DejaVuSans-35" d="M 691 4666 
L 3169 4666 
L 3169 4134 
L 1269 4134 
L 1269 2991 
Q 1406 3038 1543 3061 
Q 1681 3084 1819 3084 
Q 2600 3084 3056 2656 
Q 3513 2228 3513 1497 
Q 3513 744 3044 326 
Q 2575 -91 1722 -91 
Q 1428 -91 1123 -41 
Q 819 9 494 109 
L 494 744 
Q 775 591 1075 516 
Q 1375 441 1709 441 
Q 2250 441 2565 725 
Q 2881 1009 2881 1497 
Q 2881 1984 2565 2268 
Q 2250 2553 1709 2553 
Q 1456 2553 1204 2497 
Q 953 2441 691 2322 
L 691 4666 
z
" transform="scale(0.015625)"/>
       </defs>
       <use xlink:href="#DejaVuSans-35"/>
       <use xlink:href="#DejaVuSans-30" transform="translate(63.623047 0)"/>
      </g>
     </g>
    </g>
    <g id="xtick_7">
     <g id="line2d_13">
      <path d="M 586.96875 384.48 
L 586.96875 51.84 
" clip-path="url(#pfe8b43c8f8)" style="fill: none; stroke-dasharray: 1.85,0.8; stroke-dashoffset: 0; stroke: #b0b0b0; stroke-width: 0.5"/>
     </g>
     <g id="line2d_14">
      <g>
       <use xlink:href="#m11f60e636a" x="586.96875" y="384.48" style="stroke: #000000; stroke-width: 0.8"/>
      </g>
     </g>
     <g id="text_7">
      <!-- 60 -->
      <g transform="translate(580.60625 399.078438) scale(0.1 -0.1)">
       <defs>
        <path id="DejaVuSans-36" d="M 2113 2584 
Q 1688 2584 1439 2293 
Q 1191 2003 1191 1497 
Q 1191 994 1439 701 
Q 1688 409 2113 409 
Q 2538 409 2786 701 
Q 3034 994 3034 1497 
Q 3034 2003 2786 2293 
Q 2538 2584 2113 2584 
z
M 3366 4563 
L 3366 3988 
Q 3128 4100 2886 4159 
Q 2644 4219 2406 4219 
Q 1781 4219 1451 3797 
Q 1122 3375 1075 2522 
Q 1259 2794 1537 2939 
Q 1816 3084 2150 3084 
Q 2853 3084 3261 2657 
Q 3669 2231 3669 1497 
Q 3669 778 3244 343 
Q 2819 -91 2113 -91 
Q 1303 -91 875 529 
Q 447 1150 447 2328 
Q 447 3434 972 4092 
Q 1497 4750 2381 4750 
Q 2619 4750 2861 4703 
Q 3103 4656 3366 4563 
z
" transform="scale(0.015625)"/>
       </defs>
       <use xlink:href="#DejaVuSans-36"/>
       <use xlink:href="#DejaVuSans-30" transform="translate(63.623047 0)"/>
      </g>
     </g>
    </g>
    <g id="text_8">
     <!-- Conformació -->
     <g transform="translate(337.360937 412.756563) scale(0.1 -0.1)">
      <defs>
       <path id="DejaVuSans-43" d="M 4122 4306 
L 4122 3641 
Q 3803 3938 3442 4084 
Q 3081 4231 2675 4231 
Q 1875 4231 1450 3742 
Q 1025 3253 1025 2328 
Q 1025 1406 1450 917 
Q 1875 428 2675 428 
Q 3081 428 3442 575 
Q 3803 722 4122 1019 
L 4122 359 
Q 3791 134 3420 21 
Q 3050 -91 2638 -91 
Q 1578 -91 968 557 
Q 359 1206 359 2328 
Q 359 3453 968 4101 
Q 1578 4750 2638 4750 
Q 3056 4750 3426 4639 
Q 3797 4528 4122 4306 
z
" transform="scale(0.015625)"/>
       <path id="DejaVuSans-6f" d="M 1959 3097 
Q 1497 3097 1228 2736 
Q 959 2375 959 1747 
Q 959 1119 1226 758 
Q 1494 397 1959 397 
Q 2419 397 2687 759 
Q 2956 1122 2956 1747 
Q 2956 2369 2687 2733 
Q 2419 3097 1959 3097 
z
M 1959 3584 
Q 2709 3584 3137 3096 
Q 3566 2609 3566 1747 
Q 3566 888 3137 398 
Q 2709 -91 1959 -91 
Q 1206 -91 779 398 
Q 353 888 353 1747 
Q 353 2609 779 3096 
Q 1206 3584 1959 3584 
z
" transform="scale(0.015625)"/>
       <path id="DejaVuSans-6e" d="M 3513 2113 
L 3513 0 
L 2938 0 
L 2938 2094 
Q 2938 2591 2744 2837 
Q 2550 3084 2163 3084 
Q 1697 3084 1428 2787 
Q 1159 2491 1159 1978 
L 1159 0 
L 581 0 
L 581 3500 
L 1159 3500 
L 1159 2956 
Q 1366 3272 1645 3428 
Q 1925 3584 2291 3584 
Q 2894 3584 3203 3211 
Q 3513 2838 3513 2113 
z
" transform="scale(0.015625)"/>
       <path id="DejaVuSans-66" d="M 2375 4863 
L 2375 4384 
L 1825 4384 
Q 1516 4384 1395 4259 
Q 1275 4134 1275 3809 
L 1275 3500 
L 2222 3500 
L 2222 3053 
L 1275 3053 
L 1275 0 
L 697 0 
L 697 3053 
L 147 3053 
L 147 3500 
L 697 3500 
L 697 3744 
Q 697 4328 969 4595 
Q 1241 4863 1831 4863 
L 2375 4863 
z
" transform="scale(0.015625)"/>
       <path id="DejaVuSans-72" d="M 2631 2963 
Q 2534 3019 2420 3045 
Q 2306 3072 2169 3072 
Q 1681 3072 1420 2755 
Q 1159 2438 1159 1844 
L 1159 0 
L 581 0 
L 581 3500 
L 1159 3500 
L 1159 2956 
Q 1341 3275 1631 3429 
Q 1922 3584 2338 3584 
Q 2397 3584 2469 3576 
Q 2541 3569 2628 3553 
L 2631 2963 
z
" transform="scale(0.015625)"/>
       <path id="DejaVuSans-6d" d="M 3328 2828 
Q 3544 3216 3844 3400 
Q 4144 3584 4550 3584 
Q 5097 3584 5394 3201 
Q 5691 2819 5691 2113 
L 5691 0 
L 5113 0 
L 5113 2094 
Q 5113 2597 4934 2840 
Q 4756 3084 4391 3084 
Q 3944 3084 3684 2787 
Q 3425 2491 3425 1978 
L 3425 0 
L 2847 0 
L 2847 2094 
Q 2847 2600 2669 2842 
Q 2491 3084 2119 3084 
Q 1678 3084 1418 2786 
Q 1159 2488 1159 1978 
L 1159 0 
L 581 0 
L 581 3500 
L 1159 3500 
L 1159 2956 
Q 1356 3278 1631 3431 
Q 1906 3584 2284 3584 
Q 2666 3584 2933 3390 
Q 3200 3197 3328 2828 
z
" transform="scale(0.015625)"/>
       <path id="DejaVuSans-61" d="M 2194 1759 
Q 1497 1759 1228 1600 
Q 959 1441 959 1056 
Q 959 750 1161 570 
Q 1363 391 1709 391 
Q 2188 391 2477 730 
Q 2766 1069 2766 1631 
L 2766 1759 
L 2194 1759 
z
M 3341 1997 
L 3341 0 
L 2766 0 
L 2766 531 
Q 2569 213 2275 61 
Q 1981 -91 1556 -91 
Q 1019 -91 701 211 
Q 384 513 384 1019 
Q 384 1609 779 1909 
Q 1175 2209 1959 2209 
L 2766 2209 
L 2766 2266 
Q 2766 2663 2505 2880 
Q 2244 3097 1772 3097 
Q 1472 3097 1187 3025 
Q 903 2953 641 2809 
L 641 3341 
Q 956 3463 1253 3523 
Q 1550 3584 1831 3584 
Q 2591 3584 2966 3190 
Q 3341 2797 3341 1997 
z
" transform="scale(0.015625)"/>
       <path id="DejaVuSans-63" d="M 3122 3366 
L 3122 2828 
Q 2878 2963 2633 3030 
Q 2388 3097 2138 3097 
Q 1578 3097 1268 2742 
Q 959 2388 959 1747 
Q 959 1106 1268 751 
Q 1578 397 2138 397 
Q 2388 397 2633 464 
Q 2878 531 3122 666 
L 3122 134 
Q 2881 22 2623 -34 
Q 2366 -91 2075 -91 
Q 1284 -91 818 406 
Q 353 903 353 1747 
Q 353 2603 823 3093 
Q 1294 3584 2113 3584 
Q 2378 3584 2631 3529 
Q 2884 3475 3122 3366 
z
" transform="scale(0.015625)"/>
       <path id="DejaVuSans-69" d="M 603 3500 
L 1178 3500 
L 1178 0 
L 603 0 
L 603 3500 
z
M 603 4863 
L 1178 4863 
L 1178 4134 
L 603 4134 
L 603 4863 
z
" transform="scale(0.015625)"/>
       <path id="DejaVuSans-f3" d="M 1959 3097 
Q 1497 3097 1228 2736 
Q 959 2375 959 1747 
Q 959 1119 1226 758 
Q 1494 397 1959 397 
Q 2419 397 2687 759 
Q 2956 1122 2956 1747 
Q 2956 2369 2687 2733 
Q 2419 3097 1959 3097 
z
M 1959 3584 
Q 2709 3584 3137 3096 
Q 3566 2609 3566 1747 
Q 3566 888 3137 398 
Q 2709 -91 1959 -91 
Q 1206 -91 779 398 
Q 353 888 353 1747 
Q 353 2609 779 3096 
Q 1206 3584 1959 3584 
z
M 2394 5119 
L 3016 5119 
L 1998 3944 
L 1519 3944 
L 2394 5119 
z
" transform="scale(0.015625)"/>
      </defs>
      <use xlink:href="#DejaVuSans-43"/>
      <use xlink:href="#DejaVuSans-6f" transform="translate(69.824219 0)"/>
      <use xlink:href="#DejaVuSans-6e" transform="translate(131.005859 0)"/>
      <use xlink:href="#DejaVuSans-66" transform="translate(194.384766 0)"/>
      <use xlink:href="#DejaVuSans-6f" transform="translate(229.589844 0)"/>
      <use xlink:href="#DejaVuSans-72" transform="translate(290.771484 0)"/>
      <use xlink:href="#DejaVuSans-6d" transform="translate(330.134766 0)"/>
      <use xlink:href="#DejaVuSans-61" transform="translate(427.546875 0)"/>
      <use xlink:href="#DejaVuSans-63" transform="translate(488.826172 0)"/>
      <use xlink:href="#DejaVuSans-69" transform="translate(543.806641 0)"/>
      <use xlink:href="#DejaVuSans-f3" transform="translate(571.589844 0)"/>
     </g>
    </g>
   </g>
   <g id="matplotlib.axis_2">
    <g id="ytick_1">
     <g id="line2d_15">
      <path d="M 90 369.36 
L 648 369.36 
" clip-path="url(#pfe8b43c8f8)" style="fill: none; stroke-dasharray: 1.85,0.8; stroke-dashoffset: 0; stroke: #b0b0b0; stroke-width: 0.5"/>
     </g>
     <g id="line2d_16">
      <defs>
       <path id="m4b38e339e6" d="M 0 0 
L -3.5 0 
" style="stroke: #000000; stroke-width: 0.8"/>
      </defs>
      <g>
       <use xlink:href="#m4b38e339e6" x="90" y="369.36" style="stroke: #000000; stroke-width: 0.8"/>
      </g>
     </g>
     <g id="text_9">
      <!-- $\mathdefault{10^{0}}$ -->
      <g transform="translate(65.4 373.159219) scale(0.1 -0.1)">
       <use xlink:href="#DejaVuSans-31" transform="translate(0 0.765625)"/>
       <use xlink:href="#DejaVuSans-30" transform="translate(63.623047 0.765625)"/>
       <use xlink:href="#DejaVuSans-30" transform="translate(128.203125 39.046875) scale(0.7)"/>
      </g>
     </g>
    </g>
    <g id="ytick_2">
     <g id="line2d_17">
      <path d="M 90 256.988821 
L 648 256.988821 
" clip-path="url(#pfe8b43c8f8)" style="fill: none; stroke-dasharray: 1.85,0.8; stroke-dashoffset: 0; stroke: #b0b0b0; stroke-width: 0.5"/>
     </g>
     <g id="line2d_18">
      <g>
       <use xlink:href="#m4b38e339e6" x="90" y="256.988821" style="stroke: #000000; stroke-width: 0.8"/>
      </g>
     </g>
     <g id="text_10">
      <!-- $\mathdefault{10^{1}}$ -->
      <g transform="translate(65.4 260.78804) scale(0.1 -0.1)">
       <use xlink:href="#DejaVuSans-31" transform="translate(0 0.684375)"/>
       <use xlink:href="#DejaVuSans-30" transform="translate(63.623047 0.684375)"/>
       <use xlink:href="#DejaVuSans-31" transform="translate(128.203125 38.965625) scale(0.7)"/>
      </g>
     </g>
    </g>
    <g id="ytick_3">
     <g id="line2d_19">
      <path d="M 90 144.617642 
L 648 144.617642 
" clip-path="url(#pfe8b43c8f8)" style="fill: none; stroke-dasharray: 1.85,0.8; stroke-dashoffset: 0; stroke: #b0b0b0; stroke-width: 0.5"/>
     </g>
     <g id="line2d_20">
      <g>
       <use xlink:href="#m4b38e339e6" x="90" y="144.617642" style="stroke: #000000; stroke-width: 0.8"/>
      </g>
     </g>
     <g id="text_11">
      <!-- $\mathdefault{10^{2}}$ -->
      <g transform="translate(65.4 148.416861) scale(0.1 -0.1)">
       <use xlink:href="#DejaVuSans-31" transform="translate(0 0.765625)"/>
       <use xlink:href="#DejaVuSans-30" transform="translate(63.623047 0.765625)"/>
       <use xlink:href="#DejaVuSans-32" transform="translate(128.203125 39.046875) scale(0.7)"/>
      </g>
     </g>
    </g>
    <g id="ytick_4">
     <g id="line2d_21">
      <path d="M 90 380.249892 
L 648 380.249892 
" clip-path="url(#pfe8b43c8f8)" style="fill: none; stroke-dasharray: 1.85,0.8; stroke-dashoffset: 0; stroke: #b0b0b0; stroke-width: 0.5"/>
     </g>
     <g id="line2d_22">
      <defs>
       <path id="mb1231d68b1" d="M 0 0 
L -2 0 
" style="stroke: #000000; stroke-width: 0.6"/>
      </defs>
      <g>
       <use xlink:href="#mb1231d68b1" x="90" y="380.249892" style="stroke: #000000; stroke-width: 0.6"/>
      </g>
     </g>
    </g>
    <g id="ytick_5">
     <g id="line2d_23">
      <path d="M 90 374.501823 
L 648 374.501823 
" clip-path="url(#pfe8b43c8f8)" style="fill: none; stroke-dasharray: 1.85,0.8; stroke-dashoffset: 0; stroke: #b0b0b0; stroke-width: 0.5"/>
     </g>
     <g id="line2d_24">
      <g>
       <use xlink:href="#mb1231d68b1" x="90" y="374.501823" style="stroke: #000000; stroke-width: 0.6"/>
      </g>
     </g>
    </g>
    <g id="ytick_6">
     <g id="line2d_25">
      <path d="M 90 335.532904 
L 648 335.532904 
" clip-path="url(#pfe8b43c8f8)" style="fill: none; stroke-dasharray: 1.85,0.8; stroke-dashoffset: 0; stroke: #b0b0b0; stroke-width: 0.5"/>
     </g>
     <g id="line2d_26">
      <g>
       <use xlink:href="#mb1231d68b1" x="90" y="335.532904" style="stroke: #000000; stroke-width: 0.6"/>
      </g>
     </g>
    </g>
    <g id="ytick_7">
     <g id="line2d_27">
      <path d="M 90 315.745322 
L 648 315.745322 
" clip-path="url(#pfe8b43c8f8)" style="fill: none; stroke-dasharray: 1.85,0.8; stroke-dashoffset: 0; stroke: #b0b0b0; stroke-width: 0.5"/>
     </g>
     <g id="line2d_28">
      <g>
       <use xlink:href="#mb1231d68b1" x="90" y="315.745322" style="stroke: #000000; stroke-width: 0.6"/>
      </g>
     </g>
    </g>
    <g id="ytick_8">
     <g id="line2d_29">
      <path d="M 90 301.705809 
L 648 301.705809 
" clip-path="url(#pfe8b43c8f8)" style="fill: none; stroke-dasharray: 1.85,0.8; stroke-dashoffset: 0; stroke: #b0b0b0; stroke-width: 0.5"/>
     </g>
     <g id="line2d_30">
      <g>
       <use xlink:href="#mb1231d68b1" x="90" y="301.705809" style="stroke: #000000; stroke-width: 0.6"/>
      </g>
     </g>
    </g>
    <g id="ytick_9">
     <g id="line2d_31">
      <path d="M 90 290.815917 
L 648 290.815917 
" clip-path="url(#pfe8b43c8f8)" style="fill: none; stroke-dasharray: 1.85,0.8; stroke-dashoffset: 0; stroke: #b0b0b0; stroke-width: 0.5"/>
     </g>
     <g id="line2d_32">
      <g>
       <use xlink:href="#mb1231d68b1" x="90" y="290.815917" style="stroke: #000000; stroke-width: 0.6"/>
      </g>
     </g>
    </g>
    <g id="ytick_10">
     <g id="line2d_33">
      <path d="M 90 281.918227 
L 648 281.918227 
" clip-path="url(#pfe8b43c8f8)" style="fill: none; stroke-dasharray: 1.85,0.8; stroke-dashoffset: 0; stroke: #b0b0b0; stroke-width: 0.5"/>
     </g>
     <g id="line2d_34">
      <g>
       <use xlink:href="#mb1231d68b1" x="90" y="281.918227" style="stroke: #000000; stroke-width: 0.6"/>
      </g>
     </g>
    </g>
    <g id="ytick_11">
     <g id="line2d_35">
      <path d="M 90 274.395337 
L 648 274.395337 
" clip-path="url(#pfe8b43c8f8)" style="fill: none; stroke-dasharray: 1.85,0.8; stroke-dashoffset: 0; stroke: #b0b0b0; stroke-width: 0.5"/>
     </g>
     <g id="line2d_36">
      <g>
       <use xlink:href="#mb1231d68b1" x="90" y="274.395337" style="stroke: #000000; stroke-width: 0.6"/>
      </g>
     </g>
    </g>
    <g id="ytick_12">
     <g id="line2d_37">
      <path d="M 90 267.878713 
L 648 267.878713 
" clip-path="url(#pfe8b43c8f8)" style="fill: none; stroke-dasharray: 1.85,0.8; stroke-dashoffset: 0; stroke: #b0b0b0; stroke-width: 0.5"/>
     </g>
     <g id="line2d_38">
      <g>
       <use xlink:href="#mb1231d68b1" x="90" y="267.878713" style="stroke: #000000; stroke-width: 0.6"/>
      </g>
     </g>
    </g>
    <g id="ytick_13">
     <g id="line2d_39">
      <path d="M 90 262.130644 
L 648 262.130644 
" clip-path="url(#pfe8b43c8f8)" style="fill: none; stroke-dasharray: 1.85,0.8; stroke-dashoffset: 0; stroke: #b0b0b0; stroke-width: 0.5"/>
     </g>
     <g id="line2d_40">
      <g>
       <use xlink:href="#mb1231d68b1" x="90" y="262.130644" style="stroke: #000000; stroke-width: 0.6"/>
      </g>
     </g>
    </g>
    <g id="ytick_14">
     <g id="line2d_41">
      <path d="M 90 223.161725 
L 648 223.161725 
" clip-path="url(#pfe8b43c8f8)" style="fill: none; stroke-dasharray: 1.85,0.8; stroke-dashoffset: 0; stroke: #b0b0b0; stroke-width: 0.5"/>
     </g>
     <g id="line2d_42">
      <g>
       <use xlink:href="#mb1231d68b1" x="90" y="223.161725" style="stroke: #000000; stroke-width: 0.6"/>
      </g>
     </g>
    </g>
    <g id="ytick_15">
     <g id="line2d_43">
      <path d="M 90 203.374143 
L 648 203.374143 
" clip-path="url(#pfe8b43c8f8)" style="fill: none; stroke-dasharray: 1.85,0.8; stroke-dashoffset: 0; stroke: #b0b0b0; stroke-width: 0.5"/>
     </g>
     <g id="line2d_44">
      <g>
       <use xlink:href="#mb1231d68b1" x="90" y="203.374143" style="stroke: #000000; stroke-width: 0.6"/>
      </g>
     </g>
    </g>
    <g id="ytick_16">
     <g id="line2d_45">
      <path d="M 90 189.33463 
L 648 189.33463 
" clip-path="url(#pfe8b43c8f8)" style="fill: none; stroke-dasharray: 1.85,0.8; stroke-dashoffset: 0; stroke: #b0b0b0; stroke-width: 0.5"/>
     </g>
     <g id="line2d_46">
      <g>
       <use xlink:href="#mb1231d68b1" x="90" y="189.33463" style="stroke: #000000; stroke-width: 0.6"/>
      </g>
     </g>
    </g>
    <g id="ytick_17">
     <g id="line2d_47">
      <path d="M 90 178.444738 
L 648 178.444738 
" clip-path="url(#pfe8b43c8f8)" style="fill: none; stroke-dasharray: 1.85,0.8; stroke-dashoffset: 0; stroke: #b0b0b0; stroke-width: 0.5"/>
     </g>
     <g id="line2d_48">
      <g>
       <use xlink:href="#mb1231d68b1" x="90" y="178.444738" style="stroke: #000000; stroke-width: 0.6"/>
      </g>
     </g>
    </g>
    <g id="ytick_18">
     <g id="line2d_49">
      <path d="M 90 169.547048 
L 648 169.547048 
" clip-path="url(#pfe8b43c8f8)" style="fill: none; stroke-dasharray: 1.85,0.8; stroke-dashoffset: 0; stroke: #b0b0b0; stroke-width: 0.5"/>
     </g>
     <g id="line2d_50">
      <g>
       <use xlink:href="#mb1231d68b1" x="90" y="169.547048" style="stroke: #000000; stroke-width: 0.6"/>
      </g>
     </g>
    </g>
    <g id="ytick_19">
     <g id="line2d_51">
      <path d="M 90 162.024158 
L 648 162.024158 
" clip-path="url(#pfe8b43c8f8)" style="fill: none; stroke-dasharray: 1.85,0.8; stroke-dashoffset: 0; stroke: #b0b0b0; stroke-width: 0.5"/>
     </g>
     <g id="line2d_52">
      <g>
       <use xlink:href="#mb1231d68b1" x="90" y="162.024158" style="stroke: #000000; stroke-width: 0.6"/>
      </g>
     </g>
    </g>
    <g id="ytick_20">
     <g id="line2d_53">
      <path d="M 90 155.507534 
L 648 155.507534 
" clip-path="url(#pfe8b43c8f8)" style="fill: none; stroke-dasharray: 1.85,0.8; stroke-dashoffset: 0; stroke: #b0b0b0; stroke-width: 0.5"/>
     </g>
     <g id="line2d_54">
      <g>
       <use xlink:href="#mb1231d68b1" x="90" y="155.507534" style="stroke: #000000; stroke-width: 0.6"/>
      </g>
     </g>
    </g>
    <g id="ytick_21">
     <g id="line2d_55">
      <path d="M 90 149.759465 
L 648 149.759465 
" clip-path="url(#pfe8b43c8f8)" style="fill: none; stroke-dasharray: 1.85,0.8; stroke-dashoffset: 0; stroke: #b0b0b0; stroke-width: 0.5"/>
     </g>
     <g id="line2d_56">
      <g>
       <use xlink:href="#mb1231d68b1" x="90" y="149.759465" style="stroke: #000000; stroke-width: 0.6"/>
      </g>
     </g>
    </g>
    <g id="ytick_22">
     <g id="line2d_57">
      <path d="M 90 110.790547 
L 648 110.790547 
" clip-path="url(#pfe8b43c8f8)" style="fill: none; stroke-dasharray: 1.85,0.8; stroke-dashoffset: 0; stroke: #b0b0b0; stroke-width: 0.5"/>
     </g>
     <g id="line2d_58">
      <g>
       <use xlink:href="#mb1231d68b1" x="90" y="110.790547" style="stroke: #000000; stroke-width: 0.6"/>
      </g>
     </g>
    </g>
    <g id="ytick_23">
     <g id="line2d_59">
      <path d="M 90 91.002964 
L 648 91.002964 
" clip-path="url(#pfe8b43c8f8)" style="fill: none; stroke-dasharray: 1.85,0.8; stroke-dashoffset: 0; stroke: #b0b0b0; stroke-width: 0.5"/>
     </g>
     <g id="line2d_60">
      <g>
       <use xlink:href="#mb1231d68b1" x="90" y="91.002964" style="stroke: #000000; stroke-width: 0.6"/>
      </g>
     </g>
    </g>
    <g id="ytick_24">
     <g id="line2d_61">
      <path d="M 90 76.963451 
L 648 76.963451 
" clip-path="url(#pfe8b43c8f8)" style="fill: none; stroke-dasharray: 1.85,0.8; stroke-dashoffset: 0; stroke: #b0b0b0; stroke-width: 0.5"/>
     </g>
     <g id="line2d_62">
      <g>
       <use xlink:href="#mb1231d68b1" x="90" y="76.963451" style="stroke: #000000; stroke-width: 0.6"/>
      </g>
     </g>
    </g>
    <g id="ytick_25">
     <g id="line2d_63">
      <path d="M 90 66.073559 
L 648 66.073559 
" clip-path="url(#pfe8b43c8f8)" style="fill: none; stroke-dasharray: 1.85,0.8; stroke-dashoffset: 0; stroke: #b0b0b0; stroke-width: 0.5"/>
     </g>
     <g id="line2d_64">
      <g>
       <use xlink:href="#mb1231d68b1" x="90" y="66.073559" style="stroke: #000000; stroke-width: 0.6"/>
      </g>
     </g>
    </g>
    <g id="ytick_26">
     <g id="line2d_65">
      <path d="M 90 57.175869 
L 648 57.175869 
" clip-path="url(#pfe8b43c8f8)" style="fill: none; stroke-dasharray: 1.85,0.8; stroke-dashoffset: 0; stroke: #b0b0b0; stroke-width: 0.5"/>
     </g>
     <g id="line2d_66">
      <g>
       <use xlink:href="#mb1231d68b1" x="90" y="57.175869" style="stroke: #000000; stroke-width: 0.6"/>
      </g>
     </g>
    </g>
    <g id="text_12">
     <!-- Freqüències base de dades -->
     <g style="fill: #0000ff" transform="translate(59.320312 286.131875) rotate(-90) scale(0.1 -0.1)">
      <defs>
       <path id="DejaVuSans-46" d="M 628 4666 
L 3309 4666 
L 3309 4134 
L 1259 4134 
L 1259 2759 
L 3109 2759 
L 3109 2228 
L 1259 2228 
L 1259 0 
L 628 0 
L 628 4666 
z
" transform="scale(0.015625)"/>
       <path id="DejaVuSans-65" d="M 3597 1894 
L 3597 1613 
L 953 1613 
Q 991 1019 1311 708 
Q 1631 397 2203 397 
Q 2534 397 2845 478 
Q 3156 559 3463 722 
L 3463 178 
Q 3153 47 2828 -22 
Q 2503 -91 2169 -91 
Q 1331 -91 842 396 
Q 353 884 353 1716 
Q 353 2575 817 3079 
Q 1281 3584 2069 3584 
Q 2775 3584 3186 3129 
Q 3597 2675 3597 1894 
z
M 3022 2063 
Q 3016 2534 2758 2815 
Q 2500 3097 2075 3097 
Q 1594 3097 1305 2825 
Q 1016 2553 972 2059 
L 3022 2063 
z
" transform="scale(0.015625)"/>
       <path id="DejaVuSans-71" d="M 947 1747 
Q 947 1113 1208 752 
Q 1469 391 1925 391 
Q 2381 391 2643 752 
Q 2906 1113 2906 1747 
Q 2906 2381 2643 2742 
Q 2381 3103 1925 3103 
Q 1469 3103 1208 2742 
Q 947 2381 947 1747 
z
M 2906 525 
Q 2725 213 2448 61 
Q 2172 -91 1784 -91 
Q 1150 -91 751 415 
Q 353 922 353 1747 
Q 353 2572 751 3078 
Q 1150 3584 1784 3584 
Q 2172 3584 2448 3432 
Q 2725 3281 2906 2969 
L 2906 3500 
L 3481 3500 
L 3481 -1331 
L 2906 -1331 
L 2906 525 
z
" transform="scale(0.015625)"/>
       <path id="DejaVuSans-fc" d="M 544 1381 
L 544 3500 
L 1119 3500 
L 1119 1403 
Q 1119 906 1312 657 
Q 1506 409 1894 409 
Q 2359 409 2629 706 
Q 2900 1003 2900 1516 
L 2900 3500 
L 3475 3500 
L 3475 0 
L 2900 0 
L 2900 538 
Q 2691 219 2414 64 
Q 2138 -91 1772 -91 
Q 1169 -91 856 284 
Q 544 659 544 1381 
z
M 1991 3584 
L 1991 3584 
z
M 2278 4850 
L 2912 4850 
L 2912 4219 
L 2278 4219 
L 2278 4850 
z
M 1056 4850 
L 1690 4850 
L 1690 4219 
L 1056 4219 
L 1056 4850 
z
" transform="scale(0.015625)"/>
       <path id="DejaVuSans-e8" d="M 3597 1894 
L 3597 1613 
L 953 1613 
Q 991 1019 1311 708 
Q 1631 397 2203 397 
Q 2534 397 2845 478 
Q 3156 559 3463 722 
L 3463 178 
Q 3153 47 2828 -22 
Q 2503 -91 2169 -91 
Q 1331 -91 842 396 
Q 353 884 353 1716 
Q 353 2575 817 3079 
Q 1281 3584 2069 3584 
Q 2775 3584 3186 3129 
Q 3597 2675 3597 1894 
z
M 3022 2063 
Q 3016 2534 2758 2815 
Q 2500 3097 2075 3097 
Q 1594 3097 1305 2825 
Q 1016 2553 972 2059 
L 3022 2063 
z
M 1579 5119 
L 2460 3950 
L 1982 3950 
L 963 5119 
L 1579 5119 
z
" transform="scale(0.015625)"/>
       <path id="DejaVuSans-73" d="M 2834 3397 
L 2834 2853 
Q 2591 2978 2328 3040 
Q 2066 3103 1784 3103 
Q 1356 3103 1142 2972 
Q 928 2841 928 2578 
Q 928 2378 1081 2264 
Q 1234 2150 1697 2047 
L 1894 2003 
Q 2506 1872 2764 1633 
Q 3022 1394 3022 966 
Q 3022 478 2636 193 
Q 2250 -91 1575 -91 
Q 1294 -91 989 -36 
Q 684 19 347 128 
L 347 722 
Q 666 556 975 473 
Q 1284 391 1588 391 
Q 1994 391 2212 530 
Q 2431 669 2431 922 
Q 2431 1156 2273 1281 
Q 2116 1406 1581 1522 
L 1381 1569 
Q 847 1681 609 1914 
Q 372 2147 372 2553 
Q 372 3047 722 3315 
Q 1072 3584 1716 3584 
Q 2034 3584 2315 3537 
Q 2597 3491 2834 3397 
z
" transform="scale(0.015625)"/>
       <path id="DejaVuSans-20" transform="scale(0.015625)"/>
       <path id="DejaVuSans-62" d="M 3116 1747 
Q 3116 2381 2855 2742 
Q 2594 3103 2138 3103 
Q 1681 3103 1420 2742 
Q 1159 2381 1159 1747 
Q 1159 1113 1420 752 
Q 1681 391 2138 391 
Q 2594 391 2855 752 
Q 3116 1113 3116 1747 
z
M 1159 2969 
Q 1341 3281 1617 3432 
Q 1894 3584 2278 3584 
Q 2916 3584 3314 3078 
Q 3713 2572 3713 1747 
Q 3713 922 3314 415 
Q 2916 -91 2278 -91 
Q 1894 -91 1617 61 
Q 1341 213 1159 525 
L 1159 0 
L 581 0 
L 581 4863 
L 1159 4863 
L 1159 2969 
z
" transform="scale(0.015625)"/>
       <path id="DejaVuSans-64" d="M 2906 2969 
L 2906 4863 
L 3481 4863 
L 3481 0 
L 2906 0 
L 2906 525 
Q 2725 213 2448 61 
Q 2172 -91 1784 -91 
Q 1150 -91 751 415 
Q 353 922 353 1747 
Q 353 2572 751 3078 
Q 1150 3584 1784 3584 
Q 2172 3584 2448 3432 
Q 2725 3281 2906 2969 
z
M 947 1747 
Q 947 1113 1208 752 
Q 1469 391 1925 391 
Q 2381 391 2643 752 
Q 2906 1113 2906 1747 
Q 2906 2381 2643 2742 
Q 2381 3103 1925 3103 
Q 1469 3103 1208 2742 
Q 947 2381 947 1747 
z
" transform="scale(0.015625)"/>
      </defs>
      <use xlink:href="#DejaVuSans-46"/>
      <use xlink:href="#DejaVuSans-72" transform="translate(50.269531 0)"/>
      <use xlink:href="#DejaVuSans-65" transform="translate(89.132812 0)"/>
      <use xlink:href="#DejaVuSans-71" transform="translate(150.65625 0)"/>
      <use xlink:href="#DejaVuSans-fc" transform="translate(214.132812 0)"/>
      <use xlink:href="#DejaVuSans-e8" transform="translate(277.511719 0)"/>
      <use xlink:href="#DejaVuSans-6e" transform="translate(339.035156 0)"/>
      <use xlink:href="#DejaVuSans-63" transform="translate(402.414062 0)"/>
      <use xlink:href="#DejaVuSans-69" transform="translate(457.394531 0)"/>
      <use xlink:href="#DejaVuSans-65" transform="translate(485.177734 0)"/>
      <use xlink:href="#DejaVuSans-73" transform="translate(546.701172 0)"/>
      <use xlink:href="#DejaVuSans-20" transform="translate(598.800781 0)"/>
      <use xlink:href="#DejaVuSans-62" transform="translate(630.587891 0)"/>
      <use xlink:href="#DejaVuSans-61" transform="translate(694.064453 0)"/>
      <use xlink:href="#DejaVuSans-73" transform="translate(755.34375 0)"/>
      <use xlink:href="#DejaVuSans-65" transform="translate(807.443359 0)"/>
      <use xlink:href="#DejaVuSans-20" transform="translate(868.966797 0)"/>
      <use xlink:href="#DejaVuSans-64" transform="translate(900.753906 0)"/>
      <use xlink:href="#DejaVuSans-65" transform="translate(964.230469 0)"/>
      <use xlink:href="#DejaVuSans-20" transform="translate(1025.753906 0)"/>
      <use xlink:href="#DejaVuSans-64" transform="translate(1057.541016 0)"/>
      <use xlink:href="#DejaVuSans-61" transform="translate(1121.017578 0)"/>
      <use xlink:href="#DejaVuSans-64" transform="translate(1182.296875 0)"/>
      <use xlink:href="#DejaVuSans-65" transform="translate(1245.773438 0)"/>
      <use xlink:href="#DejaVuSans-73" transform="translate(1307.296875 0)"/>
     </g>
    </g>
   </g>
   <g id="patch_67">
    <path d="M 90 384.48 
L 90 51.84 
" style="fill: none; stroke: #000000; stroke-width: 0.8; stroke-linejoin: miter; stroke-linecap: square"/>
   </g>
   <g id="patch_68">
    <path d="M 648 384.48 
L 648 51.84 
" style="fill: none; stroke: #000000; stroke-width: 0.8; stroke-linejoin: miter; stroke-linecap: square"/>
   </g>
   <g id="patch_69">
    <path d="M 90 384.48 
L 648 384.48 
" style="fill: none; stroke: #000000; stroke-width: 0.8; stroke-linejoin: miter; stroke-linecap: square"/>
   </g>
   <g id="patch_70">
    <path d="M 90 51.84 
L 648 51.84 
" style="fill: none; stroke: #000000; stroke-width: 0.8; stroke-linejoin: miter; stroke-linecap: square"/>
   </g>
  </g>
  <g id="axes_2">
   <g id="patch_71">
    <path d="M 116.15625 254492.67028 
L 122.497159 254492.67028 
L 122.497159 324.624573 
L 116.15625 324.624573 
z
" clip-path="url(#pfe8b43c8f8)" style="fill: #ff0000; opacity: 0.6; stroke: #000000; stroke-linejoin: miter"/>
   </g>
   <g id="patch_72">
    <path d="M 124.082386 254492.67028 
L 130.423295 254492.67028 
L 130.423295 254492.67028 
L 124.082386 254492.67028 
z
" clip-path="url(#pfe8b43c8f8)" style="fill: #ff0000; opacity: 0.6; stroke: #000000; stroke-linejoin: miter"/>
   </g>
   <g id="patch_73">
    <path d="M 132.008523 254492.67028 
L 138.349432 254492.67028 
L 138.349432 66.96 
L 132.008523 66.96 
z
" clip-path="url(#pfe8b43c8f8)" style="fill: #ff0000; opacity: 0.6; stroke: #000000; stroke-linejoin: miter"/>
   </g>
   <g id="patch_74">
    <path d="M 139.934659 254492.67028 
L 146.275568 254492.67028 
L 146.275568 99.893071 
L 139.934659 99.893071 
z
" clip-path="url(#pfe8b43c8f8)" style="fill: #ff0000; opacity: 0.6; stroke: #000000; stroke-linejoin: miter"/>
   </g>
   <g id="patch_75">
    <path d="M 147.860795 254492.67028 
L 154.201705 254492.67028 
L 154.201705 254492.67028 
L 147.860795 254492.67028 
z
" clip-path="url(#pfe8b43c8f8)" style="fill: #ff0000; opacity: 0.6; stroke: #000000; stroke-linejoin: miter"/>
   </g>
   <g id="patch_76">
    <path d="M 155.786932 254492.67028 
L 162.127841 254492.67028 
L 162.127841 254492.67028 
L 155.786932 254492.67028 
z
" clip-path="url(#pfe8b43c8f8)" style="fill: #ff0000; opacity: 0.6; stroke: #000000; stroke-linejoin: miter"/>
   </g>
   <g id="patch_77">
    <path d="M 163.713068 254492.67028 
L 170.053977 254492.67028 
L 170.053977 324.624573 
L 163.713068 324.624573 
z
" clip-path="url(#pfe8b43c8f8)" style="fill: #ff0000; opacity: 0.6; stroke: #000000; stroke-linejoin: miter"/>
   </g>
   <g id="patch_78">
    <path d="M 171.639205 254492.67028 
L 177.980114 254492.67028 
L 177.980114 254492.67028 
L 171.639205 254492.67028 
z
" clip-path="url(#pfe8b43c8f8)" style="fill: #ff0000; opacity: 0.6; stroke: #000000; stroke-linejoin: miter"/>
   </g>
   <g id="patch_79">
    <path d="M 179.565341 254492.67028 
L 185.90625 254492.67028 
L 185.90625 254492.67028 
L 179.565341 254492.67028 
z
" clip-path="url(#pfe8b43c8f8)" style="fill: #ff0000; opacity: 0.6; stroke: #000000; stroke-linejoin: miter"/>
   </g>
   <g id="patch_80">
    <path d="M 187.491477 254492.67028 
L 193.832386 254492.67028 
L 193.832386 324.624573 
L 187.491477 324.624573 
z
" clip-path="url(#pfe8b43c8f8)" style="fill: #ff0000; opacity: 0.6; stroke: #000000; stroke-linejoin: miter"/>
   </g>
   <g id="patch_81">
    <path d="M 195.417614 254492.67028 
L 201.758523 254492.67028 
L 201.758523 203.413429 
L 195.417614 203.413429 
z
" clip-path="url(#pfe8b43c8f8)" style="fill: #ff0000; opacity: 0.6; stroke: #000000; stroke-linejoin: miter"/>
   </g>
   <g id="patch_82">
    <path d="M 203.34375 254492.67028 
L 209.684659 254492.67028 
L 209.684659 254492.67028 
L 203.34375 254492.67028 
z
" clip-path="url(#pfe8b43c8f8)" style="fill: #ff0000; opacity: 0.6; stroke: #000000; stroke-linejoin: miter"/>
   </g>
   <g id="patch_83">
    <path d="M 211.269886 254492.67028 
L 217.610795 254492.67028 
L 217.610795 254492.67028 
L 211.269886 254492.67028 
z
" clip-path="url(#pfe8b43c8f8)" style="fill: #ff0000; opacity: 0.6; stroke: #000000; stroke-linejoin: miter"/>
   </g>
   <g id="patch_84">
    <path d="M 219.196023 254492.67028 
L 225.536932 254492.67028 
L 225.536932 324.624573 
L 219.196023 324.624573 
z
" clip-path="url(#pfe8b43c8f8)" style="fill: #ff0000; opacity: 0.6; stroke: #000000; stroke-linejoin: miter"/>
   </g>
   <g id="patch_85">
    <path d="M 227.122159 254492.67028 
L 233.463068 254492.67028 
L 233.463068 254492.67028 
L 227.122159 254492.67028 
z
" clip-path="url(#pfe8b43c8f8)" style="fill: #ff0000; opacity: 0.6; stroke: #000000; stroke-linejoin: miter"/>
   </g>
   <g id="patch_86">
    <path d="M 235.048295 254492.67028 
L 241.389205 254492.67028 
L 241.389205 254492.67028 
L 235.048295 254492.67028 
z
" clip-path="url(#pfe8b43c8f8)" style="fill: #ff0000; opacity: 0.6; stroke: #000000; stroke-linejoin: miter"/>
   </g>
   <g id="patch_87">
    <path d="M 242.974432 254492.67028 
L 249.315341 254492.67028 
L 249.315341 254492.67028 
L 242.974432 254492.67028 
z
" clip-path="url(#pfe8b43c8f8)" style="fill: #ff0000; opacity: 0.6; stroke: #000000; stroke-linejoin: miter"/>
   </g>
   <g id="patch_88">
    <path d="M 250.900568 254492.67028 
L 257.241477 254492.67028 
L 257.241477 254492.67028 
L 250.900568 254492.67028 
z
" clip-path="url(#pfe8b43c8f8)" style="fill: #ff0000; opacity: 0.6; stroke: #000000; stroke-linejoin: miter"/>
   </g>
   <g id="patch_89">
    <path d="M 258.826705 254492.67028 
L 265.167614 254492.67028 
L 265.167614 324.624573 
L 258.826705 324.624573 
z
" clip-path="url(#pfe8b43c8f8)" style="fill: #ff0000; opacity: 0.6; stroke: #000000; stroke-linejoin: miter"/>
   </g>
   <g id="patch_90">
    <path d="M 266.752841 254492.67028 
L 273.09375 254492.67028 
L 273.09375 254492.67028 
L 266.752841 254492.67028 
z
" clip-path="url(#pfe8b43c8f8)" style="fill: #ff0000; opacity: 0.6; stroke: #000000; stroke-linejoin: miter"/>
   </g>
   <g id="patch_91">
    <path d="M 274.678977 254492.67028 
L 281.019886 254492.67028 
L 281.019886 254492.67028 
L 274.678977 254492.67028 
z
" clip-path="url(#pfe8b43c8f8)" style="fill: #ff0000; opacity: 0.6; stroke: #000000; stroke-linejoin: miter"/>
   </g>
   <g id="patch_92">
    <path d="M 282.605114 254492.67028 
L 288.946023 254492.67028 
L 288.946023 254492.67028 
L 282.605114 254492.67028 
z
" clip-path="url(#pfe8b43c8f8)" style="fill: #ff0000; opacity: 0.6; stroke: #000000; stroke-linejoin: miter"/>
   </g>
   <g id="patch_93">
    <path d="M 290.53125 254492.67028 
L 296.872159 254492.67028 
L 296.872159 254492.67028 
L 290.53125 254492.67028 
z
" clip-path="url(#pfe8b43c8f8)" style="fill: #ff0000; opacity: 0.6; stroke: #000000; stroke-linejoin: miter"/>
   </g>
   <g id="patch_94">
    <path d="M 298.457386 254492.67028 
L 304.798295 254492.67028 
L 304.798295 254492.67028 
L 298.457386 254492.67028 
z
" clip-path="url(#pfe8b43c8f8)" style="fill: #ff0000; opacity: 0.6; stroke: #000000; stroke-linejoin: miter"/>
   </g>
   <g id="patch_95">
    <path d="M 306.383523 254492.67028 
L 312.724432 254492.67028 
L 312.724432 254492.67028 
L 306.383523 254492.67028 
z
" clip-path="url(#pfe8b43c8f8)" style="fill: #ff0000; opacity: 0.6; stroke: #000000; stroke-linejoin: miter"/>
   </g>
   <g id="patch_96">
    <path d="M 314.309659 254492.67028 
L 320.650568 254492.67028 
L 320.650568 254492.67028 
L 314.309659 254492.67028 
z
" clip-path="url(#pfe8b43c8f8)" style="fill: #ff0000; opacity: 0.6; stroke: #000000; stroke-linejoin: miter"/>
   </g>
   <g id="patch_97">
    <path d="M 322.235795 254492.67028 
L 328.576705 254492.67028 
L 328.576705 254492.67028 
L 322.235795 254492.67028 
z
" clip-path="url(#pfe8b43c8f8)" style="fill: #ff0000; opacity: 0.6; stroke: #000000; stroke-linejoin: miter"/>
   </g>
   <g id="patch_98">
    <path d="M 330.161932 254492.67028 
L 336.502841 254492.67028 
L 336.502841 254492.67028 
L 330.161932 254492.67028 
z
" clip-path="url(#pfe8b43c8f8)" style="fill: #ff0000; opacity: 0.6; stroke: #000000; stroke-linejoin: miter"/>
   </g>
   <g id="patch_99">
    <path d="M 338.088068 254492.67028 
L 344.428977 254492.67028 
L 344.428977 248.148856 
L 338.088068 248.148856 
z
" clip-path="url(#pfe8b43c8f8)" style="fill: #ff0000; opacity: 0.6; stroke: #000000; stroke-linejoin: miter"/>
   </g>
   <g id="patch_100">
    <path d="M 346.014205 254492.67028 
L 352.355114 254492.67028 
L 352.355114 254492.67028 
L 346.014205 254492.67028 
z
" clip-path="url(#pfe8b43c8f8)" style="fill: #ff0000; opacity: 0.6; stroke: #000000; stroke-linejoin: miter"/>
   </g>
   <g id="patch_101">
    <path d="M 353.940341 254492.67028 
L 360.28125 254492.67028 
L 360.28125 369.36 
L 353.940341 369.36 
z
" clip-path="url(#pfe8b43c8f8)" style="fill: #ff0000; opacity: 0.6; stroke: #000000; stroke-linejoin: miter"/>
   </g>
   <g id="patch_102">
    <path d="M 361.866477 254492.67028 
L 368.207386 254492.67028 
L 368.207386 254492.67028 
L 361.866477 254492.67028 
z
" clip-path="url(#pfe8b43c8f8)" style="fill: #ff0000; opacity: 0.6; stroke: #000000; stroke-linejoin: miter"/>
   </g>
   <g id="patch_103">
    <path d="M 369.792614 254492.67028 
L 376.133523 254492.67028 
L 376.133523 254492.67028 
L 369.792614 254492.67028 
z
" clip-path="url(#pfe8b43c8f8)" style="fill: #ff0000; opacity: 0.6; stroke: #000000; stroke-linejoin: miter"/>
   </g>
   <g id="patch_104">
    <path d="M 377.71875 254492.67028 
L 384.059659 254492.67028 
L 384.059659 254492.67028 
L 377.71875 254492.67028 
z
" clip-path="url(#pfe8b43c8f8)" style="fill: #ff0000; opacity: 0.6; stroke: #000000; stroke-linejoin: miter"/>
   </g>
   <g id="patch_105">
    <path d="M 385.644886 254492.67028 
L 391.985795 254492.67028 
L 391.985795 254492.67028 
L 385.644886 254492.67028 
z
" clip-path="url(#pfe8b43c8f8)" style="fill: #ff0000; opacity: 0.6; stroke: #000000; stroke-linejoin: miter"/>
   </g>
   <g id="patch_106">
    <path d="M 393.571023 254492.67028 
L 399.911932 254492.67028 
L 399.911932 254492.67028 
L 393.571023 254492.67028 
z
" clip-path="url(#pfe8b43c8f8)" style="fill: #ff0000; opacity: 0.6; stroke: #000000; stroke-linejoin: miter"/>
   </g>
   <g id="patch_107">
    <path d="M 401.497159 254492.67028 
L 407.838068 254492.67028 
L 407.838068 254492.67028 
L 401.497159 254492.67028 
z
" clip-path="url(#pfe8b43c8f8)" style="fill: #ff0000; opacity: 0.6; stroke: #000000; stroke-linejoin: miter"/>
   </g>
   <g id="patch_108">
    <path d="M 409.423295 254492.67028 
L 415.764205 254492.67028 
L 415.764205 254492.67028 
L 409.423295 254492.67028 
z
" clip-path="url(#pfe8b43c8f8)" style="fill: #ff0000; opacity: 0.6; stroke: #000000; stroke-linejoin: miter"/>
   </g>
   <g id="patch_109">
    <path d="M 417.349432 254492.67028 
L 423.690341 254492.67028 
L 423.690341 254492.67028 
L 417.349432 254492.67028 
z
" clip-path="url(#pfe8b43c8f8)" style="fill: #ff0000; opacity: 0.6; stroke: #000000; stroke-linejoin: miter"/>
   </g>
   <g id="patch_110">
    <path d="M 425.275568 254492.67028 
L 431.616477 254492.67028 
L 431.616477 254492.67028 
L 425.275568 254492.67028 
z
" clip-path="url(#pfe8b43c8f8)" style="fill: #ff0000; opacity: 0.6; stroke: #000000; stroke-linejoin: miter"/>
   </g>
   <g id="patch_111">
    <path d="M 433.201705 254492.67028 
L 439.542614 254492.67028 
L 439.542614 254492.67028 
L 433.201705 254492.67028 
z
" clip-path="url(#pfe8b43c8f8)" style="fill: #ff0000; opacity: 0.6; stroke: #000000; stroke-linejoin: miter"/>
   </g>
   <g id="patch_112">
    <path d="M 441.127841 254492.67028 
L 447.46875 254492.67028 
L 447.46875 254492.67028 
L 441.127841 254492.67028 
z
" clip-path="url(#pfe8b43c8f8)" style="fill: #ff0000; opacity: 0.6; stroke: #000000; stroke-linejoin: miter"/>
   </g>
   <g id="patch_113">
    <path d="M 449.053977 254492.67028 
L 455.394886 254492.67028 
L 455.394886 254492.67028 
L 449.053977 254492.67028 
z
" clip-path="url(#pfe8b43c8f8)" style="fill: #ff0000; opacity: 0.6; stroke: #000000; stroke-linejoin: miter"/>
   </g>
   <g id="patch_114">
    <path d="M 456.980114 254492.67028 
L 463.321023 254492.67028 
L 463.321023 254492.67028 
L 456.980114 254492.67028 
z
" clip-path="url(#pfe8b43c8f8)" style="fill: #ff0000; opacity: 0.6; stroke: #000000; stroke-linejoin: miter"/>
   </g>
   <g id="patch_115">
    <path d="M 464.90625 254492.67028 
L 471.247159 254492.67028 
L 471.247159 254492.67028 
L 464.90625 254492.67028 
z
" clip-path="url(#pfe8b43c8f8)" style="fill: #ff0000; opacity: 0.6; stroke: #000000; stroke-linejoin: miter"/>
   </g>
   <g id="patch_116">
    <path d="M 472.832386 254492.67028 
L 479.173295 254492.67028 
L 479.173295 254492.67028 
L 472.832386 254492.67028 
z
" clip-path="url(#pfe8b43c8f8)" style="fill: #ff0000; opacity: 0.6; stroke: #000000; stroke-linejoin: miter"/>
   </g>
   <g id="patch_117">
    <path d="M 480.758523 254492.67028 
L 487.099432 254492.67028 
L 487.099432 254492.67028 
L 480.758523 254492.67028 
z
" clip-path="url(#pfe8b43c8f8)" style="fill: #ff0000; opacity: 0.6; stroke: #000000; stroke-linejoin: miter"/>
   </g>
   <g id="patch_118">
    <path d="M 488.684659 254492.67028 
L 495.025568 254492.67028 
L 495.025568 254492.67028 
L 488.684659 254492.67028 
z
" clip-path="url(#pfe8b43c8f8)" style="fill: #ff0000; opacity: 0.6; stroke: #000000; stroke-linejoin: miter"/>
   </g>
   <g id="patch_119">
    <path d="M 496.610795 254492.67028 
L 502.951705 254492.67028 
L 502.951705 254492.67028 
L 496.610795 254492.67028 
z
" clip-path="url(#pfe8b43c8f8)" style="fill: #ff0000; opacity: 0.6; stroke: #000000; stroke-linejoin: miter"/>
   </g>
   <g id="patch_120">
    <path d="M 504.536932 254492.67028 
L 510.877841 254492.67028 
L 510.877841 254492.67028 
L 504.536932 254492.67028 
z
" clip-path="url(#pfe8b43c8f8)" style="fill: #ff0000; opacity: 0.6; stroke: #000000; stroke-linejoin: miter"/>
   </g>
   <g id="patch_121">
    <path d="M 512.463068 254492.67028 
L 518.803977 254492.67028 
L 518.803977 254492.67028 
L 512.463068 254492.67028 
z
" clip-path="url(#pfe8b43c8f8)" style="fill: #ff0000; opacity: 0.6; stroke: #000000; stroke-linejoin: miter"/>
   </g>
   <g id="patch_122">
    <path d="M 520.389205 254492.67028 
L 526.730114 254492.67028 
L 526.730114 254492.67028 
L 520.389205 254492.67028 
z
" clip-path="url(#pfe8b43c8f8)" style="fill: #ff0000; opacity: 0.6; stroke: #000000; stroke-linejoin: miter"/>
   </g>
   <g id="patch_123">
    <path d="M 528.315341 254492.67028 
L 534.65625 254492.67028 
L 534.65625 254492.67028 
L 528.315341 254492.67028 
z
" clip-path="url(#pfe8b43c8f8)" style="fill: #ff0000; opacity: 0.6; stroke: #000000; stroke-linejoin: miter"/>
   </g>
   <g id="patch_124">
    <path d="M 536.241477 254492.67028 
L 542.582386 254492.67028 
L 542.582386 254492.67028 
L 536.241477 254492.67028 
z
" clip-path="url(#pfe8b43c8f8)" style="fill: #ff0000; opacity: 0.6; stroke: #000000; stroke-linejoin: miter"/>
   </g>
   <g id="patch_125">
    <path d="M 544.167614 254492.67028 
L 550.508523 254492.67028 
L 550.508523 254492.67028 
L 544.167614 254492.67028 
z
" clip-path="url(#pfe8b43c8f8)" style="fill: #ff0000; opacity: 0.6; stroke: #000000; stroke-linejoin: miter"/>
   </g>
   <g id="patch_126">
    <path d="M 552.09375 254492.67028 
L 558.434659 254492.67028 
L 558.434659 254492.67028 
L 552.09375 254492.67028 
z
" clip-path="url(#pfe8b43c8f8)" style="fill: #ff0000; opacity: 0.6; stroke: #000000; stroke-linejoin: miter"/>
   </g>
   <g id="patch_127">
    <path d="M 560.019886 254492.67028 
L 566.360795 254492.67028 
L 566.360795 254492.67028 
L 560.019886 254492.67028 
z
" clip-path="url(#pfe8b43c8f8)" style="fill: #ff0000; opacity: 0.6; stroke: #000000; stroke-linejoin: miter"/>
   </g>
   <g id="patch_128">
    <path d="M 567.946023 254492.67028 
L 574.286932 254492.67028 
L 574.286932 254492.67028 
L 567.946023 254492.67028 
z
" clip-path="url(#pfe8b43c8f8)" style="fill: #ff0000; opacity: 0.6; stroke: #000000; stroke-linejoin: miter"/>
   </g>
   <g id="patch_129">
    <path d="M 575.872159 254492.67028 
L 582.213068 254492.67028 
L 582.213068 254492.67028 
L 575.872159 254492.67028 
z
" clip-path="url(#pfe8b43c8f8)" style="fill: #ff0000; opacity: 0.6; stroke: #000000; stroke-linejoin: miter"/>
   </g>
   <g id="patch_130">
    <path d="M 583.798295 254492.67028 
L 590.139205 254492.67028 
L 590.139205 254492.67028 
L 583.798295 254492.67028 
z
" clip-path="url(#pfe8b43c8f8)" style="fill: #ff0000; opacity: 0.6; stroke: #000000; stroke-linejoin: miter"/>
   </g>
   <g id="patch_131">
    <path d="M 591.724432 254492.67028 
L 598.065341 254492.67028 
L 598.065341 254492.67028 
L 591.724432 254492.67028 
z
" clip-path="url(#pfe8b43c8f8)" style="fill: #ff0000; opacity: 0.6; stroke: #000000; stroke-linejoin: miter"/>
   </g>
   <g id="patch_132">
    <path d="M 599.650568 254492.67028 
L 605.991477 254492.67028 
L 605.991477 254492.67028 
L 599.650568 254492.67028 
z
" clip-path="url(#pfe8b43c8f8)" style="fill: #ff0000; opacity: 0.6; stroke: #000000; stroke-linejoin: miter"/>
   </g>
   <g id="patch_133">
    <path d="M 607.576705 254492.67028 
L 613.917614 254492.67028 
L 613.917614 254492.67028 
L 607.576705 254492.67028 
z
" clip-path="url(#pfe8b43c8f8)" style="fill: #ff0000; opacity: 0.6; stroke: #000000; stroke-linejoin: miter"/>
   </g>
   <g id="patch_134">
    <path d="M 615.502841 254492.67028 
L 621.84375 254492.67028 
L 621.84375 324.624573 
L 615.502841 324.624573 
z
" clip-path="url(#pfe8b43c8f8)" style="fill: #ff0000; opacity: 0.6; stroke: #000000; stroke-linejoin: miter"/>
   </g>
   <g id="matplotlib.axis_3">
    <g id="ytick_27">
     <g id="line2d_67">
      <defs>
       <path id="mc11e7b0e0c" d="M 0 0 
L 3.5 0 
" style="stroke: #000000; stroke-width: 0.8"/>
      </defs>
      <g>
       <use xlink:href="#mc11e7b0e0c" x="648" y="191.788883" style="stroke: #000000; stroke-width: 0.8"/>
      </g>
     </g>
     <g id="text_13">
      <!-- $\mathdefault{10^{1}}$ -->
      <g transform="translate(655 195.588102) scale(0.1 -0.1)">
       <use xlink:href="#DejaVuSans-31" transform="translate(0 0.684375)"/>
       <use xlink:href="#DejaVuSans-30" transform="translate(63.623047 0.684375)"/>
       <use xlink:href="#DejaVuSans-31" transform="translate(128.203125 38.965625) scale(0.7)"/>
      </g>
     </g>
    </g>
    <g id="ytick_28">
     <g id="line2d_68">
      <defs>
       <path id="m0cc5562613" d="M 0 0 
L 2 0 
" style="stroke: #000000; stroke-width: 0.6"/>
      </defs>
      <g>
       <use xlink:href="#m0cc5562613" x="648" y="369.36" style="stroke: #000000; stroke-width: 0.6"/>
      </g>
     </g>
    </g>
    <g id="ytick_29">
     <g id="line2d_69">
      <g>
       <use xlink:href="#m0cc5562613" x="648" y="324.624573" style="stroke: #000000; stroke-width: 0.6"/>
      </g>
     </g>
    </g>
    <g id="ytick_30">
     <g id="line2d_70">
      <g>
       <use xlink:href="#m0cc5562613" x="648" y="292.884282" style="stroke: #000000; stroke-width: 0.6"/>
      </g>
     </g>
    </g>
    <g id="ytick_31">
     <g id="line2d_71">
      <g>
       <use xlink:href="#m0cc5562613" x="648" y="268.2646" style="stroke: #000000; stroke-width: 0.6"/>
      </g>
     </g>
    </g>
    <g id="ytick_32">
     <g id="line2d_72">
      <g>
       <use xlink:href="#m0cc5562613" x="648" y="248.148856" style="stroke: #000000; stroke-width: 0.6"/>
      </g>
     </g>
    </g>
    <g id="ytick_33">
     <g id="line2d_73">
      <g>
       <use xlink:href="#m0cc5562613" x="648" y="231.141236" style="stroke: #000000; stroke-width: 0.6"/>
      </g>
     </g>
    </g>
    <g id="ytick_34">
     <g id="line2d_74">
      <g>
       <use xlink:href="#m0cc5562613" x="648" y="216.408565" style="stroke: #000000; stroke-width: 0.6"/>
      </g>
     </g>
    </g>
    <g id="ytick_35">
     <g id="line2d_75">
      <g>
       <use xlink:href="#m0cc5562613" x="648" y="203.413429" style="stroke: #000000; stroke-width: 0.6"/>
      </g>
     </g>
    </g>
    <g id="ytick_36">
     <g id="line2d_76">
      <g>
       <use xlink:href="#m0cc5562613" x="648" y="115.313165" style="stroke: #000000; stroke-width: 0.6"/>
      </g>
     </g>
    </g>
    <g id="ytick_37">
     <g id="line2d_77">
      <g>
       <use xlink:href="#m0cc5562613" x="648" y="70.577738" style="stroke: #000000; stroke-width: 0.6"/>
      </g>
     </g>
    </g>
    <g id="text_14">
     <!-- Freqüències molècula analitzada -->
     <g style="fill: #ff0000" transform="translate(684.598438 300.006875) rotate(-90) scale(0.1 -0.1)">
      <defs>
       <path id="DejaVuSans-6c" d="M 603 4863 
L 1178 4863 
L 1178 0 
L 603 0 
L 603 4863 
z
" transform="scale(0.015625)"/>
       <path id="DejaVuSans-75" d="M 544 1381 
L 544 3500 
L 1119 3500 
L 1119 1403 
Q 1119 906 1312 657 
Q 1506 409 1894 409 
Q 2359 409 2629 706 
Q 2900 1003 2900 1516 
L 2900 3500 
L 3475 3500 
L 3475 0 
L 2900 0 
L 2900 538 
Q 2691 219 2414 64 
Q 2138 -91 1772 -91 
Q 1169 -91 856 284 
Q 544 659 544 1381 
z
M 1991 3584 
L 1991 3584 
z
" transform="scale(0.015625)"/>
       <path id="DejaVuSans-74" d="M 1172 4494 
L 1172 3500 
L 2356 3500 
L 2356 3053 
L 1172 3053 
L 1172 1153 
Q 1172 725 1289 603 
Q 1406 481 1766 481 
L 2356 481 
L 2356 0 
L 1766 0 
Q 1100 0 847 248 
Q 594 497 594 1153 
L 594 3053 
L 172 3053 
L 172 3500 
L 594 3500 
L 594 4494 
L 1172 4494 
z
" transform="scale(0.015625)"/>
       <path id="DejaVuSans-7a" d="M 353 3500 
L 3084 3500 
L 3084 2975 
L 922 459 
L 3084 459 
L 3084 0 
L 275 0 
L 275 525 
L 2438 3041 
L 353 3041 
L 353 3500 
z
" transform="scale(0.015625)"/>
      </defs>
      <use xlink:href="#DejaVuSans-46"/>
      <use xlink:href="#DejaVuSans-72" transform="translate(50.269531 0)"/>
      <use xlink:href="#DejaVuSans-65" transform="translate(89.132812 0)"/>
      <use xlink:href="#DejaVuSans-71" transform="translate(150.65625 0)"/>
      <use xlink:href="#DejaVuSans-fc" transform="translate(214.132812 0)"/>
      <use xlink:href="#DejaVuSans-e8" transform="translate(277.511719 0)"/>
      <use xlink:href="#DejaVuSans-6e" transform="translate(339.035156 0)"/>
      <use xlink:href="#DejaVuSans-63" transform="translate(402.414062 0)"/>
      <use xlink:href="#DejaVuSans-69" transform="translate(457.394531 0)"/>
      <use xlink:href="#DejaVuSans-65" transform="translate(485.177734 0)"/>
      <use xlink:href="#DejaVuSans-73" transform="translate(546.701172 0)"/>
      <use xlink:href="#DejaVuSans-20" transform="translate(598.800781 0)"/>
      <use xlink:href="#DejaVuSans-6d" transform="translate(630.587891 0)"/>
      <use xlink:href="#DejaVuSans-6f" transform="translate(728 0)"/>
      <use xlink:href="#DejaVuSans-6c" transform="translate(789.181641 0)"/>
      <use xlink:href="#DejaVuSans-e8" transform="translate(816.964844 0)"/>
      <use xlink:href="#DejaVuSans-63" transform="translate(878.488281 0)"/>
      <use xlink:href="#DejaVuSans-75" transform="translate(933.46875 0)"/>
      <use xlink:href="#DejaVuSans-6c" transform="translate(996.847656 0)"/>
      <use xlink:href="#DejaVuSans-61" transform="translate(1024.630859 0)"/>
      <use xlink:href="#DejaVuSans-20" transform="translate(1085.910156 0)"/>
      <use xlink:href="#DejaVuSans-61" transform="translate(1117.697266 0)"/>
      <use xlink:href="#DejaVuSans-6e" transform="translate(1178.976562 0)"/>
      <use xlink:href="#DejaVuSans-61" transform="translate(1242.355469 0)"/>
      <use xlink:href="#DejaVuSans-6c" transform="translate(1303.634766 0)"/>
      <use xlink:href="#DejaVuSans-69" transform="translate(1331.417969 0)"/>
      <use xlink:href="#DejaVuSans-74" transform="translate(1359.201172 0)"/>
      <use xlink:href="#DejaVuSans-7a" transform="translate(1398.410156 0)"/>
      <use xlink:href="#DejaVuSans-61" transform="translate(1450.900391 0)"/>
      <use xlink:href="#DejaVuSans-64" transform="translate(1512.179688 0)"/>
      <use xlink:href="#DejaVuSans-61" transform="translate(1575.65625 0)"/>
     </g>
    </g>
   </g>
   <g id="patch_135">
    <path d="M 90 384.48 
L 90 51.84 
" style="fill: none; stroke: #000000; stroke-width: 0.8; stroke-linejoin: miter; stroke-linecap: square"/>
   </g>
   <g id="patch_136">
    <path d="M 648 384.48 
L 648 51.84 
" style="fill: none; stroke: #000000; stroke-width: 0.8; stroke-linejoin: miter; stroke-linecap: square"/>
   </g>
   <g id="patch_137">
    <path d="M 90 384.48 
L 648 384.48 
" style="fill: none; stroke: #000000; stroke-width: 0.8; stroke-linejoin: miter; stroke-linecap: square"/>
   </g>
   <g id="patch_138">
    <path d="M 90 51.84 
L 648 51.84 
" style="fill: none; stroke: #000000; stroke-width: 0.8; stroke-linejoin: miter; stroke-linecap: square"/>
   </g>
   <g id="text_15">
    <!-- Overlapping Histograms with Different Scales -->
    <g transform="translate(232.069688 45.84) scale(0.12 -0.12)">
     <defs>
      <path id="DejaVuSans-4f" d="M 2522 4238 
Q 1834 4238 1429 3725 
Q 1025 3213 1025 2328 
Q 1025 1447 1429 934 
Q 1834 422 2522 422 
Q 3209 422 3611 934 
Q 4013 1447 4013 2328 
Q 4013 3213 3611 3725 
Q 3209 4238 2522 4238 
z
M 2522 4750 
Q 3503 4750 4090 4092 
Q 4678 3434 4678 2328 
Q 4678 1225 4090 567 
Q 3503 -91 2522 -91 
Q 1538 -91 948 565 
Q 359 1222 359 2328 
Q 359 3434 948 4092 
Q 1538 4750 2522 4750 
z
" transform="scale(0.015625)"/>
      <path id="DejaVuSans-76" d="M 191 3500 
L 800 3500 
L 1894 563 
L 2988 3500 
L 3597 3500 
L 2284 0 
L 1503 0 
L 191 3500 
z
" transform="scale(0.015625)"/>
      <path id="DejaVuSans-70" d="M 1159 525 
L 1159 -1331 
L 581 -1331 
L 581 3500 
L 1159 3500 
L 1159 2969 
Q 1341 3281 1617 3432 
Q 1894 3584 2278 3584 
Q 2916 3584 3314 3078 
Q 3713 2572 3713 1747 
Q 3713 922 3314 415 
Q 2916 -91 2278 -91 
Q 1894 -91 1617 61 
Q 1341 213 1159 525 
z
M 3116 1747 
Q 3116 2381 2855 2742 
Q 2594 3103 2138 3103 
Q 1681 3103 1420 2742 
Q 1159 2381 1159 1747 
Q 1159 1113 1420 752 
Q 1681 391 2138 391 
Q 2594 391 2855 752 
Q 3116 1113 3116 1747 
z
" transform="scale(0.015625)"/>
      <path id="DejaVuSans-67" d="M 2906 1791 
Q 2906 2416 2648 2759 
Q 2391 3103 1925 3103 
Q 1463 3103 1205 2759 
Q 947 2416 947 1791 
Q 947 1169 1205 825 
Q 1463 481 1925 481 
Q 2391 481 2648 825 
Q 2906 1169 2906 1791 
z
M 3481 434 
Q 3481 -459 3084 -895 
Q 2688 -1331 1869 -1331 
Q 1566 -1331 1297 -1286 
Q 1028 -1241 775 -1147 
L 775 -588 
Q 1028 -725 1275 -790 
Q 1522 -856 1778 -856 
Q 2344 -856 2625 -561 
Q 2906 -266 2906 331 
L 2906 616 
Q 2728 306 2450 153 
Q 2172 0 1784 0 
Q 1141 0 747 490 
Q 353 981 353 1791 
Q 353 2603 747 3093 
Q 1141 3584 1784 3584 
Q 2172 3584 2450 3431 
Q 2728 3278 2906 2969 
L 2906 3500 
L 3481 3500 
L 3481 434 
z
" transform="scale(0.015625)"/>
      <path id="DejaVuSans-48" d="M 628 4666 
L 1259 4666 
L 1259 2753 
L 3553 2753 
L 3553 4666 
L 4184 4666 
L 4184 0 
L 3553 0 
L 3553 2222 
L 1259 2222 
L 1259 0 
L 628 0 
L 628 4666 
z
" transform="scale(0.015625)"/>
      <path id="DejaVuSans-77" d="M 269 3500 
L 844 3500 
L 1563 769 
L 2278 3500 
L 2956 3500 
L 3675 769 
L 4391 3500 
L 4966 3500 
L 4050 0 
L 3372 0 
L 2619 2869 
L 1863 0 
L 1184 0 
L 269 3500 
z
" transform="scale(0.015625)"/>
      <path id="DejaVuSans-68" d="M 3513 2113 
L 3513 0 
L 2938 0 
L 2938 2094 
Q 2938 2591 2744 2837 
Q 2550 3084 2163 3084 
Q 1697 3084 1428 2787 
Q 1159 2491 1159 1978 
L 1159 0 
L 581 0 
L 581 4863 
L 1159 4863 
L 1159 2956 
Q 1366 3272 1645 3428 
Q 1925 3584 2291 3584 
Q 2894 3584 3203 3211 
Q 3513 2838 3513 2113 
z
" transform="scale(0.015625)"/>
      <path id="DejaVuSans-44" d="M 1259 4147 
L 1259 519 
L 2022 519 
Q 2988 519 3436 956 
Q 3884 1394 3884 2338 
Q 3884 3275 3436 3711 
Q 2988 4147 2022 4147 
L 1259 4147 
z
M 628 4666 
L 1925 4666 
Q 3281 4666 3915 4102 
Q 4550 3538 4550 2338 
Q 4550 1131 3912 565 
Q 3275 0 1925 0 
L 628 0 
L 628 4666 
z
" transform="scale(0.015625)"/>
      <path id="DejaVuSans-53" d="M 3425 4513 
L 3425 3897 
Q 3066 4069 2747 4153 
Q 2428 4238 2131 4238 
Q 1616 4238 1336 4038 
Q 1056 3838 1056 3469 
Q 1056 3159 1242 3001 
Q 1428 2844 1947 2747 
L 2328 2669 
Q 3034 2534 3370 2195 
Q 3706 1856 3706 1288 
Q 3706 609 3251 259 
Q 2797 -91 1919 -91 
Q 1588 -91 1214 -16 
Q 841 59 441 206 
L 441 856 
Q 825 641 1194 531 
Q 1563 422 1919 422 
Q 2459 422 2753 634 
Q 3047 847 3047 1241 
Q 3047 1584 2836 1778 
Q 2625 1972 2144 2069 
L 1759 2144 
Q 1053 2284 737 2584 
Q 422 2884 422 3419 
Q 422 4038 858 4394 
Q 1294 4750 2059 4750 
Q 2388 4750 2728 4690 
Q 3069 4631 3425 4513 
z
" transform="scale(0.015625)"/>
     </defs>
     <use xlink:href="#DejaVuSans-4f"/>
     <use xlink:href="#DejaVuSans-76" transform="translate(78.710938 0)"/>
     <use xlink:href="#DejaVuSans-65" transform="translate(137.890625 0)"/>
     <use xlink:href="#DejaVuSans-72" transform="translate(199.414062 0)"/>
     <use xlink:href="#DejaVuSans-6c" transform="translate(240.527344 0)"/>
     <use xlink:href="#DejaVuSans-61" transform="translate(268.310547 0)"/>
     <use xlink:href="#DejaVuSans-70" transform="translate(329.589844 0)"/>
     <use xlink:href="#DejaVuSans-70" transform="translate(393.066406 0)"/>
     <use xlink:href="#DejaVuSans-69" transform="translate(456.542969 0)"/>
     <use xlink:href="#DejaVuSans-6e" transform="translate(484.326172 0)"/>
     <use xlink:href="#DejaVuSans-67" transform="translate(547.705078 0)"/>
     <use xlink:href="#DejaVuSans-20" transform="translate(611.181641 0)"/>
     <use xlink:href="#DejaVuSans-48" transform="translate(642.96875 0)"/>
     <use xlink:href="#DejaVuSans-69" transform="translate(718.164062 0)"/>
     <use xlink:href="#DejaVuSans-73" transform="translate(745.947266 0)"/>
     <use xlink:href="#DejaVuSans-74" transform="translate(798.046875 0)"/>
     <use xlink:href="#DejaVuSans-6f" transform="translate(837.255859 0)"/>
     <use xlink:href="#DejaVuSans-67" transform="translate(898.4375 0)"/>
     <use xlink:href="#DejaVuSans-72" transform="translate(961.914062 0)"/>
     <use xlink:href="#DejaVuSans-61" transform="translate(1003.027344 0)"/>
     <use xlink:href="#DejaVuSans-6d" transform="translate(1064.306641 0)"/>
     <use xlink:href="#DejaVuSans-73" transform="translate(1161.71875 0)"/>
     <use xlink:href="#DejaVuSans-20" transform="translate(1213.818359 0)"/>
     <use xlink:href="#DejaVuSans-77" transform="translate(1245.605469 0)"/>
     <use xlink:href="#DejaVuSans-69" transform="translate(1327.392578 0)"/>
     <use xlink:href="#DejaVuSans-74" transform="translate(1355.175781 0)"/>
     <use xlink:href="#DejaVuSans-68" transform="translate(1394.384766 0)"/>
     <use xlink:href="#DejaVuSans-20" transform="translate(1457.763672 0)"/>
     <use xlink:href="#DejaVuSans-44" transform="translate(1489.550781 0)"/>
     <use xlink:href="#DejaVuSans-69" transform="translate(1566.552734 0)"/>
     <use xlink:href="#DejaVuSans-66" transform="translate(1594.335938 0)"/>
     <use xlink:href="#DejaVuSans-66" transform="translate(1629.541016 0)"/>
     <use xlink:href="#DejaVuSans-65" transform="translate(1664.746094 0)"/>
     <use xlink:href="#DejaVuSans-72" transform="translate(1726.269531 0)"/>
     <use xlink:href="#DejaVuSans-65" transform="translate(1765.132812 0)"/>
     <use xlink:href="#DejaVuSans-6e" transform="translate(1826.65625 0)"/>
     <use xlink:href="#DejaVuSans-74" transform="translate(1890.035156 0)"/>
     <use xlink:href="#DejaVuSans-20" transform="translate(1929.244141 0)"/>
     <use xlink:href="#DejaVuSans-53" transform="translate(1961.03125 0)"/>
     <use xlink:href="#DejaVuSans-63" transform="translate(2024.507812 0)"/>
     <use xlink:href="#DejaVuSans-61" transform="translate(2079.488281 0)"/>
     <use xlink:href="#DejaVuSans-6c" transform="translate(2140.767578 0)"/>
     <use xlink:href="#DejaVuSans-65" transform="translate(2168.550781 0)"/>
     <use xlink:href="#DejaVuSans-73" transform="translate(2230.074219 0)"/>
    </g>
   </g>
  </g>
  <g id="legend_1">
   <g id="patch_139">
    <path d="M 445.30625 89.99625 
L 641 89.99625 
Q 643 89.99625 643 87.99625 
L 643 58.84 
Q 643 56.84 641 56.84 
L 445.30625 56.84 
Q 443.30625 56.84 443.30625 58.84 
L 443.30625 87.99625 
Q 443.30625 89.99625 445.30625 89.99625 
z
" style="fill: #ffffff; opacity: 0.8; stroke: #cccccc; stroke-linejoin: miter"/>
   </g>
   <g id="patch_140">
    <path d="M 447.30625 68.838437 
L 467.30625 68.838437 
L 467.30625 61.838437 
L 447.30625 61.838437 
z
" style="fill: #0000ff; stroke: #000000; stroke-linejoin: miter"/>
   </g>
   <g id="text_16">
    <!-- Freqüències base de dades -->
    <g transform="translate(475.30625 68.838437) scale(0.1 -0.1)">
     <use xlink:href="#DejaVuSans-46"/>
     <use xlink:href="#DejaVuSans-72" transform="translate(50.269531 0)"/>
     <use xlink:href="#DejaVuSans-65" transform="translate(89.132812 0)"/>
     <use xlink:href="#DejaVuSans-71" transform="translate(150.65625 0)"/>
     <use xlink:href="#DejaVuSans-fc" transform="translate(214.132812 0)"/>
     <use xlink:href="#DejaVuSans-e8" transform="translate(277.511719 0)"/>
     <use xlink:href="#DejaVuSans-6e" transform="translate(339.035156 0)"/>
     <use xlink:href="#DejaVuSans-63" transform="translate(402.414062 0)"/>
     <use xlink:href="#DejaVuSans-69" transform="translate(457.394531 0)"/>
     <use xlink:href="#DejaVuSans-65" transform="translate(485.177734 0)"/>
     <use xlink:href="#DejaVuSans-73" transform="translate(546.701172 0)"/>
     <use xlink:href="#DejaVuSans-20" transform="translate(598.800781 0)"/>
     <use xlink:href="#DejaVuSans-62" transform="translate(630.587891 0)"/>
     <use xlink:href="#DejaVuSans-61" transform="translate(694.064453 0)"/>
     <use xlink:href="#DejaVuSans-73" transform="translate(755.34375 0)"/>
     <use xlink:href="#DejaVuSans-65" transform="translate(807.443359 0)"/>
     <use xlink:href="#DejaVuSans-20" transform="translate(868.966797 0)"/>
     <use xlink:href="#DejaVuSans-64" transform="translate(900.753906 0)"/>
     <use xlink:href="#DejaVuSans-65" transform="translate(964.230469 0)"/>
     <use xlink:href="#DejaVuSans-20" transform="translate(1025.753906 0)"/>
     <use xlink:href="#DejaVuSans-64" transform="translate(1057.541016 0)"/>
     <use xlink:href="#DejaVuSans-61" transform="translate(1121.017578 0)"/>
     <use xlink:href="#DejaVuSans-64" transform="translate(1182.296875 0)"/>
     <use xlink:href="#DejaVuSans-65" transform="translate(1245.773438 0)"/>
     <use xlink:href="#DejaVuSans-73" transform="translate(1307.296875 0)"/>
    </g>
   </g>
   <g id="patch_141">
    <path d="M 447.30625 83.916562 
L 467.30625 83.916562 
L 467.30625 76.916562 
L 447.30625 76.916562 
z
" style="fill: #ff0000; opacity: 0.6; stroke: #000000; stroke-linejoin: miter"/>
   </g>
   <g id="text_17">
    <!-- Freqüències molècula analitzada -->
    <g transform="translate(475.30625 83.916562) scale(0.1 -0.1)">
     <use xlink:href="#DejaVuSans-46"/>
     <use xlink:href="#DejaVuSans-72" transform="translate(50.269531 0)"/>
     <use xlink:href="#DejaVuSans-65" transform="translate(89.132812 0)"/>
     <use xlink:href="#DejaVuSans-71" transform="translate(150.65625 0)"/>
     <use xlink:href="#DejaVuSans-fc" transform="translate(214.132812 0)"/>
     <use xlink:href="#DejaVuSans-e8" transform="translate(277.511719 0)"/>
     <use xlink:href="#DejaVuSans-6e" transform="translate(339.035156 0)"/>
     <use xlink:href="#DejaVuSans-63" transform="translate(402.414062 0)"/>
     <use xlink:href="#DejaVuSans-69" transform="translate(457.394531 0)"/>
     <use xlink:href="#DejaVuSans-65" transform="translate(485.177734 0)"/>
     <use xlink:href="#DejaVuSans-73" transform="translate(546.701172 0)"/>
     <use xlink:href="#DejaVuSans-20" transform="translate(598.800781 0)"/>
     <use xlink:href="#DejaVuSans-6d" transform="translate(630.587891 0)"/>
     <use xlink:href="#DejaVuSans-6f" transform="translate(728 0)"/>
     <use xlink:href="#DejaVuSans-6c" transform="translate(789.181641 0)"/>
     <use xlink:href="#DejaVuSans-e8" transform="translate(816.964844 0)"/>
     <use xlink:href="#DejaVuSans-63" transform="translate(878.488281 0)"/>
     <use xlink:href="#DejaVuSans-75" transform="translate(933.46875 0)"/>
     <use xlink:href="#DejaVuSans-6c" transform="translate(996.847656 0)"/>
     <use xlink:href="#DejaVuSans-61" transform="translate(1024.630859 0)"/>
     <use xlink:href="#DejaVuSans-20" transform="translate(1085.910156 0)"/>
     <use xlink:href="#DejaVuSans-61" transform="translate(1117.697266 0)"/>
     <use xlink:href="#DejaVuSans-6e" transform="translate(1178.976562 0)"/>
     <use xlink:href="#DejaVuSans-61" transform="translate(1242.355469 0)"/>
     <use xlink:href="#DejaVuSans-6c" transform="translate(1303.634766 0)"/>
     <use xlink:href="#DejaVuSans-69" transform="translate(1331.417969 0)"/>
     <use xlink:href="#DejaVuSans-74" transform="translate(1359.201172 0)"/>
     <use xlink:href="#DejaVuSans-7a" transform="translate(1398.410156 0)"/>
     <use xlink:href="#DejaVuSans-61" transform="translate(1450.900391 0)"/>
     <use xlink:href="#DejaVuSans-64" transform="translate(1512.179688 0)"/>
     <use xlink:href="#DejaVuSans-61" transform="translate(1575.65625 0)"/>
    </g>
   </g>
  </g>
 </g>
 <defs>
  <clipPath id="pfe8b43c8f8">
   <rect x="90" y="51.84" width="558" height="332.64"/>
  </clipPath>
 </defs>
</svg>
