<?xml version="1.0" encoding="utf-8" standalone="no"?>
<!DOCTYPE svg PUBLIC "-//W3C//DTD SVG 1.1//EN"
  "http://www.w3.org/Graphics/SVG/1.1/DTD/svg11.dtd">
<svg xmlns:xlink="http://www.w3.org/1999/xlink" width="720pt" height="432pt" viewBox="0 0 720 432" xmlns="http://www.w3.org/2000/svg" version="1.1">
 <metadata>
  <rdf:RDF xmlns:dc="http://purl.org/dc/elements/1.1/" xmlns:cc="http://creativecommons.org/ns#" xmlns:rdf="http://www.w3.org/1999/02/22-rdf-syntax-ns#">
   <cc:Work>
    <dc:type rdf:resource="http://purl.org/dc/dcmitype/StillImage"/>
    <dc:date>2025-03-07T11:34:51.605368</dc:date>
    <dc:format>image/svg+xml</dc:format>
    <dc:creator>
     <cc:Agent>
      <dc:title>Matplotlib v3.10.0, https://matplotlib.org/</dc:title>
     </cc:Agent>
    </dc:creator>
   </cc:Work>
  </rdf:RDF>
 </metadata>
 <defs>
  <style type="text/css">*{stroke-linejoin: round; stroke-linecap: butt}</style>
 </defs>
 <g id="figure_1">
  <g id="patch_1">
   <path d="M 0 432 
L 720 432 
L 720 0 
L 0 0 
z
" style="fill: #ffffff"/>
  </g>
  <g id="axes_1">
   <g id="patch_2">
    <path d="M 90 384.48 
L 648 384.48 
L 648 51.84 
L 90 51.84 
z
" style="fill: #ffffff"/>
   </g>
   <g id="patch_3">
    <path d="M 115.363636 134890.532705 
L 127.736142 134890.532705 
L 127.736142 114.833215 
L 115.363636 114.833215 
z
" clip-path="url(#p9fafb2e553)" style="fill: #0000ff; stroke: #000000; stroke-linejoin: miter"/>
   </g>
   <g id="patch_4">
    <path d="M 127.736142 134890.532705 
L 140.108647 134890.532705 
L 140.108647 118.703624 
L 127.736142 118.703624 
z
" clip-path="url(#p9fafb2e553)" style="fill: #0000ff; stroke: #000000; stroke-linejoin: miter"/>
   </g>
   <g id="patch_5">
    <path d="M 140.108647 134890.532705 
L 152.481153 134890.532705 
L 152.481153 123.714276 
L 140.108647 123.714276 
z
" clip-path="url(#p9fafb2e553)" style="fill: #0000ff; stroke: #000000; stroke-linejoin: miter"/>
   </g>
   <g id="patch_6">
    <path d="M 152.481153 134890.532705 
L 164.853659 134890.532705 
L 164.853659 152.406424 
L 152.481153 152.406424 
z
" clip-path="url(#p9fafb2e553)" style="fill: #0000ff; stroke: #000000; stroke-linejoin: miter"/>
   </g>
   <g id="patch_7">
    <path d="M 164.853659 134890.532705 
L 177.226164 134890.532705 
L 177.226164 72.495195 
L 164.853659 72.495195 
z
" clip-path="url(#p9fafb2e553)" style="fill: #0000ff; stroke: #000000; stroke-linejoin: miter"/>
   </g>
   <g id="patch_8">
    <path d="M 177.226164 134890.532705 
L 189.59867 134890.532705 
L 189.59867 99.736338 
L 177.226164 99.736338 
z
" clip-path="url(#p9fafb2e553)" style="fill: #0000ff; stroke: #000000; stroke-linejoin: miter"/>
   </g>
   <g id="patch_9">
    <path d="M 189.59867 134890.532705 
L 201.971175 134890.532705 
L 201.971175 66.96 
L 189.59867 66.96 
z
" clip-path="url(#p9fafb2e553)" style="fill: #0000ff; stroke: #000000; stroke-linejoin: miter"/>
   </g>
   <g id="patch_10">
    <path d="M 201.971175 134890.532705 
L 214.343681 134890.532705 
L 214.343681 118.703624 
L 201.971175 118.703624 
z
" clip-path="url(#p9fafb2e553)" style="fill: #0000ff; stroke: #000000; stroke-linejoin: miter"/>
   </g>
   <g id="patch_11">
    <path d="M 214.343681 134890.532705 
L 226.716186 134890.532705 
L 226.716186 109.129 
L 214.343681 109.129 
z
" clip-path="url(#p9fafb2e553)" style="fill: #0000ff; stroke: #000000; stroke-linejoin: miter"/>
   </g>
   <g id="patch_12">
    <path d="M 226.716186 134890.532705 
L 239.088692 134890.532705 
L 239.088692 113.354103 
L 226.716186 113.354103 
z
" clip-path="url(#p9fafb2e553)" style="fill: #0000ff; stroke: #000000; stroke-linejoin: miter"/>
   </g>
   <g id="patch_13">
    <path d="M 239.088692 134890.532705 
L 251.461197 134890.532705 
L 251.461197 224.187273 
L 239.088692 224.187273 
z
" clip-path="url(#p9fafb2e553)" style="fill: #0000ff; stroke: #000000; stroke-linejoin: miter"/>
   </g>
   <g id="patch_14">
    <path d="M 251.461197 134890.532705 
L 263.833703 134890.532705 
L 263.833703 172.636506 
L 251.461197 172.636506 
z
" clip-path="url(#p9fafb2e553)" style="fill: #0000ff; stroke: #000000; stroke-linejoin: miter"/>
   </g>
   <g id="patch_15">
    <path d="M 263.833703 134890.532705 
L 276.206208 134890.532705 
L 276.206208 211.150825 
L 263.833703 211.150825 
z
" clip-path="url(#p9fafb2e553)" style="fill: #0000ff; stroke: #000000; stroke-linejoin: miter"/>
   </g>
   <g id="patch_16">
    <path d="M 276.206208 134890.532705 
L 288.578714 134890.532705 
L 288.578714 200.499271 
L 276.206208 200.499271 
z
" clip-path="url(#p9fafb2e553)" style="fill: #0000ff; stroke: #000000; stroke-linejoin: miter"/>
   </g>
   <g id="patch_17">
    <path d="M 288.578714 134890.532705 
L 300.95122 134890.532705 
L 300.95122 255.676421 
L 288.578714 255.676421 
z
" clip-path="url(#p9fafb2e553)" style="fill: #0000ff; stroke: #000000; stroke-linejoin: miter"/>
   </g>
   <g id="patch_18">
    <path d="M 300.95122 134890.532705 
L 313.323725 134890.532705 
L 313.323725 153.849011 
L 300.95122 153.849011 
z
" clip-path="url(#p9fafb2e553)" style="fill: #0000ff; stroke: #000000; stroke-linejoin: miter"/>
   </g>
   <g id="patch_19">
    <path d="M 313.323725 134890.532705 
L 325.696231 134890.532705 
L 325.696231 247.875276 
L 313.323725 247.875276 
z
" clip-path="url(#p9fafb2e553)" style="fill: #0000ff; stroke: #000000; stroke-linejoin: miter"/>
   </g>
   <g id="patch_20">
    <path d="M 325.696231 134890.532705 
L 338.068736 134890.532705 
L 338.068736 229.270635 
L 325.696231 229.270635 
z
" clip-path="url(#p9fafb2e553)" style="fill: #0000ff; stroke: #000000; stroke-linejoin: miter"/>
   </g>
   <g id="patch_21">
    <path d="M 338.068736 134890.532705 
L 350.441242 134890.532705 
L 350.441242 219.511034 
L 338.068736 219.511034 
z
" clip-path="url(#p9fafb2e553)" style="fill: #0000ff; stroke: #000000; stroke-linejoin: miter"/>
   </g>
   <g id="patch_22">
    <path d="M 350.441242 134890.532705 
L 362.813747 134890.532705 
L 362.813747 264.682181 
L 350.441242 264.682181 
z
" clip-path="url(#p9fafb2e553)" style="fill: #0000ff; stroke: #000000; stroke-linejoin: miter"/>
   </g>
   <g id="patch_23">
    <path d="M 362.813747 134890.532705 
L 375.186253 134890.532705 
L 375.186253 176.811268 
L 362.813747 176.811268 
z
" clip-path="url(#p9fafb2e553)" style="fill: #0000ff; stroke: #000000; stroke-linejoin: miter"/>
   </g>
   <g id="patch_24">
    <path d="M 375.186253 134890.532705 
L 387.558758 134890.532705 
L 387.558758 328.865092 
L 375.186253 328.865092 
z
" clip-path="url(#p9fafb2e553)" style="fill: #0000ff; stroke: #000000; stroke-linejoin: miter"/>
   </g>
   <g id="patch_25">
    <path d="M 387.558758 134890.532705 
L 399.931264 134890.532705 
L 399.931264 288.370184 
L 387.558758 288.370184 
z
" clip-path="url(#p9fafb2e553)" style="fill: #0000ff; stroke: #000000; stroke-linejoin: miter"/>
   </g>
   <g id="patch_26">
    <path d="M 399.931264 134890.532705 
L 412.303769 134890.532705 
L 412.303769 255.676421 
L 399.931264 255.676421 
z
" clip-path="url(#p9fafb2e553)" style="fill: #0000ff; stroke: #000000; stroke-linejoin: miter"/>
   </g>
   <g id="patch_27">
    <path d="M 412.303769 134890.532705 
L 424.676275 134890.532705 
L 424.676275 255.676421 
L 412.303769 255.676421 
z
" clip-path="url(#p9fafb2e553)" style="fill: #0000ff; stroke: #000000; stroke-linejoin: miter"/>
   </g>
   <g id="patch_28">
    <path d="M 424.676275 134890.532705 
L 437.04878 134890.532705 
L 437.04878 328.865092 
L 424.676275 328.865092 
z
" clip-path="url(#p9fafb2e553)" style="fill: #0000ff; stroke: #000000; stroke-linejoin: miter"/>
   </g>
   <g id="patch_29">
    <path d="M 437.04878 134890.532705 
L 449.421286 134890.532705 
L 449.421286 288.370184 
L 437.04878 288.370184 
z
" clip-path="url(#p9fafb2e553)" style="fill: #0000ff; stroke: #000000; stroke-linejoin: miter"/>
   </g>
   <g id="patch_30">
    <path d="M 449.421286 134890.532705 
L 461.793792 134890.532705 
L 461.793792 183.692365 
L 449.421286 183.692365 
z
" clip-path="url(#p9fafb2e553)" style="fill: #0000ff; stroke: #000000; stroke-linejoin: miter"/>
   </g>
   <g id="patch_31">
    <path d="M 461.793792 134890.532705 
L 474.166297 134890.532705 
L 474.166297 215.181513 
L 461.793792 215.181513 
z
" clip-path="url(#p9fafb2e553)" style="fill: #0000ff; stroke: #000000; stroke-linejoin: miter"/>
   </g>
   <g id="patch_32">
    <path d="M 474.166297 134890.532705 
L 486.538803 134890.532705 
L 486.538803 215.181513 
L 474.166297 215.181513 
z
" clip-path="url(#p9fafb2e553)" style="fill: #0000ff; stroke: #000000; stroke-linejoin: miter"/>
   </g>
   <g id="patch_33">
    <path d="M 486.538803 134890.532705 
L 498.911308 134890.532705 
L 498.911308 255.676421 
L 486.538803 255.676421 
z
" clip-path="url(#p9fafb2e553)" style="fill: #0000ff; stroke: #000000; stroke-linejoin: miter"/>
   </g>
   <g id="patch_34">
    <path d="M 498.911308 134890.532705 
L 511.283814 134890.532705 
L 511.283814 369.36 
L 498.911308 369.36 
z
" clip-path="url(#p9fafb2e553)" style="fill: #0000ff; stroke: #000000; stroke-linejoin: miter"/>
   </g>
   <g id="patch_35">
    <path d="M 511.283814 134890.532705 
L 523.656319 134890.532705 
L 523.656319 215.181513 
L 511.283814 215.181513 
z
" clip-path="url(#p9fafb2e553)" style="fill: #0000ff; stroke: #000000; stroke-linejoin: miter"/>
   </g>
   <g id="patch_36">
    <path d="M 523.656319 134890.532705 
L 536.028825 134890.532705 
L 536.028825 328.865092 
L 523.656319 328.865092 
z
" clip-path="url(#p9fafb2e553)" style="fill: #0000ff; stroke: #000000; stroke-linejoin: miter"/>
   </g>
   <g id="patch_37">
    <path d="M 536.028825 134890.532705 
L 548.40133 134890.532705 
L 548.40133 288.370184 
L 536.028825 288.370184 
z
" clip-path="url(#p9fafb2e553)" style="fill: #0000ff; stroke: #000000; stroke-linejoin: miter"/>
   </g>
   <g id="patch_38">
    <path d="M 548.40133 134890.532705 
L 560.773836 134890.532705 
L 560.773836 328.865092 
L 548.40133 328.865092 
z
" clip-path="url(#p9fafb2e553)" style="fill: #0000ff; stroke: #000000; stroke-linejoin: miter"/>
   </g>
   <g id="patch_39">
    <path d="M 560.773836 134890.532705 
L 573.146341 134890.532705 
L 573.146341 275.333735 
L 560.773836 275.333735 
z
" clip-path="url(#p9fafb2e553)" style="fill: #0000ff; stroke: #000000; stroke-linejoin: miter"/>
   </g>
   <g id="patch_40">
    <path d="M 573.146341 134890.532705 
L 585.518847 134890.532705 
L 585.518847 305.177089 
L 573.146341 305.177089 
z
" clip-path="url(#p9fafb2e553)" style="fill: #0000ff; stroke: #000000; stroke-linejoin: miter"/>
   </g>
   <g id="patch_41">
    <path d="M 585.518847 134890.532705 
L 597.891353 134890.532705 
L 597.891353 328.865092 
L 585.518847 328.865092 
z
" clip-path="url(#p9fafb2e553)" style="fill: #0000ff; stroke: #000000; stroke-linejoin: miter"/>
   </g>
   <g id="patch_42">
    <path d="M 597.891353 134890.532705 
L 610.263858 134890.532705 
L 610.263858 288.370184 
L 597.891353 288.370184 
z
" clip-path="url(#p9fafb2e553)" style="fill: #0000ff; stroke: #000000; stroke-linejoin: miter"/>
   </g>
   <g id="patch_43">
    <path d="M 610.263858 134890.532705 
L 622.636364 134890.532705 
L 622.636364 134890.532705 
L 610.263858 134890.532705 
z
" clip-path="url(#p9fafb2e553)" style="fill: #0000ff; stroke: #000000; stroke-linejoin: miter"/>
   </g>
   <g id="matplotlib.axis_1">
    <g id="xtick_1">
     <g id="line2d_1">
      <path d="M 109.177384 384.48 
L 109.177384 51.84 
" clip-path="url(#p9fafb2e553)" style="fill: none; stroke-dasharray: 1.85,0.8; stroke-dashoffset: 0; stroke: #b0b0b0; stroke-width: 0.5"/>
     </g>
     <g id="line2d_2">
      <defs>
       <path id="mc7bc61d93b" d="M 0 0 
L 0 3.5 
" style="stroke: #000000; stroke-width: 0.8"/>
      </defs>
      <g>
       <use xlink:href="#mc7bc61d93b" x="109.177384" y="384.48" style="stroke: #000000; stroke-width: 0.8"/>
      </g>
     </g>
     <g id="text_1">
      <!-- 0 -->
      <g transform="translate(105.996134 399.078438) scale(0.1 -0.1)">
       <defs>
        <path id="DejaVuSans-30" d="M 2034 4250 
Q 1547 4250 1301 3770 
Q 1056 3291 1056 2328 
Q 1056 1369 1301 889 
Q 1547 409 2034 409 
Q 2525 409 2770 889 
Q 3016 1369 3016 2328 
Q 3016 3291 2770 3770 
Q 2525 4250 2034 4250 
z
M 2034 4750 
Q 2819 4750 3233 4129 
Q 3647 3509 3647 2328 
Q 3647 1150 3233 529 
Q 2819 -91 2034 -91 
Q 1250 -91 836 529 
Q 422 1150 422 2328 
Q 422 3509 836 4129 
Q 1250 4750 2034 4750 
z
" transform="scale(0.015625)"/>
       </defs>
       <use xlink:href="#DejaVuSans-30"/>
      </g>
     </g>
    </g>
    <g id="xtick_2">
     <g id="line2d_3">
      <path d="M 232.902439 384.48 
L 232.902439 51.84 
" clip-path="url(#p9fafb2e553)" style="fill: none; stroke-dasharray: 1.85,0.8; stroke-dashoffset: 0; stroke: #b0b0b0; stroke-width: 0.5"/>
     </g>
     <g id="line2d_4">
      <g>
       <use xlink:href="#mc7bc61d93b" x="232.902439" y="384.48" style="stroke: #000000; stroke-width: 0.8"/>
      </g>
     </g>
     <g id="text_2">
      <!-- 10 -->
      <g transform="translate(226.539939 399.078438) scale(0.1 -0.1)">
       <defs>
        <path id="DejaVuSans-31" d="M 794 531 
L 1825 531 
L 1825 4091 
L 703 3866 
L 703 4441 
L 1819 4666 
L 2450 4666 
L 2450 531 
L 3481 531 
L 3481 0 
L 794 0 
L 794 531 
z
" transform="scale(0.015625)"/>
       </defs>
       <use xlink:href="#DejaVuSans-31"/>
       <use xlink:href="#DejaVuSans-30" transform="translate(63.623047 0)"/>
      </g>
     </g>
    </g>
    <g id="xtick_3">
     <g id="line2d_5">
      <path d="M 356.627494 384.48 
L 356.627494 51.84 
" clip-path="url(#p9fafb2e553)" style="fill: none; stroke-dasharray: 1.85,0.8; stroke-dashoffset: 0; stroke: #b0b0b0; stroke-width: 0.5"/>
     </g>
     <g id="line2d_6">
      <g>
       <use xlink:href="#mc7bc61d93b" x="356.627494" y="384.48" style="stroke: #000000; stroke-width: 0.8"/>
      </g>
     </g>
     <g id="text_3">
      <!-- 20 -->
      <g transform="translate(350.264994 399.078438) scale(0.1 -0.1)">
       <defs>
        <path id="DejaVuSans-32" d="M 1228 531 
L 3431 531 
L 3431 0 
L 469 0 
L 469 531 
Q 828 903 1448 1529 
Q 2069 2156 2228 2338 
Q 2531 2678 2651 2914 
Q 2772 3150 2772 3378 
Q 2772 3750 2511 3984 
Q 2250 4219 1831 4219 
Q 1534 4219 1204 4116 
Q 875 4013 500 3803 
L 500 4441 
Q 881 4594 1212 4672 
Q 1544 4750 1819 4750 
Q 2544 4750 2975 4387 
Q 3406 4025 3406 3419 
Q 3406 3131 3298 2873 
Q 3191 2616 2906 2266 
Q 2828 2175 2409 1742 
Q 1991 1309 1228 531 
z
" transform="scale(0.015625)"/>
       </defs>
       <use xlink:href="#DejaVuSans-32"/>
       <use xlink:href="#DejaVuSans-30" transform="translate(63.623047 0)"/>
      </g>
     </g>
    </g>
    <g id="xtick_4">
     <g id="line2d_7">
      <path d="M 480.35255 384.48 
L 480.35255 51.84 
" clip-path="url(#p9fafb2e553)" style="fill: none; stroke-dasharray: 1.85,0.8; stroke-dashoffset: 0; stroke: #b0b0b0; stroke-width: 0.5"/>
     </g>
     <g id="line2d_8">
      <g>
       <use xlink:href="#mc7bc61d93b" x="480.35255" y="384.48" style="stroke: #000000; stroke-width: 0.8"/>
      </g>
     </g>
     <g id="text_4">
      <!-- 30 -->
      <g transform="translate(473.99005 399.078438) scale(0.1 -0.1)">
       <defs>
        <path id="DejaVuSans-33" d="M 2597 2516 
Q 3050 2419 3304 2112 
Q 3559 1806 3559 1356 
Q 3559 666 3084 287 
Q 2609 -91 1734 -91 
Q 1441 -91 1130 -33 
Q 819 25 488 141 
L 488 750 
Q 750 597 1062 519 
Q 1375 441 1716 441 
Q 2309 441 2620 675 
Q 2931 909 2931 1356 
Q 2931 1769 2642 2001 
Q 2353 2234 1838 2234 
L 1294 2234 
L 1294 2753 
L 1863 2753 
Q 2328 2753 2575 2939 
Q 2822 3125 2822 3475 
Q 2822 3834 2567 4026 
Q 2313 4219 1838 4219 
Q 1578 4219 1281 4162 
Q 984 4106 628 3988 
L 628 4550 
Q 988 4650 1302 4700 
Q 1616 4750 1894 4750 
Q 2613 4750 3031 4423 
Q 3450 4097 3450 3541 
Q 3450 3153 3228 2886 
Q 3006 2619 2597 2516 
z
" transform="scale(0.015625)"/>
       </defs>
       <use xlink:href="#DejaVuSans-33"/>
       <use xlink:href="#DejaVuSans-30" transform="translate(63.623047 0)"/>
      </g>
     </g>
    </g>
    <g id="xtick_5">
     <g id="line2d_9">
      <path d="M 604.077605 384.48 
L 604.077605 51.84 
" clip-path="url(#p9fafb2e553)" style="fill: none; stroke-dasharray: 1.85,0.8; stroke-dashoffset: 0; stroke: #b0b0b0; stroke-width: 0.5"/>
     </g>
     <g id="line2d_10">
      <g>
       <use xlink:href="#mc7bc61d93b" x="604.077605" y="384.48" style="stroke: #000000; stroke-width: 0.8"/>
      </g>
     </g>
     <g id="text_5">
      <!-- 40 -->
      <g transform="translate(597.715105 399.078438) scale(0.1 -0.1)">
       <defs>
        <path id="DejaVuSans-34" d="M 2419 4116 
L 825 1625 
L 2419 1625 
L 2419 4116 
z
M 2253 4666 
L 3047 4666 
L 3047 1625 
L 3713 1625 
L 3713 1100 
L 3047 1100 
L 3047 0 
L 2419 0 
L 2419 1100 
L 313 1100 
L 313 1709 
L 2253 4666 
z
" transform="scale(0.015625)"/>
       </defs>
       <use xlink:href="#DejaVuSans-34"/>
       <use xlink:href="#DejaVuSans-30" transform="translate(63.623047 0)"/>
      </g>
     </g>
    </g>
    <g id="text_6">
     <!-- Conformació -->
     <g transform="translate(337.360937 412.756563) scale(0.1 -0.1)">
      <defs>
       <path id="DejaVuSans-43" d="M 4122 4306 
L 4122 3641 
Q 3803 3938 3442 4084 
Q 3081 4231 2675 4231 
Q 1875 4231 1450 3742 
Q 1025 3253 1025 2328 
Q 1025 1406 1450 917 
Q 1875 428 2675 428 
Q 3081 428 3442 575 
Q 3803 722 4122 1019 
L 4122 359 
Q 3791 134 3420 21 
Q 3050 -91 2638 -91 
Q 1578 -91 968 557 
Q 359 1206 359 2328 
Q 359 3453 968 4101 
Q 1578 4750 2638 4750 
Q 3056 4750 3426 4639 
Q 3797 4528 4122 4306 
z
" transform="scale(0.015625)"/>
       <path id="DejaVuSans-6f" d="M 1959 3097 
Q 1497 3097 1228 2736 
Q 959 2375 959 1747 
Q 959 1119 1226 758 
Q 1494 397 1959 397 
Q 2419 397 2687 759 
Q 2956 1122 2956 1747 
Q 2956 2369 2687 2733 
Q 2419 3097 1959 3097 
z
M 1959 3584 
Q 2709 3584 3137 3096 
Q 3566 2609 3566 1747 
Q 3566 888 3137 398 
Q 2709 -91 1959 -91 
Q 1206 -91 779 398 
Q 353 888 353 1747 
Q 353 2609 779 3096 
Q 1206 3584 1959 3584 
z
" transform="scale(0.015625)"/>
       <path id="DejaVuSans-6e" d="M 3513 2113 
L 3513 0 
L 2938 0 
L 2938 2094 
Q 2938 2591 2744 2837 
Q 2550 3084 2163 3084 
Q 1697 3084 1428 2787 
Q 1159 2491 1159 1978 
L 1159 0 
L 581 0 
L 581 3500 
L 1159 3500 
L 1159 2956 
Q 1366 3272 1645 3428 
Q 1925 3584 2291 3584 
Q 2894 3584 3203 3211 
Q 3513 2838 3513 2113 
z
" transform="scale(0.015625)"/>
       <path id="DejaVuSans-66" d="M 2375 4863 
L 2375 4384 
L 1825 4384 
Q 1516 4384 1395 4259 
Q 1275 4134 1275 3809 
L 1275 3500 
L 2222 3500 
L 2222 3053 
L 1275 3053 
L 1275 0 
L 697 0 
L 697 3053 
L 147 3053 
L 147 3500 
L 697 3500 
L 697 3744 
Q 697 4328 969 4595 
Q 1241 4863 1831 4863 
L 2375 4863 
z
" transform="scale(0.015625)"/>
       <path id="DejaVuSans-72" d="M 2631 2963 
Q 2534 3019 2420 3045 
Q 2306 3072 2169 3072 
Q 1681 3072 1420 2755 
Q 1159 2438 1159 1844 
L 1159 0 
L 581 0 
L 581 3500 
L 1159 3500 
L 1159 2956 
Q 1341 3275 1631 3429 
Q 1922 3584 2338 3584 
Q 2397 3584 2469 3576 
Q 2541 3569 2628 3553 
L 2631 2963 
z
" transform="scale(0.015625)"/>
       <path id="DejaVuSans-6d" d="M 3328 2828 
Q 3544 3216 3844 3400 
Q 4144 3584 4550 3584 
Q 5097 3584 5394 3201 
Q 5691 2819 5691 2113 
L 5691 0 
L 5113 0 
L 5113 2094 
Q 5113 2597 4934 2840 
Q 4756 3084 4391 3084 
Q 3944 3084 3684 2787 
Q 3425 2491 3425 1978 
L 3425 0 
L 2847 0 
L 2847 2094 
Q 2847 2600 2669 2842 
Q 2491 3084 2119 3084 
Q 1678 3084 1418 2786 
Q 1159 2488 1159 1978 
L 1159 0 
L 581 0 
L 581 3500 
L 1159 3500 
L 1159 2956 
Q 1356 3278 1631 3431 
Q 1906 3584 2284 3584 
Q 2666 3584 2933 3390 
Q 3200 3197 3328 2828 
z
" transform="scale(0.015625)"/>
       <path id="DejaVuSans-61" d="M 2194 1759 
Q 1497 1759 1228 1600 
Q 959 1441 959 1056 
Q 959 750 1161 570 
Q 1363 391 1709 391 
Q 2188 391 2477 730 
Q 2766 1069 2766 1631 
L 2766 1759 
L 2194 1759 
z
M 3341 1997 
L 3341 0 
L 2766 0 
L 2766 531 
Q 2569 213 2275 61 
Q 1981 -91 1556 -91 
Q 1019 -91 701 211 
Q 384 513 384 1019 
Q 384 1609 779 1909 
Q 1175 2209 1959 2209 
L 2766 2209 
L 2766 2266 
Q 2766 2663 2505 2880 
Q 2244 3097 1772 3097 
Q 1472 3097 1187 3025 
Q 903 2953 641 2809 
L 641 3341 
Q 956 3463 1253 3523 
Q 1550 3584 1831 3584 
Q 2591 3584 2966 3190 
Q 3341 2797 3341 1997 
z
" transform="scale(0.015625)"/>
       <path id="DejaVuSans-63" d="M 3122 3366 
L 3122 2828 
Q 2878 2963 2633 3030 
Q 2388 3097 2138 3097 
Q 1578 3097 1268 2742 
Q 959 2388 959 1747 
Q 959 1106 1268 751 
Q 1578 397 2138 397 
Q 2388 397 2633 464 
Q 2878 531 3122 666 
L 3122 134 
Q 2881 22 2623 -34 
Q 2366 -91 2075 -91 
Q 1284 -91 818 406 
Q 353 903 353 1747 
Q 353 2603 823 3093 
Q 1294 3584 2113 3584 
Q 2378 3584 2631 3529 
Q 2884 3475 3122 3366 
z
" transform="scale(0.015625)"/>
       <path id="DejaVuSans-69" d="M 603 3500 
L 1178 3500 
L 1178 0 
L 603 0 
L 603 3500 
z
M 603 4863 
L 1178 4863 
L 1178 4134 
L 603 4134 
L 603 4863 
z
" transform="scale(0.015625)"/>
       <path id="DejaVuSans-f3" d="M 1959 3097 
Q 1497 3097 1228 2736 
Q 959 2375 959 1747 
Q 959 1119 1226 758 
Q 1494 397 1959 397 
Q 2419 397 2687 759 
Q 2956 1122 2956 1747 
Q 2956 2369 2687 2733 
Q 2419 3097 1959 3097 
z
M 1959 3584 
Q 2709 3584 3137 3096 
Q 3566 2609 3566 1747 
Q 3566 888 3137 398 
Q 2709 -91 1959 -91 
Q 1206 -91 779 398 
Q 353 888 353 1747 
Q 353 2609 779 3096 
Q 1206 3584 1959 3584 
z
M 2394 5119 
L 3016 5119 
L 1998 3944 
L 1519 3944 
L 2394 5119 
z
" transform="scale(0.015625)"/>
      </defs>
      <use xlink:href="#DejaVuSans-43"/>
      <use xlink:href="#DejaVuSans-6f" transform="translate(69.824219 0)"/>
      <use xlink:href="#DejaVuSans-6e" transform="translate(131.005859 0)"/>
      <use xlink:href="#DejaVuSans-66" transform="translate(194.384766 0)"/>
      <use xlink:href="#DejaVuSans-6f" transform="translate(229.589844 0)"/>
      <use xlink:href="#DejaVuSans-72" transform="translate(290.771484 0)"/>
      <use xlink:href="#DejaVuSans-6d" transform="translate(330.134766 0)"/>
      <use xlink:href="#DejaVuSans-61" transform="translate(427.546875 0)"/>
      <use xlink:href="#DejaVuSans-63" transform="translate(488.826172 0)"/>
      <use xlink:href="#DejaVuSans-69" transform="translate(543.806641 0)"/>
      <use xlink:href="#DejaVuSans-f3" transform="translate(571.589844 0)"/>
     </g>
    </g>
   </g>
   <g id="matplotlib.axis_2">
    <g id="ytick_1">
     <g id="line2d_11">
      <path d="M 90 369.36 
L 648 369.36 
" clip-path="url(#p9fafb2e553)" style="fill: none; stroke-dasharray: 1.85,0.8; stroke-dashoffset: 0; stroke: #b0b0b0; stroke-width: 0.5"/>
     </g>
     <g id="line2d_12">
      <defs>
       <path id="m4ceffee658" d="M 0 0 
L -3.5 0 
" style="stroke: #000000; stroke-width: 0.8"/>
      </defs>
      <g>
       <use xlink:href="#m4ceffee658" x="90" y="369.36" style="stroke: #000000; stroke-width: 0.8"/>
      </g>
     </g>
     <g id="text_7">
      <!-- $\mathdefault{10^{0}}$ -->
      <g transform="translate(65.4 373.159219) scale(0.1 -0.1)">
       <use xlink:href="#DejaVuSans-31" transform="translate(0 0.765625)"/>
       <use xlink:href="#DejaVuSans-30" transform="translate(63.623047 0.765625)"/>
       <use xlink:href="#DejaVuSans-30" transform="translate(128.203125 39.046875) scale(0.7)"/>
      </g>
     </g>
    </g>
    <g id="ytick_2">
     <g id="line2d_13">
      <path d="M 90 234.838827 
L 648 234.838827 
" clip-path="url(#p9fafb2e553)" style="fill: none; stroke-dasharray: 1.85,0.8; stroke-dashoffset: 0; stroke: #b0b0b0; stroke-width: 0.5"/>
     </g>
     <g id="line2d_14">
      <g>
       <use xlink:href="#m4ceffee658" x="90" y="234.838827" style="stroke: #000000; stroke-width: 0.8"/>
      </g>
     </g>
     <g id="text_8">
      <!-- $\mathdefault{10^{1}}$ -->
      <g transform="translate(65.4 238.638046) scale(0.1 -0.1)">
       <use xlink:href="#DejaVuSans-31" transform="translate(0 0.684375)"/>
       <use xlink:href="#DejaVuSans-30" transform="translate(63.623047 0.684375)"/>
       <use xlink:href="#DejaVuSans-31" transform="translate(128.203125 38.965625) scale(0.7)"/>
      </g>
     </g>
    </g>
    <g id="ytick_3">
     <g id="line2d_15">
      <path d="M 90 100.317655 
L 648 100.317655 
" clip-path="url(#p9fafb2e553)" style="fill: none; stroke-dasharray: 1.85,0.8; stroke-dashoffset: 0; stroke: #b0b0b0; stroke-width: 0.5"/>
     </g>
     <g id="line2d_16">
      <g>
       <use xlink:href="#m4ceffee658" x="90" y="100.317655" style="stroke: #000000; stroke-width: 0.8"/>
      </g>
     </g>
     <g id="text_9">
      <!-- $\mathdefault{10^{2}}$ -->
      <g transform="translate(65.4 104.116873) scale(0.1 -0.1)">
       <use xlink:href="#DejaVuSans-31" transform="translate(0 0.765625)"/>
       <use xlink:href="#DejaVuSans-30" transform="translate(63.623047 0.765625)"/>
       <use xlink:href="#DejaVuSans-32" transform="translate(128.203125 39.046875) scale(0.7)"/>
      </g>
     </g>
    </g>
    <g id="ytick_4">
     <g id="line2d_17">
      <path d="M 90 382.396449 
L 648 382.396449 
" clip-path="url(#p9fafb2e553)" style="fill: none; stroke-dasharray: 1.85,0.8; stroke-dashoffset: 0; stroke: #b0b0b0; stroke-width: 0.5"/>
     </g>
     <g id="line2d_18">
      <defs>
       <path id="m0e7d54a2a8" d="M 0 0 
L -2 0 
" style="stroke: #000000; stroke-width: 0.6"/>
      </defs>
      <g>
       <use xlink:href="#m0e7d54a2a8" x="90" y="382.396449" style="stroke: #000000; stroke-width: 0.6"/>
      </g>
     </g>
    </g>
    <g id="ytick_5">
     <g id="line2d_19">
      <path d="M 90 375.515351 
L 648 375.515351 
" clip-path="url(#p9fafb2e553)" style="fill: none; stroke-dasharray: 1.85,0.8; stroke-dashoffset: 0; stroke: #b0b0b0; stroke-width: 0.5"/>
     </g>
     <g id="line2d_20">
      <g>
       <use xlink:href="#m0e7d54a2a8" x="90" y="375.515351" style="stroke: #000000; stroke-width: 0.6"/>
      </g>
     </g>
    </g>
    <g id="ytick_6">
     <g id="line2d_21">
      <path d="M 90 328.865092 
L 648 328.865092 
" clip-path="url(#p9fafb2e553)" style="fill: none; stroke-dasharray: 1.85,0.8; stroke-dashoffset: 0; stroke: #b0b0b0; stroke-width: 0.5"/>
     </g>
     <g id="line2d_22">
      <g>
       <use xlink:href="#m0e7d54a2a8" x="90" y="328.865092" style="stroke: #000000; stroke-width: 0.6"/>
      </g>
     </g>
    </g>
    <g id="ytick_7">
     <g id="line2d_23">
      <path d="M 90 305.177089 
L 648 305.177089 
" clip-path="url(#p9fafb2e553)" style="fill: none; stroke-dasharray: 1.85,0.8; stroke-dashoffset: 0; stroke: #b0b0b0; stroke-width: 0.5"/>
     </g>
     <g id="line2d_24">
      <g>
       <use xlink:href="#m0e7d54a2a8" x="90" y="305.177089" style="stroke: #000000; stroke-width: 0.6"/>
      </g>
     </g>
    </g>
    <g id="ytick_8">
     <g id="line2d_25">
      <path d="M 90 288.370184 
L 648 288.370184 
" clip-path="url(#p9fafb2e553)" style="fill: none; stroke-dasharray: 1.85,0.8; stroke-dashoffset: 0; stroke: #b0b0b0; stroke-width: 0.5"/>
     </g>
     <g id="line2d_26">
      <g>
       <use xlink:href="#m0e7d54a2a8" x="90" y="288.370184" style="stroke: #000000; stroke-width: 0.6"/>
      </g>
     </g>
    </g>
    <g id="ytick_9">
     <g id="line2d_27">
      <path d="M 90 275.333735 
L 648 275.333735 
" clip-path="url(#p9fafb2e553)" style="fill: none; stroke-dasharray: 1.85,0.8; stroke-dashoffset: 0; stroke: #b0b0b0; stroke-width: 0.5"/>
     </g>
     <g id="line2d_28">
      <g>
       <use xlink:href="#m0e7d54a2a8" x="90" y="275.333735" style="stroke: #000000; stroke-width: 0.6"/>
      </g>
     </g>
    </g>
    <g id="ytick_10">
     <g id="line2d_29">
      <path d="M 90 264.682181 
L 648 264.682181 
" clip-path="url(#p9fafb2e553)" style="fill: none; stroke-dasharray: 1.85,0.8; stroke-dashoffset: 0; stroke: #b0b0b0; stroke-width: 0.5"/>
     </g>
     <g id="line2d_30">
      <g>
       <use xlink:href="#m0e7d54a2a8" x="90" y="264.682181" style="stroke: #000000; stroke-width: 0.6"/>
      </g>
     </g>
    </g>
    <g id="ytick_11">
     <g id="line2d_31">
      <path d="M 90 255.676421 
L 648 255.676421 
" clip-path="url(#p9fafb2e553)" style="fill: none; stroke-dasharray: 1.85,0.8; stroke-dashoffset: 0; stroke: #b0b0b0; stroke-width: 0.5"/>
     </g>
     <g id="line2d_32">
      <g>
       <use xlink:href="#m0e7d54a2a8" x="90" y="255.676421" style="stroke: #000000; stroke-width: 0.6"/>
      </g>
     </g>
    </g>
    <g id="ytick_12">
     <g id="line2d_33">
      <path d="M 90 247.875276 
L 648 247.875276 
" clip-path="url(#p9fafb2e553)" style="fill: none; stroke-dasharray: 1.85,0.8; stroke-dashoffset: 0; stroke: #b0b0b0; stroke-width: 0.5"/>
     </g>
     <g id="line2d_34">
      <g>
       <use xlink:href="#m0e7d54a2a8" x="90" y="247.875276" style="stroke: #000000; stroke-width: 0.6"/>
      </g>
     </g>
    </g>
    <g id="ytick_13">
     <g id="line2d_35">
      <path d="M 90 240.994179 
L 648 240.994179 
" clip-path="url(#p9fafb2e553)" style="fill: none; stroke-dasharray: 1.85,0.8; stroke-dashoffset: 0; stroke: #b0b0b0; stroke-width: 0.5"/>
     </g>
     <g id="line2d_36">
      <g>
       <use xlink:href="#m0e7d54a2a8" x="90" y="240.994179" style="stroke: #000000; stroke-width: 0.6"/>
      </g>
     </g>
    </g>
    <g id="ytick_14">
     <g id="line2d_37">
      <path d="M 90 194.343919 
L 648 194.343919 
" clip-path="url(#p9fafb2e553)" style="fill: none; stroke-dasharray: 1.85,0.8; stroke-dashoffset: 0; stroke: #b0b0b0; stroke-width: 0.5"/>
     </g>
     <g id="line2d_38">
      <g>
       <use xlink:href="#m0e7d54a2a8" x="90" y="194.343919" style="stroke: #000000; stroke-width: 0.6"/>
      </g>
     </g>
    </g>
    <g id="ytick_15">
     <g id="line2d_39">
      <path d="M 90 170.655917 
L 648 170.655917 
" clip-path="url(#p9fafb2e553)" style="fill: none; stroke-dasharray: 1.85,0.8; stroke-dashoffset: 0; stroke: #b0b0b0; stroke-width: 0.5"/>
     </g>
     <g id="line2d_40">
      <g>
       <use xlink:href="#m0e7d54a2a8" x="90" y="170.655917" style="stroke: #000000; stroke-width: 0.6"/>
      </g>
     </g>
    </g>
    <g id="ytick_16">
     <g id="line2d_41">
      <path d="M 90 153.849011 
L 648 153.849011 
" clip-path="url(#p9fafb2e553)" style="fill: none; stroke-dasharray: 1.85,0.8; stroke-dashoffset: 0; stroke: #b0b0b0; stroke-width: 0.5"/>
     </g>
     <g id="line2d_42">
      <g>
       <use xlink:href="#m0e7d54a2a8" x="90" y="153.849011" style="stroke: #000000; stroke-width: 0.6"/>
      </g>
     </g>
    </g>
    <g id="ytick_17">
     <g id="line2d_43">
      <path d="M 90 140.812563 
L 648 140.812563 
" clip-path="url(#p9fafb2e553)" style="fill: none; stroke-dasharray: 1.85,0.8; stroke-dashoffset: 0; stroke: #b0b0b0; stroke-width: 0.5"/>
     </g>
     <g id="line2d_44">
      <g>
       <use xlink:href="#m0e7d54a2a8" x="90" y="140.812563" style="stroke: #000000; stroke-width: 0.6"/>
      </g>
     </g>
    </g>
    <g id="ytick_18">
     <g id="line2d_45">
      <path d="M 90 130.161009 
L 648 130.161009 
" clip-path="url(#p9fafb2e553)" style="fill: none; stroke-dasharray: 1.85,0.8; stroke-dashoffset: 0; stroke: #b0b0b0; stroke-width: 0.5"/>
     </g>
     <g id="line2d_46">
      <g>
       <use xlink:href="#m0e7d54a2a8" x="90" y="130.161009" style="stroke: #000000; stroke-width: 0.6"/>
      </g>
     </g>
    </g>
    <g id="ytick_19">
     <g id="line2d_47">
      <path d="M 90 121.155248 
L 648 121.155248 
" clip-path="url(#p9fafb2e553)" style="fill: none; stroke-dasharray: 1.85,0.8; stroke-dashoffset: 0; stroke: #b0b0b0; stroke-width: 0.5"/>
     </g>
     <g id="line2d_48">
      <g>
       <use xlink:href="#m0e7d54a2a8" x="90" y="121.155248" style="stroke: #000000; stroke-width: 0.6"/>
      </g>
     </g>
    </g>
    <g id="ytick_20">
     <g id="line2d_49">
      <path d="M 90 113.354103 
L 648 113.354103 
" clip-path="url(#p9fafb2e553)" style="fill: none; stroke-dasharray: 1.85,0.8; stroke-dashoffset: 0; stroke: #b0b0b0; stroke-width: 0.5"/>
     </g>
     <g id="line2d_50">
      <g>
       <use xlink:href="#m0e7d54a2a8" x="90" y="113.354103" style="stroke: #000000; stroke-width: 0.6"/>
      </g>
     </g>
    </g>
    <g id="ytick_21">
     <g id="line2d_51">
      <path d="M 90 106.473006 
L 648 106.473006 
" clip-path="url(#p9fafb2e553)" style="fill: none; stroke-dasharray: 1.85,0.8; stroke-dashoffset: 0; stroke: #b0b0b0; stroke-width: 0.5"/>
     </g>
     <g id="line2d_52">
      <g>
       <use xlink:href="#m0e7d54a2a8" x="90" y="106.473006" style="stroke: #000000; stroke-width: 0.6"/>
      </g>
     </g>
    </g>
    <g id="ytick_22">
     <g id="line2d_53">
      <path d="M 90 59.822747 
L 648 59.822747 
" clip-path="url(#p9fafb2e553)" style="fill: none; stroke-dasharray: 1.85,0.8; stroke-dashoffset: 0; stroke: #b0b0b0; stroke-width: 0.5"/>
     </g>
     <g id="line2d_54">
      <g>
       <use xlink:href="#m0e7d54a2a8" x="90" y="59.822747" style="stroke: #000000; stroke-width: 0.6"/>
      </g>
     </g>
    </g>
    <g id="text_10">
     <!-- Freqüències base de dades -->
     <g style="fill: #0000ff" transform="translate(59.320312 286.131875) rotate(-90) scale(0.1 -0.1)">
      <defs>
       <path id="DejaVuSans-46" d="M 628 4666 
L 3309 4666 
L 3309 4134 
L 1259 4134 
L 1259 2759 
L 3109 2759 
L 3109 2228 
L 1259 2228 
L 1259 0 
L 628 0 
L 628 4666 
z
" transform="scale(0.015625)"/>
       <path id="DejaVuSans-65" d="M 3597 1894 
L 3597 1613 
L 953 1613 
Q 991 1019 1311 708 
Q 1631 397 2203 397 
Q 2534 397 2845 478 
Q 3156 559 3463 722 
L 3463 178 
Q 3153 47 2828 -22 
Q 2503 -91 2169 -91 
Q 1331 -91 842 396 
Q 353 884 353 1716 
Q 353 2575 817 3079 
Q 1281 3584 2069 3584 
Q 2775 3584 3186 3129 
Q 3597 2675 3597 1894 
z
M 3022 2063 
Q 3016 2534 2758 2815 
Q 2500 3097 2075 3097 
Q 1594 3097 1305 2825 
Q 1016 2553 972 2059 
L 3022 2063 
z
" transform="scale(0.015625)"/>
       <path id="DejaVuSans-71" d="M 947 1747 
Q 947 1113 1208 752 
Q 1469 391 1925 391 
Q 2381 391 2643 752 
Q 2906 1113 2906 1747 
Q 2906 2381 2643 2742 
Q 2381 3103 1925 3103 
Q 1469 3103 1208 2742 
Q 947 2381 947 1747 
z
M 2906 525 
Q 2725 213 2448 61 
Q 2172 -91 1784 -91 
Q 1150 -91 751 415 
Q 353 922 353 1747 
Q 353 2572 751 3078 
Q 1150 3584 1784 3584 
Q 2172 3584 2448 3432 
Q 2725 3281 2906 2969 
L 2906 3500 
L 3481 3500 
L 3481 -1331 
L 2906 -1331 
L 2906 525 
z
" transform="scale(0.015625)"/>
       <path id="DejaVuSans-fc" d="M 544 1381 
L 544 3500 
L 1119 3500 
L 1119 1403 
Q 1119 906 1312 657 
Q 1506 409 1894 409 
Q 2359 409 2629 706 
Q 2900 1003 2900 1516 
L 2900 3500 
L 3475 3500 
L 3475 0 
L 2900 0 
L 2900 538 
Q 2691 219 2414 64 
Q 2138 -91 1772 -91 
Q 1169 -91 856 284 
Q 544 659 544 1381 
z
M 1991 3584 
L 1991 3584 
z
M 2278 4850 
L 2912 4850 
L 2912 4219 
L 2278 4219 
L 2278 4850 
z
M 1056 4850 
L 1690 4850 
L 1690 4219 
L 1056 4219 
L 1056 4850 
z
" transform="scale(0.015625)"/>
       <path id="DejaVuSans-e8" d="M 3597 1894 
L 3597 1613 
L 953 1613 
Q 991 1019 1311 708 
Q 1631 397 2203 397 
Q 2534 397 2845 478 
Q 3156 559 3463 722 
L 3463 178 
Q 3153 47 2828 -22 
Q 2503 -91 2169 -91 
Q 1331 -91 842 396 
Q 353 884 353 1716 
Q 353 2575 817 3079 
Q 1281 3584 2069 3584 
Q 2775 3584 3186 3129 
Q 3597 2675 3597 1894 
z
M 3022 2063 
Q 3016 2534 2758 2815 
Q 2500 3097 2075 3097 
Q 1594 3097 1305 2825 
Q 1016 2553 972 2059 
L 3022 2063 
z
M 1579 5119 
L 2460 3950 
L 1982 3950 
L 963 5119 
L 1579 5119 
z
" transform="scale(0.015625)"/>
       <path id="DejaVuSans-73" d="M 2834 3397 
L 2834 2853 
Q 2591 2978 2328 3040 
Q 2066 3103 1784 3103 
Q 1356 3103 1142 2972 
Q 928 2841 928 2578 
Q 928 2378 1081 2264 
Q 1234 2150 1697 2047 
L 1894 2003 
Q 2506 1872 2764 1633 
Q 3022 1394 3022 966 
Q 3022 478 2636 193 
Q 2250 -91 1575 -91 
Q 1294 -91 989 -36 
Q 684 19 347 128 
L 347 722 
Q 666 556 975 473 
Q 1284 391 1588 391 
Q 1994 391 2212 530 
Q 2431 669 2431 922 
Q 2431 1156 2273 1281 
Q 2116 1406 1581 1522 
L 1381 1569 
Q 847 1681 609 1914 
Q 372 2147 372 2553 
Q 372 3047 722 3315 
Q 1072 3584 1716 3584 
Q 2034 3584 2315 3537 
Q 2597 3491 2834 3397 
z
" transform="scale(0.015625)"/>
       <path id="DejaVuSans-20" transform="scale(0.015625)"/>
       <path id="DejaVuSans-62" d="M 3116 1747 
Q 3116 2381 2855 2742 
Q 2594 3103 2138 3103 
Q 1681 3103 1420 2742 
Q 1159 2381 1159 1747 
Q 1159 1113 1420 752 
Q 1681 391 2138 391 
Q 2594 391 2855 752 
Q 3116 1113 3116 1747 
z
M 1159 2969 
Q 1341 3281 1617 3432 
Q 1894 3584 2278 3584 
Q 2916 3584 3314 3078 
Q 3713 2572 3713 1747 
Q 3713 922 3314 415 
Q 2916 -91 2278 -91 
Q 1894 -91 1617 61 
Q 1341 213 1159 525 
L 1159 0 
L 581 0 
L 581 4863 
L 1159 4863 
L 1159 2969 
z
" transform="scale(0.015625)"/>
       <path id="DejaVuSans-64" d="M 2906 2969 
L 2906 4863 
L 3481 4863 
L 3481 0 
L 2906 0 
L 2906 525 
Q 2725 213 2448 61 
Q 2172 -91 1784 -91 
Q 1150 -91 751 415 
Q 353 922 353 1747 
Q 353 2572 751 3078 
Q 1150 3584 1784 3584 
Q 2172 3584 2448 3432 
Q 2725 3281 2906 2969 
z
M 947 1747 
Q 947 1113 1208 752 
Q 1469 391 1925 391 
Q 2381 391 2643 752 
Q 2906 1113 2906 1747 
Q 2906 2381 2643 2742 
Q 2381 3103 1925 3103 
Q 1469 3103 1208 2742 
Q 947 2381 947 1747 
z
" transform="scale(0.015625)"/>
      </defs>
      <use xlink:href="#DejaVuSans-46"/>
      <use xlink:href="#DejaVuSans-72" transform="translate(50.269531 0)"/>
      <use xlink:href="#DejaVuSans-65" transform="translate(89.132812 0)"/>
      <use xlink:href="#DejaVuSans-71" transform="translate(150.65625 0)"/>
      <use xlink:href="#DejaVuSans-fc" transform="translate(214.132812 0)"/>
      <use xlink:href="#DejaVuSans-e8" transform="translate(277.511719 0)"/>
      <use xlink:href="#DejaVuSans-6e" transform="translate(339.035156 0)"/>
      <use xlink:href="#DejaVuSans-63" transform="translate(402.414062 0)"/>
      <use xlink:href="#DejaVuSans-69" transform="translate(457.394531 0)"/>
      <use xlink:href="#DejaVuSans-65" transform="translate(485.177734 0)"/>
      <use xlink:href="#DejaVuSans-73" transform="translate(546.701172 0)"/>
      <use xlink:href="#DejaVuSans-20" transform="translate(598.800781 0)"/>
      <use xlink:href="#DejaVuSans-62" transform="translate(630.587891 0)"/>
      <use xlink:href="#DejaVuSans-61" transform="translate(694.064453 0)"/>
      <use xlink:href="#DejaVuSans-73" transform="translate(755.34375 0)"/>
      <use xlink:href="#DejaVuSans-65" transform="translate(807.443359 0)"/>
      <use xlink:href="#DejaVuSans-20" transform="translate(868.966797 0)"/>
      <use xlink:href="#DejaVuSans-64" transform="translate(900.753906 0)"/>
      <use xlink:href="#DejaVuSans-65" transform="translate(964.230469 0)"/>
      <use xlink:href="#DejaVuSans-20" transform="translate(1025.753906 0)"/>
      <use xlink:href="#DejaVuSans-64" transform="translate(1057.541016 0)"/>
      <use xlink:href="#DejaVuSans-61" transform="translate(1121.017578 0)"/>
      <use xlink:href="#DejaVuSans-64" transform="translate(1182.296875 0)"/>
      <use xlink:href="#DejaVuSans-65" transform="translate(1245.773438 0)"/>
      <use xlink:href="#DejaVuSans-73" transform="translate(1307.296875 0)"/>
     </g>
    </g>
   </g>
   <g id="patch_44">
    <path d="M 90 384.48 
L 90 51.84 
" style="fill: none; stroke: #000000; stroke-width: 0.8; stroke-linejoin: miter; stroke-linecap: square"/>
   </g>
   <g id="patch_45">
    <path d="M 648 384.48 
L 648 51.84 
" style="fill: none; stroke: #000000; stroke-width: 0.8; stroke-linejoin: miter; stroke-linecap: square"/>
   </g>
   <g id="patch_46">
    <path d="M 90 384.48 
L 648 384.48 
" style="fill: none; stroke: #000000; stroke-width: 0.8; stroke-linejoin: miter; stroke-linecap: square"/>
   </g>
   <g id="patch_47">
    <path d="M 90 51.84 
L 648 51.84 
" style="fill: none; stroke: #000000; stroke-width: 0.8; stroke-linejoin: miter; stroke-linecap: square"/>
   </g>
  </g>
  <g id="axes_2">
   <g id="patch_48">
    <path d="M 116.600887 634472.910145 
L 126.498891 634472.910145 
L 126.498891 634472.910145 
L 116.600887 634472.910145 
z
" clip-path="url(#p9fafb2e553)" style="fill: #ff0000; opacity: 0.6; stroke: #000000; stroke-linejoin: miter"/>
   </g>
   <g id="patch_49">
    <path d="M 128.973392 634472.910145 
L 138.871397 634472.910145 
L 138.871397 634472.910145 
L 128.973392 634472.910145 
z
" clip-path="url(#p9fafb2e553)" style="fill: #ff0000; opacity: 0.6; stroke: #000000; stroke-linejoin: miter"/>
   </g>
   <g id="patch_50">
    <path d="M 141.345898 634472.910145 
L 151.243902 634472.910145 
L 151.243902 369.36 
L 141.345898 369.36 
z
" clip-path="url(#p9fafb2e553)" style="fill: #ff0000; opacity: 0.6; stroke: #000000; stroke-linejoin: miter"/>
   </g>
   <g id="patch_51">
    <path d="M 153.718404 634472.910145 
L 163.616408 634472.910145 
L 163.616408 634472.910145 
L 153.718404 634472.910145 
z
" clip-path="url(#p9fafb2e553)" style="fill: #ff0000; opacity: 0.6; stroke: #000000; stroke-linejoin: miter"/>
   </g>
   <g id="patch_52">
    <path d="M 166.090909 634472.910145 
L 175.988914 634472.910145 
L 175.988914 634472.910145 
L 166.090909 634472.910145 
z
" clip-path="url(#p9fafb2e553)" style="fill: #ff0000; opacity: 0.6; stroke: #000000; stroke-linejoin: miter"/>
   </g>
   <g id="patch_53">
    <path d="M 178.463415 634472.910145 
L 188.361419 634472.910145 
L 188.361419 634472.910145 
L 178.463415 634472.910145 
z
" clip-path="url(#p9fafb2e553)" style="fill: #ff0000; opacity: 0.6; stroke: #000000; stroke-linejoin: miter"/>
   </g>
   <g id="patch_54">
    <path d="M 190.83592 634472.910145 
L 200.733925 634472.910145 
L 200.733925 634472.910145 
L 190.83592 634472.910145 
z
" clip-path="url(#p9fafb2e553)" style="fill: #ff0000; opacity: 0.6; stroke: #000000; stroke-linejoin: miter"/>
   </g>
   <g id="patch_55">
    <path d="M 203.208426 634472.910145 
L 213.10643 634472.910145 
L 213.10643 369.36 
L 203.208426 369.36 
z
" clip-path="url(#p9fafb2e553)" style="fill: #ff0000; opacity: 0.6; stroke: #000000; stroke-linejoin: miter"/>
   </g>
   <g id="patch_56">
    <path d="M 215.580931 634472.910145 
L 225.478936 634472.910145 
L 225.478936 369.36 
L 215.580931 369.36 
z
" clip-path="url(#p9fafb2e553)" style="fill: #ff0000; opacity: 0.6; stroke: #000000; stroke-linejoin: miter"/>
   </g>
   <g id="patch_57">
    <path d="M 227.953437 634472.910145 
L 237.851441 634472.910145 
L 237.851441 634472.910145 
L 227.953437 634472.910145 
z
" clip-path="url(#p9fafb2e553)" style="fill: #ff0000; opacity: 0.6; stroke: #000000; stroke-linejoin: miter"/>
   </g>
   <g id="patch_58">
    <path d="M 240.325942 634472.910145 
L 250.223947 634472.910145 
L 250.223947 634472.910145 
L 240.325942 634472.910145 
z
" clip-path="url(#p9fafb2e553)" style="fill: #ff0000; opacity: 0.6; stroke: #000000; stroke-linejoin: miter"/>
   </g>
   <g id="patch_59">
    <path d="M 252.698448 634472.910145 
L 262.596452 634472.910145 
L 262.596452 369.36 
L 252.698448 369.36 
z
" clip-path="url(#p9fafb2e553)" style="fill: #ff0000; opacity: 0.6; stroke: #000000; stroke-linejoin: miter"/>
   </g>
   <g id="patch_60">
    <path d="M 265.070953 634472.910145 
L 274.968958 634472.910145 
L 274.968958 634472.910145 
L 265.070953 634472.910145 
z
" clip-path="url(#p9fafb2e553)" style="fill: #ff0000; opacity: 0.6; stroke: #000000; stroke-linejoin: miter"/>
   </g>
   <g id="patch_61">
    <path d="M 277.443459 634472.910145 
L 287.341463 634472.910145 
L 287.341463 634472.910145 
L 277.443459 634472.910145 
z
" clip-path="url(#p9fafb2e553)" style="fill: #ff0000; opacity: 0.6; stroke: #000000; stroke-linejoin: miter"/>
   </g>
   <g id="patch_62">
    <path d="M 289.815965 634472.910145 
L 299.713969 634472.910145 
L 299.713969 634472.910145 
L 289.815965 634472.910145 
z
" clip-path="url(#p9fafb2e553)" style="fill: #ff0000; opacity: 0.6; stroke: #000000; stroke-linejoin: miter"/>
   </g>
   <g id="patch_63">
    <path d="M 302.18847 634472.910145 
L 312.086475 634472.910145 
L 312.086475 634472.910145 
L 302.18847 634472.910145 
z
" clip-path="url(#p9fafb2e553)" style="fill: #ff0000; opacity: 0.6; stroke: #000000; stroke-linejoin: miter"/>
   </g>
   <g id="patch_64">
    <path d="M 314.560976 634472.910145 
L 324.45898 634472.910145 
L 324.45898 634472.910145 
L 314.560976 634472.910145 
z
" clip-path="url(#p9fafb2e553)" style="fill: #ff0000; opacity: 0.6; stroke: #000000; stroke-linejoin: miter"/>
   </g>
   <g id="patch_65">
    <path d="M 326.933481 634472.910145 
L 336.831486 634472.910145 
L 336.831486 634472.910145 
L 326.933481 634472.910145 
z
" clip-path="url(#p9fafb2e553)" style="fill: #ff0000; opacity: 0.6; stroke: #000000; stroke-linejoin: miter"/>
   </g>
   <g id="patch_66">
    <path d="M 339.305987 634472.910145 
L 349.203991 634472.910145 
L 349.203991 634472.910145 
L 339.305987 634472.910145 
z
" clip-path="url(#p9fafb2e553)" style="fill: #ff0000; opacity: 0.6; stroke: #000000; stroke-linejoin: miter"/>
   </g>
   <g id="patch_67">
    <path d="M 351.678492 634472.910145 
L 361.576497 634472.910145 
L 361.576497 634472.910145 
L 351.678492 634472.910145 
z
" clip-path="url(#p9fafb2e553)" style="fill: #ff0000; opacity: 0.6; stroke: #000000; stroke-linejoin: miter"/>
   </g>
   <g id="patch_68">
    <path d="M 364.050998 634472.910145 
L 373.949002 634472.910145 
L 373.949002 66.96 
L 364.050998 66.96 
z
" clip-path="url(#p9fafb2e553)" style="fill: #ff0000; opacity: 0.6; stroke: #000000; stroke-linejoin: miter"/>
   </g>
   <g id="patch_69">
    <path d="M 376.423503 634472.910145 
L 386.321508 634472.910145 
L 386.321508 634472.910145 
L 376.423503 634472.910145 
z
" clip-path="url(#p9fafb2e553)" style="fill: #ff0000; opacity: 0.6; stroke: #000000; stroke-linejoin: miter"/>
   </g>
   <g id="patch_70">
    <path d="M 388.796009 634472.910145 
L 398.694013 634472.910145 
L 398.694013 634472.910145 
L 388.796009 634472.910145 
z
" clip-path="url(#p9fafb2e553)" style="fill: #ff0000; opacity: 0.6; stroke: #000000; stroke-linejoin: miter"/>
   </g>
   <g id="patch_71">
    <path d="M 401.168514 634472.910145 
L 411.066519 634472.910145 
L 411.066519 634472.910145 
L 401.168514 634472.910145 
z
" clip-path="url(#p9fafb2e553)" style="fill: #ff0000; opacity: 0.6; stroke: #000000; stroke-linejoin: miter"/>
   </g>
   <g id="patch_72">
    <path d="M 413.54102 634472.910145 
L 423.439024 634472.910145 
L 423.439024 634472.910145 
L 413.54102 634472.910145 
z
" clip-path="url(#p9fafb2e553)" style="fill: #ff0000; opacity: 0.6; stroke: #000000; stroke-linejoin: miter"/>
   </g>
   <g id="patch_73">
    <path d="M 425.913525 634472.910145 
L 435.81153 634472.910145 
L 435.81153 634472.910145 
L 425.913525 634472.910145 
z
" clip-path="url(#p9fafb2e553)" style="fill: #ff0000; opacity: 0.6; stroke: #000000; stroke-linejoin: miter"/>
   </g>
   <g id="patch_74">
    <path d="M 438.286031 634472.910145 
L 448.184035 634472.910145 
L 448.184035 634472.910145 
L 438.286031 634472.910145 
z
" clip-path="url(#p9fafb2e553)" style="fill: #ff0000; opacity: 0.6; stroke: #000000; stroke-linejoin: miter"/>
   </g>
   <g id="patch_75">
    <path d="M 450.658537 634472.910145 
L 460.556541 634472.910145 
L 460.556541 634472.910145 
L 450.658537 634472.910145 
z
" clip-path="url(#p9fafb2e553)" style="fill: #ff0000; opacity: 0.6; stroke: #000000; stroke-linejoin: miter"/>
   </g>
   <g id="patch_76">
    <path d="M 463.031042 634472.910145 
L 472.929047 634472.910145 
L 472.929047 634472.910145 
L 463.031042 634472.910145 
z
" clip-path="url(#p9fafb2e553)" style="fill: #ff0000; opacity: 0.6; stroke: #000000; stroke-linejoin: miter"/>
   </g>
   <g id="patch_77">
    <path d="M 475.403548 634472.910145 
L 485.301552 634472.910145 
L 485.301552 634472.910145 
L 475.403548 634472.910145 
z
" clip-path="url(#p9fafb2e553)" style="fill: #ff0000; opacity: 0.6; stroke: #000000; stroke-linejoin: miter"/>
   </g>
   <g id="patch_78">
    <path d="M 487.776053 634472.910145 
L 497.674058 634472.910145 
L 497.674058 634472.910145 
L 487.776053 634472.910145 
z
" clip-path="url(#p9fafb2e553)" style="fill: #ff0000; opacity: 0.6; stroke: #000000; stroke-linejoin: miter"/>
   </g>
   <g id="patch_79">
    <path d="M 500.148559 634472.910145 
L 510.046563 634472.910145 
L 510.046563 634472.910145 
L 500.148559 634472.910145 
z
" clip-path="url(#p9fafb2e553)" style="fill: #ff0000; opacity: 0.6; stroke: #000000; stroke-linejoin: miter"/>
   </g>
   <g id="patch_80">
    <path d="M 512.521064 634472.910145 
L 522.419069 634472.910145 
L 522.419069 634472.910145 
L 512.521064 634472.910145 
z
" clip-path="url(#p9fafb2e553)" style="fill: #ff0000; opacity: 0.6; stroke: #000000; stroke-linejoin: miter"/>
   </g>
   <g id="patch_81">
    <path d="M 524.89357 634472.910145 
L 534.791574 634472.910145 
L 534.791574 634472.910145 
L 524.89357 634472.910145 
z
" clip-path="url(#p9fafb2e553)" style="fill: #ff0000; opacity: 0.6; stroke: #000000; stroke-linejoin: miter"/>
   </g>
   <g id="patch_82">
    <path d="M 537.266075 634472.910145 
L 547.16408 634472.910145 
L 547.16408 634472.910145 
L 537.266075 634472.910145 
z
" clip-path="url(#p9fafb2e553)" style="fill: #ff0000; opacity: 0.6; stroke: #000000; stroke-linejoin: miter"/>
   </g>
   <g id="patch_83">
    <path d="M 549.638581 634472.910145 
L 559.536585 634472.910145 
L 559.536585 634472.910145 
L 549.638581 634472.910145 
z
" clip-path="url(#p9fafb2e553)" style="fill: #ff0000; opacity: 0.6; stroke: #000000; stroke-linejoin: miter"/>
   </g>
   <g id="patch_84">
    <path d="M 562.011086 634472.910145 
L 571.909091 634472.910145 
L 571.909091 634472.910145 
L 562.011086 634472.910145 
z
" clip-path="url(#p9fafb2e553)" style="fill: #ff0000; opacity: 0.6; stroke: #000000; stroke-linejoin: miter"/>
   </g>
   <g id="patch_85">
    <path d="M 574.383592 634472.910145 
L 584.281596 634472.910145 
L 584.281596 634472.910145 
L 574.383592 634472.910145 
z
" clip-path="url(#p9fafb2e553)" style="fill: #ff0000; opacity: 0.6; stroke: #000000; stroke-linejoin: miter"/>
   </g>
   <g id="patch_86">
    <path d="M 586.756098 634472.910145 
L 596.654102 634472.910145 
L 596.654102 634472.910145 
L 586.756098 634472.910145 
z
" clip-path="url(#p9fafb2e553)" style="fill: #ff0000; opacity: 0.6; stroke: #000000; stroke-linejoin: miter"/>
   </g>
   <g id="patch_87">
    <path d="M 599.128603 634472.910145 
L 609.026608 634472.910145 
L 609.026608 634472.910145 
L 599.128603 634472.910145 
z
" clip-path="url(#p9fafb2e553)" style="fill: #ff0000; opacity: 0.6; stroke: #000000; stroke-linejoin: miter"/>
   </g>
   <g id="patch_88">
    <path d="M 611.501109 634472.910145 
L 621.399113 634472.910145 
L 621.399113 369.36 
L 611.501109 369.36 
z
" clip-path="url(#p9fafb2e553)" style="fill: #ff0000; opacity: 0.6; stroke: #000000; stroke-linejoin: miter"/>
   </g>
   <g id="matplotlib.axis_3">
    <g id="ytick_23">
     <g id="line2d_55">
      <defs>
       <path id="m16296a6dd5" d="M 0 0 
L 2 0 
" style="stroke: #000000; stroke-width: 0.6"/>
      </defs>
      <g>
       <use xlink:href="#m16296a6dd5" x="648" y="369.36" style="stroke: #000000; stroke-width: 0.6"/>
      </g>
     </g>
     <g id="text_11">
      <!-- $\mathdefault{3\times10^{0}}$ -->
      <g transform="translate(653.4 373.159219) scale(0.1 -0.1)">
       <defs>
        <path id="DejaVuSans-d7" d="M 4488 3438 
L 3059 2003 
L 4488 575 
L 4116 197 
L 2681 1631 
L 1247 197 
L 878 575 
L 2303 2003 
L 878 3438 
L 1247 3816 
L 2681 2381 
L 4116 3816 
L 4488 3438 
z
" transform="scale(0.015625)"/>
       </defs>
       <use xlink:href="#DejaVuSans-33" transform="translate(0 0.765625)"/>
       <use xlink:href="#DejaVuSans-d7" transform="translate(83.105469 0.765625)"/>
       <use xlink:href="#DejaVuSans-31" transform="translate(186.376953 0.765625)"/>
       <use xlink:href="#DejaVuSans-30" transform="translate(250 0.765625)"/>
       <use xlink:href="#DejaVuSans-30" transform="translate(314.580078 39.046875) scale(0.7)"/>
      </g>
     </g>
    </g>
    <g id="ytick_24">
     <g id="line2d_56">
      <g>
       <use xlink:href="#m16296a6dd5" x="648" y="290.173685" style="stroke: #000000; stroke-width: 0.6"/>
      </g>
     </g>
     <g id="text_12">
      <!-- $\mathdefault{4\times10^{0}}$ -->
      <g transform="translate(653.4 293.972904) scale(0.1 -0.1)">
       <use xlink:href="#DejaVuSans-34" transform="translate(0 0.765625)"/>
       <use xlink:href="#DejaVuSans-d7" transform="translate(83.105469 0.765625)"/>
       <use xlink:href="#DejaVuSans-31" transform="translate(186.376953 0.765625)"/>
       <use xlink:href="#DejaVuSans-30" transform="translate(250 0.765625)"/>
       <use xlink:href="#DejaVuSans-30" transform="translate(314.580078 39.046875) scale(0.7)"/>
      </g>
     </g>
    </g>
    <g id="ytick_25">
     <g id="line2d_57">
      <g>
       <use xlink:href="#m16296a6dd5" x="648" y="228.752007" style="stroke: #000000; stroke-width: 0.6"/>
      </g>
     </g>
    </g>
    <g id="ytick_26">
     <g id="line2d_58">
      <g>
       <use xlink:href="#m16296a6dd5" x="648" y="178.566843" style="stroke: #000000; stroke-width: 0.6"/>
      </g>
     </g>
     <g id="text_13">
      <!-- $\mathdefault{6\times10^{0}}$ -->
      <g transform="translate(653.4 182.366061) scale(0.1 -0.1)">
       <defs>
        <path id="DejaVuSans-36" d="M 2113 2584 
Q 1688 2584 1439 2293 
Q 1191 2003 1191 1497 
Q 1191 994 1439 701 
Q 1688 409 2113 409 
Q 2538 409 2786 701 
Q 3034 994 3034 1497 
Q 3034 2003 2786 2293 
Q 2538 2584 2113 2584 
z
M 3366 4563 
L 3366 3988 
Q 3128 4100 2886 4159 
Q 2644 4219 2406 4219 
Q 1781 4219 1451 3797 
Q 1122 3375 1075 2522 
Q 1259 2794 1537 2939 
Q 1816 3084 2150 3084 
Q 2853 3084 3261 2657 
Q 3669 2231 3669 1497 
Q 3669 778 3244 343 
Q 2819 -91 2113 -91 
Q 1303 -91 875 529 
Q 447 1150 447 2328 
Q 447 3434 972 4092 
Q 1497 4750 2381 4750 
Q 2619 4750 2861 4703 
Q 3103 4656 3366 4563 
z
" transform="scale(0.015625)"/>
       </defs>
       <use xlink:href="#DejaVuSans-36" transform="translate(0 0.765625)"/>
       <use xlink:href="#DejaVuSans-d7" transform="translate(83.105469 0.765625)"/>
       <use xlink:href="#DejaVuSans-31" transform="translate(186.376953 0.765625)"/>
       <use xlink:href="#DejaVuSans-30" transform="translate(250 0.765625)"/>
       <use xlink:href="#DejaVuSans-30" transform="translate(314.580078 39.046875) scale(0.7)"/>
      </g>
     </g>
    </g>
    <g id="ytick_27">
     <g id="line2d_59">
      <g>
       <use xlink:href="#m16296a6dd5" x="648" y="136.13589" style="stroke: #000000; stroke-width: 0.6"/>
      </g>
     </g>
    </g>
    <g id="ytick_28">
     <g id="line2d_60">
      <g>
       <use xlink:href="#m16296a6dd5" x="648" y="99.380528" style="stroke: #000000; stroke-width: 0.6"/>
      </g>
     </g>
    </g>
    <g id="ytick_29">
     <g id="line2d_61">
      <g>
       <use xlink:href="#m16296a6dd5" x="648" y="66.96" style="stroke: #000000; stroke-width: 0.6"/>
      </g>
     </g>
    </g>
    <g id="text_14">
     <!-- Freqüències molècula analitzada -->
     <g style="fill: #ff0000" transform="translate(701.598438 300.006875) rotate(-90) scale(0.1 -0.1)">
      <defs>
       <path id="DejaVuSans-6c" d="M 603 4863 
L 1178 4863 
L 1178 0 
L 603 0 
L 603 4863 
z
" transform="scale(0.015625)"/>
       <path id="DejaVuSans-75" d="M 544 1381 
L 544 3500 
L 1119 3500 
L 1119 1403 
Q 1119 906 1312 657 
Q 1506 409 1894 409 
Q 2359 409 2629 706 
Q 2900 1003 2900 1516 
L 2900 3500 
L 3475 3500 
L 3475 0 
L 2900 0 
L 2900 538 
Q 2691 219 2414 64 
Q 2138 -91 1772 -91 
Q 1169 -91 856 284 
Q 544 659 544 1381 
z
M 1991 3584 
L 1991 3584 
z
" transform="scale(0.015625)"/>
       <path id="DejaVuSans-74" d="M 1172 4494 
L 1172 3500 
L 2356 3500 
L 2356 3053 
L 1172 3053 
L 1172 1153 
Q 1172 725 1289 603 
Q 1406 481 1766 481 
L 2356 481 
L 2356 0 
L 1766 0 
Q 1100 0 847 248 
Q 594 497 594 1153 
L 594 3053 
L 172 3053 
L 172 3500 
L 594 3500 
L 594 4494 
L 1172 4494 
z
" transform="scale(0.015625)"/>
       <path id="DejaVuSans-7a" d="M 353 3500 
L 3084 3500 
L 3084 2975 
L 922 459 
L 3084 459 
L 3084 0 
L 275 0 
L 275 525 
L 2438 3041 
L 353 3041 
L 353 3500 
z
" transform="scale(0.015625)"/>
      </defs>
      <use xlink:href="#DejaVuSans-46"/>
      <use xlink:href="#DejaVuSans-72" transform="translate(50.269531 0)"/>
      <use xlink:href="#DejaVuSans-65" transform="translate(89.132812 0)"/>
      <use xlink:href="#DejaVuSans-71" transform="translate(150.65625 0)"/>
      <use xlink:href="#DejaVuSans-fc" transform="translate(214.132812 0)"/>
      <use xlink:href="#DejaVuSans-e8" transform="translate(277.511719 0)"/>
      <use xlink:href="#DejaVuSans-6e" transform="translate(339.035156 0)"/>
      <use xlink:href="#DejaVuSans-63" transform="translate(402.414062 0)"/>
      <use xlink:href="#DejaVuSans-69" transform="translate(457.394531 0)"/>
      <use xlink:href="#DejaVuSans-65" transform="translate(485.177734 0)"/>
      <use xlink:href="#DejaVuSans-73" transform="translate(546.701172 0)"/>
      <use xlink:href="#DejaVuSans-20" transform="translate(598.800781 0)"/>
      <use xlink:href="#DejaVuSans-6d" transform="translate(630.587891 0)"/>
      <use xlink:href="#DejaVuSans-6f" transform="translate(728 0)"/>
      <use xlink:href="#DejaVuSans-6c" transform="translate(789.181641 0)"/>
      <use xlink:href="#DejaVuSans-e8" transform="translate(816.964844 0)"/>
      <use xlink:href="#DejaVuSans-63" transform="translate(878.488281 0)"/>
      <use xlink:href="#DejaVuSans-75" transform="translate(933.46875 0)"/>
      <use xlink:href="#DejaVuSans-6c" transform="translate(996.847656 0)"/>
      <use xlink:href="#DejaVuSans-61" transform="translate(1024.630859 0)"/>
      <use xlink:href="#DejaVuSans-20" transform="translate(1085.910156 0)"/>
      <use xlink:href="#DejaVuSans-61" transform="translate(1117.697266 0)"/>
      <use xlink:href="#DejaVuSans-6e" transform="translate(1178.976562 0)"/>
      <use xlink:href="#DejaVuSans-61" transform="translate(1242.355469 0)"/>
      <use xlink:href="#DejaVuSans-6c" transform="translate(1303.634766 0)"/>
      <use xlink:href="#DejaVuSans-69" transform="translate(1331.417969 0)"/>
      <use xlink:href="#DejaVuSans-74" transform="translate(1359.201172 0)"/>
      <use xlink:href="#DejaVuSans-7a" transform="translate(1398.410156 0)"/>
      <use xlink:href="#DejaVuSans-61" transform="translate(1450.900391 0)"/>
      <use xlink:href="#DejaVuSans-64" transform="translate(1512.179688 0)"/>
      <use xlink:href="#DejaVuSans-61" transform="translate(1575.65625 0)"/>
     </g>
    </g>
   </g>
   <g id="patch_89">
    <path d="M 90 384.48 
L 90 51.84 
" style="fill: none; stroke: #000000; stroke-width: 0.8; stroke-linejoin: miter; stroke-linecap: square"/>
   </g>
   <g id="patch_90">
    <path d="M 648 384.48 
L 648 51.84 
" style="fill: none; stroke: #000000; stroke-width: 0.8; stroke-linejoin: miter; stroke-linecap: square"/>
   </g>
   <g id="patch_91">
    <path d="M 90 384.48 
L 648 384.48 
" style="fill: none; stroke: #000000; stroke-width: 0.8; stroke-linejoin: miter; stroke-linecap: square"/>
   </g>
   <g id="patch_92">
    <path d="M 90 51.84 
L 648 51.84 
" style="fill: none; stroke: #000000; stroke-width: 0.8; stroke-linejoin: miter; stroke-linecap: square"/>
   </g>
   <g id="text_15">
    <!-- Overlapping Histograms with Different Scales -->
    <g transform="translate(232.069688 45.84) scale(0.12 -0.12)">
     <defs>
      <path id="DejaVuSans-4f" d="M 2522 4238 
Q 1834 4238 1429 3725 
Q 1025 3213 1025 2328 
Q 1025 1447 1429 934 
Q 1834 422 2522 422 
Q 3209 422 3611 934 
Q 4013 1447 4013 2328 
Q 4013 3213 3611 3725 
Q 3209 4238 2522 4238 
z
M 2522 4750 
Q 3503 4750 4090 4092 
Q 4678 3434 4678 2328 
Q 4678 1225 4090 567 
Q 3503 -91 2522 -91 
Q 1538 -91 948 565 
Q 359 1222 359 2328 
Q 359 3434 948 4092 
Q 1538 4750 2522 4750 
z
" transform="scale(0.015625)"/>
      <path id="DejaVuSans-76" d="M 191 3500 
L 800 3500 
L 1894 563 
L 2988 3500 
L 3597 3500 
L 2284 0 
L 1503 0 
L 191 3500 
z
" transform="scale(0.015625)"/>
      <path id="DejaVuSans-70" d="M 1159 525 
L 1159 -1331 
L 581 -1331 
L 581 3500 
L 1159 3500 
L 1159 2969 
Q 1341 3281 1617 3432 
Q 1894 3584 2278 3584 
Q 2916 3584 3314 3078 
Q 3713 2572 3713 1747 
Q 3713 922 3314 415 
Q 2916 -91 2278 -91 
Q 1894 -91 1617 61 
Q 1341 213 1159 525 
z
M 3116 1747 
Q 3116 2381 2855 2742 
Q 2594 3103 2138 3103 
Q 1681 3103 1420 2742 
Q 1159 2381 1159 1747 
Q 1159 1113 1420 752 
Q 1681 391 2138 391 
Q 2594 391 2855 752 
Q 3116 1113 3116 1747 
z
" transform="scale(0.015625)"/>
      <path id="DejaVuSans-67" d="M 2906 1791 
Q 2906 2416 2648 2759 
Q 2391 3103 1925 3103 
Q 1463 3103 1205 2759 
Q 947 2416 947 1791 
Q 947 1169 1205 825 
Q 1463 481 1925 481 
Q 2391 481 2648 825 
Q 2906 1169 2906 1791 
z
M 3481 434 
Q 3481 -459 3084 -895 
Q 2688 -1331 1869 -1331 
Q 1566 -1331 1297 -1286 
Q 1028 -1241 775 -1147 
L 775 -588 
Q 1028 -725 1275 -790 
Q 1522 -856 1778 -856 
Q 2344 -856 2625 -561 
Q 2906 -266 2906 331 
L 2906 616 
Q 2728 306 2450 153 
Q 2172 0 1784 0 
Q 1141 0 747 490 
Q 353 981 353 1791 
Q 353 2603 747 3093 
Q 1141 3584 1784 3584 
Q 2172 3584 2450 3431 
Q 2728 3278 2906 2969 
L 2906 3500 
L 3481 3500 
L 3481 434 
z
" transform="scale(0.015625)"/>
      <path id="DejaVuSans-48" d="M 628 4666 
L 1259 4666 
L 1259 2753 
L 3553 2753 
L 3553 4666 
L 4184 4666 
L 4184 0 
L 3553 0 
L 3553 2222 
L 1259 2222 
L 1259 0 
L 628 0 
L 628 4666 
z
" transform="scale(0.015625)"/>
      <path id="DejaVuSans-77" d="M 269 3500 
L 844 3500 
L 1563 769 
L 2278 3500 
L 2956 3500 
L 3675 769 
L 4391 3500 
L 4966 3500 
L 4050 0 
L 3372 0 
L 2619 2869 
L 1863 0 
L 1184 0 
L 269 3500 
z
" transform="scale(0.015625)"/>
      <path id="DejaVuSans-68" d="M 3513 2113 
L 3513 0 
L 2938 0 
L 2938 2094 
Q 2938 2591 2744 2837 
Q 2550 3084 2163 3084 
Q 1697 3084 1428 2787 
Q 1159 2491 1159 1978 
L 1159 0 
L 581 0 
L 581 4863 
L 1159 4863 
L 1159 2956 
Q 1366 3272 1645 3428 
Q 1925 3584 2291 3584 
Q 2894 3584 3203 3211 
Q 3513 2838 3513 2113 
z
" transform="scale(0.015625)"/>
      <path id="DejaVuSans-44" d="M 1259 4147 
L 1259 519 
L 2022 519 
Q 2988 519 3436 956 
Q 3884 1394 3884 2338 
Q 3884 3275 3436 3711 
Q 2988 4147 2022 4147 
L 1259 4147 
z
M 628 4666 
L 1925 4666 
Q 3281 4666 3915 4102 
Q 4550 3538 4550 2338 
Q 4550 1131 3912 565 
Q 3275 0 1925 0 
L 628 0 
L 628 4666 
z
" transform="scale(0.015625)"/>
      <path id="DejaVuSans-53" d="M 3425 4513 
L 3425 3897 
Q 3066 4069 2747 4153 
Q 2428 4238 2131 4238 
Q 1616 4238 1336 4038 
Q 1056 3838 1056 3469 
Q 1056 3159 1242 3001 
Q 1428 2844 1947 2747 
L 2328 2669 
Q 3034 2534 3370 2195 
Q 3706 1856 3706 1288 
Q 3706 609 3251 259 
Q 2797 -91 1919 -91 
Q 1588 -91 1214 -16 
Q 841 59 441 206 
L 441 856 
Q 825 641 1194 531 
Q 1563 422 1919 422 
Q 2459 422 2753 634 
Q 3047 847 3047 1241 
Q 3047 1584 2836 1778 
Q 2625 1972 2144 2069 
L 1759 2144 
Q 1053 2284 737 2584 
Q 422 2884 422 3419 
Q 422 4038 858 4394 
Q 1294 4750 2059 4750 
Q 2388 4750 2728 4690 
Q 3069 4631 3425 4513 
z
" transform="scale(0.015625)"/>
     </defs>
     <use xlink:href="#DejaVuSans-4f"/>
     <use xlink:href="#DejaVuSans-76" transform="translate(78.710938 0)"/>
     <use xlink:href="#DejaVuSans-65" transform="translate(137.890625 0)"/>
     <use xlink:href="#DejaVuSans-72" transform="translate(199.414062 0)"/>
     <use xlink:href="#DejaVuSans-6c" transform="translate(240.527344 0)"/>
     <use xlink:href="#DejaVuSans-61" transform="translate(268.310547 0)"/>
     <use xlink:href="#DejaVuSans-70" transform="translate(329.589844 0)"/>
     <use xlink:href="#DejaVuSans-70" transform="translate(393.066406 0)"/>
     <use xlink:href="#DejaVuSans-69" transform="translate(456.542969 0)"/>
     <use xlink:href="#DejaVuSans-6e" transform="translate(484.326172 0)"/>
     <use xlink:href="#DejaVuSans-67" transform="translate(547.705078 0)"/>
     <use xlink:href="#DejaVuSans-20" transform="translate(611.181641 0)"/>
     <use xlink:href="#DejaVuSans-48" transform="translate(642.96875 0)"/>
     <use xlink:href="#DejaVuSans-69" transform="translate(718.164062 0)"/>
     <use xlink:href="#DejaVuSans-73" transform="translate(745.947266 0)"/>
     <use xlink:href="#DejaVuSans-74" transform="translate(798.046875 0)"/>
     <use xlink:href="#DejaVuSans-6f" transform="translate(837.255859 0)"/>
     <use xlink:href="#DejaVuSans-67" transform="translate(898.4375 0)"/>
     <use xlink:href="#DejaVuSans-72" transform="translate(961.914062 0)"/>
     <use xlink:href="#DejaVuSans-61" transform="translate(1003.027344 0)"/>
     <use xlink:href="#DejaVuSans-6d" transform="translate(1064.306641 0)"/>
     <use xlink:href="#DejaVuSans-73" transform="translate(1161.71875 0)"/>
     <use xlink:href="#DejaVuSans-20" transform="translate(1213.818359 0)"/>
     <use xlink:href="#DejaVuSans-77" transform="translate(1245.605469 0)"/>
     <use xlink:href="#DejaVuSans-69" transform="translate(1327.392578 0)"/>
     <use xlink:href="#DejaVuSans-74" transform="translate(1355.175781 0)"/>
     <use xlink:href="#DejaVuSans-68" transform="translate(1394.384766 0)"/>
     <use xlink:href="#DejaVuSans-20" transform="translate(1457.763672 0)"/>
     <use xlink:href="#DejaVuSans-44" transform="translate(1489.550781 0)"/>
     <use xlink:href="#DejaVuSans-69" transform="translate(1566.552734 0)"/>
     <use xlink:href="#DejaVuSans-66" transform="translate(1594.335938 0)"/>
     <use xlink:href="#DejaVuSans-66" transform="translate(1629.541016 0)"/>
     <use xlink:href="#DejaVuSans-65" transform="translate(1664.746094 0)"/>
     <use xlink:href="#DejaVuSans-72" transform="translate(1726.269531 0)"/>
     <use xlink:href="#DejaVuSans-65" transform="translate(1765.132812 0)"/>
     <use xlink:href="#DejaVuSans-6e" transform="translate(1826.65625 0)"/>
     <use xlink:href="#DejaVuSans-74" transform="translate(1890.035156 0)"/>
     <use xlink:href="#DejaVuSans-20" transform="translate(1929.244141 0)"/>
     <use xlink:href="#DejaVuSans-53" transform="translate(1961.03125 0)"/>
     <use xlink:href="#DejaVuSans-63" transform="translate(2024.507812 0)"/>
     <use xlink:href="#DejaVuSans-61" transform="translate(2079.488281 0)"/>
     <use xlink:href="#DejaVuSans-6c" transform="translate(2140.767578 0)"/>
     <use xlink:href="#DejaVuSans-65" transform="translate(2168.550781 0)"/>
     <use xlink:href="#DejaVuSans-73" transform="translate(2230.074219 0)"/>
    </g>
   </g>
  </g>
  <g id="legend_1">
   <g id="patch_93">
    <path d="M 445.30625 89.99625 
L 641 89.99625 
Q 643 89.99625 643 87.99625 
L 643 58.84 
Q 643 56.84 641 56.84 
L 445.30625 56.84 
Q 443.30625 56.84 443.30625 58.84 
L 443.30625 87.99625 
Q 443.30625 89.99625 445.30625 89.99625 
z
" style="fill: #ffffff; opacity: 0.8; stroke: #cccccc; stroke-linejoin: miter"/>
   </g>
   <g id="patch_94">
    <path d="M 447.30625 68.838437 
L 467.30625 68.838437 
L 467.30625 61.838437 
L 447.30625 61.838437 
z
" style="fill: #0000ff; stroke: #000000; stroke-linejoin: miter"/>
   </g>
   <g id="text_16">
    <!-- Freqüències base de dades -->
    <g transform="translate(475.30625 68.838437) scale(0.1 -0.1)">
     <use xlink:href="#DejaVuSans-46"/>
     <use xlink:href="#DejaVuSans-72" transform="translate(50.269531 0)"/>
     <use xlink:href="#DejaVuSans-65" transform="translate(89.132812 0)"/>
     <use xlink:href="#DejaVuSans-71" transform="translate(150.65625 0)"/>
     <use xlink:href="#DejaVuSans-fc" transform="translate(214.132812 0)"/>
     <use xlink:href="#DejaVuSans-e8" transform="translate(277.511719 0)"/>
     <use xlink:href="#DejaVuSans-6e" transform="translate(339.035156 0)"/>
     <use xlink:href="#DejaVuSans-63" transform="translate(402.414062 0)"/>
     <use xlink:href="#DejaVuSans-69" transform="translate(457.394531 0)"/>
     <use xlink:href="#DejaVuSans-65" transform="translate(485.177734 0)"/>
     <use xlink:href="#DejaVuSans-73" transform="translate(546.701172 0)"/>
     <use xlink:href="#DejaVuSans-20" transform="translate(598.800781 0)"/>
     <use xlink:href="#DejaVuSans-62" transform="translate(630.587891 0)"/>
     <use xlink:href="#DejaVuSans-61" transform="translate(694.064453 0)"/>
     <use xlink:href="#DejaVuSans-73" transform="translate(755.34375 0)"/>
     <use xlink:href="#DejaVuSans-65" transform="translate(807.443359 0)"/>
     <use xlink:href="#DejaVuSans-20" transform="translate(868.966797 0)"/>
     <use xlink:href="#DejaVuSans-64" transform="translate(900.753906 0)"/>
     <use xlink:href="#DejaVuSans-65" transform="translate(964.230469 0)"/>
     <use xlink:href="#DejaVuSans-20" transform="translate(1025.753906 0)"/>
     <use xlink:href="#DejaVuSans-64" transform="translate(1057.541016 0)"/>
     <use xlink:href="#DejaVuSans-61" transform="translate(1121.017578 0)"/>
     <use xlink:href="#DejaVuSans-64" transform="translate(1182.296875 0)"/>
     <use xlink:href="#DejaVuSans-65" transform="translate(1245.773438 0)"/>
     <use xlink:href="#DejaVuSans-73" transform="translate(1307.296875 0)"/>
    </g>
   </g>
   <g id="patch_95">
    <path d="M 447.30625 83.916562 
L 467.30625 83.916562 
L 467.30625 76.916562 
L 447.30625 76.916562 
z
" style="fill: #ff0000; opacity: 0.6; stroke: #000000; stroke-linejoin: miter"/>
   </g>
   <g id="text_17">
    <!-- Freqüències molècula analitzada -->
    <g transform="translate(475.30625 83.916562) scale(0.1 -0.1)">
     <use xlink:href="#DejaVuSans-46"/>
     <use xlink:href="#DejaVuSans-72" transform="translate(50.269531 0)"/>
     <use xlink:href="#DejaVuSans-65" transform="translate(89.132812 0)"/>
     <use xlink:href="#DejaVuSans-71" transform="translate(150.65625 0)"/>
     <use xlink:href="#DejaVuSans-fc" transform="translate(214.132812 0)"/>
     <use xlink:href="#DejaVuSans-e8" transform="translate(277.511719 0)"/>
     <use xlink:href="#DejaVuSans-6e" transform="translate(339.035156 0)"/>
     <use xlink:href="#DejaVuSans-63" transform="translate(402.414062 0)"/>
     <use xlink:href="#DejaVuSans-69" transform="translate(457.394531 0)"/>
     <use xlink:href="#DejaVuSans-65" transform="translate(485.177734 0)"/>
     <use xlink:href="#DejaVuSans-73" transform="translate(546.701172 0)"/>
     <use xlink:href="#DejaVuSans-20" transform="translate(598.800781 0)"/>
     <use xlink:href="#DejaVuSans-6d" transform="translate(630.587891 0)"/>
     <use xlink:href="#DejaVuSans-6f" transform="translate(728 0)"/>
     <use xlink:href="#DejaVuSans-6c" transform="translate(789.181641 0)"/>
     <use xlink:href="#DejaVuSans-e8" transform="translate(816.964844 0)"/>
     <use xlink:href="#DejaVuSans-63" transform="translate(878.488281 0)"/>
     <use xlink:href="#DejaVuSans-75" transform="translate(933.46875 0)"/>
     <use xlink:href="#DejaVuSans-6c" transform="translate(996.847656 0)"/>
     <use xlink:href="#DejaVuSans-61" transform="translate(1024.630859 0)"/>
     <use xlink:href="#DejaVuSans-20" transform="translate(1085.910156 0)"/>
     <use xlink:href="#DejaVuSans-61" transform="translate(1117.697266 0)"/>
     <use xlink:href="#DejaVuSans-6e" transform="translate(1178.976562 0)"/>
     <use xlink:href="#DejaVuSans-61" transform="translate(1242.355469 0)"/>
     <use xlink:href="#DejaVuSans-6c" transform="translate(1303.634766 0)"/>
     <use xlink:href="#DejaVuSans-69" transform="translate(1331.417969 0)"/>
     <use xlink:href="#DejaVuSans-74" transform="translate(1359.201172 0)"/>
     <use xlink:href="#DejaVuSans-7a" transform="translate(1398.410156 0)"/>
     <use xlink:href="#DejaVuSans-61" transform="translate(1450.900391 0)"/>
     <use xlink:href="#DejaVuSans-64" transform="translate(1512.179688 0)"/>
     <use xlink:href="#DejaVuSans-61" transform="translate(1575.65625 0)"/>
    </g>
   </g>
  </g>
 </g>
 <defs>
  <clipPath id="p9fafb2e553">
   <rect x="90" y="51.84" width="558" height="332.64"/>
  </clipPath>
 </defs>
</svg>
