<?xml version="1.0" encoding="utf-8" standalone="no"?>
<!DOCTYPE svg PUBLIC "-//W3C//DTD SVG 1.1//EN"
  "http://www.w3.org/Graphics/SVG/1.1/DTD/svg11.dtd">
<svg xmlns:xlink="http://www.w3.org/1999/xlink" width="720pt" height="432pt" viewBox="0 0 720 432" xmlns="http://www.w3.org/2000/svg" version="1.1">
 <metadata>
  <rdf:RDF xmlns:dc="http://purl.org/dc/elements/1.1/" xmlns:cc="http://creativecommons.org/ns#" xmlns:rdf="http://www.w3.org/1999/02/22-rdf-syntax-ns#">
   <cc:Work>
    <dc:type rdf:resource="http://purl.org/dc/dcmitype/StillImage"/>
    <dc:date>2025-03-07T11:34:53.255350</dc:date>
    <dc:format>image/svg+xml</dc:format>
    <dc:creator>
     <cc:Agent>
      <dc:title>Matplotlib v3.10.0, https://matplotlib.org/</dc:title>
     </cc:Agent>
    </dc:creator>
   </cc:Work>
  </rdf:RDF>
 </metadata>
 <defs>
  <style type="text/css">*{stroke-linejoin: round; stroke-linecap: butt}</style>
 </defs>
 <g id="figure_1">
  <g id="patch_1">
   <path d="M 0 432 
L 720 432 
L 720 0 
L 0 0 
z
" style="fill: #ffffff"/>
  </g>
  <g id="axes_1">
   <g id="patch_2">
    <path d="M 90 384.48 
L 648 384.48 
L 648 51.84 
L 90 51.84 
z
" style="fill: #ffffff"/>
   </g>
   <g id="patch_3">
    <path d="M 115.363636 116249.436586 
L 125.931818 116249.436586 
L 125.931818 66.96 
L 115.363636 66.96 
z
" clip-path="url(#p178606246d)" style="fill: #0000ff; stroke: #000000; stroke-linejoin: miter"/>
   </g>
   <g id="patch_4">
    <path d="M 125.931818 116249.436586 
L 136.5 116249.436586 
L 136.5 84.36541 
L 125.931818 84.36541 
z
" clip-path="url(#p178606246d)" style="fill: #0000ff; stroke: #000000; stroke-linejoin: miter"/>
   </g>
   <g id="patch_5">
    <path d="M 136.5 116249.436586 
L 147.068182 116249.436586 
L 147.068182 253.479923 
L 136.5 253.479923 
z
" clip-path="url(#p178606246d)" style="fill: #0000ff; stroke: #000000; stroke-linejoin: miter"/>
   </g>
   <g id="patch_6">
    <path d="M 147.068182 116249.436586 
L 157.636364 116249.436586 
L 157.636364 135.626022 
L 147.068182 135.626022 
z
" clip-path="url(#p178606246d)" style="fill: #0000ff; stroke: #000000; stroke-linejoin: miter"/>
   </g>
   <g id="patch_7">
    <path d="M 157.636364 116249.436586 
L 168.204545 116249.436586 
L 168.204545 128.006672 
L 157.636364 128.006672 
z
" clip-path="url(#p178606246d)" style="fill: #0000ff; stroke: #000000; stroke-linejoin: miter"/>
   </g>
   <g id="patch_8">
    <path d="M 168.204545 116249.436586 
L 178.772727 116249.436586 
L 178.772727 136.112268 
L 168.204545 136.112268 
z
" clip-path="url(#p178606246d)" style="fill: #0000ff; stroke: #000000; stroke-linejoin: miter"/>
   </g>
   <g id="patch_9">
    <path d="M 178.772727 116249.436586 
L 189.340909 116249.436586 
L 189.340909 158.511109 
L 178.772727 158.511109 
z
" clip-path="url(#p178606246d)" style="fill: #0000ff; stroke: #000000; stroke-linejoin: miter"/>
   </g>
   <g id="patch_10">
    <path d="M 189.340909 116249.436586 
L 199.909091 116249.436586 
L 199.909091 79.220544 
L 189.340909 79.220544 
z
" clip-path="url(#p178606246d)" style="fill: #0000ff; stroke: #000000; stroke-linejoin: miter"/>
   </g>
   <g id="patch_11">
    <path d="M 199.909091 116249.436586 
L 210.477273 116249.436586 
L 210.477273 72.579376 
L 199.909091 72.579376 
z
" clip-path="url(#p178606246d)" style="fill: #0000ff; stroke: #000000; stroke-linejoin: miter"/>
   </g>
   <g id="patch_12">
    <path d="M 210.477273 116249.436586 
L 221.045455 116249.436586 
L 221.045455 142.902228 
L 210.477273 142.902228 
z
" clip-path="url(#p178606246d)" style="fill: #0000ff; stroke: #000000; stroke-linejoin: miter"/>
   </g>
   <g id="patch_13">
    <path d="M 221.045455 116249.436586 
L 231.613636 116249.436586 
L 231.613636 157.754312 
L 221.045455 157.754312 
z
" clip-path="url(#p178606246d)" style="fill: #0000ff; stroke: #000000; stroke-linejoin: miter"/>
   </g>
   <g id="patch_14">
    <path d="M 231.613636 116249.436586 
L 242.181818 116249.436586 
L 242.181818 108.299218 
L 231.613636 108.299218 
z
" clip-path="url(#p178606246d)" style="fill: #0000ff; stroke: #000000; stroke-linejoin: miter"/>
   </g>
   <g id="patch_15">
    <path d="M 242.181818 116249.436586 
L 252.75 116249.436586 
L 252.75 221.177935 
L 242.181818 221.177935 
z
" clip-path="url(#p178606246d)" style="fill: #0000ff; stroke: #000000; stroke-linejoin: miter"/>
   </g>
   <g id="patch_16">
    <path d="M 252.75 116249.436586 
L 263.318182 116249.436586 
L 263.318182 211.562874 
L 252.75 211.562874 
z
" clip-path="url(#p178606246d)" style="fill: #0000ff; stroke: #000000; stroke-linejoin: miter"/>
   </g>
   <g id="patch_17">
    <path d="M 263.318182 116249.436586 
L 273.886364 116249.436586 
L 273.886364 248.683336 
L 263.318182 248.683336 
z
" clip-path="url(#p178606246d)" style="fill: #0000ff; stroke: #000000; stroke-linejoin: miter"/>
   </g>
   <g id="patch_18">
    <path d="M 273.886364 116249.436586 
L 284.454545 116249.436586 
L 284.454545 288.363302 
L 273.886364 288.363302 
z
" clip-path="url(#p178606246d)" style="fill: #0000ff; stroke: #000000; stroke-linejoin: miter"/>
   </g>
   <g id="patch_19">
    <path d="M 284.454545 116249.436586 
L 295.022727 116249.436586 
L 295.022727 258.782305 
L 284.454545 258.782305 
z
" clip-path="url(#p178606246d)" style="fill: #0000ff; stroke: #000000; stroke-linejoin: miter"/>
   </g>
   <g id="patch_20">
    <path d="M 295.022727 116249.436586 
L 305.590909 116249.436586 
L 305.590909 279.187774 
L 295.022727 279.187774 
z
" clip-path="url(#p178606246d)" style="fill: #0000ff; stroke: #000000; stroke-linejoin: miter"/>
   </g>
   <g id="patch_21">
    <path d="M 305.590909 116249.436586 
L 316.159091 116249.436586 
L 316.159091 271.429974 
L 305.590909 271.429974 
z
" clip-path="url(#p178606246d)" style="fill: #0000ff; stroke: #000000; stroke-linejoin: miter"/>
   </g>
   <g id="patch_22">
    <path d="M 316.159091 116249.436586 
L 326.727273 116249.436586 
L 326.727273 236.546595 
L 316.159091 236.546595 
z
" clip-path="url(#p178606246d)" style="fill: #0000ff; stroke: #000000; stroke-linejoin: miter"/>
   </g>
   <g id="patch_23">
    <path d="M 326.727273 116249.436586 
L 337.295455 116249.436586 
L 337.295455 150.75331 
L 326.727273 150.75331 
z
" clip-path="url(#p178606246d)" style="fill: #0000ff; stroke: #000000; stroke-linejoin: miter"/>
   </g>
   <g id="patch_24">
    <path d="M 337.295455 116249.436586 
L 347.863636 116249.436586 
L 347.863636 299.593242 
L 337.295455 299.593242 
z
" clip-path="url(#p178606246d)" style="fill: #0000ff; stroke: #000000; stroke-linejoin: miter"/>
   </g>
   <g id="patch_25">
    <path d="M 347.863636 116249.436586 
L 358.431818 116249.436586 
L 358.431818 194.943105 
L 347.863636 194.943105 
z
" clip-path="url(#p178606246d)" style="fill: #0000ff; stroke: #000000; stroke-linejoin: miter"/>
   </g>
   <g id="patch_26">
    <path d="M 358.431818 116249.436586 
L 369 116249.436586 
L 369 240.276159 
L 358.431818 240.276159 
z
" clip-path="url(#p178606246d)" style="fill: #0000ff; stroke: #000000; stroke-linejoin: miter"/>
   </g>
   <g id="patch_27">
    <path d="M 369 116249.436586 
L 379.568182 116249.436586 
L 379.568182 299.593242 
L 369 299.593242 
z
" clip-path="url(#p178606246d)" style="fill: #0000ff; stroke: #000000; stroke-linejoin: miter"/>
   </g>
   <g id="patch_28">
    <path d="M 379.568182 116249.436586 
L 390.136364 116249.436586 
L 390.136364 209.421016 
L 379.568182 209.421016 
z
" clip-path="url(#p178606246d)" style="fill: #0000ff; stroke: #000000; stroke-linejoin: miter"/>
   </g>
   <g id="patch_29">
    <path d="M 390.136364 116249.436586 
L 400.704545 116249.436586 
L 400.704545 314.071152 
L 390.136364 314.071152 
z
" clip-path="url(#p178606246d)" style="fill: #0000ff; stroke: #000000; stroke-linejoin: miter"/>
   </g>
   <g id="patch_30">
    <path d="M 400.704545 116249.436586 
L 411.272727 116249.436586 
L 411.272727 194.943105 
L 400.704545 194.943105 
z
" clip-path="url(#p178606246d)" style="fill: #0000ff; stroke: #000000; stroke-linejoin: miter"/>
   </g>
   <g id="patch_31">
    <path d="M 411.272727 116249.436586 
L 421.840909 116249.436586 
L 421.840909 264.709863 
L 411.272727 264.709863 
z
" clip-path="url(#p178606246d)" style="fill: #0000ff; stroke: #000000; stroke-linejoin: miter"/>
   </g>
   <g id="patch_32">
    <path d="M 421.840909 116249.436586 
L 432.409091 116249.436586 
L 432.409091 299.593242 
L 421.840909 299.593242 
z
" clip-path="url(#p178606246d)" style="fill: #0000ff; stroke: #000000; stroke-linejoin: miter"/>
   </g>
   <g id="patch_33">
    <path d="M 432.409091 116249.436586 
L 442.977273 116249.436586 
L 442.977273 288.363302 
L 432.409091 288.363302 
z
" clip-path="url(#p178606246d)" style="fill: #0000ff; stroke: #000000; stroke-linejoin: miter"/>
   </g>
   <g id="patch_34">
    <path d="M 442.977273 116249.436586 
L 453.545455 116249.436586 
L 453.545455 253.479923 
L 442.977273 253.479923 
z
" clip-path="url(#p178606246d)" style="fill: #0000ff; stroke: #000000; stroke-linejoin: miter"/>
   </g>
   <g id="patch_35">
    <path d="M 453.545455 116249.436586 
L 464.113636 116249.436586 
L 464.113636 233.074455 
L 453.545455 233.074455 
z
" clip-path="url(#p178606246d)" style="fill: #0000ff; stroke: #000000; stroke-linejoin: miter"/>
   </g>
   <g id="patch_36">
    <path d="M 464.113636 116249.436586 
L 474.681818 116249.436586 
L 474.681818 264.709863 
L 464.113636 264.709863 
z
" clip-path="url(#p178606246d)" style="fill: #0000ff; stroke: #000000; stroke-linejoin: miter"/>
   </g>
   <g id="patch_37">
    <path d="M 474.681818 116249.436586 
L 485.25 116249.436586 
L 485.25 299.593242 
L 474.681818 299.593242 
z
" clip-path="url(#p178606246d)" style="fill: #0000ff; stroke: #000000; stroke-linejoin: miter"/>
   </g>
   <g id="patch_38">
    <path d="M 485.25 116249.436586 
L 495.818182 116249.436586 
L 495.818182 334.476621 
L 485.25 334.476621 
z
" clip-path="url(#p178606246d)" style="fill: #0000ff; stroke: #000000; stroke-linejoin: miter"/>
   </g>
   <g id="patch_39">
    <path d="M 495.818182 116249.436586 
L 506.386364 116249.436586 
L 506.386364 314.071152 
L 495.818182 314.071152 
z
" clip-path="url(#p178606246d)" style="fill: #0000ff; stroke: #000000; stroke-linejoin: miter"/>
   </g>
   <g id="patch_40">
    <path d="M 506.386364 116249.436586 
L 516.954545 116249.436586 
L 516.954545 271.429974 
L 506.386364 271.429974 
z
" clip-path="url(#p178606246d)" style="fill: #0000ff; stroke: #000000; stroke-linejoin: miter"/>
   </g>
   <g id="patch_41">
    <path d="M 516.954545 116249.436586 
L 527.522727 116249.436586 
L 527.522727 369.36 
L 516.954545 369.36 
z
" clip-path="url(#p178606246d)" style="fill: #0000ff; stroke: #000000; stroke-linejoin: miter"/>
   </g>
   <g id="patch_42">
    <path d="M 527.522727 116249.436586 
L 538.090909 116249.436586 
L 538.090909 264.709863 
L 527.522727 264.709863 
z
" clip-path="url(#p178606246d)" style="fill: #0000ff; stroke: #000000; stroke-linejoin: miter"/>
   </g>
   <g id="patch_43">
    <path d="M 538.090909 116249.436586 
L 548.659091 116249.436586 
L 548.659091 369.36 
L 538.090909 369.36 
z
" clip-path="url(#p178606246d)" style="fill: #0000ff; stroke: #000000; stroke-linejoin: miter"/>
   </g>
   <g id="patch_44">
    <path d="M 548.659091 116249.436586 
L 559.227273 116249.436586 
L 559.227273 271.429974 
L 548.659091 271.429974 
z
" clip-path="url(#p178606246d)" style="fill: #0000ff; stroke: #000000; stroke-linejoin: miter"/>
   </g>
   <g id="patch_45">
    <path d="M 559.227273 116249.436586 
L 569.795455 116249.436586 
L 569.795455 369.36 
L 559.227273 369.36 
z
" clip-path="url(#p178606246d)" style="fill: #0000ff; stroke: #000000; stroke-linejoin: miter"/>
   </g>
   <g id="patch_46">
    <path d="M 569.795455 116249.436586 
L 580.363636 116249.436586 
L 580.363636 314.071152 
L 569.795455 314.071152 
z
" clip-path="url(#p178606246d)" style="fill: #0000ff; stroke: #000000; stroke-linejoin: miter"/>
   </g>
   <g id="patch_47">
    <path d="M 580.363636 116249.436586 
L 590.931818 116249.436586 
L 590.931818 314.071152 
L 580.363636 314.071152 
z
" clip-path="url(#p178606246d)" style="fill: #0000ff; stroke: #000000; stroke-linejoin: miter"/>
   </g>
   <g id="patch_48">
    <path d="M 590.931818 116249.436586 
L 601.5 116249.436586 
L 601.5 334.476621 
L 590.931818 334.476621 
z
" clip-path="url(#p178606246d)" style="fill: #0000ff; stroke: #000000; stroke-linejoin: miter"/>
   </g>
   <g id="patch_49">
    <path d="M 601.5 116249.436586 
L 612.068182 116249.436586 
L 612.068182 369.36 
L 601.5 369.36 
z
" clip-path="url(#p178606246d)" style="fill: #0000ff; stroke: #000000; stroke-linejoin: miter"/>
   </g>
   <g id="patch_50">
    <path d="M 612.068182 116249.436586 
L 622.636364 116249.436586 
L 622.636364 116249.436586 
L 612.068182 116249.436586 
z
" clip-path="url(#p178606246d)" style="fill: #0000ff; stroke: #000000; stroke-linejoin: miter"/>
   </g>
   <g id="matplotlib.axis_1">
    <g id="xtick_1">
     <g id="line2d_1">
      <path d="M 110.079545 384.48 
L 110.079545 51.84 
" clip-path="url(#p178606246d)" style="fill: none; stroke-dasharray: 1.85,0.8; stroke-dashoffset: 0; stroke: #b0b0b0; stroke-width: 0.5"/>
     </g>
     <g id="line2d_2">
      <defs>
       <path id="m09b4df87c6" d="M 0 0 
L 0 3.5 
" style="stroke: #000000; stroke-width: 0.8"/>
      </defs>
      <g>
       <use xlink:href="#m09b4df87c6" x="110.079545" y="384.48" style="stroke: #000000; stroke-width: 0.8"/>
      </g>
     </g>
     <g id="text_1">
      <!-- 0 -->
      <g transform="translate(106.898295 399.078438) scale(0.1 -0.1)">
       <defs>
        <path id="DejaVuSans-30" d="M 2034 4250 
Q 1547 4250 1301 3770 
Q 1056 3291 1056 2328 
Q 1056 1369 1301 889 
Q 1547 409 2034 409 
Q 2525 409 2770 889 
Q 3016 1369 3016 2328 
Q 3016 3291 2770 3770 
Q 2525 4250 2034 4250 
z
M 2034 4750 
Q 2819 4750 3233 4129 
Q 3647 3509 3647 2328 
Q 3647 1150 3233 529 
Q 2819 -91 2034 -91 
Q 1250 -91 836 529 
Q 422 1150 422 2328 
Q 422 3509 836 4129 
Q 1250 4750 2034 4750 
z
" transform="scale(0.015625)"/>
       </defs>
       <use xlink:href="#DejaVuSans-30"/>
      </g>
     </g>
    </g>
    <g id="xtick_2">
     <g id="line2d_3">
      <path d="M 215.761364 384.48 
L 215.761364 51.84 
" clip-path="url(#p178606246d)" style="fill: none; stroke-dasharray: 1.85,0.8; stroke-dashoffset: 0; stroke: #b0b0b0; stroke-width: 0.5"/>
     </g>
     <g id="line2d_4">
      <g>
       <use xlink:href="#m09b4df87c6" x="215.761364" y="384.48" style="stroke: #000000; stroke-width: 0.8"/>
      </g>
     </g>
     <g id="text_2">
      <!-- 10 -->
      <g transform="translate(209.398864 399.078438) scale(0.1 -0.1)">
       <defs>
        <path id="DejaVuSans-31" d="M 794 531 
L 1825 531 
L 1825 4091 
L 703 3866 
L 703 4441 
L 1819 4666 
L 2450 4666 
L 2450 531 
L 3481 531 
L 3481 0 
L 794 0 
L 794 531 
z
" transform="scale(0.015625)"/>
       </defs>
       <use xlink:href="#DejaVuSans-31"/>
       <use xlink:href="#DejaVuSans-30" transform="translate(63.623047 0)"/>
      </g>
     </g>
    </g>
    <g id="xtick_3">
     <g id="line2d_5">
      <path d="M 321.443182 384.48 
L 321.443182 51.84 
" clip-path="url(#p178606246d)" style="fill: none; stroke-dasharray: 1.85,0.8; stroke-dashoffset: 0; stroke: #b0b0b0; stroke-width: 0.5"/>
     </g>
     <g id="line2d_6">
      <g>
       <use xlink:href="#m09b4df87c6" x="321.443182" y="384.48" style="stroke: #000000; stroke-width: 0.8"/>
      </g>
     </g>
     <g id="text_3">
      <!-- 20 -->
      <g transform="translate(315.080682 399.078438) scale(0.1 -0.1)">
       <defs>
        <path id="DejaVuSans-32" d="M 1228 531 
L 3431 531 
L 3431 0 
L 469 0 
L 469 531 
Q 828 903 1448 1529 
Q 2069 2156 2228 2338 
Q 2531 2678 2651 2914 
Q 2772 3150 2772 3378 
Q 2772 3750 2511 3984 
Q 2250 4219 1831 4219 
Q 1534 4219 1204 4116 
Q 875 4013 500 3803 
L 500 4441 
Q 881 4594 1212 4672 
Q 1544 4750 1819 4750 
Q 2544 4750 2975 4387 
Q 3406 4025 3406 3419 
Q 3406 3131 3298 2873 
Q 3191 2616 2906 2266 
Q 2828 2175 2409 1742 
Q 1991 1309 1228 531 
z
" transform="scale(0.015625)"/>
       </defs>
       <use xlink:href="#DejaVuSans-32"/>
       <use xlink:href="#DejaVuSans-30" transform="translate(63.623047 0)"/>
      </g>
     </g>
    </g>
    <g id="xtick_4">
     <g id="line2d_7">
      <path d="M 427.125 384.48 
L 427.125 51.84 
" clip-path="url(#p178606246d)" style="fill: none; stroke-dasharray: 1.85,0.8; stroke-dashoffset: 0; stroke: #b0b0b0; stroke-width: 0.5"/>
     </g>
     <g id="line2d_8">
      <g>
       <use xlink:href="#m09b4df87c6" x="427.125" y="384.48" style="stroke: #000000; stroke-width: 0.8"/>
      </g>
     </g>
     <g id="text_4">
      <!-- 30 -->
      <g transform="translate(420.7625 399.078438) scale(0.1 -0.1)">
       <defs>
        <path id="DejaVuSans-33" d="M 2597 2516 
Q 3050 2419 3304 2112 
Q 3559 1806 3559 1356 
Q 3559 666 3084 287 
Q 2609 -91 1734 -91 
Q 1441 -91 1130 -33 
Q 819 25 488 141 
L 488 750 
Q 750 597 1062 519 
Q 1375 441 1716 441 
Q 2309 441 2620 675 
Q 2931 909 2931 1356 
Q 2931 1769 2642 2001 
Q 2353 2234 1838 2234 
L 1294 2234 
L 1294 2753 
L 1863 2753 
Q 2328 2753 2575 2939 
Q 2822 3125 2822 3475 
Q 2822 3834 2567 4026 
Q 2313 4219 1838 4219 
Q 1578 4219 1281 4162 
Q 984 4106 628 3988 
L 628 4550 
Q 988 4650 1302 4700 
Q 1616 4750 1894 4750 
Q 2613 4750 3031 4423 
Q 3450 4097 3450 3541 
Q 3450 3153 3228 2886 
Q 3006 2619 2597 2516 
z
" transform="scale(0.015625)"/>
       </defs>
       <use xlink:href="#DejaVuSans-33"/>
       <use xlink:href="#DejaVuSans-30" transform="translate(63.623047 0)"/>
      </g>
     </g>
    </g>
    <g id="xtick_5">
     <g id="line2d_9">
      <path d="M 532.806818 384.48 
L 532.806818 51.84 
" clip-path="url(#p178606246d)" style="fill: none; stroke-dasharray: 1.85,0.8; stroke-dashoffset: 0; stroke: #b0b0b0; stroke-width: 0.5"/>
     </g>
     <g id="line2d_10">
      <g>
       <use xlink:href="#m09b4df87c6" x="532.806818" y="384.48" style="stroke: #000000; stroke-width: 0.8"/>
      </g>
     </g>
     <g id="text_5">
      <!-- 40 -->
      <g transform="translate(526.444318 399.078438) scale(0.1 -0.1)">
       <defs>
        <path id="DejaVuSans-34" d="M 2419 4116 
L 825 1625 
L 2419 1625 
L 2419 4116 
z
M 2253 4666 
L 3047 4666 
L 3047 1625 
L 3713 1625 
L 3713 1100 
L 3047 1100 
L 3047 0 
L 2419 0 
L 2419 1100 
L 313 1100 
L 313 1709 
L 2253 4666 
z
" transform="scale(0.015625)"/>
       </defs>
       <use xlink:href="#DejaVuSans-34"/>
       <use xlink:href="#DejaVuSans-30" transform="translate(63.623047 0)"/>
      </g>
     </g>
    </g>
    <g id="xtick_6">
     <g id="line2d_11">
      <path d="M 638.488636 384.48 
L 638.488636 51.84 
" clip-path="url(#p178606246d)" style="fill: none; stroke-dasharray: 1.85,0.8; stroke-dashoffset: 0; stroke: #b0b0b0; stroke-width: 0.5"/>
     </g>
     <g id="line2d_12">
      <g>
       <use xlink:href="#m09b4df87c6" x="638.488636" y="384.48" style="stroke: #000000; stroke-width: 0.8"/>
      </g>
     </g>
     <g id="text_6">
      <!-- 50 -->
      <g transform="translate(632.126136 399.078438) scale(0.1 -0.1)">
       <defs>
        <path id="DejaVuSans-35" d="M 691 4666 
L 3169 4666 
L 3169 4134 
L 1269 4134 
L 1269 2991 
Q 1406 3038 1543 3061 
Q 1681 3084 1819 3084 
Q 2600 3084 3056 2656 
Q 3513 2228 3513 1497 
Q 3513 744 3044 326 
Q 2575 -91 1722 -91 
Q 1428 -91 1123 -41 
Q 819 9 494 109 
L 494 744 
Q 775 591 1075 516 
Q 1375 441 1709 441 
Q 2250 441 2565 725 
Q 2881 1009 2881 1497 
Q 2881 1984 2565 2268 
Q 2250 2553 1709 2553 
Q 1456 2553 1204 2497 
Q 953 2441 691 2322 
L 691 4666 
z
" transform="scale(0.015625)"/>
       </defs>
       <use xlink:href="#DejaVuSans-35"/>
       <use xlink:href="#DejaVuSans-30" transform="translate(63.623047 0)"/>
      </g>
     </g>
    </g>
    <g id="text_7">
     <!-- Conformació -->
     <g transform="translate(337.360937 412.756563) scale(0.1 -0.1)">
      <defs>
       <path id="DejaVuSans-43" d="M 4122 4306 
L 4122 3641 
Q 3803 3938 3442 4084 
Q 3081 4231 2675 4231 
Q 1875 4231 1450 3742 
Q 1025 3253 1025 2328 
Q 1025 1406 1450 917 
Q 1875 428 2675 428 
Q 3081 428 3442 575 
Q 3803 722 4122 1019 
L 4122 359 
Q 3791 134 3420 21 
Q 3050 -91 2638 -91 
Q 1578 -91 968 557 
Q 359 1206 359 2328 
Q 359 3453 968 4101 
Q 1578 4750 2638 4750 
Q 3056 4750 3426 4639 
Q 3797 4528 4122 4306 
z
" transform="scale(0.015625)"/>
       <path id="DejaVuSans-6f" d="M 1959 3097 
Q 1497 3097 1228 2736 
Q 959 2375 959 1747 
Q 959 1119 1226 758 
Q 1494 397 1959 397 
Q 2419 397 2687 759 
Q 2956 1122 2956 1747 
Q 2956 2369 2687 2733 
Q 2419 3097 1959 3097 
z
M 1959 3584 
Q 2709 3584 3137 3096 
Q 3566 2609 3566 1747 
Q 3566 888 3137 398 
Q 2709 -91 1959 -91 
Q 1206 -91 779 398 
Q 353 888 353 1747 
Q 353 2609 779 3096 
Q 1206 3584 1959 3584 
z
" transform="scale(0.015625)"/>
       <path id="DejaVuSans-6e" d="M 3513 2113 
L 3513 0 
L 2938 0 
L 2938 2094 
Q 2938 2591 2744 2837 
Q 2550 3084 2163 3084 
Q 1697 3084 1428 2787 
Q 1159 2491 1159 1978 
L 1159 0 
L 581 0 
L 581 3500 
L 1159 3500 
L 1159 2956 
Q 1366 3272 1645 3428 
Q 1925 3584 2291 3584 
Q 2894 3584 3203 3211 
Q 3513 2838 3513 2113 
z
" transform="scale(0.015625)"/>
       <path id="DejaVuSans-66" d="M 2375 4863 
L 2375 4384 
L 1825 4384 
Q 1516 4384 1395 4259 
Q 1275 4134 1275 3809 
L 1275 3500 
L 2222 3500 
L 2222 3053 
L 1275 3053 
L 1275 0 
L 697 0 
L 697 3053 
L 147 3053 
L 147 3500 
L 697 3500 
L 697 3744 
Q 697 4328 969 4595 
Q 1241 4863 1831 4863 
L 2375 4863 
z
" transform="scale(0.015625)"/>
       <path id="DejaVuSans-72" d="M 2631 2963 
Q 2534 3019 2420 3045 
Q 2306 3072 2169 3072 
Q 1681 3072 1420 2755 
Q 1159 2438 1159 1844 
L 1159 0 
L 581 0 
L 581 3500 
L 1159 3500 
L 1159 2956 
Q 1341 3275 1631 3429 
Q 1922 3584 2338 3584 
Q 2397 3584 2469 3576 
Q 2541 3569 2628 3553 
L 2631 2963 
z
" transform="scale(0.015625)"/>
       <path id="DejaVuSans-6d" d="M 3328 2828 
Q 3544 3216 3844 3400 
Q 4144 3584 4550 3584 
Q 5097 3584 5394 3201 
Q 5691 2819 5691 2113 
L 5691 0 
L 5113 0 
L 5113 2094 
Q 5113 2597 4934 2840 
Q 4756 3084 4391 3084 
Q 3944 3084 3684 2787 
Q 3425 2491 3425 1978 
L 3425 0 
L 2847 0 
L 2847 2094 
Q 2847 2600 2669 2842 
Q 2491 3084 2119 3084 
Q 1678 3084 1418 2786 
Q 1159 2488 1159 1978 
L 1159 0 
L 581 0 
L 581 3500 
L 1159 3500 
L 1159 2956 
Q 1356 3278 1631 3431 
Q 1906 3584 2284 3584 
Q 2666 3584 2933 3390 
Q 3200 3197 3328 2828 
z
" transform="scale(0.015625)"/>
       <path id="DejaVuSans-61" d="M 2194 1759 
Q 1497 1759 1228 1600 
Q 959 1441 959 1056 
Q 959 750 1161 570 
Q 1363 391 1709 391 
Q 2188 391 2477 730 
Q 2766 1069 2766 1631 
L 2766 1759 
L 2194 1759 
z
M 3341 1997 
L 3341 0 
L 2766 0 
L 2766 531 
Q 2569 213 2275 61 
Q 1981 -91 1556 -91 
Q 1019 -91 701 211 
Q 384 513 384 1019 
Q 384 1609 779 1909 
Q 1175 2209 1959 2209 
L 2766 2209 
L 2766 2266 
Q 2766 2663 2505 2880 
Q 2244 3097 1772 3097 
Q 1472 3097 1187 3025 
Q 903 2953 641 2809 
L 641 3341 
Q 956 3463 1253 3523 
Q 1550 3584 1831 3584 
Q 2591 3584 2966 3190 
Q 3341 2797 3341 1997 
z
" transform="scale(0.015625)"/>
       <path id="DejaVuSans-63" d="M 3122 3366 
L 3122 2828 
Q 2878 2963 2633 3030 
Q 2388 3097 2138 3097 
Q 1578 3097 1268 2742 
Q 959 2388 959 1747 
Q 959 1106 1268 751 
Q 1578 397 2138 397 
Q 2388 397 2633 464 
Q 2878 531 3122 666 
L 3122 134 
Q 2881 22 2623 -34 
Q 2366 -91 2075 -91 
Q 1284 -91 818 406 
Q 353 903 353 1747 
Q 353 2603 823 3093 
Q 1294 3584 2113 3584 
Q 2378 3584 2631 3529 
Q 2884 3475 3122 3366 
z
" transform="scale(0.015625)"/>
       <path id="DejaVuSans-69" d="M 603 3500 
L 1178 3500 
L 1178 0 
L 603 0 
L 603 3500 
z
M 603 4863 
L 1178 4863 
L 1178 4134 
L 603 4134 
L 603 4863 
z
" transform="scale(0.015625)"/>
       <path id="DejaVuSans-f3" d="M 1959 3097 
Q 1497 3097 1228 2736 
Q 959 2375 959 1747 
Q 959 1119 1226 758 
Q 1494 397 1959 397 
Q 2419 397 2687 759 
Q 2956 1122 2956 1747 
Q 2956 2369 2687 2733 
Q 2419 3097 1959 3097 
z
M 1959 3584 
Q 2709 3584 3137 3096 
Q 3566 2609 3566 1747 
Q 3566 888 3137 398 
Q 2709 -91 1959 -91 
Q 1206 -91 779 398 
Q 353 888 353 1747 
Q 353 2609 779 3096 
Q 1206 3584 1959 3584 
z
M 2394 5119 
L 3016 5119 
L 1998 3944 
L 1519 3944 
L 2394 5119 
z
" transform="scale(0.015625)"/>
      </defs>
      <use xlink:href="#DejaVuSans-43"/>
      <use xlink:href="#DejaVuSans-6f" transform="translate(69.824219 0)"/>
      <use xlink:href="#DejaVuSans-6e" transform="translate(131.005859 0)"/>
      <use xlink:href="#DejaVuSans-66" transform="translate(194.384766 0)"/>
      <use xlink:href="#DejaVuSans-6f" transform="translate(229.589844 0)"/>
      <use xlink:href="#DejaVuSans-72" transform="translate(290.771484 0)"/>
      <use xlink:href="#DejaVuSans-6d" transform="translate(330.134766 0)"/>
      <use xlink:href="#DejaVuSans-61" transform="translate(427.546875 0)"/>
      <use xlink:href="#DejaVuSans-63" transform="translate(488.826172 0)"/>
      <use xlink:href="#DejaVuSans-69" transform="translate(543.806641 0)"/>
      <use xlink:href="#DejaVuSans-f3" transform="translate(571.589844 0)"/>
     </g>
    </g>
   </g>
   <g id="matplotlib.axis_2">
    <g id="ytick_1">
     <g id="line2d_13">
      <path d="M 90 369.36 
L 648 369.36 
" clip-path="url(#p178606246d)" style="fill: none; stroke-dasharray: 1.85,0.8; stroke-dashoffset: 0; stroke: #b0b0b0; stroke-width: 0.5"/>
     </g>
     <g id="line2d_14">
      <defs>
       <path id="meeff7bea25" d="M 0 0 
L -3.5 0 
" style="stroke: #000000; stroke-width: 0.8"/>
      </defs>
      <g>
       <use xlink:href="#meeff7bea25" x="90" y="369.36" style="stroke: #000000; stroke-width: 0.8"/>
      </g>
     </g>
     <g id="text_8">
      <!-- $\mathdefault{10^{0}}$ -->
      <g transform="translate(65.4 373.159219) scale(0.1 -0.1)">
       <use xlink:href="#DejaVuSans-31" transform="translate(0 0.765625)"/>
       <use xlink:href="#DejaVuSans-30" transform="translate(63.623047 0.765625)"/>
       <use xlink:href="#DejaVuSans-30" transform="translate(128.203125 39.046875) scale(0.7)"/>
      </g>
     </g>
    </g>
    <g id="ytick_2">
     <g id="line2d_15">
      <path d="M 90 253.479923 
L 648 253.479923 
" clip-path="url(#p178606246d)" style="fill: none; stroke-dasharray: 1.85,0.8; stroke-dashoffset: 0; stroke: #b0b0b0; stroke-width: 0.5"/>
     </g>
     <g id="line2d_16">
      <g>
       <use xlink:href="#meeff7bea25" x="90" y="253.479923" style="stroke: #000000; stroke-width: 0.8"/>
      </g>
     </g>
     <g id="text_9">
      <!-- $\mathdefault{10^{1}}$ -->
      <g transform="translate(65.4 257.279142) scale(0.1 -0.1)">
       <use xlink:href="#DejaVuSans-31" transform="translate(0 0.684375)"/>
       <use xlink:href="#DejaVuSans-30" transform="translate(63.623047 0.684375)"/>
       <use xlink:href="#DejaVuSans-31" transform="translate(128.203125 38.965625) scale(0.7)"/>
      </g>
     </g>
    </g>
    <g id="ytick_3">
     <g id="line2d_17">
      <path d="M 90 137.599847 
L 648 137.599847 
" clip-path="url(#p178606246d)" style="fill: none; stroke-dasharray: 1.85,0.8; stroke-dashoffset: 0; stroke: #b0b0b0; stroke-width: 0.5"/>
     </g>
     <g id="line2d_18">
      <g>
       <use xlink:href="#meeff7bea25" x="90" y="137.599847" style="stroke: #000000; stroke-width: 0.8"/>
      </g>
     </g>
     <g id="text_10">
      <!-- $\mathdefault{10^{2}}$ -->
      <g transform="translate(65.4 141.399066) scale(0.1 -0.1)">
       <use xlink:href="#DejaVuSans-31" transform="translate(0 0.765625)"/>
       <use xlink:href="#DejaVuSans-30" transform="translate(63.623047 0.765625)"/>
       <use xlink:href="#DejaVuSans-32" transform="translate(128.203125 39.046875) scale(0.7)"/>
      </g>
     </g>
    </g>
    <g id="ytick_4">
     <g id="line2d_19">
      <path d="M 90 380.58994 
L 648 380.58994 
" clip-path="url(#p178606246d)" style="fill: none; stroke-dasharray: 1.85,0.8; stroke-dashoffset: 0; stroke: #b0b0b0; stroke-width: 0.5"/>
     </g>
     <g id="line2d_20">
      <defs>
       <path id="mf409a918fe" d="M 0 0 
L -2 0 
" style="stroke: #000000; stroke-width: 0.6"/>
      </defs>
      <g>
       <use xlink:href="#mf409a918fe" x="90" y="380.58994" style="stroke: #000000; stroke-width: 0.6"/>
      </g>
     </g>
    </g>
    <g id="ytick_5">
     <g id="line2d_21">
      <path d="M 90 374.662382 
L 648 374.662382 
" clip-path="url(#p178606246d)" style="fill: none; stroke-dasharray: 1.85,0.8; stroke-dashoffset: 0; stroke: #b0b0b0; stroke-width: 0.5"/>
     </g>
     <g id="line2d_22">
      <g>
       <use xlink:href="#mf409a918fe" x="90" y="374.662382" style="stroke: #000000; stroke-width: 0.6"/>
      </g>
     </g>
    </g>
    <g id="ytick_6">
     <g id="line2d_23">
      <path d="M 90 334.476621 
L 648 334.476621 
" clip-path="url(#p178606246d)" style="fill: none; stroke-dasharray: 1.85,0.8; stroke-dashoffset: 0; stroke: #b0b0b0; stroke-width: 0.5"/>
     </g>
     <g id="line2d_24">
      <g>
       <use xlink:href="#mf409a918fe" x="90" y="334.476621" style="stroke: #000000; stroke-width: 0.6"/>
      </g>
     </g>
    </g>
    <g id="ytick_7">
     <g id="line2d_25">
      <path d="M 90 314.071152 
L 648 314.071152 
" clip-path="url(#p178606246d)" style="fill: none; stroke-dasharray: 1.85,0.8; stroke-dashoffset: 0; stroke: #b0b0b0; stroke-width: 0.5"/>
     </g>
     <g id="line2d_26">
      <g>
       <use xlink:href="#mf409a918fe" x="90" y="314.071152" style="stroke: #000000; stroke-width: 0.6"/>
      </g>
     </g>
    </g>
    <g id="ytick_8">
     <g id="line2d_27">
      <path d="M 90 299.593242 
L 648 299.593242 
" clip-path="url(#p178606246d)" style="fill: none; stroke-dasharray: 1.85,0.8; stroke-dashoffset: 0; stroke: #b0b0b0; stroke-width: 0.5"/>
     </g>
     <g id="line2d_28">
      <g>
       <use xlink:href="#mf409a918fe" x="90" y="299.593242" style="stroke: #000000; stroke-width: 0.6"/>
      </g>
     </g>
    </g>
    <g id="ytick_9">
     <g id="line2d_29">
      <path d="M 90 288.363302 
L 648 288.363302 
" clip-path="url(#p178606246d)" style="fill: none; stroke-dasharray: 1.85,0.8; stroke-dashoffset: 0; stroke: #b0b0b0; stroke-width: 0.5"/>
     </g>
     <g id="line2d_30">
      <g>
       <use xlink:href="#mf409a918fe" x="90" y="288.363302" style="stroke: #000000; stroke-width: 0.6"/>
      </g>
     </g>
    </g>
    <g id="ytick_10">
     <g id="line2d_31">
      <path d="M 90 279.187774 
L 648 279.187774 
" clip-path="url(#p178606246d)" style="fill: none; stroke-dasharray: 1.85,0.8; stroke-dashoffset: 0; stroke: #b0b0b0; stroke-width: 0.5"/>
     </g>
     <g id="line2d_32">
      <g>
       <use xlink:href="#mf409a918fe" x="90" y="279.187774" style="stroke: #000000; stroke-width: 0.6"/>
      </g>
     </g>
    </g>
    <g id="ytick_11">
     <g id="line2d_33">
      <path d="M 90 271.429974 
L 648 271.429974 
" clip-path="url(#p178606246d)" style="fill: none; stroke-dasharray: 1.85,0.8; stroke-dashoffset: 0; stroke: #b0b0b0; stroke-width: 0.5"/>
     </g>
     <g id="line2d_34">
      <g>
       <use xlink:href="#mf409a918fe" x="90" y="271.429974" style="stroke: #000000; stroke-width: 0.6"/>
      </g>
     </g>
    </g>
    <g id="ytick_12">
     <g id="line2d_35">
      <path d="M 90 264.709863 
L 648 264.709863 
" clip-path="url(#p178606246d)" style="fill: none; stroke-dasharray: 1.85,0.8; stroke-dashoffset: 0; stroke: #b0b0b0; stroke-width: 0.5"/>
     </g>
     <g id="line2d_36">
      <g>
       <use xlink:href="#mf409a918fe" x="90" y="264.709863" style="stroke: #000000; stroke-width: 0.6"/>
      </g>
     </g>
    </g>
    <g id="ytick_13">
     <g id="line2d_37">
      <path d="M 90 258.782305 
L 648 258.782305 
" clip-path="url(#p178606246d)" style="fill: none; stroke-dasharray: 1.85,0.8; stroke-dashoffset: 0; stroke: #b0b0b0; stroke-width: 0.5"/>
     </g>
     <g id="line2d_38">
      <g>
       <use xlink:href="#mf409a918fe" x="90" y="258.782305" style="stroke: #000000; stroke-width: 0.6"/>
      </g>
     </g>
    </g>
    <g id="ytick_14">
     <g id="line2d_39">
      <path d="M 90 218.596544 
L 648 218.596544 
" clip-path="url(#p178606246d)" style="fill: none; stroke-dasharray: 1.85,0.8; stroke-dashoffset: 0; stroke: #b0b0b0; stroke-width: 0.5"/>
     </g>
     <g id="line2d_40">
      <g>
       <use xlink:href="#mf409a918fe" x="90" y="218.596544" style="stroke: #000000; stroke-width: 0.6"/>
      </g>
     </g>
    </g>
    <g id="ytick_15">
     <g id="line2d_41">
      <path d="M 90 198.191076 
L 648 198.191076 
" clip-path="url(#p178606246d)" style="fill: none; stroke-dasharray: 1.85,0.8; stroke-dashoffset: 0; stroke: #b0b0b0; stroke-width: 0.5"/>
     </g>
     <g id="line2d_42">
      <g>
       <use xlink:href="#mf409a918fe" x="90" y="198.191076" style="stroke: #000000; stroke-width: 0.6"/>
      </g>
     </g>
    </g>
    <g id="ytick_16">
     <g id="line2d_43">
      <path d="M 90 183.713166 
L 648 183.713166 
" clip-path="url(#p178606246d)" style="fill: none; stroke-dasharray: 1.85,0.8; stroke-dashoffset: 0; stroke: #b0b0b0; stroke-width: 0.5"/>
     </g>
     <g id="line2d_44">
      <g>
       <use xlink:href="#mf409a918fe" x="90" y="183.713166" style="stroke: #000000; stroke-width: 0.6"/>
      </g>
     </g>
    </g>
    <g id="ytick_17">
     <g id="line2d_45">
      <path d="M 90 172.483226 
L 648 172.483226 
" clip-path="url(#p178606246d)" style="fill: none; stroke-dasharray: 1.85,0.8; stroke-dashoffset: 0; stroke: #b0b0b0; stroke-width: 0.5"/>
     </g>
     <g id="line2d_46">
      <g>
       <use xlink:href="#mf409a918fe" x="90" y="172.483226" style="stroke: #000000; stroke-width: 0.6"/>
      </g>
     </g>
    </g>
    <g id="ytick_18">
     <g id="line2d_47">
      <path d="M 90 163.307697 
L 648 163.307697 
" clip-path="url(#p178606246d)" style="fill: none; stroke-dasharray: 1.85,0.8; stroke-dashoffset: 0; stroke: #b0b0b0; stroke-width: 0.5"/>
     </g>
     <g id="line2d_48">
      <g>
       <use xlink:href="#mf409a918fe" x="90" y="163.307697" style="stroke: #000000; stroke-width: 0.6"/>
      </g>
     </g>
    </g>
    <g id="ytick_19">
     <g id="line2d_49">
      <path d="M 90 155.549898 
L 648 155.549898 
" clip-path="url(#p178606246d)" style="fill: none; stroke-dasharray: 1.85,0.8; stroke-dashoffset: 0; stroke: #b0b0b0; stroke-width: 0.5"/>
     </g>
     <g id="line2d_50">
      <g>
       <use xlink:href="#mf409a918fe" x="90" y="155.549898" style="stroke: #000000; stroke-width: 0.6"/>
      </g>
     </g>
    </g>
    <g id="ytick_20">
     <g id="line2d_51">
      <path d="M 90 148.829787 
L 648 148.829787 
" clip-path="url(#p178606246d)" style="fill: none; stroke-dasharray: 1.85,0.8; stroke-dashoffset: 0; stroke: #b0b0b0; stroke-width: 0.5"/>
     </g>
     <g id="line2d_52">
      <g>
       <use xlink:href="#mf409a918fe" x="90" y="148.829787" style="stroke: #000000; stroke-width: 0.6"/>
      </g>
     </g>
    </g>
    <g id="ytick_21">
     <g id="line2d_53">
      <path d="M 90 142.902228 
L 648 142.902228 
" clip-path="url(#p178606246d)" style="fill: none; stroke-dasharray: 1.85,0.8; stroke-dashoffset: 0; stroke: #b0b0b0; stroke-width: 0.5"/>
     </g>
     <g id="line2d_54">
      <g>
       <use xlink:href="#mf409a918fe" x="90" y="142.902228" style="stroke: #000000; stroke-width: 0.6"/>
      </g>
     </g>
    </g>
    <g id="ytick_22">
     <g id="line2d_55">
      <path d="M 90 102.716468 
L 648 102.716468 
" clip-path="url(#p178606246d)" style="fill: none; stroke-dasharray: 1.85,0.8; stroke-dashoffset: 0; stroke: #b0b0b0; stroke-width: 0.5"/>
     </g>
     <g id="line2d_56">
      <g>
       <use xlink:href="#mf409a918fe" x="90" y="102.716468" style="stroke: #000000; stroke-width: 0.6"/>
      </g>
     </g>
    </g>
    <g id="ytick_23">
     <g id="line2d_57">
      <path d="M 90 82.310999 
L 648 82.310999 
" clip-path="url(#p178606246d)" style="fill: none; stroke-dasharray: 1.85,0.8; stroke-dashoffset: 0; stroke: #b0b0b0; stroke-width: 0.5"/>
     </g>
     <g id="line2d_58">
      <g>
       <use xlink:href="#mf409a918fe" x="90" y="82.310999" style="stroke: #000000; stroke-width: 0.6"/>
      </g>
     </g>
    </g>
    <g id="ytick_24">
     <g id="line2d_59">
      <path d="M 90 67.833089 
L 648 67.833089 
" clip-path="url(#p178606246d)" style="fill: none; stroke-dasharray: 1.85,0.8; stroke-dashoffset: 0; stroke: #b0b0b0; stroke-width: 0.5"/>
     </g>
     <g id="line2d_60">
      <g>
       <use xlink:href="#mf409a918fe" x="90" y="67.833089" style="stroke: #000000; stroke-width: 0.6"/>
      </g>
     </g>
    </g>
    <g id="ytick_25">
     <g id="line2d_61">
      <path d="M 90 56.603149 
L 648 56.603149 
" clip-path="url(#p178606246d)" style="fill: none; stroke-dasharray: 1.85,0.8; stroke-dashoffset: 0; stroke: #b0b0b0; stroke-width: 0.5"/>
     </g>
     <g id="line2d_62">
      <g>
       <use xlink:href="#mf409a918fe" x="90" y="56.603149" style="stroke: #000000; stroke-width: 0.6"/>
      </g>
     </g>
    </g>
    <g id="text_11">
     <!-- Freqüències base de dades -->
     <g style="fill: #0000ff" transform="translate(59.320312 286.131875) rotate(-90) scale(0.1 -0.1)">
      <defs>
       <path id="DejaVuSans-46" d="M 628 4666 
L 3309 4666 
L 3309 4134 
L 1259 4134 
L 1259 2759 
L 3109 2759 
L 3109 2228 
L 1259 2228 
L 1259 0 
L 628 0 
L 628 4666 
z
" transform="scale(0.015625)"/>
       <path id="DejaVuSans-65" d="M 3597 1894 
L 3597 1613 
L 953 1613 
Q 991 1019 1311 708 
Q 1631 397 2203 397 
Q 2534 397 2845 478 
Q 3156 559 3463 722 
L 3463 178 
Q 3153 47 2828 -22 
Q 2503 -91 2169 -91 
Q 1331 -91 842 396 
Q 353 884 353 1716 
Q 353 2575 817 3079 
Q 1281 3584 2069 3584 
Q 2775 3584 3186 3129 
Q 3597 2675 3597 1894 
z
M 3022 2063 
Q 3016 2534 2758 2815 
Q 2500 3097 2075 3097 
Q 1594 3097 1305 2825 
Q 1016 2553 972 2059 
L 3022 2063 
z
" transform="scale(0.015625)"/>
       <path id="DejaVuSans-71" d="M 947 1747 
Q 947 1113 1208 752 
Q 1469 391 1925 391 
Q 2381 391 2643 752 
Q 2906 1113 2906 1747 
Q 2906 2381 2643 2742 
Q 2381 3103 1925 3103 
Q 1469 3103 1208 2742 
Q 947 2381 947 1747 
z
M 2906 525 
Q 2725 213 2448 61 
Q 2172 -91 1784 -91 
Q 1150 -91 751 415 
Q 353 922 353 1747 
Q 353 2572 751 3078 
Q 1150 3584 1784 3584 
Q 2172 3584 2448 3432 
Q 2725 3281 2906 2969 
L 2906 3500 
L 3481 3500 
L 3481 -1331 
L 2906 -1331 
L 2906 525 
z
" transform="scale(0.015625)"/>
       <path id="DejaVuSans-fc" d="M 544 1381 
L 544 3500 
L 1119 3500 
L 1119 1403 
Q 1119 906 1312 657 
Q 1506 409 1894 409 
Q 2359 409 2629 706 
Q 2900 1003 2900 1516 
L 2900 3500 
L 3475 3500 
L 3475 0 
L 2900 0 
L 2900 538 
Q 2691 219 2414 64 
Q 2138 -91 1772 -91 
Q 1169 -91 856 284 
Q 544 659 544 1381 
z
M 1991 3584 
L 1991 3584 
z
M 2278 4850 
L 2912 4850 
L 2912 4219 
L 2278 4219 
L 2278 4850 
z
M 1056 4850 
L 1690 4850 
L 1690 4219 
L 1056 4219 
L 1056 4850 
z
" transform="scale(0.015625)"/>
       <path id="DejaVuSans-e8" d="M 3597 1894 
L 3597 1613 
L 953 1613 
Q 991 1019 1311 708 
Q 1631 397 2203 397 
Q 2534 397 2845 478 
Q 3156 559 3463 722 
L 3463 178 
Q 3153 47 2828 -22 
Q 2503 -91 2169 -91 
Q 1331 -91 842 396 
Q 353 884 353 1716 
Q 353 2575 817 3079 
Q 1281 3584 2069 3584 
Q 2775 3584 3186 3129 
Q 3597 2675 3597 1894 
z
M 3022 2063 
Q 3016 2534 2758 2815 
Q 2500 3097 2075 3097 
Q 1594 3097 1305 2825 
Q 1016 2553 972 2059 
L 3022 2063 
z
M 1579 5119 
L 2460 3950 
L 1982 3950 
L 963 5119 
L 1579 5119 
z
" transform="scale(0.015625)"/>
       <path id="DejaVuSans-73" d="M 2834 3397 
L 2834 2853 
Q 2591 2978 2328 3040 
Q 2066 3103 1784 3103 
Q 1356 3103 1142 2972 
Q 928 2841 928 2578 
Q 928 2378 1081 2264 
Q 1234 2150 1697 2047 
L 1894 2003 
Q 2506 1872 2764 1633 
Q 3022 1394 3022 966 
Q 3022 478 2636 193 
Q 2250 -91 1575 -91 
Q 1294 -91 989 -36 
Q 684 19 347 128 
L 347 722 
Q 666 556 975 473 
Q 1284 391 1588 391 
Q 1994 391 2212 530 
Q 2431 669 2431 922 
Q 2431 1156 2273 1281 
Q 2116 1406 1581 1522 
L 1381 1569 
Q 847 1681 609 1914 
Q 372 2147 372 2553 
Q 372 3047 722 3315 
Q 1072 3584 1716 3584 
Q 2034 3584 2315 3537 
Q 2597 3491 2834 3397 
z
" transform="scale(0.015625)"/>
       <path id="DejaVuSans-20" transform="scale(0.015625)"/>
       <path id="DejaVuSans-62" d="M 3116 1747 
Q 3116 2381 2855 2742 
Q 2594 3103 2138 3103 
Q 1681 3103 1420 2742 
Q 1159 2381 1159 1747 
Q 1159 1113 1420 752 
Q 1681 391 2138 391 
Q 2594 391 2855 752 
Q 3116 1113 3116 1747 
z
M 1159 2969 
Q 1341 3281 1617 3432 
Q 1894 3584 2278 3584 
Q 2916 3584 3314 3078 
Q 3713 2572 3713 1747 
Q 3713 922 3314 415 
Q 2916 -91 2278 -91 
Q 1894 -91 1617 61 
Q 1341 213 1159 525 
L 1159 0 
L 581 0 
L 581 4863 
L 1159 4863 
L 1159 2969 
z
" transform="scale(0.015625)"/>
       <path id="DejaVuSans-64" d="M 2906 2969 
L 2906 4863 
L 3481 4863 
L 3481 0 
L 2906 0 
L 2906 525 
Q 2725 213 2448 61 
Q 2172 -91 1784 -91 
Q 1150 -91 751 415 
Q 353 922 353 1747 
Q 353 2572 751 3078 
Q 1150 3584 1784 3584 
Q 2172 3584 2448 3432 
Q 2725 3281 2906 2969 
z
M 947 1747 
Q 947 1113 1208 752 
Q 1469 391 1925 391 
Q 2381 391 2643 752 
Q 2906 1113 2906 1747 
Q 2906 2381 2643 2742 
Q 2381 3103 1925 3103 
Q 1469 3103 1208 2742 
Q 947 2381 947 1747 
z
" transform="scale(0.015625)"/>
      </defs>
      <use xlink:href="#DejaVuSans-46"/>
      <use xlink:href="#DejaVuSans-72" transform="translate(50.269531 0)"/>
      <use xlink:href="#DejaVuSans-65" transform="translate(89.132812 0)"/>
      <use xlink:href="#DejaVuSans-71" transform="translate(150.65625 0)"/>
      <use xlink:href="#DejaVuSans-fc" transform="translate(214.132812 0)"/>
      <use xlink:href="#DejaVuSans-e8" transform="translate(277.511719 0)"/>
      <use xlink:href="#DejaVuSans-6e" transform="translate(339.035156 0)"/>
      <use xlink:href="#DejaVuSans-63" transform="translate(402.414062 0)"/>
      <use xlink:href="#DejaVuSans-69" transform="translate(457.394531 0)"/>
      <use xlink:href="#DejaVuSans-65" transform="translate(485.177734 0)"/>
      <use xlink:href="#DejaVuSans-73" transform="translate(546.701172 0)"/>
      <use xlink:href="#DejaVuSans-20" transform="translate(598.800781 0)"/>
      <use xlink:href="#DejaVuSans-62" transform="translate(630.587891 0)"/>
      <use xlink:href="#DejaVuSans-61" transform="translate(694.064453 0)"/>
      <use xlink:href="#DejaVuSans-73" transform="translate(755.34375 0)"/>
      <use xlink:href="#DejaVuSans-65" transform="translate(807.443359 0)"/>
      <use xlink:href="#DejaVuSans-20" transform="translate(868.966797 0)"/>
      <use xlink:href="#DejaVuSans-64" transform="translate(900.753906 0)"/>
      <use xlink:href="#DejaVuSans-65" transform="translate(964.230469 0)"/>
      <use xlink:href="#DejaVuSans-20" transform="translate(1025.753906 0)"/>
      <use xlink:href="#DejaVuSans-64" transform="translate(1057.541016 0)"/>
      <use xlink:href="#DejaVuSans-61" transform="translate(1121.017578 0)"/>
      <use xlink:href="#DejaVuSans-64" transform="translate(1182.296875 0)"/>
      <use xlink:href="#DejaVuSans-65" transform="translate(1245.773438 0)"/>
      <use xlink:href="#DejaVuSans-73" transform="translate(1307.296875 0)"/>
     </g>
    </g>
   </g>
   <g id="patch_51">
    <path d="M 90 384.48 
L 90 51.84 
" style="fill: none; stroke: #000000; stroke-width: 0.8; stroke-linejoin: miter; stroke-linecap: square"/>
   </g>
   <g id="patch_52">
    <path d="M 648 384.48 
L 648 51.84 
" style="fill: none; stroke: #000000; stroke-width: 0.8; stroke-linejoin: miter; stroke-linecap: square"/>
   </g>
   <g id="patch_53">
    <path d="M 90 384.48 
L 648 384.48 
" style="fill: none; stroke: #000000; stroke-width: 0.8; stroke-linejoin: miter; stroke-linecap: square"/>
   </g>
   <g id="patch_54">
    <path d="M 90 51.84 
L 648 51.84 
" style="fill: none; stroke: #000000; stroke-width: 0.8; stroke-linejoin: miter; stroke-linecap: square"/>
   </g>
  </g>
  <g id="axes_2">
   <g id="patch_55">
    <path d="M 116.420455 280715.485894 
L 124.875 280715.485894 
L 124.875 285.007653 
L 116.420455 285.007653 
z
" clip-path="url(#p178606246d)" style="fill: #ff0000; opacity: 0.6; stroke: #000000; stroke-linejoin: miter"/>
   </g>
   <g id="patch_56">
    <path d="M 126.988636 280715.485894 
L 135.443182 280715.485894 
L 135.443182 200.655306 
L 126.988636 200.655306 
z
" clip-path="url(#p178606246d)" style="fill: #ff0000; opacity: 0.6; stroke: #000000; stroke-linejoin: miter"/>
   </g>
   <g id="patch_57">
    <path d="M 137.556818 280715.485894 
L 146.011364 280715.485894 
L 146.011364 280715.485894 
L 137.556818 280715.485894 
z
" clip-path="url(#p178606246d)" style="fill: #ff0000; opacity: 0.6; stroke: #000000; stroke-linejoin: miter"/>
   </g>
   <g id="patch_58">
    <path d="M 148.125 280715.485894 
L 156.579545 280715.485894 
L 156.579545 280715.485894 
L 148.125 280715.485894 
z
" clip-path="url(#p178606246d)" style="fill: #ff0000; opacity: 0.6; stroke: #000000; stroke-linejoin: miter"/>
   </g>
   <g id="patch_59">
    <path d="M 158.693182 280715.485894 
L 167.147727 280715.485894 
L 167.147727 280715.485894 
L 158.693182 280715.485894 
z
" clip-path="url(#p178606246d)" style="fill: #ff0000; opacity: 0.6; stroke: #000000; stroke-linejoin: miter"/>
   </g>
   <g id="patch_60">
    <path d="M 169.261364 280715.485894 
L 177.715909 280715.485894 
L 177.715909 280715.485894 
L 169.261364 280715.485894 
z
" clip-path="url(#p178606246d)" style="fill: #ff0000; opacity: 0.6; stroke: #000000; stroke-linejoin: miter"/>
   </g>
   <g id="patch_61">
    <path d="M 179.829545 280715.485894 
L 188.284091 280715.485894 
L 188.284091 280715.485894 
L 179.829545 280715.485894 
z
" clip-path="url(#p178606246d)" style="fill: #ff0000; opacity: 0.6; stroke: #000000; stroke-linejoin: miter"/>
   </g>
   <g id="patch_62">
    <path d="M 190.397727 280715.485894 
L 198.852273 280715.485894 
L 198.852273 280715.485894 
L 190.397727 280715.485894 
z
" clip-path="url(#p178606246d)" style="fill: #ff0000; opacity: 0.6; stroke: #000000; stroke-linejoin: miter"/>
   </g>
   <g id="patch_63">
    <path d="M 200.965909 280715.485894 
L 209.420455 280715.485894 
L 209.420455 66.96 
L 200.965909 66.96 
z
" clip-path="url(#p178606246d)" style="fill: #ff0000; opacity: 0.6; stroke: #000000; stroke-linejoin: miter"/>
   </g>
   <g id="patch_64">
    <path d="M 211.534091 280715.485894 
L 219.988636 280715.485894 
L 219.988636 280715.485894 
L 211.534091 280715.485894 
z
" clip-path="url(#p178606246d)" style="fill: #ff0000; opacity: 0.6; stroke: #000000; stroke-linejoin: miter"/>
   </g>
   <g id="patch_65">
    <path d="M 222.102273 280715.485894 
L 230.556818 280715.485894 
L 230.556818 280715.485894 
L 222.102273 280715.485894 
z
" clip-path="url(#p178606246d)" style="fill: #ff0000; opacity: 0.6; stroke: #000000; stroke-linejoin: miter"/>
   </g>
   <g id="patch_66">
    <path d="M 232.670455 280715.485894 
L 241.125 280715.485894 
L 241.125 151.312347 
L 232.670455 151.312347 
z
" clip-path="url(#p178606246d)" style="fill: #ff0000; opacity: 0.6; stroke: #000000; stroke-linejoin: miter"/>
   </g>
   <g id="patch_67">
    <path d="M 243.238636 280715.485894 
L 251.693182 280715.485894 
L 251.693182 280715.485894 
L 243.238636 280715.485894 
z
" clip-path="url(#p178606246d)" style="fill: #ff0000; opacity: 0.6; stroke: #000000; stroke-linejoin: miter"/>
   </g>
   <g id="patch_68">
    <path d="M 253.806818 280715.485894 
L 262.261364 280715.485894 
L 262.261364 280715.485894 
L 253.806818 280715.485894 
z
" clip-path="url(#p178606246d)" style="fill: #ff0000; opacity: 0.6; stroke: #000000; stroke-linejoin: miter"/>
   </g>
   <g id="patch_69">
    <path d="M 264.375 280715.485894 
L 272.829545 280715.485894 
L 272.829545 280715.485894 
L 264.375 280715.485894 
z
" clip-path="url(#p178606246d)" style="fill: #ff0000; opacity: 0.6; stroke: #000000; stroke-linejoin: miter"/>
   </g>
   <g id="patch_70">
    <path d="M 274.943182 280715.485894 
L 283.397727 280715.485894 
L 283.397727 280715.485894 
L 274.943182 280715.485894 
z
" clip-path="url(#p178606246d)" style="fill: #ff0000; opacity: 0.6; stroke: #000000; stroke-linejoin: miter"/>
   </g>
   <g id="patch_71">
    <path d="M 285.511364 280715.485894 
L 293.965909 280715.485894 
L 293.965909 280715.485894 
L 285.511364 280715.485894 
z
" clip-path="url(#p178606246d)" style="fill: #ff0000; opacity: 0.6; stroke: #000000; stroke-linejoin: miter"/>
   </g>
   <g id="patch_72">
    <path d="M 296.079545 280715.485894 
L 304.534091 280715.485894 
L 304.534091 280715.485894 
L 296.079545 280715.485894 
z
" clip-path="url(#p178606246d)" style="fill: #ff0000; opacity: 0.6; stroke: #000000; stroke-linejoin: miter"/>
   </g>
   <g id="patch_73">
    <path d="M 306.647727 280715.485894 
L 315.102273 280715.485894 
L 315.102273 280715.485894 
L 306.647727 280715.485894 
z
" clip-path="url(#p178606246d)" style="fill: #ff0000; opacity: 0.6; stroke: #000000; stroke-linejoin: miter"/>
   </g>
   <g id="patch_74">
    <path d="M 317.215909 280715.485894 
L 325.670455 280715.485894 
L 325.670455 280715.485894 
L 317.215909 280715.485894 
z
" clip-path="url(#p178606246d)" style="fill: #ff0000; opacity: 0.6; stroke: #000000; stroke-linejoin: miter"/>
   </g>
   <g id="patch_75">
    <path d="M 327.784091 280715.485894 
L 336.238636 280715.485894 
L 336.238636 280715.485894 
L 327.784091 280715.485894 
z
" clip-path="url(#p178606246d)" style="fill: #ff0000; opacity: 0.6; stroke: #000000; stroke-linejoin: miter"/>
   </g>
   <g id="patch_76">
    <path d="M 338.352273 280715.485894 
L 346.806818 280715.485894 
L 346.806818 369.36 
L 338.352273 369.36 
z
" clip-path="url(#p178606246d)" style="fill: #ff0000; opacity: 0.6; stroke: #000000; stroke-linejoin: miter"/>
   </g>
   <g id="patch_77">
    <path d="M 348.920455 280715.485894 
L 357.375 280715.485894 
L 357.375 280715.485894 
L 348.920455 280715.485894 
z
" clip-path="url(#p178606246d)" style="fill: #ff0000; opacity: 0.6; stroke: #000000; stroke-linejoin: miter"/>
   </g>
   <g id="patch_78">
    <path d="M 359.488636 280715.485894 
L 367.943182 280715.485894 
L 367.943182 280715.485894 
L 359.488636 280715.485894 
z
" clip-path="url(#p178606246d)" style="fill: #ff0000; opacity: 0.6; stroke: #000000; stroke-linejoin: miter"/>
   </g>
   <g id="patch_79">
    <path d="M 370.056818 280715.485894 
L 378.511364 280715.485894 
L 378.511364 280715.485894 
L 370.056818 280715.485894 
z
" clip-path="url(#p178606246d)" style="fill: #ff0000; opacity: 0.6; stroke: #000000; stroke-linejoin: miter"/>
   </g>
   <g id="patch_80">
    <path d="M 380.625 280715.485894 
L 389.079545 280715.485894 
L 389.079545 280715.485894 
L 380.625 280715.485894 
z
" clip-path="url(#p178606246d)" style="fill: #ff0000; opacity: 0.6; stroke: #000000; stroke-linejoin: miter"/>
   </g>
   <g id="patch_81">
    <path d="M 391.193182 280715.485894 
L 399.647727 280715.485894 
L 399.647727 280715.485894 
L 391.193182 280715.485894 
z
" clip-path="url(#p178606246d)" style="fill: #ff0000; opacity: 0.6; stroke: #000000; stroke-linejoin: miter"/>
   </g>
   <g id="patch_82">
    <path d="M 401.761364 280715.485894 
L 410.215909 280715.485894 
L 410.215909 280715.485894 
L 401.761364 280715.485894 
z
" clip-path="url(#p178606246d)" style="fill: #ff0000; opacity: 0.6; stroke: #000000; stroke-linejoin: miter"/>
   </g>
   <g id="patch_83">
    <path d="M 412.329545 280715.485894 
L 420.784091 280715.485894 
L 420.784091 280715.485894 
L 412.329545 280715.485894 
z
" clip-path="url(#p178606246d)" style="fill: #ff0000; opacity: 0.6; stroke: #000000; stroke-linejoin: miter"/>
   </g>
   <g id="patch_84">
    <path d="M 422.897727 280715.485894 
L 431.352273 280715.485894 
L 431.352273 280715.485894 
L 422.897727 280715.485894 
z
" clip-path="url(#p178606246d)" style="fill: #ff0000; opacity: 0.6; stroke: #000000; stroke-linejoin: miter"/>
   </g>
   <g id="patch_85">
    <path d="M 433.465909 280715.485894 
L 441.920455 280715.485894 
L 441.920455 280715.485894 
L 433.465909 280715.485894 
z
" clip-path="url(#p178606246d)" style="fill: #ff0000; opacity: 0.6; stroke: #000000; stroke-linejoin: miter"/>
   </g>
   <g id="patch_86">
    <path d="M 444.034091 280715.485894 
L 452.488636 280715.485894 
L 452.488636 280715.485894 
L 444.034091 280715.485894 
z
" clip-path="url(#p178606246d)" style="fill: #ff0000; opacity: 0.6; stroke: #000000; stroke-linejoin: miter"/>
   </g>
   <g id="patch_87">
    <path d="M 454.602273 280715.485894 
L 463.056818 280715.485894 
L 463.056818 280715.485894 
L 454.602273 280715.485894 
z
" clip-path="url(#p178606246d)" style="fill: #ff0000; opacity: 0.6; stroke: #000000; stroke-linejoin: miter"/>
   </g>
   <g id="patch_88">
    <path d="M 465.170455 280715.485894 
L 473.625 280715.485894 
L 473.625 280715.485894 
L 465.170455 280715.485894 
z
" clip-path="url(#p178606246d)" style="fill: #ff0000; opacity: 0.6; stroke: #000000; stroke-linejoin: miter"/>
   </g>
   <g id="patch_89">
    <path d="M 475.738636 280715.485894 
L 484.193182 280715.485894 
L 484.193182 280715.485894 
L 475.738636 280715.485894 
z
" clip-path="url(#p178606246d)" style="fill: #ff0000; opacity: 0.6; stroke: #000000; stroke-linejoin: miter"/>
   </g>
   <g id="patch_90">
    <path d="M 486.306818 280715.485894 
L 494.761364 280715.485894 
L 494.761364 369.36 
L 486.306818 369.36 
z
" clip-path="url(#p178606246d)" style="fill: #ff0000; opacity: 0.6; stroke: #000000; stroke-linejoin: miter"/>
   </g>
   <g id="patch_91">
    <path d="M 496.875 280715.485894 
L 505.329545 280715.485894 
L 505.329545 280715.485894 
L 496.875 280715.485894 
z
" clip-path="url(#p178606246d)" style="fill: #ff0000; opacity: 0.6; stroke: #000000; stroke-linejoin: miter"/>
   </g>
   <g id="patch_92">
    <path d="M 507.443182 280715.485894 
L 515.897727 280715.485894 
L 515.897727 280715.485894 
L 507.443182 280715.485894 
z
" clip-path="url(#p178606246d)" style="fill: #ff0000; opacity: 0.6; stroke: #000000; stroke-linejoin: miter"/>
   </g>
   <g id="patch_93">
    <path d="M 518.011364 280715.485894 
L 526.465909 280715.485894 
L 526.465909 280715.485894 
L 518.011364 280715.485894 
z
" clip-path="url(#p178606246d)" style="fill: #ff0000; opacity: 0.6; stroke: #000000; stroke-linejoin: miter"/>
   </g>
   <g id="patch_94">
    <path d="M 528.579545 280715.485894 
L 537.034091 280715.485894 
L 537.034091 280715.485894 
L 528.579545 280715.485894 
z
" clip-path="url(#p178606246d)" style="fill: #ff0000; opacity: 0.6; stroke: #000000; stroke-linejoin: miter"/>
   </g>
   <g id="patch_95">
    <path d="M 539.147727 280715.485894 
L 547.602273 280715.485894 
L 547.602273 280715.485894 
L 539.147727 280715.485894 
z
" clip-path="url(#p178606246d)" style="fill: #ff0000; opacity: 0.6; stroke: #000000; stroke-linejoin: miter"/>
   </g>
   <g id="patch_96">
    <path d="M 549.715909 280715.485894 
L 558.170455 280715.485894 
L 558.170455 280715.485894 
L 549.715909 280715.485894 
z
" clip-path="url(#p178606246d)" style="fill: #ff0000; opacity: 0.6; stroke: #000000; stroke-linejoin: miter"/>
   </g>
   <g id="patch_97">
    <path d="M 560.284091 280715.485894 
L 568.738636 280715.485894 
L 568.738636 280715.485894 
L 560.284091 280715.485894 
z
" clip-path="url(#p178606246d)" style="fill: #ff0000; opacity: 0.6; stroke: #000000; stroke-linejoin: miter"/>
   </g>
   <g id="patch_98">
    <path d="M 570.852273 280715.485894 
L 579.306818 280715.485894 
L 579.306818 280715.485894 
L 570.852273 280715.485894 
z
" clip-path="url(#p178606246d)" style="fill: #ff0000; opacity: 0.6; stroke: #000000; stroke-linejoin: miter"/>
   </g>
   <g id="patch_99">
    <path d="M 581.420455 280715.485894 
L 589.875 280715.485894 
L 589.875 280715.485894 
L 581.420455 280715.485894 
z
" clip-path="url(#p178606246d)" style="fill: #ff0000; opacity: 0.6; stroke: #000000; stroke-linejoin: miter"/>
   </g>
   <g id="patch_100">
    <path d="M 591.988636 280715.485894 
L 600.443182 280715.485894 
L 600.443182 280715.485894 
L 591.988636 280715.485894 
z
" clip-path="url(#p178606246d)" style="fill: #ff0000; opacity: 0.6; stroke: #000000; stroke-linejoin: miter"/>
   </g>
   <g id="patch_101">
    <path d="M 602.556818 280715.485894 
L 611.011364 280715.485894 
L 611.011364 280715.485894 
L 602.556818 280715.485894 
z
" clip-path="url(#p178606246d)" style="fill: #ff0000; opacity: 0.6; stroke: #000000; stroke-linejoin: miter"/>
   </g>
   <g id="patch_102">
    <path d="M 613.125 280715.485894 
L 621.579545 280715.485894 
L 621.579545 369.36 
L 613.125 369.36 
z
" clip-path="url(#p178606246d)" style="fill: #ff0000; opacity: 0.6; stroke: #000000; stroke-linejoin: miter"/>
   </g>
   <g id="matplotlib.axis_3">
    <g id="ytick_26">
     <g id="line2d_63">
      <defs>
       <path id="m733f05052f" d="M 0 0 
L 3.5 0 
" style="stroke: #000000; stroke-width: 0.8"/>
      </defs>
      <g>
       <use xlink:href="#m733f05052f" x="648" y="222.842876" style="stroke: #000000; stroke-width: 0.8"/>
      </g>
     </g>
     <g id="text_12">
      <!-- $\mathdefault{10^{1}}$ -->
      <g transform="translate(655 226.642095) scale(0.1 -0.1)">
       <use xlink:href="#DejaVuSans-31" transform="translate(0 0.684375)"/>
       <use xlink:href="#DejaVuSans-30" transform="translate(63.623047 0.684375)"/>
       <use xlink:href="#DejaVuSans-31" transform="translate(128.203125 38.965625) scale(0.7)"/>
      </g>
     </g>
    </g>
    <g id="ytick_27">
     <g id="line2d_64">
      <defs>
       <path id="mc44f0efbba" d="M 0 0 
L 2 0 
" style="stroke: #000000; stroke-width: 0.6"/>
      </defs>
      <g>
       <use xlink:href="#mc44f0efbba" x="648" y="369.36" style="stroke: #000000; stroke-width: 0.6"/>
      </g>
     </g>
    </g>
    <g id="ytick_28">
     <g id="line2d_65">
      <g>
       <use xlink:href="#mc44f0efbba" x="648" y="334.350613" style="stroke: #000000; stroke-width: 0.6"/>
      </g>
     </g>
    </g>
    <g id="ytick_29">
     <g id="line2d_66">
      <g>
       <use xlink:href="#mc44f0efbba" x="648" y="307.195223" style="stroke: #000000; stroke-width: 0.6"/>
      </g>
     </g>
    </g>
    <g id="ytick_30">
     <g id="line2d_67">
      <g>
       <use xlink:href="#mc44f0efbba" x="648" y="285.007653" style="stroke: #000000; stroke-width: 0.6"/>
      </g>
     </g>
    </g>
    <g id="ytick_31">
     <g id="line2d_68">
      <g>
       <use xlink:href="#mc44f0efbba" x="648" y="266.248331" style="stroke: #000000; stroke-width: 0.6"/>
      </g>
     </g>
    </g>
    <g id="ytick_32">
     <g id="line2d_69">
      <g>
       <use xlink:href="#mc44f0efbba" x="648" y="249.998266" style="stroke: #000000; stroke-width: 0.6"/>
      </g>
     </g>
    </g>
    <g id="ytick_33">
     <g id="line2d_70">
      <g>
       <use xlink:href="#mc44f0efbba" x="648" y="235.664694" style="stroke: #000000; stroke-width: 0.6"/>
      </g>
     </g>
    </g>
    <g id="ytick_34">
     <g id="line2d_71">
      <g>
       <use xlink:href="#mc44f0efbba" x="648" y="138.490529" style="stroke: #000000; stroke-width: 0.6"/>
      </g>
     </g>
    </g>
    <g id="ytick_35">
     <g id="line2d_72">
      <g>
       <use xlink:href="#mc44f0efbba" x="648" y="89.147569" style="stroke: #000000; stroke-width: 0.6"/>
      </g>
     </g>
    </g>
    <g id="ytick_36">
     <g id="line2d_73">
      <g>
       <use xlink:href="#mc44f0efbba" x="648" y="54.138182" style="stroke: #000000; stroke-width: 0.6"/>
      </g>
     </g>
    </g>
    <g id="text_13">
     <!-- Freqüències molècula analitzada -->
     <g style="fill: #ff0000" transform="translate(684.598438 300.006875) rotate(-90) scale(0.1 -0.1)">
      <defs>
       <path id="DejaVuSans-6c" d="M 603 4863 
L 1178 4863 
L 1178 0 
L 603 0 
L 603 4863 
z
" transform="scale(0.015625)"/>
       <path id="DejaVuSans-75" d="M 544 1381 
L 544 3500 
L 1119 3500 
L 1119 1403 
Q 1119 906 1312 657 
Q 1506 409 1894 409 
Q 2359 409 2629 706 
Q 2900 1003 2900 1516 
L 2900 3500 
L 3475 3500 
L 3475 0 
L 2900 0 
L 2900 538 
Q 2691 219 2414 64 
Q 2138 -91 1772 -91 
Q 1169 -91 856 284 
Q 544 659 544 1381 
z
M 1991 3584 
L 1991 3584 
z
" transform="scale(0.015625)"/>
       <path id="DejaVuSans-74" d="M 1172 4494 
L 1172 3500 
L 2356 3500 
L 2356 3053 
L 1172 3053 
L 1172 1153 
Q 1172 725 1289 603 
Q 1406 481 1766 481 
L 2356 481 
L 2356 0 
L 1766 0 
Q 1100 0 847 248 
Q 594 497 594 1153 
L 594 3053 
L 172 3053 
L 172 3500 
L 594 3500 
L 594 4494 
L 1172 4494 
z
" transform="scale(0.015625)"/>
       <path id="DejaVuSans-7a" d="M 353 3500 
L 3084 3500 
L 3084 2975 
L 922 459 
L 3084 459 
L 3084 0 
L 275 0 
L 275 525 
L 2438 3041 
L 353 3041 
L 353 3500 
z
" transform="scale(0.015625)"/>
      </defs>
      <use xlink:href="#DejaVuSans-46"/>
      <use xlink:href="#DejaVuSans-72" transform="translate(50.269531 0)"/>
      <use xlink:href="#DejaVuSans-65" transform="translate(89.132812 0)"/>
      <use xlink:href="#DejaVuSans-71" transform="translate(150.65625 0)"/>
      <use xlink:href="#DejaVuSans-fc" transform="translate(214.132812 0)"/>
      <use xlink:href="#DejaVuSans-e8" transform="translate(277.511719 0)"/>
      <use xlink:href="#DejaVuSans-6e" transform="translate(339.035156 0)"/>
      <use xlink:href="#DejaVuSans-63" transform="translate(402.414062 0)"/>
      <use xlink:href="#DejaVuSans-69" transform="translate(457.394531 0)"/>
      <use xlink:href="#DejaVuSans-65" transform="translate(485.177734 0)"/>
      <use xlink:href="#DejaVuSans-73" transform="translate(546.701172 0)"/>
      <use xlink:href="#DejaVuSans-20" transform="translate(598.800781 0)"/>
      <use xlink:href="#DejaVuSans-6d" transform="translate(630.587891 0)"/>
      <use xlink:href="#DejaVuSans-6f" transform="translate(728 0)"/>
      <use xlink:href="#DejaVuSans-6c" transform="translate(789.181641 0)"/>
      <use xlink:href="#DejaVuSans-e8" transform="translate(816.964844 0)"/>
      <use xlink:href="#DejaVuSans-63" transform="translate(878.488281 0)"/>
      <use xlink:href="#DejaVuSans-75" transform="translate(933.46875 0)"/>
      <use xlink:href="#DejaVuSans-6c" transform="translate(996.847656 0)"/>
      <use xlink:href="#DejaVuSans-61" transform="translate(1024.630859 0)"/>
      <use xlink:href="#DejaVuSans-20" transform="translate(1085.910156 0)"/>
      <use xlink:href="#DejaVuSans-61" transform="translate(1117.697266 0)"/>
      <use xlink:href="#DejaVuSans-6e" transform="translate(1178.976562 0)"/>
      <use xlink:href="#DejaVuSans-61" transform="translate(1242.355469 0)"/>
      <use xlink:href="#DejaVuSans-6c" transform="translate(1303.634766 0)"/>
      <use xlink:href="#DejaVuSans-69" transform="translate(1331.417969 0)"/>
      <use xlink:href="#DejaVuSans-74" transform="translate(1359.201172 0)"/>
      <use xlink:href="#DejaVuSans-7a" transform="translate(1398.410156 0)"/>
      <use xlink:href="#DejaVuSans-61" transform="translate(1450.900391 0)"/>
      <use xlink:href="#DejaVuSans-64" transform="translate(1512.179688 0)"/>
      <use xlink:href="#DejaVuSans-61" transform="translate(1575.65625 0)"/>
     </g>
    </g>
   </g>
   <g id="patch_103">
    <path d="M 90 384.48 
L 90 51.84 
" style="fill: none; stroke: #000000; stroke-width: 0.8; stroke-linejoin: miter; stroke-linecap: square"/>
   </g>
   <g id="patch_104">
    <path d="M 648 384.48 
L 648 51.84 
" style="fill: none; stroke: #000000; stroke-width: 0.8; stroke-linejoin: miter; stroke-linecap: square"/>
   </g>
   <g id="patch_105">
    <path d="M 90 384.48 
L 648 384.48 
" style="fill: none; stroke: #000000; stroke-width: 0.8; stroke-linejoin: miter; stroke-linecap: square"/>
   </g>
   <g id="patch_106">
    <path d="M 90 51.84 
L 648 51.84 
" style="fill: none; stroke: #000000; stroke-width: 0.8; stroke-linejoin: miter; stroke-linecap: square"/>
   </g>
   <g id="text_14">
    <!-- Overlapping Histograms with Different Scales -->
    <g transform="translate(232.069688 45.84) scale(0.12 -0.12)">
     <defs>
      <path id="DejaVuSans-4f" d="M 2522 4238 
Q 1834 4238 1429 3725 
Q 1025 3213 1025 2328 
Q 1025 1447 1429 934 
Q 1834 422 2522 422 
Q 3209 422 3611 934 
Q 4013 1447 4013 2328 
Q 4013 3213 3611 3725 
Q 3209 4238 2522 4238 
z
M 2522 4750 
Q 3503 4750 4090 4092 
Q 4678 3434 4678 2328 
Q 4678 1225 4090 567 
Q 3503 -91 2522 -91 
Q 1538 -91 948 565 
Q 359 1222 359 2328 
Q 359 3434 948 4092 
Q 1538 4750 2522 4750 
z
" transform="scale(0.015625)"/>
      <path id="DejaVuSans-76" d="M 191 3500 
L 800 3500 
L 1894 563 
L 2988 3500 
L 3597 3500 
L 2284 0 
L 1503 0 
L 191 3500 
z
" transform="scale(0.015625)"/>
      <path id="DejaVuSans-70" d="M 1159 525 
L 1159 -1331 
L 581 -1331 
L 581 3500 
L 1159 3500 
L 1159 2969 
Q 1341 3281 1617 3432 
Q 1894 3584 2278 3584 
Q 2916 3584 3314 3078 
Q 3713 2572 3713 1747 
Q 3713 922 3314 415 
Q 2916 -91 2278 -91 
Q 1894 -91 1617 61 
Q 1341 213 1159 525 
z
M 3116 1747 
Q 3116 2381 2855 2742 
Q 2594 3103 2138 3103 
Q 1681 3103 1420 2742 
Q 1159 2381 1159 1747 
Q 1159 1113 1420 752 
Q 1681 391 2138 391 
Q 2594 391 2855 752 
Q 3116 1113 3116 1747 
z
" transform="scale(0.015625)"/>
      <path id="DejaVuSans-67" d="M 2906 1791 
Q 2906 2416 2648 2759 
Q 2391 3103 1925 3103 
Q 1463 3103 1205 2759 
Q 947 2416 947 1791 
Q 947 1169 1205 825 
Q 1463 481 1925 481 
Q 2391 481 2648 825 
Q 2906 1169 2906 1791 
z
M 3481 434 
Q 3481 -459 3084 -895 
Q 2688 -1331 1869 -1331 
Q 1566 -1331 1297 -1286 
Q 1028 -1241 775 -1147 
L 775 -588 
Q 1028 -725 1275 -790 
Q 1522 -856 1778 -856 
Q 2344 -856 2625 -561 
Q 2906 -266 2906 331 
L 2906 616 
Q 2728 306 2450 153 
Q 2172 0 1784 0 
Q 1141 0 747 490 
Q 353 981 353 1791 
Q 353 2603 747 3093 
Q 1141 3584 1784 3584 
Q 2172 3584 2450 3431 
Q 2728 3278 2906 2969 
L 2906 3500 
L 3481 3500 
L 3481 434 
z
" transform="scale(0.015625)"/>
      <path id="DejaVuSans-48" d="M 628 4666 
L 1259 4666 
L 1259 2753 
L 3553 2753 
L 3553 4666 
L 4184 4666 
L 4184 0 
L 3553 0 
L 3553 2222 
L 1259 2222 
L 1259 0 
L 628 0 
L 628 4666 
z
" transform="scale(0.015625)"/>
      <path id="DejaVuSans-77" d="M 269 3500 
L 844 3500 
L 1563 769 
L 2278 3500 
L 2956 3500 
L 3675 769 
L 4391 3500 
L 4966 3500 
L 4050 0 
L 3372 0 
L 2619 2869 
L 1863 0 
L 1184 0 
L 269 3500 
z
" transform="scale(0.015625)"/>
      <path id="DejaVuSans-68" d="M 3513 2113 
L 3513 0 
L 2938 0 
L 2938 2094 
Q 2938 2591 2744 2837 
Q 2550 3084 2163 3084 
Q 1697 3084 1428 2787 
Q 1159 2491 1159 1978 
L 1159 0 
L 581 0 
L 581 4863 
L 1159 4863 
L 1159 2956 
Q 1366 3272 1645 3428 
Q 1925 3584 2291 3584 
Q 2894 3584 3203 3211 
Q 3513 2838 3513 2113 
z
" transform="scale(0.015625)"/>
      <path id="DejaVuSans-44" d="M 1259 4147 
L 1259 519 
L 2022 519 
Q 2988 519 3436 956 
Q 3884 1394 3884 2338 
Q 3884 3275 3436 3711 
Q 2988 4147 2022 4147 
L 1259 4147 
z
M 628 4666 
L 1925 4666 
Q 3281 4666 3915 4102 
Q 4550 3538 4550 2338 
Q 4550 1131 3912 565 
Q 3275 0 1925 0 
L 628 0 
L 628 4666 
z
" transform="scale(0.015625)"/>
      <path id="DejaVuSans-53" d="M 3425 4513 
L 3425 3897 
Q 3066 4069 2747 4153 
Q 2428 4238 2131 4238 
Q 1616 4238 1336 4038 
Q 1056 3838 1056 3469 
Q 1056 3159 1242 3001 
Q 1428 2844 1947 2747 
L 2328 2669 
Q 3034 2534 3370 2195 
Q 3706 1856 3706 1288 
Q 3706 609 3251 259 
Q 2797 -91 1919 -91 
Q 1588 -91 1214 -16 
Q 841 59 441 206 
L 441 856 
Q 825 641 1194 531 
Q 1563 422 1919 422 
Q 2459 422 2753 634 
Q 3047 847 3047 1241 
Q 3047 1584 2836 1778 
Q 2625 1972 2144 2069 
L 1759 2144 
Q 1053 2284 737 2584 
Q 422 2884 422 3419 
Q 422 4038 858 4394 
Q 1294 4750 2059 4750 
Q 2388 4750 2728 4690 
Q 3069 4631 3425 4513 
z
" transform="scale(0.015625)"/>
     </defs>
     <use xlink:href="#DejaVuSans-4f"/>
     <use xlink:href="#DejaVuSans-76" transform="translate(78.710938 0)"/>
     <use xlink:href="#DejaVuSans-65" transform="translate(137.890625 0)"/>
     <use xlink:href="#DejaVuSans-72" transform="translate(199.414062 0)"/>
     <use xlink:href="#DejaVuSans-6c" transform="translate(240.527344 0)"/>
     <use xlink:href="#DejaVuSans-61" transform="translate(268.310547 0)"/>
     <use xlink:href="#DejaVuSans-70" transform="translate(329.589844 0)"/>
     <use xlink:href="#DejaVuSans-70" transform="translate(393.066406 0)"/>
     <use xlink:href="#DejaVuSans-69" transform="translate(456.542969 0)"/>
     <use xlink:href="#DejaVuSans-6e" transform="translate(484.326172 0)"/>
     <use xlink:href="#DejaVuSans-67" transform="translate(547.705078 0)"/>
     <use xlink:href="#DejaVuSans-20" transform="translate(611.181641 0)"/>
     <use xlink:href="#DejaVuSans-48" transform="translate(642.96875 0)"/>
     <use xlink:href="#DejaVuSans-69" transform="translate(718.164062 0)"/>
     <use xlink:href="#DejaVuSans-73" transform="translate(745.947266 0)"/>
     <use xlink:href="#DejaVuSans-74" transform="translate(798.046875 0)"/>
     <use xlink:href="#DejaVuSans-6f" transform="translate(837.255859 0)"/>
     <use xlink:href="#DejaVuSans-67" transform="translate(898.4375 0)"/>
     <use xlink:href="#DejaVuSans-72" transform="translate(961.914062 0)"/>
     <use xlink:href="#DejaVuSans-61" transform="translate(1003.027344 0)"/>
     <use xlink:href="#DejaVuSans-6d" transform="translate(1064.306641 0)"/>
     <use xlink:href="#DejaVuSans-73" transform="translate(1161.71875 0)"/>
     <use xlink:href="#DejaVuSans-20" transform="translate(1213.818359 0)"/>
     <use xlink:href="#DejaVuSans-77" transform="translate(1245.605469 0)"/>
     <use xlink:href="#DejaVuSans-69" transform="translate(1327.392578 0)"/>
     <use xlink:href="#DejaVuSans-74" transform="translate(1355.175781 0)"/>
     <use xlink:href="#DejaVuSans-68" transform="translate(1394.384766 0)"/>
     <use xlink:href="#DejaVuSans-20" transform="translate(1457.763672 0)"/>
     <use xlink:href="#DejaVuSans-44" transform="translate(1489.550781 0)"/>
     <use xlink:href="#DejaVuSans-69" transform="translate(1566.552734 0)"/>
     <use xlink:href="#DejaVuSans-66" transform="translate(1594.335938 0)"/>
     <use xlink:href="#DejaVuSans-66" transform="translate(1629.541016 0)"/>
     <use xlink:href="#DejaVuSans-65" transform="translate(1664.746094 0)"/>
     <use xlink:href="#DejaVuSans-72" transform="translate(1726.269531 0)"/>
     <use xlink:href="#DejaVuSans-65" transform="translate(1765.132812 0)"/>
     <use xlink:href="#DejaVuSans-6e" transform="translate(1826.65625 0)"/>
     <use xlink:href="#DejaVuSans-74" transform="translate(1890.035156 0)"/>
     <use xlink:href="#DejaVuSans-20" transform="translate(1929.244141 0)"/>
     <use xlink:href="#DejaVuSans-53" transform="translate(1961.03125 0)"/>
     <use xlink:href="#DejaVuSans-63" transform="translate(2024.507812 0)"/>
     <use xlink:href="#DejaVuSans-61" transform="translate(2079.488281 0)"/>
     <use xlink:href="#DejaVuSans-6c" transform="translate(2140.767578 0)"/>
     <use xlink:href="#DejaVuSans-65" transform="translate(2168.550781 0)"/>
     <use xlink:href="#DejaVuSans-73" transform="translate(2230.074219 0)"/>
    </g>
   </g>
  </g>
  <g id="legend_1">
   <g id="patch_107">
    <path d="M 445.30625 89.99625 
L 641 89.99625 
Q 643 89.99625 643 87.99625 
L 643 58.84 
Q 643 56.84 641 56.84 
L 445.30625 56.84 
Q 443.30625 56.84 443.30625 58.84 
L 443.30625 87.99625 
Q 443.30625 89.99625 445.30625 89.99625 
z
" style="fill: #ffffff; opacity: 0.8; stroke: #cccccc; stroke-linejoin: miter"/>
   </g>
   <g id="patch_108">
    <path d="M 447.30625 68.838437 
L 467.30625 68.838437 
L 467.30625 61.838437 
L 447.30625 61.838437 
z
" style="fill: #0000ff; stroke: #000000; stroke-linejoin: miter"/>
   </g>
   <g id="text_15">
    <!-- Freqüències base de dades -->
    <g transform="translate(475.30625 68.838437) scale(0.1 -0.1)">
     <use xlink:href="#DejaVuSans-46"/>
     <use xlink:href="#DejaVuSans-72" transform="translate(50.269531 0)"/>
     <use xlink:href="#DejaVuSans-65" transform="translate(89.132812 0)"/>
     <use xlink:href="#DejaVuSans-71" transform="translate(150.65625 0)"/>
     <use xlink:href="#DejaVuSans-fc" transform="translate(214.132812 0)"/>
     <use xlink:href="#DejaVuSans-e8" transform="translate(277.511719 0)"/>
     <use xlink:href="#DejaVuSans-6e" transform="translate(339.035156 0)"/>
     <use xlink:href="#DejaVuSans-63" transform="translate(402.414062 0)"/>
     <use xlink:href="#DejaVuSans-69" transform="translate(457.394531 0)"/>
     <use xlink:href="#DejaVuSans-65" transform="translate(485.177734 0)"/>
     <use xlink:href="#DejaVuSans-73" transform="translate(546.701172 0)"/>
     <use xlink:href="#DejaVuSans-20" transform="translate(598.800781 0)"/>
     <use xlink:href="#DejaVuSans-62" transform="translate(630.587891 0)"/>
     <use xlink:href="#DejaVuSans-61" transform="translate(694.064453 0)"/>
     <use xlink:href="#DejaVuSans-73" transform="translate(755.34375 0)"/>
     <use xlink:href="#DejaVuSans-65" transform="translate(807.443359 0)"/>
     <use xlink:href="#DejaVuSans-20" transform="translate(868.966797 0)"/>
     <use xlink:href="#DejaVuSans-64" transform="translate(900.753906 0)"/>
     <use xlink:href="#DejaVuSans-65" transform="translate(964.230469 0)"/>
     <use xlink:href="#DejaVuSans-20" transform="translate(1025.753906 0)"/>
     <use xlink:href="#DejaVuSans-64" transform="translate(1057.541016 0)"/>
     <use xlink:href="#DejaVuSans-61" transform="translate(1121.017578 0)"/>
     <use xlink:href="#DejaVuSans-64" transform="translate(1182.296875 0)"/>
     <use xlink:href="#DejaVuSans-65" transform="translate(1245.773438 0)"/>
     <use xlink:href="#DejaVuSans-73" transform="translate(1307.296875 0)"/>
    </g>
   </g>
   <g id="patch_109">
    <path d="M 447.30625 83.916562 
L 467.30625 83.916562 
L 467.30625 76.916562 
L 447.30625 76.916562 
z
" style="fill: #ff0000; opacity: 0.6; stroke: #000000; stroke-linejoin: miter"/>
   </g>
   <g id="text_16">
    <!-- Freqüències molècula analitzada -->
    <g transform="translate(475.30625 83.916562) scale(0.1 -0.1)">
     <use xlink:href="#DejaVuSans-46"/>
     <use xlink:href="#DejaVuSans-72" transform="translate(50.269531 0)"/>
     <use xlink:href="#DejaVuSans-65" transform="translate(89.132812 0)"/>
     <use xlink:href="#DejaVuSans-71" transform="translate(150.65625 0)"/>
     <use xlink:href="#DejaVuSans-fc" transform="translate(214.132812 0)"/>
     <use xlink:href="#DejaVuSans-e8" transform="translate(277.511719 0)"/>
     <use xlink:href="#DejaVuSans-6e" transform="translate(339.035156 0)"/>
     <use xlink:href="#DejaVuSans-63" transform="translate(402.414062 0)"/>
     <use xlink:href="#DejaVuSans-69" transform="translate(457.394531 0)"/>
     <use xlink:href="#DejaVuSans-65" transform="translate(485.177734 0)"/>
     <use xlink:href="#DejaVuSans-73" transform="translate(546.701172 0)"/>
     <use xlink:href="#DejaVuSans-20" transform="translate(598.800781 0)"/>
     <use xlink:href="#DejaVuSans-6d" transform="translate(630.587891 0)"/>
     <use xlink:href="#DejaVuSans-6f" transform="translate(728 0)"/>
     <use xlink:href="#DejaVuSans-6c" transform="translate(789.181641 0)"/>
     <use xlink:href="#DejaVuSans-e8" transform="translate(816.964844 0)"/>
     <use xlink:href="#DejaVuSans-63" transform="translate(878.488281 0)"/>
     <use xlink:href="#DejaVuSans-75" transform="translate(933.46875 0)"/>
     <use xlink:href="#DejaVuSans-6c" transform="translate(996.847656 0)"/>
     <use xlink:href="#DejaVuSans-61" transform="translate(1024.630859 0)"/>
     <use xlink:href="#DejaVuSans-20" transform="translate(1085.910156 0)"/>
     <use xlink:href="#DejaVuSans-61" transform="translate(1117.697266 0)"/>
     <use xlink:href="#DejaVuSans-6e" transform="translate(1178.976562 0)"/>
     <use xlink:href="#DejaVuSans-61" transform="translate(1242.355469 0)"/>
     <use xlink:href="#DejaVuSans-6c" transform="translate(1303.634766 0)"/>
     <use xlink:href="#DejaVuSans-69" transform="translate(1331.417969 0)"/>
     <use xlink:href="#DejaVuSans-74" transform="translate(1359.201172 0)"/>
     <use xlink:href="#DejaVuSans-7a" transform="translate(1398.410156 0)"/>
     <use xlink:href="#DejaVuSans-61" transform="translate(1450.900391 0)"/>
     <use xlink:href="#DejaVuSans-64" transform="translate(1512.179688 0)"/>
     <use xlink:href="#DejaVuSans-61" transform="translate(1575.65625 0)"/>
    </g>
   </g>
  </g>
 </g>
 <defs>
  <clipPath id="p178606246d">
   <rect x="90" y="51.84" width="558" height="332.64"/>
  </clipPath>
 </defs>
</svg>
